/* XPM */
static const char *metal_xpm[] = {
/* width height num_colors chars_per_pixel */
"   154    77       46            1",
/* colors */
". c #040204",
"# c #4c4e4c",
"a c #6c767c",
"b c #5c6264",
"c c #848a8c",
"d c #545a5c",
"e c #7c8284",
"f c #646e74",
"g c #3c3e3c",
"h c #444644",
"i c #8c9294",
"j c #4c565c",
"k c #7c7e84",
"l c #646a6c",
"m c #747e84",
"n c #4c525c",
"o c #74767c",
"p c #64666c",
"q c #8c8e94",
"r c #5c5e64",
"s c #84868c",
"t c #6c6e74",
"u c #444244",
"v c #4c4a4c",
"w c #4c5254",
"x c #5c666c",
"y c #848e94",
"z c #545e64",
"A c #7c868c",
"B c #3c4244",
"C c #444a4c",
"D c #8c969c",
"E c #747a7c",
"F c #6c7274",
"G c #4c4e54",
"H c #5c626c",
"I c #848a94",
"J c #545a64",
"K c #7c828c",
"L c #3c3e44",
"M c #44464c",
"N c #8c929c",
"O c #54565c",
"P c #646a74",
"Q c #747a84",
"R c #6c727c",
/* pixels */
"DNDDDDDDDDDDNDNDNDNNiNNiNiNyiyiyqyyyyIyIcIcIcAsAsAAKAKeKememkmmmQEQEEaoaoaaFRFFFftftlfPllllpxpxpxHbbbrbrzrzrJddddOdOOjOjOnwwwwwGwGG#GCGC#CCCCCCCMCMMMhMBhB",
"DDDNDNDNDNDNDDNDiDNDNDiyNNiNNyNyiyqyqyIyIIcIcIAcAsAseAKeKekemkmkEmEQEEoaoaoRFRFFtFtftltlPllplpxpbpbHbbrbrrzrdrdJdddOOOOjOwOwOGwwwGwGGGCGCG#CvCCMCMCCMMMMMM",
"NNDNDNDNDNDNDiDNDNiNiNNDNNyNyqNqyqyqycyIcIcIAIAsAsAKAKKeKkKmkmkEmQQoQoEaoFoaFRtRFftftfPlPpllpxpbpbHbbbbrzrrdrdrdddOddOOwOOwOwwwwGwGwCGwCGGCvCCvCCChCMCBhMB",
"DDiDNDNDNDiDNNNiNNDiNyNiyNiyNyyNyyyIqIIcIcIAIcAsAAseKeKemKmkmkQmEEQEoaEaoaFRoFFtttftltlPlPppxppxbpbHbrrrrzrzrdddJdOdjOOOjwOwwOGwGwGGw#CGGCvCvCCCMMCMhCMCBM",
"iNNNiNiNiNNiDNDNNiNyNiNiNyNyiyqyqIqyIIyIcIcIcAsAsKAKAKeKeekmkmEkQQEEQaooaRoFFtRFFftltflPllllppxpHbpbHbbzrrdrdrOrOddOOjOwOOGOwGwwGwGwCGGCGCCGCCMvCCMCMMhMMB",
"NiNNNNNNNNiNiNiNiNNNiyNyiqyNyqyyyyIyIcIcIAcAsAsAAAseKeKmkmkmkQmEEQEoaEaoRoFRRFtfttftlPtllppxpxpbpbbrbrrbrzrdddddOdOOdOOwOwwOGOGwGGGGwCGGCGCCvCvCMMCMhMBChM",
"iNNiiNiiNiNNiNiNyiyNyNyNyyqyqyyqIqycIcIcIsIsAsAAseKeKeeeKmkmmkQQQoEQooaoFaFRFFRFtftPtlllPplpxpbpbbHbbbrrzrrdrdrdddOdwOOjOwOwwwwGwGwCGGGCGCGCGCCCMCMCMCMMMB",
"NyNiNiNiNiNiyNiyNNyiNyqyNyyqyyqIIIIIcIcAIAcAsAsKAKKeKkmkmkmkQEQEEQaoaoaaoFRFFtftftflPlPllpxppxpbbpbbrbrzrrdrdOJOdOOOOOwOwOwwOGwGwGGw#CGCGCvCCCvMCMMMhMhBMh",
"yNiyNyNyiyNyiNyNiyqyyiyqyqyyyIIIycIcIAsIcAsAsAKAeKeKeeKmkmkmEmQEQoEEaoRoRFRFRtFttltftlPlplppxpbpbHrbbrrrrdrddrOrdOdOdwOwOwOGwGwwGGwCGwCGCGCCvMCCMCMCCBMMMB",
"qyNyiqyNyNyNyyqyyNyqyyqyyyqIIyIycIcIcIAcAsAAAKsKKeKemkmkmkmQkEEQEoaoaoaFFRFFtRftftlPllllpxpxpbbHpbbrrrzrzrdJrOdOOdOjOOOwOwwwOGGwGG#GGCGCGCvCCvCMCCMhMCMBMh",
"NyqyqyNyqyqyqyNyqyqyqyyIqIIyIcIcIIcIAsIAsAsAsAeAKeKkKkKmkmEQEQEQaoEaoaRFoRFRfttftPflPlPplpxppHpbbrHbbzrrzrdrdddddOOdwOwOwwOwGwGwGwCwCGGCGCCGCCCCMMCMMMMhMB",
"yqyqyyqyqyqyqyqyyqyyIyqIyIyIcIIcIsAIcAsAAsAKKKKeeKmemmmkmQkQEQEoEaoaoFoFRFFtFtftftltlllpplpxbpbHbbbrrrzrdrdddJdOdOOOOjOwOwwwwwGwGGGGGCGCGCvCCGMMCMMhMBCBMB",
"yyyyyqyyqyyqyyyqyyyIyIyIIcIcIIcIAIcAsAsAsKAeAKeKekKmkkmQkmQEQEoQaooaoaFRFRtFttftPlPllPplpxpxpbpbbHrbzrrrrdrdrOddOdjOwOwOwwOGOGwGw#GGCGCGCCGCCMCCMChCMMMhMB",
"IqyqyyqyyyqyyqIIIIqIIIIcIIcIccIscAsAsAAAKAsKeeKekmekmmkmEEEQEEoaoaoaRFoFFFtftftltlPlPplpxpxpbbbHbrbrrzrdzddddddOOOOOOwOwO#wGGwGGGCw#GCGCvCCvMCMCMMMMBCBMBM",
"IyIIIIIIIIIIIIyIyIIIyIcIccIcIcAIAsAsAAsKsKKeKeKmeKmkmkEmQQQEQaoEaoaRoFRFRtRFtftfltlPlplxpppbbpHbbbrbrrzrdrdrJOdOdOdwOwOwwwOwwGwwGwCGCGCGCCGCCCvMCMCMMhMhMB",
"IIIyIyIyIyIyIyIcIcIccIcIcAIAcAsAsAsAsKKAeKeKekKkkmkmkmQkEEEQoEoaoaoFRFRtFftftftlPlllplppxxpbpbbbrHrzrzrdrddOddOOOjOOwOwOwwGwGwG#GGGCwCGCvCCMvMCMMMhMBMBMBh",
"cIcIcIcIcIcIcIcIcIcIcIcIAscsAIAsAAsAKAKeKeKkeKmemkmkQmQEQEQoEoaoaoFRRFFRtFttltPltPpPlppxppbpbHbHrbrrrrdrdrOrdOddOdwOjOwOGOwwGwGGwCGGvGCGCCvCCCMCMCMhCMMhMB",
"IcIcIcIcIcIcIcIcIcIAIAcAIAAsAsAsAsKAKseKeKeKmkkmkmmQmkEQEEoaEaoaaRaoFFtFftftfPtllllppxppxbpbbbbbrrzrzrdrdddOdOdOOOOwOwwO#wGwGwG#CwCGCCvCvCCCMCMCMMMBMBhBMh",
"IAccIcIcIcIcIccIAIAscsAsAIsAsAsAAKAeKeKeKemkemkmmkQkEQEEQoQoaoaoFoFFFRtRttftltllPlPllppxppbHbpHrbbrrrdrddrddOdOOOjOOwwOwwwwGwGGwGGGCGCGCCCvCvMCMhCMMhMMMBB",
"csAIAsAsAsAAsAsAcsAIAAsAsAAAAAKKsKKKeKeKkeKmkmkmkQmEQEQoEaoaoaoRRFRFRtfFftftPlPlPlppxpxpbbHprrbrrzrzrdrdrOOddOOjOwOwOwO#OGwGwG#CwCGGCGCGCGMCMCMMMMBCBMBMhB",
"IAsAIAIsIAsIAIAIAsAsAsAsAsAsKsAKeAeeKeKemkmkmkmkQmEQEQEaQoEaoaFoRFRtFFtttftlfltPplplppxpHpbbbbrbbrzrrdrdOdddOdOOOOwOwOwwGwGwGGwGGGCGCvCvCCMCCMCMCMhMMhMBMB",
"sAsAsAsAsAsAsAsAsAsAsAAAKAKKKeKeKeKeekmKkmkmkmQmEQEQEEoEaoaoaoRFaFFRttftftltlPlpllpxpxpbxbpbHrbrrrrdzdrdrOdOdOjOjOwOwwwOGwwGGGCwGCGCGCCCGMCCMCMMhMBMBMBhBu",
"sAAsAsAAAsAAsAAsAAAAAsKsKKsAeKKeKeeKkKmkmkmkmmQEkEQEoQaooaoaRFoRFRFFfFtftftlPlPlplpxpbpbpbbrbrbrzrzrdrdOddOdOOOOOOwOwOwwwwGwGwGGGCGGCGCGCCMvCMMCMMCMMBMuMB",
"AAsAAAAsAAAsAAsKAsKKAKKKeKeKeKeKekkmmemkmmkQmkEQEQEEoEoaoaoRoFRFFttRtftfftlPtllpPpxpxpbbHbHbbrrzrzrdrddrOddOOjOwOwOwO#wGOGGGw#CGCGCCvCvMCvCMMMCMhBMhhMBMBu",
"KKAKKsAKKsAKAKKAKKKKKeAeKeKkKeeekKmKmkmkmkmQEEQEQEoQaoaoaoFaFRFFRFFtfttltlllllplpxpppbpbpbbrbrbrrrdrdrdddOdOdOOOwOwOwGOwGGwGwCwGGCGGCGCCMCMCCMMMMCBMBMBMBB",
"eAeKKeKKKKKKeKAeKAeeKeKeKeeKkmkmKmkmkmkmQmEQQEQEooQaooaoaRoFRFRFttfttfftlPPlpPppxppxbxbHbrbbrzrzrdrddddOddOOjOwOwOwwwOGwGwGGGGGC#CGCCCvCGMCMMCMhMMMhBMhBuB",
"eKeKeKKeKeeKeKeKeeeKeKeKeKmemkKkmkmkmkQQkEkEEQoEQEaEaoaFoaRFRFFRftFftftPltlPlllxppxpbpbpbHbrbrrzrzdrdrdJOdOdOOOOwOwOwwwwGwG#wCGGCGCvCGCCMCMCMhMMCBMBMBMBMB",
"KeKeKeeKeKeKeKeKeKeKekkkmekmKmmkmmkQQmEQEQEQEEoQaooaoaoRFFFRFFtFtftftlllPllpppppxpxbpbbrbrbrrzrrdrdddOddOdOjOwOwOwO#wGwGwGGGCwGCGCGCvCCvCMCCMCMhBCMhBMBuBu",
"kkKeeKeKeeKeKkKkkkkkKmKmkkmkmkkmmkEmmEkQEQEQoQaoaoaoaaFoFRRFFRtFfttltPtfllPllxlpxpbpbpbHbrbrzrrdrdrdrddOdOOOOdwOwOwwGOwwGw#wGGCGCGCGCCCMCMCMMMMMMhMBMMBMBB",
"KmekmekekKmememKmKmemkmkmmkmmmmkQQmkEEQEQoEoaEoEaoaaoFRRFFFRttfttfftllllPlppppxpxpbbHbbrbrrrrzrzdrOddOddOOjOwOwOwwOwwGGGGGCGCGG#CGCCvCvCMCMMChMBMBMMBhBuBu",
"ekmKkmkmkmkkkmkkmkmkmkmkmkmkmkQQEQEEQEQoEEaQoaoaoaoFRFoRFRFtFtFftPtfPltPplplxppxpbbpbHbHrbzrzrrdrdddJddOOdOOOjOwOw#OwwGwwGwGwCGCGCCGCCMCvMCMMMhCMMBMBuBMBB",
"kmkmkmkmkmkmkmkmkmkmkmmkmQmQQEEmkEQEQEEoQooaooaaRoFRoFFFFttFftftftlltllplPpppxpxpbpbbrbrbrrrzrdrddrOdOOOdjOwOwOwwOGGwGwG#GCGCG#CvCvCMGMCMCMMCMBMBMhBMBMBuB",
"mkmmmkmmkmmkmmkmmkmmmkQmQkQEkQEQEEQoEooEaEaoaoaoFaRFFRtRtRtfttftPltPllPllplxpxpbpHbbHbrbrrzrdrddrddOdddOOOOOwOwOwwwwwGwGGGGGGGCGCCGCCMCMCMChMhCMMBMMBuBuBB",
"QQQkQmkmmkmmkQQmkQQkEQEQEQEQEEQEoQoEoaQaoaoaaaoFRoFRFFFtFfttfftlftllPplppxpxpxpbbbprbrbrrrzrzdrdddddOOOjOjwOwOwwOGwOGwG#GCwC#CGCGCCvCCCMCMMMMBMBhMBhBMBMBu",
"EkmEkQQkQQkQQEkQEEQEmQkEQEQEEQoEQoEaQaoaoaoaoRFRRFFFRtRftFftftltllPllPlxppxpbpbbpbbHrbrbzrrdrrddrOdOdOdOOOOwOwOwwwGGGGwGwGGGCGCvCCvCCMvCMMCMhMMMMBuMBuBuBB",
"QEQEQEQEQEQEmQEQmEQEQEEQEEQEoEaQaoaooaoaoRRFFoFRFFRFtFtFftftlPflPlplppppxpxpbxpbbbrbbrrrrzrzdrddOdJOdOOjOwOwOwwOGwwGwG#CGCGCGCGCGCCMvCMMMCMhBCBhBMBMBMBBuB",
"EQEQEQEQEQEQEEQEEEQEEQEEQEoQaQooEaoaoaoaFoaoRFRFFRtFftftftftltltlPlPplxppxpbpbbHbHbrbzrzrdrdrddOrdOdOjOdwOwOwwOwGwGwGGwGwC#GCGCvCMGCCMCCMMMMMMMBMMBMBuBuBB",
"QEEQEEQEEQEEQEQEQEEQooaooaoaooaoaoaaaoRFoFFFRFFFttFttftftPtlPllplpplpxppxpbHbpbbrbrbrrrzrzdrddrOdOdOOOOwOOwOwO#wO#wGGwCGGGCGCGCCvCMCMCMMMChBChMMBhBMBBuBBB",
"EaoEoEoQoEoQoEoEoooEaEoQaoEoaoaoaoaoRFoRFRRRFtRtRttfttftltPltlPlPllpxppxpxbpbbbHbrbrrrzrrdrOrdOdOdOdOjOOwOjwOwwGGwGwGGG#GCGCGCCGCCvCMCMChMMMMBhBMBMBuuBBuL",
"oQaoaoEaEoaEoaoaoaQaoaoaoaaoaaoRRoFFRFRFRFFFFtFtfFftftftlPlPlPlpppplpxxpbpbbHbrbrbrrzrzrdrddddddOdOOOOwOwOwwwwOGwGwG#CwCGGCGCvCCCGMCMCMMMMBCMMBMhBuBBBuBBB",
"oaoaQoaooaEaoQaooaoaoaoaoaoaoaFoaRFoaRFRFFRttRfttftftltfPltlllplllxpxpxpxbHbpHbrbrbrzrrdzddrdOdOdOOjOjOwOwO#OwGwGwGGGwGGGCGCGCCvCMCMCMMChMMMhBMMBMBuMBuBuL",
"oaoaoaoaaoaoaoaoaoaoaoaaoRFRFoFRFFRFFFFFttFtFttftftfltlllllpPplppxppxpbbpbbbrbrbrrzrrzdrdrddOddOOOOOOOwOwwOwGwwGwGGwCGCGCGCGCvCCCCMvMMCMMBCBMMBhBuBBBuBBBB",
"FoaoaaaoaoaoaaoaaoRoaRoFFoRoRFRFRFFRtRttFRtfftftftltflPltlPlplppxppbpbbpbbHbbrbrzrrzrdrdrddddOdOdjdwOwOwOw#OwwGwGwG#GGwCGCGCvCCMvCCMCMMhMMhMhBMBMBMBMBBuBL",
"aRaFaoRoRRoRoFaFoFaFRoFRaFFFRFFRFFFFtFtftfttftfftlPlPtlPpplplpxpxpxpbpbbbprbrbrrrzrzdrdddOrOOdOOOOOjOwOwwOwGwwGwG#GCwCG#CGCCCGCGMMCMMMCMBCBMBMuBMBuBuBuLBB",
"RFoFoRFFoRFRFRoFRRFRFFFRFFRFFRFFRttRttFfttfftfltPltPllpllplpxppxpbpHbHbHbrbrbrbzrrdrdrdOrdOdOdOdOOwOwOwOwwwwwGwGGwGGGGCGCvCvCCCMCMCMCMMhMMMhMMBMBuBBuBLBBL",
"RFRFFFRRFFaFRFFRFRoFRFRFRFFRFtFtFttftfttfftftltllPllPlPplppppxpxpbxpbpbbHrbrrzrrzrzdrddrOOdOdOOjOjOOwwOwwOGwGwGG#CwCGCGCGCGCCvMCCMCMMMBCBMBuBMBuBMBMLBuBLB",
"RFtRFRFFFRFFFRFRFFtFRFtFtttttRttfFftftftftltlPlPllPllpplxlxpxpbpbpbbbrHrbrbzbrzrdrdrdddOddOdOdOOwOOwOwwOwGwGwGwGwGGGC#GCGCCvCCCvMCMChCMMMMBMBMBMBuBBuBLuBL",
"tFRFtFRFFFFRFFFtRFtFtFtRtFtfFftfttftftfltlflPtllPllplplppxpxpxpbHbprbbbrbrrrrzrrzdrddrOddOdOOjOOOwwOwOw#wwO#GGG#GCGCGCGCCvCCCvMCMCMMMMBhBMMhBMBuBBuBBBBBLB",
"fFtFtFtttttttttFtFtRfttftfFtfttftftftltfPltlllPlllpPpxpxppxpbpbbpHbbbHrbrbzrzrdrdrdrOdddOdOOOOjOwOwOwwGOwGGwGwGwCGGGGCGCvCCvCMCMCMMMMhMMhMBMBuBuBMBBuLuLBL",
"ttfttttRtRtFtfRftftftfttftftftftfltlPllltlPlPlllpPppppxpxpxpbHpbbbrHrrbrrrrzrzrdrdOdddOdOOdjOjOOwOwwOwwGwGwGG#GCwGC#CGCvCCGMCMCMMMChBCBMBMuBMBMBBuBLBBBLBL",
"tfttfftfftffttftttftftftftftftPltflPltPPlPlplpplpplxpxppxpbbpbbHbHbbrbrrrzrzrdrdddrdOddOdOOOwOOwOwwOw#OwwGwGGGGwCGCGCvCCGCMCCCMCCMMMMMCBhMBMBuBuBBuBuLuLBL",
"ftffttftftftftftfftftftfftlltlftlltlPlllplpPplppxpxpxpxbpbbpbbbrbrrbrrzrzrzdrddrddOddOdOOjOOOwwOwOwwwGGGwGG#GCwGGCGCGCGCCCvCMMCMMMhBCuMMBMBMBMBBMBBBBBLBLL",
"ltftffftftftfftfPtltltltlltPlPlllPlPlllPplplppxpxppxpbpHbpHbbHbHrbbrbrrzrrdrdrdddOddOdOdOOjOwOOwwwOGOwwwGwGwGwCGCGCGCvCCvCMCMCMMMMCMMBMBMBMBuBuBuBLuBLBLBg",
"PlPtltlltltltlltlflPlPlPlPllPtlPlplplpplpppxpxppxpxpbxpbbbbbprbrbrrrzrzrzdrdrOdrOdOdOOOjOjOOwOwOwwwwGwGwG#GCG#GCGCGCCCvCMCCMCMMCMhBMMhBMhBMBMBBuBLuBLBuLLL",
"ltllPltlPlPlPltPltltlfPlltlPlplplPlpPpPpplxpppxpxpbbpbbrpbHbrbrbrrrrzrrdrdrddddOddOdOdOdwOOwOwwwwOGwwGwGGwGwCGC#GCvCvCCGCMvCMCMhMMCBMBMMBMBuBBuBBBBLBLBLBg",
"lPlPllPlPlPllPlllPllPtllPplllPplpplpppxpxppxxpxpbpbpbbpbrbrrbrrrrzrzrzrdrddrOdrOOdOOOjOOOwwOwOwOw#wO#wGG#GCwGCGCCGCCGCCMCMCMMMMMhBMMhBMBhBuBuBBBMLuBLBLLLL",
"lllllPlPllPlPllPplpllppllplplplplpplxpxppxxppbpbpbHrbHbrbHbbrbzrzrrzrdrddrdddOdOdOOdOOjOwOOwOww#OwwGGGGwGGwCGGCGGCCvCCCMvCMCMCMMMMhMBMMBuBMBuBuBLBBLuLBLBg",
"lpPlPllllPlllPplPlpPpllpPplpppxpxpxppxpxpxpbxbbbbbpbbbbHrrrrrrrzrzrdrddrOdOdddOdOOdjOjOOwOwwwOwwGGGwGw#GCG#GCGCGCGCCCvCCMMCMMMhBCBMBMBhBMBBuBBBuLBLBLBLgLL",
"PplppppppppppplplplplppppppxlxpppxpxxpxpbpbpbpbpHbrHrbrrbrbzrzrrzrdrdrdOrdOrOOdOdjOOOwOwOwwOww#OwwGwGGGGwCGCGCGCCCCGCCMCMCMMCMMMMCBhMBMBuBuBBMBLBuBLBLLBLg",
"pppplplplplplppppppxpxlxxpxppxpxxpbppbbpbbbbbbHbrbbbrHrbrzrrzrzrdrdddddddOdOOdOOOOjOwOwOwOwwO#wGGwG#G#CGGGCGCGCvCvCMCMCMCMMMhMBChBMMBMBuBuBuBLBuBLLBLLgLLg",
"pxxpxpxpxpxpxpxpxpxpppxppxpxpxpxpbpbbpbbHbpHrprbbHrrbrrzrrrzrzrdrdrdrdrdddOdOOdjOOwOOwOwwwOwwGwwGwGwGGwCGC#GCvCCvCCvCMvCMMCMMMhMBMMBMBMBMBBBBuLBLBLBLBLBLg",
"xppxpxpxpxpxpxpxpxpxxpxpxpxpbpbpbHbHpbHprbbrbrbrrbrbrrrrzrzrdrddrdOddOOdOOdOdOOOjOOwwOwOwwGwGwGwGG#GCwGGCGCCGCGCCCvMCMCMMMMhBCBMhBhBMBuBBuBMLBBuLBuLLgLgLL",
"xpxpxpxpxpxpxpxpxpxpbpbpbbpbbbbbpbpbbbbbbbHbHrbbrrrrzrzrrdrdrddrddrdOdddOdOOjOjOOwOwOwOw#OwGOwGwGwGGG#GCGCGGCvCCGMCCMCMCMCMMMMMMBMBMBuBuBMBBLuBLBLLgBLBgLg",
"bpbpbpbpbpbpbpbpbpbpbxpbHpbHpHprbbbHbrHrbrrrbrrrbzrzrrzrzrddrdrOddOddOOdOOOOOjOwOwOwwO#wOGGwGGGG#GCwCGCGCGCCCCvCMCCMCMMMMhBCBhBMhBMBuBBuBBuLBBLBLBLBLgLLgL",
"pbbbbpbbpbbpbbpbHbbbpbbpbbbbbbbbbHbbHbrbrbbrrrbzrrzrrzrdrddrddddddddOdOOdOOjOwOOwOwwOwwwGwwwGwGwGG#GGCGC#CGCGCCvCMvCMCMCMMMhMMMBMBuBMBMBuBLBuLLuBLLLBLgLLg",
"bbpbbbbpbbpbbpbbpbpbbHbbHbprbrHrHbrrrbrbrrrbzrzrrzrzdrdddrddrOddOdOOdOOdjOjOOOwwOwOwwwOGwGGw#GG#CwCGCGGCGCvCCvCCCMCMMMMMhBCBMBMhBMBMBuBBBBuBBLBLLLBgLgLLgL",
"bHbbpbHbbHbbHrbHbbrbHbrbrbrbHbbrbrbbrrrrbrrzrzrrzrdrdrdrdOrOddOdJOdOOOjOOOOOwwOwOwwwOwGwGwwGGwGGGGC#GCGCvCCvCCMCMCMCMChMMMMMBhMBMBuBuBBMLuLBLuBLBgLLgLLgLg",
"bbrHrbrHrbrHbbHrbHbbrbHbrHrbrrbrrrrrbrzrzzrrzrddrdrdrdddrdddddOdOOOdOOOjOwOwOOwwwOww#wwGwGGG#GCwCGGCGCvCCGCCCGMCvMMMMMMBCBMhMBMBMBMBBuBLBBuLBLLLLLBgLLgLgL",
"rbrbrbrbrbrbrrbrbrrHrbrrbrbrbrrbrbrrrzrzrrzdrdrrddrddOrdddOdOOdOOdOOOjOOwOwOwwwOw#OGwwGwGwGwCGwCGGCGCGCCvCCvCMCMMMCMCMhMMCBMBMBMBuBBuBuBuLBBLBBgBLgLLgLgLg",
"rbrbrbrbrbrbrbrbrbrrrrrbrrrzrrzrzrzzrrzrzrrdrdddrdddrdOdOddOddOOdOjOjOOwOwOwOwOwwwGwGwGGG#GGGGCG#CGCGCGCCCvMCMCMCMMMMBCBMBMhBMBuBMBuBBBBBBLBLBLLLgLgLLgLgL",
"zrrrrrrrrrrrrrrrrrrbrbrrrzrrzrzrrzrrzdrdrddrddrddOrddOddOdOdOOOOOOOwOOwOwOwwww#OwGOGwGwGwGG#GCGGCGCGCvCCvCCCMCMCMMCMhMMMMhMBMBMBuBBuBLuLuBLuBLBLBLgLLgLgLg",
"rrzrzrzrzrzrzrzrzrzrzzrzrrzrrrzrdrdrdrdrdrdddrddddOdOdOdOdOOOOOjOjOOwwOwOwwOwO#GwGGwGGG#G#CwCw#CGCvCCCvCCMCMCMCMMMMBCBMBhBMBhBuBBuBBBuBBLLBLLLgLgLLgLgLgLg",
"rzrrzrrzrrzrrzrrzrrzrrzrzzrzdrdrdrddrdrddddrdddOrddOdOdOOOdOOjOOwOjwOwOwwOwOwGwwGwwGGwGwCGwCGGCGCGCCvCCvCCMCMCMMChMhMMhMBMBMBMBMBuLMBBLBLuLBLBLBLLgLLgLgLg",
"zrzrzrzrzrzrzrzrzrzrzrdrdrdrdzrddrdrddddrOddOJddOOOdOOOOdOOjOOjOjwOOwOwwww#GwwwGwG#Gw#GGGCGGCGCvCCvCCCCMCvMCMMMMMBCBMBMBMuBuBuBBuBBBuLBLBLBLLgLgLgLgLgLgLg",
"rdrdrdrdrdrdrdrdrdrdddrdrdrdrddrJdddOrJOddddddOOdOdOdOdOjOjOOwOwOwOwwwwOwOwGOGwGwGwGGGCGCGGCGCGCCvCvCGCCMMCMCMCMMMMMhMhMBMBMBMBuBBuBLBLuLBLBLBLLLgLLgLgLgg",
"drddrddrddrddrddrdrdrddrdddddrOddrdddOddrOOOdOddOOOOOOjOOjOwOjOwOwwwOwww#Gww#GGGGG#GCwGGCGCGCGCvCGCCCMCMCCMMMMMhBCBMBMBuBMBuBBuBBuBLuBLBLLLgLgLgLLggLgLgLg",
"ddrddrdddrddrddrdddddrddOrdrddddOdOJdddOOOdOdOOOdjOOjOOOwOOwOwOwwwwO#OwGOwGwGwGwGwCGGCGCGC#CvCGCCCMvCCMvMMCMCMCBMhMhMBMBMBMBuBBuBLBBBLBLBLBLBLgLgLgLgLgLgg"
};
