/* XPM */
static char * down_xpm[] = {
"16 16 4 1",
" 	c None",
".	c #414441",
"+	c #F6F6F6",
"@	c #A4A1A4",
"                ",
"                ",
"  ............  ",
"  ..........++  ",
"   ..@@@@@@++   ",
"   ..@@@@@@++   ",
"    ..@@@@++    ",
"    ..@@@@++    ",
"     ..@@++     ",
"     ..@@++     ",
"      ..++      ",
"      ..++      ",
"       .+       ",
"       .+       ",
"                ",
"                "};
