/* XPM */
/* Drawn  by Mark Donohoe for the K Desktop Environment */
/* See http://www.kde.org */
static char*make[]={
"16 16 7 1",
"# c #000000",
"b c #ffffff",
"e c #000000",
"d c #404000",
"c c #c0c000",
"a c #ffffc0",
". c None",
"................",
".........#......",
"......#.#a##....",
".....#b#bbba##..",
"....#b#bbbabbb#.",
"...#b#bba##bb#..",
"..#b#abb#bb##...",
".#a#aab#bbbab##.",
"#a#aaa#bcbbbbbb#",
"#ccdc#bcbbcbbb#.",
".##c#bcbbcabb#..",
"...#acbacbbbe...",
"..#aaaacaba#....",
"...##aaaaa#.....",
".....##aa#......",
".......##......."};

