/* XPM */
static char *magick[] = {
/* columns rows colors chars-per-pixel */
"22 22 4 1",
"  c Gray100",
". c #848284",
"X c Gray0",
"o c none",
/* pixels */
"oooooooooo..oooooooooo",
"oooooooooo.. ooooooooo",
"oooooooooo.. ooooooooo",
"oooooooooo.. ooooooooo",
"oooooooo......oooooooo",
"oooooooo...... ooooooo",
"ooooooooo....  ooooooo",
"oooooooooo..  oooooooo",
"oooo..oooo.. ooo..oooo",
"oooo...oo....oo... ooo",
"......................",
"......................",
"o   ...  ....  ...    ",
"oooo..  oo..  oo.. ooo",
"ooooo  ooo.. oooo  ooo",
"ooooooooo....ooooooooo",
"oooooooo......oooooooo",
"oooooooo...... ooooooo",
"ooooooooo ..   ooooooo",
"oooooooooo.. ooooooooo",
"oooooooooo.. ooooooooo",
"oooooooooo.. ooooooooo"
};
