/* XPM */
static char *magick[] = {
/* columns rows colors chars-per-pixel */
"22 22 4 1",
"  c Gray100",
". c #848284",
"X c Gray0",
"o c none",
/* pixels */
"ooooooo.ooooo.oooooooo",
"ooooooo. oooo. ooooooo",
"ooooooo. oooo. ooooooo",
"ooooooo. ooo.. ooooooo",
"ooooooo..ooo.  ooooooo",
"oooooooo. oo. oooooooo",
"oooooooo..o.. oooooooo",
"ooooooooo...  oooooooo",
"ooooooooo... ooooooooo",
"oooooooooo.  ooooooooo",
"oooooooooo. oooooooooo",
"ooooooooo.o.oooooooooo",
"oooooooo.. ...oooooooo",
"ooooooo.o. .  .ooooooo",
"oooooo.o . . oo.oooooo",
"ooooo.o o. . ooo.ooooo",
"oooo.o oo. . ooo. oooo",
"oooo. ooo. o.ooo. oooo",
"oooo. ooo. o. o.o oooo",
"oooo. oo.o oo..o ooooo",
"ooooo...o oooo  oooooo",
"oooooo   ooooooooooooo"
};
