/* XPM */
static char *magick[] = {
/* columns rows colors chars-per-pixel */
"22 22 4 1",
"  c Gray100",
". c #848284",
"X c Gray0",
"o c none",
/* pixels */
"oooooooooooooooooooooo",
"oooooooooooooooooooooo",
"........oooooooooooooo",
".      ..ooooooooooooo",
". ....o. .oooooooooooo",
". o    . o.ooooooooooo",
". ....o.........oooooo",
". o    ..      ..ooooo",
". .....o. ....o. .oooo",
". o     . o    . o.ooo",
". .....o. ....o. oo.oo",
". o     . o    ......o",
". .....o. ....oo    . ",
". o     . o    ooooo. ",
". .....o. .........o. ",
". o     . o         . ",
"......... .........o. ",
"o       . o         . ",
"oooooooo. .........o. ",
"oooooooo. o         . ",
"oooooooo............. ",
"ooooooooo             "
};
