/* XPM */
static char *magick[] = {
/* columns rows colors chars-per-pixel */
"22 22 4 1",
"  c Gray100",
". c #848284",
"X c Gray0",
"o c none",
/* pixels */
"oooooo..........oooooo",
"oooooo.        . ooooo",
"oooooo. ooooooo. ooooo",
"oooooo. ooooooo. ooooo",
"oooooo. ooooooo. ooooo",
"oooooo.......... ooooo",
"ooooooo          ooooo",
"oooooooooooooooooooooo",
"oooooo..........oooooo",
"oooooo.        . ooooo",
"oooooo. ooooooo. ooooo",
"oooooo. ooooooo. ooooo",
"oooooo. ooooooo. ooooo",
"oooooo.......... ooooo",
"ooooooo          ooooo",
"oooooooooooooooooooooo",
"oooooo..........oooooo",
"oooooo.        . ooooo",
"oooooo. ooooooo. ooooo",
"oooooo. ooooooo. ooooo",
"oooooo. ooooooo. ooooo",
"oooooo.......... ooooo"
};
