/* XPM */
static char *magick[] = {
/* columns rows colors chars-per-pixel */
"22 22 4 1",
"  c Gray100",
". c #848284",
"X c Gray0",
"o c none",
/* pixels */
"ooo.ooo.oooooo.ooo.ooo",
"ooo. oo. ooooo. oo. oo",
"ooo. oo. ooooo. oo. oo",
"......................",
"o  .   .      .   .   ",
"ooo. oo. ooooo. oo. oo",
"ooo. oo. ooooo. oo. oo",
"......................",
"o  .   .      .   .   ",
"ooo. oo. ooooo. oo. oo",
"ooo. oo. ooooo. oo. oo",
"ooo. oo. ooooo. oo. oo",
"ooo. oo. ooooo. oo. oo",
"ooo. oo. ooooo. oo. oo",
"......................",
"o  .   .      .   .   ",
"ooo. oo. ooooo. oo. oo",
"ooo. oo. ooooo. oo. oo",
"......................",
"o  .   .      .   .   ",
"ooo. oo. ooooo. oo. oo",
"ooo. oo. ooooo. oo. oo"
};
