/* XPM */
static char *magick[] = {
/* columns rows colors chars-per-pixel */
"22 22 4 1",
"  c Gray100",
". c #848284",
"X c Gray0",
"o c none",
/* pixels */
"oooooooooooooooooooooo",
"oooooooooooooooooooooo",
"oooooooooooooooooooooo",
"oooooooooooooooooooooo",
"oooooooooooooooooooooo",
"oooooooooooooooooooooo",
"......oo......oo......",
".    . o.    . o.    .",
". ooo. o. ooo. o. ooo.",
". ooo. o. ooo. o. ooo.",
". ooo. o. ooo. o. ooo.",
". ooo. o. ooo. o. ooo.",
". ooo. o. ooo. o. ooo.",
". ooo. o. ooo. o. ooo.",
". ooo. o. ooo. o. ooo.",
"...... o...... o......",
"o      oo      oo     ",
"oooooooooooooooooooooo",
"oooooooooooooooooooooo",
"oooooooooooooooooooooo",
"oooooooooooooooooooooo",
"oooooooooooooooooooooo"
};
