/* XPM */
static char *magick[] = {
/* columns rows colors chars-per-pixel */
"22 22 4 1",
"  c Gray100",
". c #848284",
"X c Gray0",
"o c none",
/* pixels */
"oooooo..ooooo..ooooooo",
"oooo..o. oooo. ..ooooo",
"oo..o  o.ooo.o o ..ooo",
"..o  ooo. oo. oooo ..o",
".  oooo.. oo..oooooo. ",
". ooo..o  ooo ..oooo. ",
"o.o..o  ooooooo ..o.o ",
"o..o  ..ooooo..oo .. o",
"oo  ..o. oooo. ..oo  o",
"oo..o  o.ooo.o o ..ooo",
"..o  ooo. oo. oooo ..o",
".  oooo.. oo..oooooo. ",
". ooo..o  ooo ..oooo. ",
"o.o..o  ooooooo ..o.o ",
"o..o  ..ooooo..oo .. o",
"oo  ..o. oooo. ..oo  o",
"oo..o  o.ooo.o o ..ooo",
"..o  ooo. oo. oooo ..o",
".  oooo.. oo..oooooo. ",
". ooo..o  ooo ..oooo. ",
"o.o..o  ooooooo ..o.o ",
"o..o  ooooooooooo .. o"
};
