/* XPM */
static char *magick[] = {
/* columns rows colors chars-per-pixel */
"22 22 4 1",
"  c Gray100",
". c #848284",
"X c Gray0",
"o c none",
/* pixels */
"oooooooooooooooooooooo",
"ooooooo.....oooooooooo",
"oo......   ......ooooo",
"o......  ooo......oooo",
"....... ...o.......ooo",
".....   o   o ..... oo",
"..... oooooooo..... oo",
"................... oo",
"................... oo",
"................... oo",
"................... oo",
".........       . . oo",
"......... .....o. o.oo",
"......... o     . oo.o",
"......... .....o. ooo.",
"......... o     ......",
"......... .....oo    .",
"......... o     ooooo.",
"......... ..........o.",
"......... o          .",
"o       ..............",
"ooooooooo             "
};
