/* XPM */
static char *magick[] = {
/* columns rows colors chars-per-pixel */
"22 22 4 1",
"  c Gray100",
". c #848284",
"X c Gray0",
"o c none",
/* pixels */
"oooooooooooooooooooooo",
"o....................o",
"o....            .  . ",
"o.... ooooooooooo. o. ",
"o.... ooooooooooo.... ",
"o.... ooooooooooo.... ",
"o.... ooooooooooo.... ",
"o.... ooooooooooo.... ",
"o.... ooooooooooo.... ",
"o.... ooooooooooo.... ",
"o.... ooooooooooo.... ",
"o.................... ",
"o.................... ",
"o.................... ",
"o.................... ",
"o.............   .... ",
"o............. oo.... ",
"o............. oo.... ",
"o............. oo.... ",
"o............. oo.... ",
"o.................... ",
"oo                    "
};
