/* XPM */
static char *magick[] = {
/* columns rows colors chars-per-pixel */
"22 22 4 1",
"  c Gray100",
". c #848284",
"X c Gray0",
"o c none",
/* pixels */
"oooooooooooooooooooooo",
"oooooooooooooooooooooo",
"oooooooo..oooooooooooo",
"ooooooo...oooooooooooo",
"oooooo....oooooooooooo",
"ooooo.....oooooooooooo",
"oooo... ..oooooooooooo",
"ooo...o ..oooooooooooo",
"oo...oo ..............",
"o...ooo ..............",
"...oooo             ..",
"...oooooooooooooooo ..",
" ...oooo..............",
"  ...oo ..............",
"o  ...o ..           o",
"oo  ... ..oooooooooooo",
"ooo  .....oooooooooooo",
"oooo  ....oooooooooooo",
"ooooo  ...oooooooooooo",
"oooooo  ..oooooooooooo",
"ooooooo  ooooooooooooo",
"oooooooooooooooooooooo"
};
