/* XPM */
static char *magick[] = {
/* columns rows colors chars-per-pixel */
"22 22 4 1",
"  c Gray100",
". c #848284",
"X c Gray0",
"o c none",
/* pixels */
"oooooooooooooooooooooo",
"oooooooooooooooooooooo",
"oooooooooooooooooooooo",
"oooooooooooooooooooooo",
"oooooooooooooooooooooo",
"ooooo......ooooooooooo",
"ooo..........oooooo.oo",
"ooo..      ....ooo.. o",
"oo..  oooooo ...o... o",
"oo.. ooooooooo...... o",
"oo.. oooooooooo..... o",
"oo.. ooooooooo...... o",
"oo.. oooooooo....... o",
"ooo..ooooooo........ o",
"ooo...ooooooo        o",
"oooo...ooooooooooooooo",
"ooooo   oooooooooooooo",
"oooooooooooooooooooooo",
"oooooooooooooooooooooo",
"oooooooooooooooooooooo",
"oooooooooooooooooooooo",
"oooooooooooooooooooooo"
};
