/* XPM */
static char *magick[] = {
/* columns rows colors chars-per-pixel */
"22 22 4 1",
"  c Gray100",
". c #848284",
"X c Gray0",
"o c none",
/* pixels */
"oooooooooooooooooooooo",
"oooooooooooooooooooooo",
"oooooooooooo..oooooooo",
"oooooooooooo...ooooooo",
"oooooooooooo....oooooo",
"oooooooooooo.....ooooo",
"oooooooooooo.. ...oooo",
"oooooooooooo.. o...ooo",
".............. oo...oo",
".............. ooo...o",
"..             oooo...",
".. oooooooooooooooo...",
"..............oooo... ",
".............. oo...  ",
"o           .. o...  o",
"oooooooooooo.. ...  oo",
"oooooooooooo.....  ooo",
"oooooooooooo....  oooo",
"oooooooooooo...  ooooo",
"oooooooooooo..  oooooo",
"ooooooooooooo  ooooooo",
"oooooooooooooooooooooo"
};
