/* XPM */
static char *magick[] = {
/* columns rows colors chars-per-pixel */
"22 22 4 1",
"  c Gray100",
". c #848284",
"X c Gray0",
"o c none",
/* pixels */
"oooooooooooooooooooooo",
"oooooooooooooooooooooo",
"oooooooooooooooooooooo",
"oooooooooooooooooooooo",
"oooooooooooooooooooooo",
"ooooooooooo......ooooo",
"oo.oooooo..........ooo",
"oo..ooo....      .. oo",
"oo...o...   oooooo..oo",
"oo......  oooooooo.. o",
"oo.....  ooooooooo.. o",
"oo......oooooooooo.. o",
"oo.......ooooooooo.. o",
"oo........ooooooo..  o",
"ooo        ooooo... oo",
"ooooooooooooooo...  oo",
"oooooooooooooooo   ooo",
"oooooooooooooooooooooo",
"oooooooooooooooooooooo",
"oooooooooooooooooooooo",
"oooooooooooooooooooooo",
"oooooooooooooooooooooo"
};
