/* XPM */
static char*kcmclock[]={
"34 34 10 1",
"% c none",
". c #f8fcf8",
"# c #787878",
"a c #000000",
"b c #b8bcb8",
"c c #0000f8",
"d c #780000",
"e c #f80000",
"f c #000078",
"g c #787800",
"%%%%%%%%%%%%%%%%%%%%%%%%%%%%%%%%%%",
"%%%############%############a%%%%%",
"%%%#..........ba#...........#a%%%%",
"%%a#..........ba#...........#baa%%",
"%%a#....cc....ba#....ccc....#b#aa%",
"%%a#...ccc....a.ba..ccccc...#b#aa%",
"%%a#...ccc....aaaa..cc.cc...#b#aa%",
"%%a#....cc....ba#......cc...#b#aa%",
"%%a#....cc....ba#.....ccc...#b#aa%",
"%%a#....cc....ba#....ccc....#b#aa%",
"%%a#....cc....ba#...ccc.....#b#aa%",
"%%a#...cccc...a.ba..ccccc...#b#aa%",
"%%a#...cccc...aaaa..ccccc...#b#aa%",
"%%a#..........ba#...........#b#aa%",
"%%a#..........ba#...........#b#aa%",
"%%a#..aaaaaa.dddddd.aaaaaa..#b#aa%",
"%%a#.......ddeeeeeeda.......#b#aa%",
"%%a#..aaaadeeeadddeeeaaaaa..#b#aa%",
"%%a#.....deeaa....ddeea.....#b#aa%",
"%%a#....deea...ab...deea....#b#aa%",
"%%a#....dea..........dea....#b#aa%",
"%%a####deea....f.....deea####b#aa%",
"%%aa#bbdea.....f.g....deabbbbb#aa%",
"%%aa###dea.b...fg...a.dea######aa%",
"%%aaaaadea.a...fffb.b.deaaaaaaaaa%",
"%%%aaaadea....g.......deaaaaaaaa%%",
"%%%%%%%deea..g.......deea%%%%%%%%%",
"%%%%%%%%dea..........dea%%%%%%%%%%",
"%%%%%%%%deea...ba...deea%%%%%%%%%%",
"%%%%%%%%%deead....ddeea%%%%%%%%%%%",
"%%%%%%%%%%deeeddddeeea%%%%%%%%%%%%",
"%%%%%%%%%%%ddeeeeeeaa%%%%%%%%%%%%%",
"%%%%%%%%%%%%%aaaaaa%%%%%%%%%%%%%%%",
"%%%%%%%%%%%%%%%%%%%%%%%%%%%%%%%%%%"};
