/* XPM */
static char *magick[] = {
/* columns rows colors chars-per-pixel */
"22 22 64 1",
"  c Gray100",
". c #e70808",
"X c #d61818",
"o c #c62121",
"O c Gray74",
"+ c #bd0000",
"@ c Gray68",
"# c #a5a5a5",
"$ c #a50000",
"% c #9c0000",
"& c #948484",
"* c #947373",
"= c Gray55",
"- c #8c7b7b",
"; c #8c1818",
": c #8c0808",
"> c #7b7b7b",
", c #7b0000",
"< c Gray45",
"1 c Gray42",
"2 c Gray39",
"3 c #5a5a5a",
"4 c #5a0000",
"5 c Gray32",
"6 c Gray29",
"7 c #4a0000",
"8 c Gray26",
"9 c #393939",
"0 c #390000",
"q c #313131",
"w c Gray16",
"e c Gray13",
"r c Gray3",
"t c #0000a5",
"y c #00009c",
"u c Gray0",
"i c None",
"p c Gray0",
"a c Gray0",
"s c Gray0",
"d c Gray0",
"f c Gray0",
"g c Gray0",
"h c Gray0",
"j c Gray0",
"k c Gray0",
"l c Gray0",
"z c Gray0",
"x c Gray0",
"c c Gray0",
"v c Gray0",
"b c Gray0",
"n c Gray0",
"m c Gray0",
"M c Gray0",
"N c Gray0",
"B c Gray0",
"V c Gray0",
"C c Gray0",
"Z c Gray0",
"A c Gray0",
"S c Gray0",
"D c Gray0",
"F c Gray0",
/* pixels */
"iOOOuuuuuuuuu@@@@@@@@i",
"#>><uuuuuuuuu<<<<<<<<2",
">>99ruuuuuuuu9999999>2",
">89iuuuuuuuuuiiiiii9>2",
">89iiiiiiiiiiiiiiii9>2",
">89io;iiyyyyyyyyyyi9>2",
">89*+46iyttttttttyi9>2",
">89i9e@iyyyyyyyyyyi9>2",
">89iiiiiiiiiiiiiiii9>2",
">89iiiiiiiiiiiiiiii9>2",
">89iX:iiyyyyyiiiiii9>2",
">89-$76iytyyyiiiiii9>2",
">89i8qiiyyyyyiiiiii9>2",
">89iiiiiiiiiiiiiiii9>2",
">89iiiiiiiiiiiiiiii9>2",
">89i.%iiyyyyyyyyyyi9>2",
">89&,05iyyyyyyyyyyi9>2",
">89i13iiyyyyyyyyyyi9>2",
">89iiiiiiiiiiiiiiii9>2",
">8999999999999999999>2",
"><<<<<<<<<<<<<<<<<<<<1",
"i33333333333333333333i"
};
