/* XPM */
static char *magick[] = {
/* columns rows colors chars-per-pixel */
"22 22 16 1",
"  c Gray100",
". c Gray97",
"X c #898989",
"o c #818181",
"O c #717171",
"+ c Gray40",
"@ c Gray37",
"# c Gray34",
"$ c #373737",
"% c #010101",
"& c Gray0",
"* c None",
"= c Gray0",
"- c Gray0",
"; c Gray0",
": c Gray0",
/* pixels */
"**********************",
"**********************",
"**********************",
"**********************",
"*****X#%%%%%%%%#O*****",
"****X%%++++++++%%O****",
"****#%%+      +%%#****",
"****%++%+    +%++%****",
"****%+.+%+  +%+ +%****",
"****%+. +%++%+  +%****",
"****%+.  +%%+   +%****",
"****%+.  +%%+   +%****",
"****%+. +%++%+  +%****",
"****%+.+%+  +%+ +%****",
"****%++%+    +%++%****",
"****#%%+      +%%#****",
"****o%%++++++++%%@****",
"*****+#%%%%%%%%$#*****",
"**********************",
"**********************",
"**********************",
"**********************"
};
