/* XPM */
static char *magick[] = {
/* columns rows colors chars-per-pixel */
"22 22 8 1",
"  c Gray100",
". c Red",
"X c #0a0a02",
"o c #0707ff",
"O c #040400",
"+ c #000084",
"@ c Gray0",
"# c none",
/* pixels */
"#++++++++++++++++++++#",
"++              ++++++",
"++ ++++++++++++ +...++",
"++ ++++++++++++ +...++",
"++              ++.+++",
"#++++++++++++++++++++#",
"###++               ++",
"###++               ++",
"###++ OOOOOOOOOOOOO ++",
"###++ OOOOOOOOOOOOO ++",
"###++               ++",
"###++               ++",
"###++ ooooooooooooo ++",
"###++ ooooooooooooo ++",
"###++               ++",
"###++               ++",
"###++ OOOOOOOOOOOOX ++",
"###++ OOOOOOOOOOOOO ++",
"###++               ++",
"###++               ++",
"###+++++++++++++++++++",
"####+++++++++++++++++#"
};
