/* XPM */
static char *magick[] = {
/* columns rows colors chars-per-pixel */
"22 22 64 1",
"  c Gray100",
". c #ffa7a7",
"X c #ff7979",
"o c #f84040",
"O c #eb0e0e",
"+ c #e71919",
"@ c #e61717",
"# c #df1818",
"$ c #df1717",
"% c #d51616",
"& c #cf1212",
"* c #af0b08",
"= c #ad0f07",
"- c #a60b0a",
"; c #a20f06",
": c #587aff",
"> c #3e4b8c",
", c #3c60ff",
"< c #253dc8",
"1 c #203ef8",
"2 c #182eb3",
"3 c #132dbe",
"4 c #123cf9",
"5 c #1035f8",
"6 c #081b88",
"7 c #0426ea",
"8 c #0224e4",
"9 c #0120d4",
"0 c #0021d8",
"q c #001fe8",
"w c #001edb",
"e c #001ed1",
"r c #001de5",
"t c #0017ea",
"y c #0014b7",
"u c Gray0",
"i c None",
"p c Gray0",
"a c Gray0",
"s c Gray0",
"d c Gray0",
"f c Gray0",
"g c Gray0",
"h c Gray0",
"j c Gray0",
"k c Gray0",
"l c Gray0",
"z c Gray0",
"x c Gray0",
"c c Gray0",
"v c Gray0",
"b c Gray0",
"n c Gray0",
"m c Gray0",
"M c Gray0",
"N c Gray0",
"B c Gray0",
"V c Gray0",
"C c Gray0",
"Z c Gray0",
"A c Gray0",
"S c Gray0",
"D c Gray0",
"F c Gray0",
/* pixels */
"iiiiiiiiiiiiiiiiiiiiii",
"iiiiiiiiiiiiiiiiiiiiii",
"iiiiiiiiiiiiiiiiiiiiii",
"iiiiiiiiiiiiiiiiiiiiii",
"iiiiiiiiiiiiiiiiiiiiii",
"iX#######i<<<<<<<<<<ii",
"#X......o&i<,::::::5ei",
"##.....oo#*i<1:::::5w>",
"##OOOO####+*i<tqrq77w6",
"########+#+#-i<r8888e6",
"############%-i<888806",
"############%-i<888806",
"########@##%=i<77888e6",
"##########%-i<44788806",
"#########%;i<447888896",
"#$%%%%%%%-i<<4888888yi",
"i%%%%%%%%i<<<3323222ii",
"iiiiiiiiiiiiiiiiiiiiii",
"iiiiiiiiiiiiiiiiiiiiii",
"iiiiiiiiiiiiiiiiiiiiii",
"iiiiiiiiiiiiiiiiiiiiii",
"iiiiiiiiiiiiiiiiiiiiii"
};
