/* XPM */
static char *magick[] = {
/* columns rows colors chars-per-pixel */
"22 22 85 1",
"  c #dede5a5a3939",
". c #ffff5a5a3939",
"X c #ffff63633939",
"o c #dede6b6b5252",
"O c #d6d673735a5a",
"+ c #cece73736363",
"@ c #cece7b7b6b6b",
"# c #c6c67b7b7373",
"$ c #d6d673736363",
"% c #e7e763634242",
"& c #e7e763634a4a",
"* c #efef63634242",
"= c #efef7b7b5a5a",
"- c #f7f76b6b4a4a",
"; c #ffff63634242",
": c #ffff6b6b4242",
"> c #ffff6b6b4a4a",
", c #ffff73734a4a",
"< c #ffff73735252",
"1 c #ffff7b7b5a5a",
"2 c #949484847b7b",
"3 c #bdbd84847b7b",
"4 c #cece84847373",
"5 c #cece8c8c7b7b",
"6 c #d6d684847373",
"7 c #dede8c8c7b7b",
"8 c #e7e784846b6b",
"9 c #efef84846363",
"0 c #efef8c8c7373",
"q c #efef94947b7b",
"w c #ffff84846363",
"e c #ffff8c8c7373",
"r c #ffff94947b7b",
"t c #94948c8c8c8c",
"y c #9c9c8c8c8c8c",
"u c #9c9c94949494",
"i c Gray61",
"p c #b5b594949494",
"a c #bdbda5a59c9c",
"s c #a5a5a5a5a5a5",
"d c #adada5a5a5a5",
"f c #b5b5adadadad",
"g c #bdbdadada5a5",
"h c #bdbdb5b5b5b5",
"j c #bdbdbdbdb5b5",
"k c Gray74",
"l c #cece8c8c8484",
"z c #c6c694948c8c",
"x c #cece94948c8c",
"c c #cece9c9c8c8c",
"v c #c6c69c9c9494",
"b c #c6c69c9c9c9c",
"n c #d6d69c9c8c8c",
"m c #cecea5a59c9c",
"M c #c6c6adada5a5",
"N c #c6c6b5b5adad",
"B c #c6c6b5b5b5b5",
"V c #c6c6bdbdbdbd",
"C c #efef9c9c8484",
"Z c #efef9c9c8c8c",
"A c #efefa5a59494",
"S c #c0c0c0c0c0c0",
"D c #c6c6c6c6c6c6",
"F c #cecec6c6c6c6",
"G c #cecececec6c6",
"H c #d6d6cececece",
"J c #d6d6d6d6cece",
"K c #deded6d6d6d6",
"L c #dedededed6d6",
"P c #e7e7deded6d6",
"I c #e7e7dededede",
"U c #efefe7e7dede",
"Y c #ffffefefdede",
"T c #e7e7e7e7e7e7",
"R c #efefe7e7e7e7",
"E c #efefefefe7e7",
"W c #f7f7efefe7e7",
"Q c #ffffefefe7e7",
"! c #f7f7f7f7efef",
"~ c #fffff7f7efef",
"^ c Gray97",
"/ c #fffff7f7f7f7",
"( c #fffffffff7f7",
") c Gray100",
"_ c None",
/* pixels */
"+&oO+$@#345zpzvk______",
"=,<>>>,>:>>::> i______",
"8>>>,>>,>,>>>,%u______",
"6:>>>>>>>>>>>>%t______",
"7:>>>>>>>>>>>,*t______",
"l:>>:>>:>>:>>>*y______",
"x>:>>>:;XXXXXX.2______",
"c:>>::1AZCCq009ykkkhhk",
"a;:>:;r)))^^(^^!ERUITs",
"m>:>:Xe((((((((((((()d",
"g>:;:;w(/~~~/~/~~/~~)d",
"f-;>:;1~(~//~~~~/~(~)s",
"N-:;;;<Q(~~~/~/~~~~~)f",
"Bo;:;;<Y/~/~~~~~~~~~(j",
"VMmbvnnU(~~~~~~~~~~~)j",
"______kT/~~~~~~~~~~~(k",
"______DK(~~~~~~~~~~~)j",
"______kI~~~~~~~~~~~~(k",
"______kK~~~~~~~~~!~~(j",
"______DG/~~~!~~!~~~~(V",
"_______K~~~~~~~~~~~~(V",
"_______kGDkHFDKJHPKLWF"
};
