/* XPM */
static char *magick[] = {
/* columns rows colors chars-per-pixel */
"22 22 64 1",
"  c Gray100",
". c #ffedc0",
"X c #ffebbe",
"o c #ffeabd",
"O c #ffe5b8",
"+ c #ffdcb0",
"@ c #ffd5a9",
"# c #ffd2a7",
"$ c #ffc89e",
"% c #feb58d",
"& c #fe8c68",
"* c #fda67f",
"= c #fd9b75",
"- c #fd9772",
"; c #fcedc1",
": c #fc7957",
"> c #f9eabf",
", c #f96e4d",
"< c #f76a4a",
"1 c #f5e3ba",
"2 c #f4e1b8",
"3 c #f1d9b2",
"4 c #f15f40",
"5 c #eccca7",
"6 c #e8bd9b",
"7 c #e5b190",
"8 c #e44f33",
"9 c #e2a98a",
"0 c #df9d7f",
"q c #db8e73",
"w c #d8846a",
"e c #d88068",
"r c #d67a62",
"t c #d57961",
"y c #d57860",
"u c #d4765e",
"i c #d3725b",
"p c #d3715b",
"a c #d3705a",
"s c #d26f59",
"d c #cb3a23",
"f c #b9301c",
"g c #b32d1a",
"h c #a02615",
"j c #871e10",
"k c #66170e",
"l c #54140d",
"z c #4d130c",
"x c #3c100b",
"c c #260c0a",
"v c #170808",
"b c #160708",
"n c #140707",
"m c #130607",
"M c #100607",
"N c #0d0506",
"B c #090305",
"V c #080305",
"C c #060305",
"Z c #040204",
"A c #030204",
"S c Gray0",
"D c None",
"F c Gray0",
/* pixels */
"DDDDDDDq7DDDD7qDDDDDDD",
"DDDDD0r71DDDD17r0DDDDD",
"DDDDr03.@9DD9@.10r7DDD",
"DDqw5.+*<grrg<*3.5qqDD",
"Du6.O%:dkv0DCkd:%O.7rD",
"D3X$&8jczDDDDzcj8&#.3D",
"D5=4gxcDDDDDDDDxxh4*5D",
"DD8zvqDq7DDDD7qDqvzdDD",
"DD0sD0r71DDDD17r0Ds0DD",
"DDDDr01.@9DD9@.10rDDDD",
"DDrq5.3*<grrg<*3.5qqDD",
"Dr61O7:dkCD0vkd:%117uD",
"D3.5&8jczDDDDxcj8&#.1D",
"D5*4hxxDDDDDDD7vxh4=DD",
"DD8lvqDq7DDDD70Dqvz8DD",
"DDqsD0r71DDDD17r0Ds0DD",
"DDDDr01.@9DD9@.10rDDDD",
"DDrq5.3*<grrg<*3.5qqDD",
"Dr6117:dkCD0vkd:7117uD",
"D3.#&8jczDDDDzcj8&#.3D",
"D5*4hxxDDDDDDDDcxg4=DD",
"DDdzcqDDDDDDDDDDqvz8DD"
};
