/* XPM */
static char *magick[] = {
/* columns rows colors chars-per-pixel */
"22 22 29 1",
"  c #2f2f0a0a0404",
". c #31310e0e0909",
"X c #353514140f0f",
"o c #363615151010",
"O c #292920201f1f",
"+ c #3c3c2a2a2727",
"@ c #40402f2f2c2c",
"# c #6c6c16160707",
"$ c #6e6e17170909",
"% c #6f6f1d1d0f0f",
"& c #737327271a1a",
"* c #73732c2c1f1f",
"= c #767633332727",
"- c #777738382d2d",
"; c #979728281717",
": c #96962a2a1818",
"> c #afaf37372424",
", c #afaf3a3a2727",
"< c #aeae3d3d2a2a",
"1 c #b0b03a3a2626",
"2 c #cfcf4a4a3535",
"3 c #d6d647472f2f",
"4 c #d5d547473030",
"5 c #d4d448483131",
"6 c #e7e75f5f4747",
"7 c #e6e65f5f4848",
"8 c #e5e560604949",
"9 c #c0c0c0c0c0c0",
"0 c None",
/* pixels */
"0000000000000000000000",
"0000000000000000000000",
"0000000000000000000000",
"0000000000000000000000",
"0000000000000000000000",
"0000000000000000000000",
"<282*+00<582*@00<58<&+",
":28<#X00<28>$X00<58<%X",
":57,$o00=47,$O00=58<#o",
">26,%o00>46>$o00:571$o",
":36,# 00<46,$X00<361%o",
":36,$X00=26>$o00:371#o",
":56,#o00:56,$O00:581$o",
">26,%o00>46,$o00:571$o",
";36,# 00,36>$.00<361$X",
"<682&+00-28<*+00<282*+",
"0000000000000000000000",
"0000000000000000000000",
"0000000000000000000000",
"0000000000000000000000",
"0000000000000000000000",
"0000000000000000000000"
};
