/* XPM */
static char *magick[] = {
/* columns rows colors chars-per-pixel */
"22 22 148 2",
"   c #181808080000",
".  c #181831313131",
"X  c #393918180000",
"o  c #313121212121",
"O  c #393931312929",
"+  c #000042425a5a",
"@  c #212142424a4a",
"#  c #31315a5a5a5a",
"$  c #212152526363",
"%  c #39396b6b7b7b",
"&  c #525221210000",
"*  c #5a5a21210000",
"=  c #636329290000",
"-  c #6b6b29290000",
";  c #73734a4a1818",
":  c #52524a4a4242",
">  c #63635a5a5a5a",
",  c #7b7b63635a5a",
"<  c #63636b6b6b6b",
"1  c #6b6b73737b7b",
"2  c #08087b7b9c9c",
"3  c #292973738c8c",
"4  c #21217b7b9c9c",
"5  c #08088484a5a5",
"6  c #3131adadb5b5",
"7  c #00009c9cc6c6",
"8  c #1010a5a5c6c6",
"9  c #1010adadd6d6",
"0  c #2929a5a5cece",
"q  c #3131a5a5c6c6",
"w  c #1010c6c6f7f7",
"e  c #1010ceceffff",
"r  c #1818f7f7ffff",
"t  c #1818ffffffff",
"y  c #2121ceceefef",
"u  c #2121dedeffff",
"i  c #2121efefffff",
"p  c #2929e7e7f7f7",
"a  c #2929ffffffff",
"s  c #3131efefefef",
"d  c #3131ffffffff",
"f  c #3939ffffffff",
"g  c #42428c8c9c9c",
"h  c #5a5a8c8c9494",
"j  c #52529c9ca5a5",
"k  c #6b6b9c9ca5a5",
"l  c #4a4ac6c6c6c6",
"z  c #4242d6d6dede",
"x  c #4242e7e7e7e7",
"c  c #4242efeff7f7",
"v  c #4242ffffffff",
"b  c #4a4affffffff",
"n  c #5a5aefefffff",
"m  c #5a5affffffff",
"M  c #6b6bdededede",
"N  c #7373c6c6c6c6",
"B  c #7b7bc6c6cece",
"V  c #7b7bd6d6d6d6",
"C  c #6363ffffffff",
"Z  c #7373efefefef",
"A  c #7373ffffffff",
"S  c #7b7bffffffff",
"D  c #848431310000",
"F  c #8c8c39390000",
"G  c #9c9c39390000",
"H  c #8c8c52522929",
"J  c #a5a54a4a0000",
"K  c #b5b54a4a0000",
"L  c #b5b552520000",
"P  c #b5b55a5a2121",
"I  c #a5a57b7b3131",
"U  c #84847b7b7b7b",
"Y  c #c6c652520808",
"T  c #cece5a5a0000",
"R  c #d6d652520000",
"E  c #dede63630808",
"W  c #e7e763630000",
"Q  c #efef6b6b0808",
"!  c #f7f76b6b0000",
"~  c #ffff7b7b0000",
"^  c #f7f773731010",
"/  c #bdbd84843939",
"(  c #9c9c8c8c7b7b",
")  c #b5b584844242",
"_  c #adad8c8c7373",
"`  c #ffff84840808",
"'  c #ffff8c8c0808",
"]  c #ffff84841010",
"[  c #ffff84841818",
"{  c #ffff8c8c1818",
"}  c #ffff94940808",
"|  c #efef94943131",
" . c #ffff8c8c2121",
".. c #ffff94942121",
"X. c #ffff9c9c2929",
"o. c #ffffa5a51010",
"O. c #ffffadad1010",
"+. c #ffffa5a53131",
"@. c #ffffbdbd2121",
"#. c #ffffbdbd3131",
"$. c #cece8c8c5a5a",
"%. c #dede8c8c4242",
"&. c #cece9c9c6b6b",
"*. c #ffffd6d63939",
"=. c #ffffc6c64a4a",
"-. c #ffffcece5252",
";. c #ffffd6d64a4a",
":. c #ffffdede5a5a",
">. c #e7e7c6c66b6b",
",. c #f7f7cece6363",
"<. c #ffffe7e75252",
"1. c #ffffefef6363",
"2. c #ffffefef6b6b",
"3. c #ffffffff7b7b",
"4. c #8c8c84848484",
"5. c #9c9cadadadad",
"6. c #a5a594948c8c",
"7. c #adad9c9c9494",
"8. c #bdbda5a59494",
"9. c #a5a5adadadad",
"0. c Gray68",
"q. c #adadb5b5b5b5",
"w. c Gray71",
"e. c #b5b5bdbdbdbd",
"r. c Gray74",
"t. c #8484d6d6dede",
"y. c #8c8cffffffff",
"u. c #9494e7e7efef",
"i. c #9494efefefef",
"p. c #a5a5c6c6c6c6",
"a. c #adade7e7e7e7",
"s. c #adadffffffff",
"d. c #bdbdffffffff",
"f. c #c6c6a5a58484",
"g. c #c6c6adad9494",
"h. c #c6c6bdbdbdbd",
"j. c #ffffffff8c8c",
"k. c #ffffffffa5a5",
"l. c #ffffffffb5b5",
"z. c #c0c0c0c0c0c0",
"x. c #c6c6c6c6c6c6",
"c. c #c6c6e7e7efef",
"v. c #cecee7e7e7e7",
"b. c #c6c6ffffffff",
"n. c #ffffffffcece",
"m. c #efefffffffff",
"M. c #ffffffffe7e7",
"N. c None",
/* pixels */
"N.N.N.N.N.N.N.N.N.N.N.N.N.N.N.N.N.N.N.N.N.N.",
"N.N.N.N.N.N.N.N.N.N.N.N.N.N.N.N.N.N.N.N.N.N.",
"N.N.N.N.N.N.N.N.N.N.N.N.N.N.N.N.N.N.N.N.N.N.",
"N.N.N.N.N.N.N.N.N.N.N.N.N.N.N.N.N.N.N.N.N.N.",
"N.N.N.N.N.e.B p h N.N.N.N.h.h.r.N.N.N.N.N.N.",
"N.N.N.N.p.x a d # x.N.N.g.$.%.$.8.N.N.N.N.N.",
"N.N.N.e.x f A Z @ w.x.&.o.@.@.} ! _ r.N.N.N.",
"N.N.x.N a S b.a.$ r.f.O.<.3.1.#.` R 6.N.N.N.",
"N.N.e.s b s.m.v.4 0.| *.k.n.k.-.{ W H r.N.N.",
"r.e.q.t m s.m.c.0 6.} 1.l.M.l.:...E D 7.N.N.",
"u.i.n r b y.d.i.z _ ' ;.j.l.j.=.[ T - I ,.>.",
"j g q r d C S Z M _ ~ +.:.2.-.+.Q K & ; / ) ",
"r.w.5.e i d v c t.6.! ] X.+. .^ Y D X 4.9.0.",
"N.N.e.0 w u u y V 0.P W Q Q E Y F & o e.N.N.",
"N.N.h.k 7 9 9 8 l r.( G K L J D *   U h.N.N.",
"N.N.N.w.3 2 5 2 6 r.r., = - * X   > r.N.N.N.",
"N.N.N.N.9.$ + + % h.N.r.U : O : U x.N.N.N.N.",
"N.N.N.N.N.q.1 . < N.N.N.N.r.w.r.N.N.N.N.N.N.",
"N.N.N.N.N.N.N.N.N.N.N.N.N.N.N.N.N.N.N.N.N.N.",
"N.N.N.N.N.N.N.N.N.N.N.N.N.N.N.N.N.N.N.N.N.N.",
"N.N.N.N.N.N.N.N.N.N.N.N.N.N.N.N.N.N.N.N.N.N.",
"N.N.N.N.N.N.N.N.N.N.N.N.N.N.N.N.N.N.N.N.N.N."
};
