/* XPM */
static char * editdelete_xpm[] = {
"22 22 201 2",
"  	c None",
". 	c #454545",
"+ 	c #8B8B8B",
"@ 	c #282828",
"# 	c #464646",
"$ 	c #6F6F6F",
"% 	c #F7F7F7",
"& 	c #FDFDFD",
"* 	c #5A5A5A",
"= 	c #C2C2C2",
"- 	c #424242",
"; 	c #F0F0F0",
"> 	c #D7D7D7",
", 	c #CDCDCD",
"' 	c #EBEBEB",
") 	c #CFCFCF",
"! 	c #AAAAAA",
"~ 	c #E5E5E5",
"{ 	c #686868",
"] 	c #F5F5F5",
"^ 	c #C9C9C9",
"/ 	c #313131",
"( 	c #F4F4F4",
"_ 	c #DCDCDC",
": 	c #E0E0E0",
"< 	c #E3E3E3",
"[ 	c #D0D0D0",
"} 	c #656363",
"| 	c #B5B5B5",
"1 	c #A8A8A8",
"2 	c #252525",
"3 	c #F1F1F1",
"4 	c #B8B8B8",
"5 	c #E7E7E7",
"6 	c #B9B9B9",
"7 	c #D2D2D2",
"8 	c #B3B3B3",
"9 	c #E8E8E8",
"0 	c #9E9D9D",
"a 	c #7A797A",
"b 	c #676767",
"c 	c #4E4E4E",
"d 	c #161616",
"e 	c #A5A4A4",
"f 	c #B4B4B4",
"g 	c #DFDFDF",
"h 	c #8F8E8E",
"i 	c #9F9F9E",
"j 	c #F2F0EE",
"k 	c #E7E2DF",
"l 	c #D1CBC6",
"m 	c #ACA39D",
"n 	c #211F1E",
"o 	c #F2F2F2",
"p 	c #C1C1C1",
"q 	c #D8D7D7",
"r 	c #BEBEBE",
"s 	c #EEEEEE",
"t 	c #D1D1D1",
"u 	c #C8C6C5",
"v 	c #CCC8C4",
"w 	c #D1CBC5",
"x 	c #DCD2CA",
"y 	c #E4D7CD",
"z 	c #2E2B29",
"A 	c #EFEEEE",
"B 	c #E2DEDC",
"C 	c #D7D2CE",
"D 	c #D6CEC8",
"E 	c #DBD1C8",
"F 	c #E4D6CC",
"G 	c #E6D6C8",
"H 	c #2E2A27",
"I 	c #ECECEC",
"J 	c #A4A3A3",
"K 	c #CDCDCC",
"L 	c #A1A09F",
"M 	c #BEBBB9",
"N 	c #E4DED8",
"O 	c #BAB3AD",
"P 	c #9D958E",
"Q 	c #B6ACA2",
"R 	c #BAACA1",
"S 	c #E3D0C0",
"T 	c #2D2926",
"U 	c #939291",
"V 	c #C5C2C0",
"W 	c #95918E",
"X 	c #9E9893",
"Y 	c #B8AFA7",
"Z 	c #8F867F",
"` 	c #978D83",
" .	c #CFBEAF",
"..	c #E1CCB9",
"+.	c #2D2824",
"@.	c #F3F3F3",
"#.	c #D1D0CF",
"$.	c #DFDBD8",
"%.	c #CEC8C2",
"&.	c #C5BEB7",
"*.	c #D3C8BE",
"=.	c #C3B6AC",
"-.	c #D1C1B4",
";.	c #D4C2B3",
">.	c #D2BDAB",
",.	c #DFC5B0",
"'.	c #2C2723",
").	c #000000",
"!.	c #6E6E6E",
"~.	c #EFEDEC",
"{.	c #C5C1BE",
"].	c #D8D1CC",
"^.	c #C4BBB4",
"/.	c #BAB0A7",
"(.	c #CABCB1",
"_.	c #B7A89C",
":.	c #C8B6A7",
"<.	c #CCB8A5",
"[.	c #C8B19D",
"}.	c #DBBFA7",
"|.	c #28231E",
"1.	c #333333",
"2.	c #6E6E6F",
"3.	c #808080",
"4.	c #6D6C6B",
"5.	c #E9E4E0",
"6.	c #99938F",
"7.	c #9B948E",
"8.	c #A39991",
"9.	c #9E9289",
"0.	c #AEA094",
"a.	c #BAA99A",
"b.	c #9A897B",
"c.	c #9D8A7A",
"d.	c #AC9582",
"e.	c #D9B99E",
"f.	c #38332E",
"g.	c #999999",
"h.	c #505050",
"i.	c #2D2D2D",
"j.	c #A4A4A4",
"k.	c #5E5E5F",
"l.	c #4B4B4B",
"m.	c #6C6A67",
"n.	c #F2EAE2",
"o.	c #F6EAE1",
"p.	c #F4E6DB",
"q.	c #F2E2D3",
"r.	c #F1DECD",
"s.	c #EFD8C5",
"t.	c #EDD4BE",
"u.	c #EBCFB7",
"v.	c #EACAB0",
"w.	c #E8C5A8",
"x.	c #D7B496",
"y.	c #2D2621",
"z.	c #818181",
"A.	c #7A7A7A",
"B.	c #707070",
"C.	c #4D4D4D",
"D.	c #444444",
"E.	c #4A4A4A",
"F.	c #575552",
"G.	c #B2AAA3",
"H.	c #B1A69E",
"I.	c #B0A399",
"J.	c #AD9D90",
"K.	c #AC998A",
"L.	c #AA9685",
"M.	c #A9927F",
"N.	c #A88F7A",
"O.	c #A68B73",
"P.	c #A3856C",
"Q.	c #25201B",
"R.	c #595959",
"S.	c #3A3A3A",
"T.	c #434343",
"U.	c #3F3F3F",
"V.	c #292929",
"W.	c #040404",
"X.	c #2B2B2B",
"Y.	c #545454",
"Z.	c #6D6D6D",
"`.	c #3D3D3D",
" +	c #212121",
".+	c #898989",
"++	c #272727",
"@+	c #010101",
"#+	c #787878",
"$+	c #6A6A6A",
"%+	c #606060",
"&+	c #0B0B0B",
"*+	c #555555",
"=+	c #525252",
"-+	c #868686",
";+	c #515151",
">+	c #0C0C0C",
",+	c #777777",
"'+	c #7C7C7C",
")+	c #343434",
"!+	c #171717",
"                                            ",
"          . + + + + + + + @ #               ",
"          $ % & & & & & & * = -             ",
"          $ ; > , ' ) ! ~ { ] ^ /           ",
"          $ ( _ ' : < [ ; } | [ 1 2         ",
"          $ 3 4 5 6 7 8 9 0 a b c d         ",
"          $ ' e f g ^ h i j k l m n         ",
"          $ o p q r s t u v w x y z         ",
"          $ ( 7 < [ A B C D E F G H         ",
"          $ I J K L M N O P Q R S T         ",
"          $ s 0 U V W X Y Z `  ...+.        ",
"          $ @.#.$.%.&.*.=.-.;.>.,.'.        ",
"        ).!.~.{.].^./.(._.:.<.[.}.|.).      ",
"    1.2.3.4.5.6.7.8.9.0.a.b.c.d.e.f.g.h.i.  ",
"  ).j.k.l.m.n.o.p.q.r.s.t.u.v.w.x.y.# z.A.  ",
"  B.C.D.E.F.G.H.I.0.J.K.L.M.N.O.P.Q.- R.$ S.",
"  A.T.U.V.).).).).).).).).).).).).W.X.Y.Z.`.",
"   +.+++@+).).).).).).).).).).).).).W.. #+  ",
"    $+%+. ).).).).).).).).).).).).&+*+{ =+  ",
"      X.D.-+-+;+>+>+>+>+>+>+>+,+-+'+)+      ",
"          ).).D.A.A.A.A.A.A.A.!+).).        ",
"                                            "};
