/* XPM */
static char *magick[] = {
/* columns rows colors chars-per-pixel */
"22 22 129 2",
"   c #424208080000",
".  c #4a4a08080000",
"X  c #525208080000",
"o  c #525210100000",
"O  c #5a5a10100000",
"+  c #5a5a10100808",
"@  c #525218181010",
"#  c #5a5a18181010",
"$  c #424231312929",
"%  c #525239393939",
"&  c #5a5a39393131",
"*  c #636310100000",
"=  c #636310100808",
"-  c #636318180808",
";  c #6b6b18180808",
":  c #737318180808",
">  c #636321211010",
",  c #636329291818",
"<  c #6b6b21211010",
"1  c #7b7b21211010",
"2  c #737329292121",
"3  c #5a5a42423939",
"4  c #4a4a42424242",
"5  c #5a5a4a4a4a4a",
"6  c #636352524a4a",
"7  c #636352525252",
"8  c #6b6b52525252",
"9  c #6b6b5a5a5a5a",
"0  c #7b7b5a5a5252",
"q  c #737363636363",
"w  c #73736b6b6b6b",
"e  c #7b7b6b6b6b6b",
"r  c #7b7b73737373",
"t  c #7b7b7b7b7b7b",
"y  c #848421211010",
"u  c #8c8c21211010",
"i  c #8c8c29291010",
"p  c #8c8c29291818",
"a  c #949429291818",
"s  c #949431312121",
"d  c #949439392929",
"f  c #a5a539392929",
"g  c #adad39392121",
"h  c #b5b539392929",
"j  c #bdbd39392929",
"k  c #adad42423131",
"l  c #b5b542422929",
"z  c #bdbd42423131",
"x  c #848452524a4a",
"c  c #949463635a5a",
"v  c #8c8c6b6b6b6b",
"b  c #848473737373",
"n  c #84847b7b7373",
"m  c #84847b7b7b7b",
"M  c #a5a552524242",
"N  c #b5b552524a4a",
"B  c #a5a56b6b5a5a",
"V  c #adad73736b6b",
"C  c #adad7b7b7373",
"Z  c #c6c642422929",
"A  c #cece42422929",
"S  c #c6c64a4a3131",
"D  c #c6c64a4a3939",
"F  c #cece42423131",
"G  c #cece4a4a3131",
"H  c #cece4a4a3939",
"J  c #cece52523939",
"K  c #d6d64a4a3131",
"L  c #d6d64a4a3939",
"P  c #dede4a4a3131",
"I  c #dede4a4a3939",
"U  c #d6d652523939",
"Y  c #dede52523939",
"T  c #c6c652524242",
"R  c #cece52524242",
"E  c #cece5a5a4a4a",
"W  c #d6d65a5a4242",
"Q  c #dede5a5a4242",
"!  c #dede5a5a4a4a",
"~  c #dede63634a4a",
"^  c #dede63635252",
"/  c #dede6b6b5252",
"(  c #dede6b6b5a5a",
")  c #e7e75a5a4242",
"_  c #efef5a5a4242",
"`  c #e7e763634a4a",
"'  c #efef63634242",
"]  c #efef63634a4a",
"[  c #e7e763635252",
"{  c #e7e76b6b5252",
"}  c #efef6b6b5252",
"|  c #f7f763634a4a",
" . c #f7f76b6b4a4a",
".. c #848484847b7b",
"X. c #848484848484",
"o. c #8c8c84848484",
"O. c Gray55",
"+. c #94948c8c8c8c",
"@. c Gray58",
"#. c #9c9c94949494",
"$. c #adad8c8c8484",
"%. c #adad8c8c8c8c",
"&. c #adad94948c8c",
"*. c #adad94949494",
"=. c #adad9c9c9494",
"-. c #adad9c9c9c9c",
";. c #b5b58c8c8c8c",
":. c #bdbd8c8c8484",
">. c #b5b594948c8c",
",. c #bdbd94948c8c",
"<. c #b5b594949494",
"1. c #b5b59c9c9494",
"2. c #b5b59c9c9c9c",
"3. c #bdbd94949494",
"4. c #bdbd9c9c9494",
"5. c #bdbd9c9c9c9c",
"6. c #adada5a59c9c",
"7. c #bdbda5a59c9c",
"8. c Gray68",
"9. c #b5b5a5a5a5a5",
"0. c #b5b5adadadad",
"q. c #bdbdadadadad",
"w. c #b5b5b5b5adad",
"e. c #bdbdb5b5b5b5",
"r. c Gray74",
"t. c #c6c694948484",
"y. c #c0c0c0c0c0c0",
"u. c #c6c6c6c6c6c6",
"i. c None",
/* pixels */
"i.i.i.=.D W > X.i.i.i.i.i.i.&.R T # #.i.i.i.",
"i.i.i.<.Z U = e i.i.i.i.i.i.$.A G o +.i.i.i.",
"i.i.i.2.z U - n i.i.i.i.i.i.*.S H O +.i.i.i.",
"7.,.4.C j U + x 4.3.4.,.3.4.V Z S + c 4.,.5.",
"/ ] ] _ ' H f ) ] _ ' _ ' _ _ ' D d ) _ _ ^ ",
"( [ [ { ^ J ~ { [ ` ^ [ ^ ` ^ ! J ) ` ~ ` / ",
", X X . y L 1 o + + O + O + . a H ; + + o , ",
"@.t t q g Y < $ w w w w w w 8 Z U + 4 w w r ",
"i.i.i.e.h Y : w i.i.i.i.i.i.6.F G - ..i.i.i.",
"i.i.i.0.l Y : q i.i.i.i.i.i.1.S H = b i.i.i.",
"i.i.i.0.k Y : 9 i.i.i.i.i.i.-.z K - r i.i.i.",
"i.i.i.e.k Y 1 7 i.i.i.i.i.i.6.j U - e i.i.i.",
"i.i.i.e.h Y 1 6 i.i.i.i.i.i.-.S G = r i.i.i.",
"i.i.i.r.k Y 1 5 i.i.i.i.i.i.9.z L * X.i.i.i.",
"q.>.>.%.f I 1 & >.>.>.>.>.>.C j K O 0 ,.;.>.",
"t.| }  .| U f ` } | | | | | | ] S k ] | | } ",
":.Q Q E W J J ! Q W E W W W W R D J W U R E ",
"v . . . = G p . . . . . +     y G :   . . @ ",
"8.o.O.O.d Y i $ m ..X...X.X.e l L ; 5 O.o.O.",
"i.i.i.i.M P p 3 i.i.i.i.i.i.w.z K ; w i.i.i.",
"i.i.i.u.M P u % r.i.i.i.i.i.0.l K ; q i.i.i.",
"i.i.i.i.B W s 8 r.i.i.i.i.i.0.N R 2 n i.i.i."
};
