/* XPM */
static char *magick[] = {
/* columns rows colors chars-per-pixel */
"22 22 25 1",
"  c #24240e0e0a0a",
". c #272711110e0e",
"X c #282812120f0f",
"o c #28281f1f1e1e",
"O c #292920201f1f",
"+ c #2f2f27272626",
"@ c #56560f0f0404",
"# c #565610100505",
"$ c #575717170c0c",
"% c #595917170c0c",
"& c #4a4a34343131",
"* c #8e8e2d2d1b1b",
"= c #8d8d32322323",
"- c #959536362525",
"; c #a6a632321f1f",
": c #a6a632322020",
"> c #a4a438382626",
", c #bebe3a3a2424",
"< c #c1c138382222",
"1 c #efef73735d5d",
"2 c #f7f773735c5c",
"3 c #ffff72725757",
"4 c #ffff73735959",
"5 c #c0c0c0c0c0c0",
"6 c None",
/* pixels */
"666666<<<<<<<<<<666666",
"6666662444444442666666",
"6666661222222221666666",
"666666>:::::::>>666666",
"666666&@######@%666666",
"666666+XooXooX.&666666",
"6666666666666666666666",
"6666666666666666666666",
"666666,,,,,,,,,,666666",
"6666662444444442666666",
"6666661222222221666666",
"666666>-;;;;;;->666666",
"666666*@######@%666666",
"666666&.Ooooooo&666666",
"6666666666666666666666",
"6666666666666666666666",
"666666,,,,,,,,,,666666",
"6666662443333342666666",
"6666661222222221666666",
"666666>:::::::>>666666",
"666666=$@#####@%666666",
"666666+ .oXXoX.+666666"
};
