/* XPM */
static char *magick[] = {
/* columns rows colors chars-per-pixel */
"22 22 82 1",
"  c #adad5a5a4a4a",
". c #b5b55a5a4242",
"X c #bdbd5a5a4242",
"o c #adad63634a4a",
"O c #a5a563635252",
"+ c #adad63635252",
"@ c #d6d652523939",
"# c #d6d65a5a3939",
"$ c #dede52523939",
"% c #e7e74a4a2929",
"& c #ffff5a5a3131",
"* c #ffff5a5a3939",
"= c #ffff63633939",
"- c #cece5a5a4242",
"; c #d6d65a5a4242",
": c #d6d66b6b5a5a",
"> c #dede6b6b5252",
", c #d6d673735a5a",
"< c #cece73736363",
"1 c #d6d673736363",
"2 c #dede7b7b6363",
"3 c #e7e763634a4a",
"4 c #efef73735252",
"5 c #f7f76b6b4a4a",
"6 c #ffff63634242",
"7 c #ffff6b6b4242",
"8 c #ffff6b6b4a4a",
"9 c #ffff73734a4a",
"0 c #f7f773735252",
"q c #bdbd84847b7b",
"w c #c6c684847373",
"e c #c6c68c8c7b7b",
"r c #d6d684847373",
"t c #dede8c8c7b7b",
"y c #e7e784846b6b",
"u c #bdbd8c8c8484",
"i c #b5b594948c8c",
"p c #bdbd9c9c9c9c",
"a c #a5a5a5a5a5a5",
"s c #adada5a5a5a5",
"d c Gray68",
"f c #bdbdadada5a5",
"g c Gray71",
"h c #bdbdb5b5b5b5",
"j c #bdbdbdbdb5b5",
"k c Gray74",
"l c #bdbdc6c6c6c6",
"z c #cece8c8c8484",
"x c #c6c694948c8c",
"c c #cece94948484",
"v c #cece9c9c8c8c",
"b c #cecea5a59c9c",
"n c #c6c6adada5a5",
"m c #c6c6adadadad",
"M c #c6c6b5b5adad",
"N c #c6c6bdbdbdbd",
"B c #f7f7a5a58c8c",
"V c #ffffadad9c9c",
"C c #ffffb5b5a5a5",
"Z c #c6c6c6c6bdbd",
"A c #d6d6c6c6b5b5",
"S c #ffffc6c6b5b5",
"D c #ffffcecebdbd",
"F c #c0c0c0c0c0c0",
"G c #c6c6c6c6c6c6",
"H c #cecec6c6c6c6",
"J c #cecececec6c6",
"K c #cececececece",
"L c #d6d6cececece",
"P c #dedececec6c6",
"I c #deded6d6cece",
"U c #deded6d6d6d6",
"Y c #e7e7deded6d6",
"T c #efefdeded6d6",
"R c #ffffd6d6cece",
"E c #e7e7e7e7dede",
"W c #efefefefe7e7",
"Q c #fffff7f7efef",
"! c #fffff7f7f7f7",
"~ c #fffffffff7f7",
"^ c Gray100",
"/ c None",
/* pixels */
",3>:<1<wqweuixfN//////",
"09987988787666Ok//////",
"28888888888999+h//////",
"y7888888888888og//////",
"r7888888878889 h//////",
"t7887887888789.g//////",
"z8787878787878Xgk/////",
"c7878878878787-gHZNjkd",
"v7878787787877;E^~~~^a",
"p7686786868687#U~~!!^s",
"b7777867777768@I~QQQ^s",
"f8687686868687@I~!!Q^a",
"n6766767676767$P~QQQ^g",
"m6676676667687$P~QQQ~j",
"g24058666=***&%A~QQQ^k",
"kjNhgMmnRDSCCVBT!QQQ^j",
"///////l~^~^^~^!QQQQ~j",
"///////JQQQQQQQQQQQQ~k",
"///////kQQQQQQQQQQQQ~j",
"///////kQQQQQQQQQQQQ~N",
"///////NQQQQQQQQQQQQ~Z",
"///////kkGkGKZLUKUYUWH"
};
