/* XPM */
static char *magick[] = {
/* columns rows colors chars-per-pixel */
"22 22 39 1",
"  c #4a4a9f9fffff",
". c #53539f9ff6f6",
"X c #4f4fa4a4ffff",
"o c #5656a7a7fefe",
"O c #5757adadffff",
"+ c #5e5eafafffff",
"@ c #5e5eb2b2ffff",
"# c #6161aeaef7f7",
"$ c #6060afaff8f8",
"% c #bdbdc5c5c1c1",
"& c #c0c0c0c0c0c0",
"* c #c6c6d0d0cccc",
"= c #cdcdd7d7d3d3",
"- c #d1d1dcdcd7d7",
"; c #d4d4dfdfdbdb",
": c #d7d7e4e4dfdf",
"> c #dadae5e5dfdf",
", c #cecee2e2e8e8",
"< c #d2d2e7e7efef",
"1 c #d4d4e8e8efef",
"2 c #dddde7e7e2e2",
"3 c #dfdfecece7e7",
"4 c #d7d7ececf4f4",
"5 c #dadaefeff6f6",
"6 c #dcdcf0f0f7f7",
"7 c #dedef0f0fafa",
"8 c #e2e2eeeee7e7",
"9 c #e4e4efefeaea",
"0 c #e7e7f3f3eeee",
"q c #e8e8f0f0e6e6",
"w c #efeff7f7ecec",
"e c #e0e0f1f1fdfd",
"r c #ececf7f7f2f2",
"t c #efeffcfcf6f6",
"y c #f1f1fafaefef",
"u c #f7f7fffff6f6",
"i c #f9f9fffff7f7",
"p c Gray100",
"a c None",
/* pixels */
"#$$$$$$$$$$+#+.+.+.+.#",
"#+++O+oOoooXXoXoX    .",
"#@++++++++o+ooooooooo.",
"<e777757444544414<<4,;",
"ypiuuuuuuuuyyyywwwwqw8",
"wtuttttrrr6wr00000999>",
"9tttrtrrrrw0w00090999:",
"2utrtrrrw6w0009098999;",
"2trrrr6w6w00090899338-",
">trrrww0w000908993838-",
";tw6w6009090998938333;",
">w6w0w000999989833223-",
"2rw009099998333322323=",
">009090899188332323>2=",
";090998988832322322>3*",
"-0098198383323232>>>2*",
"-08388833332222:>:2::=",
"*08883332323222:>::::=",
"*9833323322>22:>>>:::*",
";9232323>>:2:::::;:;:*",
"-323222>222:>:::;:;->a",
"*2>:>:::;:;;;;-;----;%"
};
