/* XPM */
static char *magick[] = {
/* columns rows colors chars-per-pixel */
"22 22 16 1",
"  c Gray100",
". c Gray74",
"X c Gray68",
"o c #a5a5a5",
"O c #7b7b7b",
"+ c Gray45",
"@ c Gray42",
"# c Gray39",
"$ c #5a5a5a",
"% c Gray26",
"& c #393939",
"* c Gray3",
"= c Gray0",
"- c None",
"; c Gray0",
": c Gray0",
/* pixels */
"-...=========XXXXXXXX-",
"oOO+=========++++++++#",
"OO&&*========&&&&&&&O#",
"O%&-=========------&O#",
"O%&----------------&O#",
"O%&----------------&O#",
"O%&----------------&O#",
"O%&----------------&O#",
"O%&----------------&O#",
"O%&----------------&O#",
"O%&----------------&O#",
"O%&----------------&O#",
"O%&----------------&O#",
"O%&----------------&O#",
"O%&----------------&O#",
"O%&----------------&O#",
"O%&----------------&O#",
"O%&----------------&O#",
"O%&----------------&O#",
"O%&&&&&&&&&&&&&&&&&&O#",
"O++++++++++++++++++++@",
"-$$$$$$$$$$$$$$$$$$$$-"
};
