/* XPM */
static char *magick[] = {
/* columns rows colors chars-per-pixel */
"22 22 102 2",
"   c #4a4a00004242",
".  c #525218185252",
"X  c #4a4a31314a4a",
"o  c #525229295252",
"O  c #636310105a5a",
"+  c #737308086b6b",
"@  c #6b6b21216b6b",
"#  c #636339396363",
"$  c #737329296b6b",
"%  c #5a5a4a4a5a5a",
"&  c #636352525a5a",
"*  c #63635a5a6363",
"=  c #73736b6b7373",
"-  c #8c8c00008484",
";  c #8c8c10108484",
":  c #949400008c8c",
">  c #949439398c8c",
",  c #9c9c31319494",
"<  c #adad08089c9c",
"1  c #a5a510109c9c",
"2  c #a5a51010a5a5",
"3  c #bdbd0808b5b5",
"4  c #bdbd2121b5b5",
"5  c #8c8c5a5a8c8c",
"6  c #9c9c42429c9c",
"7  c #9c9c5a5a9c9c",
"8  c #8c8c73738c8c",
"9  c #949463639494",
"0  c #a5a54242a5a5",
"q  c #b5b55252adad",
"w  c #bdbd5a5abdbd",
"e  c #a5a56b6b9c9c",
"r  c #adad7b7ba5a5",
"t  c #c6c60808bdbd",
"y  c #cece2929bdbd",
"u  c #d6d61010cece",
"i  c #d6d62121cece",
"p  c #d6d62121d6d6",
"a  c #d6d63131cece",
"s  c #e7e71818d6d6",
"d  c #efef1010e7e7",
"f  c #e7e72121dede",
"g  c #efef2121e7e7",
"h  c #efef2929e7e7",
"j  c #efef3939efef",
"k  c #ffff2121f7f7",
"l  c #ffff3131ffff",
"z  c #ffff3939ffff",
"x  c #c6c65a5abdbd",
"c  c #c6c66b6bbdbd",
"v  c #cece5a5ac6c6",
"b  c #d6d64242cece",
"n  c #dede4a4ad6d6",
"m  c #d6d65a5ad6d6",
"M  c #cece6b6bcece",
"N  c #cece7373c6c6",
"B  c #d6d66363d6d6",
"V  c #d6d66b6bd6d6",
"C  c #e7e74a4adede",
"Z  c #e7e75252dede",
"A  c #e7e75a5adede",
"S  c #e7e74a4ae7e7",
"D  c #efef4242efef",
"F  c #efef4a4aefef",
"G  c #e7e75252e7e7",
"H  c #ffff4242ffff",
"J  c #ffff4a4affff",
"K  c #f7f75a5aefef",
"L  c #f7f75252f7f7",
"P  c #ffff5252ffff",
"I  c #ffff5a5affff",
"U  c #ffff6363ffff",
"Y  c #ffff6b6bffff",
"T  c #ffff7373ffff",
"R  c #8c8c84848c8c",
"E  c Gray58",
"W  c #a5a59c9c9c9c",
"Q  c #a5a59c9ca5a5",
"!  c #adad9c9cadad",
"~  c #b5b58484adad",
"^  c #b5b58c8cb5b5",
"/  c #bdbd8c8cbdbd",
"(  c #bdbd9c9cbdbd",
")  c Gray68",
"_  c #b5b5adadb5b5",
"`  c #bdbda5a5bdbd",
"'  c #bdbdadadbdbd",
"]  c Gray71",
"[  c #bdbdb5b5bdbd",
"{  c Gray74",
"}  c #c6c68484c6c6",
"|  c #c6c6bdbdc6c6",
" . c #ffff8484ffff",
".. c #ffff8c8cffff",
"X. c #ffff9494ffff",
"o. c #ffff9c9cffff",
"O. c #ffffa5a5ffff",
"+. c #ffffadadffff",
"@. c #ffffbdbdffff",
"#. c #c0c0c0c0c0c0",
"$. c #ffffc6c6ffff",
"%. c None",
/* pixels */
"%.%.%.%.%.| ' } B Z S C n x ~ _ { %.%.%.%.%.",
"%.%.%.%.[ } K T O.+.O...T J k i e ] %.%.%.%.",
"%.%.%.[ B  .o. .Y U I I I I P z d , ) %.%.%.",
"%.%.{ V X.$.X.L 4 , 7 7 0 a P Y P d > ] %.%.",
"%.%./ U o.U p . R { { { { W 6 j P z t 8 %.%.",
"%.%.G T Y h   E %.%.%.%.%.%.) y H P s @ %.%.",
"%.%.w b F 2 & { %.%.%.%.%.%.{ v H I f O %.%.",
"%.%.{ ) Q W { %.%.%.%.%.%.%.[ C U P i o %.%.",
"%.%.%.%.%.%.%.%.%.%.%.%.%.' m  . .z - = %.%.",
"%.%.%.%.%.%.%.%.%.%.%.%.( G o.o.H : X ] %.%.",
"%.%.%.%.%.%.%.%.%.%.%./ K @...z 3 o ) %.%.%.",
"%.%.%.%.%.%.%.%.%.%./ I O.T k < # ) %.%.%.%.",
"%.%.%.%.%.%.%.%.%.` D I P l - * { %.%.%.%.%.",
"%.%.%.%.%.%.%.%.%.N J T J 2 = { %.%.%.%.%.%.",
"%.%.%.%.%.%.%.%.| B  .U 1 % { %.%.%.%.%.%.%.",
"%.%.%.%.%.%.%.%.[ A U z : = %.%.%.%.%.%.%.%.",
"%.%.%.%.%.%.%.%.{ r q w 9 ) %.%.%.%.%.%.%.%.",
"%.%.%.%.%.%.%.%.%.%._ ^ ! { %.%.%.%.%.%.%.%.",
"%.%.%.%.%.%.%.%.%.( L P g 5 { %.%.%.%.%.%.%.",
"%.%.%.%.%.%.%.%.| M o.$.L + ) %.%.%.%.%.%.%.",
"%.%.%.%.%.%.%.%.%.c l H u . ) %.%.%.%.%.%.%.",
"%.%.%.%.%.%.%.%.%._ 0 ; $ R %.%.%.%.%.%.%.%."
};
