/* XPM */
static char *magick[] = {
/* columns rows colors chars-per-pixel */
"22 22 132 2",
"   c Gray0",
".  c #080800000000",
"X  c #080808080000",
"o  c #080810100808",
"O  c #101010100000",
"+  c #292921210000",
"@  c #313129290000",
"#  c #393929290000",
"$  c #393931310000",
"%  c #393939390808",
"&  c #393939391010",
"*  c #393931312929",
"=  c #313139393131",
"-  c #4a4a42420808",
";  c #525252521818",
":  c #424242423131",
">  c #424242423939",
",  c #42424a4a3131",
"<  c #52525a5a2121",
"1  c #636352520000",
"2  c #63635a5a0808",
"3  c #6b6b5a5a0000",
"4  c #6b6b5a5a1010",
"5  c #737373731818",
"6  c #63636b6b2121",
"7  c #6b6b73732121",
"8  c #737373732929",
"9  c #73737b7b2929",
"0  c #7b7b7b7b2121",
"q  c #7b7b7b7b2929",
"w  c #42424a4a4a4a",
"e  c #4a4a42424242",
"r  c Gray29",
"t  c #4a4a52525252",
"y  c #52524a4a4a4a",
"u  c #5a5a52524a4a",
"i  c Gray32",
"p  c #5a5a5a5a5252",
"a  c #525263635a5a",
"s  c #636363635a5a",
"d  c Gray39",
"f  c #63636b6b6363",
"g  c #6b6b6b6b6363",
"h  c Gray42",
"j  c #73736b6b6363",
"k  c #73736b6b6b6b",
"l  c #7b7b73736b6b",
"z  c Gray45",
"x  c #7b7b73737373",
"c  c #7b7b7b7b7373",
"v  c #7b7b7b7b7b7b",
"b  c #7b7b84847b7b",
"n  c #8c8c7b7b0808",
"m  c #84847b7b1818",
"M  c #8c8c7b7b1010",
"N  c #84847b7b7373",
"B  c #8c8c84841818",
"V  c #949484840808",
"C  c #848484842929",
"Z  c #848484843939",
"A  c #949484842121",
"S  c #a5a594942121",
"D  c #adad9c9c2121",
"F  c #b5b5a5a50808",
"G  c #b5b5a5a51818",
"H  c #b5b5a5a52121",
"J  c #bdbdadad2929",
"K  c #bdbdadad3131",
"L  c #8c8c94945252",
"P  c #949494944a4a",
"I  c #949494945252",
"U  c #94949c9c5a5a",
"Y  c #8c8c8c8c6b6b",
"T  c #848484847b7b",
"R  c #8c8c84847b7b",
"E  c #9c9c9c9c6363",
"W  c #9c9c9c9c6b6b",
"Q  c #a5a5a5a57373",
"!  c #cecebdbd2121",
"~  c #c6c6b5b53131",
"^  c #c6c6b5b53939",
"/  c #cecec6c63131",
"(  c #d6d6c6c63131",
")  c #e7e7d6d61818",
"_  c #f7f7dede1818",
"`  c #e7e7d6d63939",
"'  c #efefdede3131",
"]  c #efefdede3939",
"[  c #f7f7e7e71818",
"{  c #ffffe7e71818",
"}  c #848484848484",
"|  c #84848c8c8484",
" . c #8c8c84848484",
".. c #8c8c8c8c8484",
"X. c Gray55",
"o. c #94948c8c8484",
"O. c #949494948484",
"+. c #949494948c8c",
"@. c #9c9c94948c8c",
"#. c #9c9c9c9c8c8c",
"$. c #9c9c9c9c9494",
"%. c Gray61",
"&. c #9c9ca5a59c9c",
"*. c #9c9cadada5a5",
"=. c #a5a594948c8c",
"-. c #a5a59c9c9494",
";. c #a5a59c9c9c9c",
":. c #a5a5a5a59c9c",
">. c #adada5a59c9c",
",. c #b5b5a5a59c9c",
"<. c #a5a5a5a5a5a5",
"1. c #a5a5adada5a5",
"2. c #a5a5adadadad",
"3. c #adadadada5a5",
"4. c Gray68",
"5. c #adadb5b5adad",
"6. c #a5a5bdbdb5b5",
"7. c #adadb5b5b5b5",
"8. c #b5b5adada5a5",
"9. c Gray71",
"0. c #b5b5bdbdb5b5",
"q. c #bdbdb5b5b5b5",
"w. c #bdbdbdbdb5b5",
"e. c Gray74",
"r. c #adadc6c6bdbd",
"t. c #bdbdc6c6bdbd",
"y. c #c0c0c0c0c0c0",
"u. c #c6c6d6d6cece",
"i. c #c6c6deded6d6",
"p. c #cecededed6d6",
"a. c #d6d6e7e7e7e7",
"s. c None",
/* pixels */
"s.s.s.s.s.s.s.s.s.s.3.%.s.s.s.s.s.s.s.s.s.s.",
"s.s.s.s.s.s.s.s.s.9.e.| 4.s.s.s.s.s.s.s.s.s.",
"s.s.s.s.s.s.s.s.e.:.p.&.g e.s.s.s.s.s.s.s.s.",
"s.s.s.s.s.s.s.s.<.2.5.R t } s.s.s.s.s.s.s.s.",
"s.s.s.s.s.s.s.9.&.6.&. .d t %.s.s.s.s.s.s.s.",
"s.s.s.s.s.s.e.;.>.1.i.&.l p y 9.s.s.s.s.s.s.",
"s.s.s.s.s.s.%.-.-.3.a.>.N s e d e.s.s.s.s.s.",
"s.s.s.s.s.4.| 6.t.2.:.:.N i a w X.s.s.s.s.s.",
"s.s.s.s.e.+.*.r.5.1.%...b s f a = <.s.s.s.s.",
"s.s.s.e.$.=.>.@.;.0.u.-.:.k j u * r 9.s.s.s.",
"s.s.s.4.o.1.8.>.3.u.a.,.8.x g g y = } s.s.s.",
"s.s.s.e.7.1.v k z b T R c s : * z 4.e.s.s.s.",
"s.s.s.s.s.9.4 1 - $ + O O . O X c s.s.s.s.s.",
"s.s.s.s.s.w.! [ ] ` / D M 2 @ O c s.s.s.s.s.",
"s.s.s.s.s.e.~ ) ' ] ] ( H V 3 @ c s.s.s.s.s.",
"s.s.s.s.s.e.~ ) ' K A S G M 1 @ v s.s.s.s.s.",
"s.s.s.s.s.e.^ _ D O   O 4 n 2 $ T s.s.s.s.s.",
"s.s.s.s.s.q.J _ m   O X @ M 3 # > h v s.s.s.",
"s.s.s.s.e.Y F { B   X   % M 3 @ . O , s.s.s.",
"s.s.s.t.O.6 B ) B o & < 0 n 2 - ; 9 Y s.s.s.",
"s.s.s.#.7 9 q C C 8 9 9 9 5 8 q C q O.s.s.s.",
"s.s.s.Q W W W E E U U L I L P P P Z :.s.s.s."
};
