/* XPM */
static char *magick[] = {
/* columns rows colors chars-per-pixel */
"22 22 128 2",
"   c Gray100",
".  c Yellow",
"X  c Magenta",
"o  c Red",
"O  c #dadf24",
"+  c #bfce2a",
"@  c #ba45ba",
"#  c #b5b13d",
"$  c #aeaa45",
"%  c #ac4340",
"&  c #ab3f39",
"*  c #a9a553",
"=  c #a956a9",
"-  c #a9413c",
";  c #a6c232",
":  c #a6a452",
">  c #a45ba4",
",  c #9d5753",
"<  c #916e91",
"1  c #8e5e95",
"2  c #8d6391",
"3  c #8b6391",
"4  c #866e8b",
"5  c #827785",
"6  c #676f67",
"7  c Gray38",
"8  c #5d5d5d",
"9  c Gray36",
"0  c #565656",
"q  c #4543ac",
"w  c #433f43",
"e  c #41a241",
"r  c #3e3e3e",
"t  c #3c3c3c",
"y  c #373737",
"u  c #3133af",
"i  c #2c2bb5",
"p  c #2726be",
"a  c #161616",
"s  c Gray8",
"d  c #131313",
"f  c #13130a",
"g  c Gray7",
"h  c #120d12",
"j  c #111111",
"k  c #110c11",
"l  c #110811",
"z  c #101010",
"x  c #10100f",
"c  c #100a10",
"v  c Gray6",
"b  c #0f0f0c",
"n  c #0f0f09",
"m  c #0f0f05",
"M  c #0f0a0f",
"N  c #0f090f",
"B  c #0e1212",
"V  c #0e0f0f",
"C  c #0e0e0e",
"Z  c #0e0e03",
"A  c Gray5",
"S  c #0d0d0c",
"D  c #0d080d",
"F  c #0c0c0d",
"G  c #0c0c0c",
"H  c #0c0b0c",
"J  c #0c090c",
"K  c #0b1010",
"L  c #0b0f0f",
"P  c #0b0b10",
"I  c #0b0b0b",
"U  c #0a1111",
"Y  c #0a0e0e",
"T  c #0a0b0a",
"R  c #0a0a0f",
"E  c #0a0a0e",
"W  c Gray4",
"Q  c #091111",
"!  c #090c0c",
"~  c #090909",
"^  c #081111",
"/  c Gray3",
"(  c #070707",
")  c #060606",
"_  c #0101ff",
"`  c Green",
"'  c Blue",
"]  c Gray0",
"[  c #c0c0c0",
"{  c Gray0",
"}  c Gray0",
"|  c Gray0",
" . c Gray0",
".. c Gray0",
"X. c Gray0",
"o. c Gray0",
"O. c Gray0",
"+. c Gray0",
"@. c Gray0",
"#. c Gray0",
"$. c Gray0",
"%. c Gray0",
"&. c Gray0",
"*. c Gray0",
"=. c Gray0",
"-. c Gray0",
";. c Gray0",
":. c Gray0",
">. c Gray0",
",. c Gray0",
"<. c Gray0",
"1. c Gray0",
"2. c Gray0",
"3. c Gray0",
"4. c Gray0",
"5. c Gray0",
"6. c Gray0",
"7. c Gray0",
"8. c Gray0",
"9. c Gray0",
"0. c Gray0",
"q. c Gray0",
"w. c Gray0",
"e. c Gray0",
"r. c Gray0",
"t. c Gray0",
"y. c Gray0",
"u. c Gray0",
/* pixels */
"[ [ v v v v v v v v v v v v v v v v v v [ [ ",
"[ v ( v v v v v v v P P v v v P v v v ( v [ ",
"v v v [ [ [ [ [ [ [ [ [ [ [ [ [ [ [ [ v v v ",
"v v [ [ [ [ [ [ [ [ [ [ [ [ [ [ [ [ [ [ v v ",
"v v [ o o o o [ [ . . . . [ [ ` ` ` ` [ v v ",
"v B [ o o o o [ [ . . . . [ [ ` ` ` ` [ v v ",
"v B [ o o o o [ [ . . . . [ [ ` ` ` ` [ v v ",
"v B [ o o o o [ [ . . . . [ [ ` ` ` ` [ v v ",
"v B [ [ [ [ [ [ [ [ [ [ [ [ [ [ [ [ [ [ v v ",
"v a [ [ [ [ [ [ [ [ [ [ [ [ [ [ [ [ [ [ v v ",
"v f [ [ [ [ [ [ [ [ [ [ [ [ [ [ [ [ [ [ v v ",
"v f [ _ _ _ _ [ [ X X X X [ [ [ [ [ [ [ v v ",
"v f [ _ _ _ _ [ [ X X X X [ [ [ [ [ [ [ v v ",
"v f [ _ _ _ _ [ [ X X X X [ [ [ [ [ [ [ v v ",
"v f [ _ _ _ _ [ [ X X X X [ [ [ [ [ [ [ ( v ",
"v v [ [ [ [ [ [ [ [ [ [ [ [ [ [ [ [ [ [ v v ",
"v v [ [ [ [ [ [ [ [ [ [ [ [ [ [ [ [ [ [ v ( ",
"v v [ [ [ [ [ [ [ [ [ [ [ [ [ [ [ [ [ [ ( v ",
"v ( [ [ [ [ [ [ [ [ [ [ [ [ [ [ [ [ [ [ ( v ",
"v ( v [ [ [ [ [ [ [ [ [ [ [ [ [ [ [ [ v ( v ",
"[ ( v v v a a a a a a a a a a a a v v v ( [ ",
"[ [ v ( v v v v v ( v ( v ( v ( v v v v [ [ "
};
