/* XPM */
static char *magick[] = {
/* columns rows colors chars-per-pixel */
"22 22 198 2",
"   c Gray3",
".  c #080808081010",
"X  c #101010101010",
"o  c #101018181818",
"O  c #181818181818",
"+  c #181818182121",
"@  c #181821212121",
"#  c #181821212929",
"$  c #292921211010",
"%  c #292921211818",
"&  c Gray13",
"*  c #212121212929",
"=  c Gray16",
"-  c #313131313131",
";  c #313139394242",
":  c #393942424242",
">  c #424231312929",
",  c #424242423131",
"<  c #424242423939",
"1  c #4a4a42423939",
"2  c #4a4a4a4a3131",
"3  c #4a4a4a4a3939",
"4  c #63635a5a3939",
"5  c #6b6b5a5a3939",
"6  c #4a4a4a4a4242",
"7  c Gray29",
"8  c #52524a4a4a4a",
"9  c #5a5a4a4a4242",
"0  c #5a5a52524a4a",
"q  c #5a5a5a5a4242",
"w  c #5a5a5a5a4a4a",
"e  c Gray32",
"r  c #5a5a52525252",
"t  c #5a5a5a5a5252",
"y  c #5a5a5a5a5a5a",
"u  c #4a4a52526363",
"i  c #63635a5a5a5a",
"p  c #6b6b6b6b5252",
"a  c #737363635a5a",
"s  c #7b7b73735252",
"d  c Gray39",
"f  c #6b6b63636363",
"g  c #6b6b6b6b6363",
"h  c Gray42",
"j  c #6b6b73737b7b",
"k  c #73736b6b6363",
"l  c #73736b6b6b6b",
"z  c #737373736b6b",
"x  c #7b7b73737373",
"c  c #7b7b7b7b7b7b",
"v  c #6b6b73738484",
"b  c #84847b7b5a5a",
"n  c #a5a573735252",
"m  c #b5b57b7b5252",
"M  c #9c9c84845252",
"N  c #9c9c84845a5a",
"B  c #848484846b6b",
"V  c #8c8c84846b6b",
"C  c #949484847b7b",
"Z  c #94948c8c7b7b",
"A  c #9c9c8c8c7b7b",
"S  c #949494947373",
"D  c #9c9ca5a57b7b",
"F  c #adad84845a5a",
"G  c #bdbd8c8c5a5a",
"H  c #a5a58c8c6363",
"J  c #adad8c8c6363",
"K  c #adad9c9c6b6b",
"L  c #a5a59c9c7b7b",
"P  c #bdbda5a56b6b",
"I  c #b5b5a5a57373",
"U  c #bdbdadad7373",
"Y  c #cecea5a56b6b",
"T  c #ceceadad6b6b",
"R  c #c6c6adad7b7b",
"E  c #ceceadad7b7b",
"W  c #ceceb5b57373",
"Q  c #848484848484",
"!  c #848484848c8c",
"~  c #8c8c8c8c8484",
"^  c #8c8c8c8c9494",
"/  c #8c8c94948c8c",
"(  c #8c8c94949c9c",
")  c #949494948c8c",
"_  c #9c9c9c9c8c8c",
"`  c #949494949c9c",
"'  c #9c9c94949494",
"]  c Gray61",
"[  c #9c9ca5a5adad",
"{  c #9c9ca5a5b5b5",
"}  c #a5a594948484",
"|  c #a5a59c9c8c8c",
" . c #a5a59c9c9494",
".. c #a5a59c9c9c9c",
"X. c #a5a5a5a58c8c",
"o. c #a5a5a5a59c9c",
"O. c #adada5a59c9c",
"+. c #b5b5a5a58c8c",
"@. c #bdbdadad9494",
"#. c #b5b5b5b59c9c",
"$. c #bdbdbdbd9c9c",
"%. c #a5a5a5a5a5a5",
"&. c #a5a5a5a5adad",
"*. c #a5a5adadadad",
"=. c #adadadada5a5",
"-. c Gray68",
";. c #adadadadb5b5",
":. c #b5b5adada5a5",
">. c #b5b5adadadad",
",. c #b5b5b5b5adad",
"<. c #bdbdb5b5a5a5",
"1. c #bdbdbdbda5a5",
"2. c Gray71",
"3. c #b5b5bdbdb5b5",
"4. c #bdbdb5b5b5b5",
"5. c #bdbdbdbdb5b5",
"6. c Gray74",
"7. c #adadbdbdc6c6",
"8. c #b5b5bdbdc6c6",
"9. c #bdbdc6c6b5b5",
"0. c #bdbdc6c6c6c6",
"q. c #ceceb5b58484",
"w. c #d6d6bdbd8484",
"e. c #dedebdbd8484",
"r. c #d6d6b5b59494",
"t. c #dedeb5b59494",
"y. c #c6c6bdbda5a5",
"u. c #cecebdbda5a5",
"i. c #efefb5b58484",
"p. c #efefbdbd8484",
"a. c #efefbdbd8c8c",
"s. c #e7e7b5b59494",
"d. c #efefbdbd9494",
"f. c #f7f7bdbd8484",
"g. c #f7f7bdbd8c8c",
"h. c #c6c6c6c68c8c",
"j. c #d6d6c6c68c8c",
"k. c #deded6d68c8c",
"l. c #deded6d69494",
"z. c #c6c6c6c6adad",
"x. c #dedededea5a5",
"c. c #efefc6c68c8c",
"v. c #e7e7c6c69494",
"b. c #e7e7dede9494",
"n. c #e7e7dede9c9c",
"m. c #f7f7cece8c8c",
"M. c #f7f7d6d69c9c",
"N. c #e7e7dedeadad",
"B. c #e7e7e7e7a5a5",
"V. c #efefe7e7a5a5",
"C. c #efefe7e7adad",
"Z. c #efefefefa5a5",
"A. c #efefefefb5b5",
"S. c #f7f7efefadad",
"D. c #f7f7efefb5b5",
"F. c #f7f7f7f7b5b5",
"G. c #f7f7f7f7bdbd",
"H. c #c0c0c0c0c0c0",
"J. c #c6c6c6c6c6c6",
"K. c #c6c6c6c6cece",
"L. c #c6c6cececece",
"P. c #cecec6c6c6c6",
"I. c #cecececec6c6",
"U. c #cececececece",
"Y. c #ceced6d6cece",
"T. c #ceced6d6dede",
"R. c #d6d6cecec6c6",
"E. c #d6d6d6d6c6c6",
"W. c #d6d6d6d6cece",
"Q. c #deded6d6c6c6",
"!. c #deded6d6cece",
"~. c #dedededec6c6",
"^. c Gray84",
"/. c #d6d6dededede",
"(. c #deded6d6d6d6",
"). c #dedededed6d6",
"_. c Gray87",
"`. c #dedededee7e7",
"'. c #e7e7e7e7dede",
"]. c #efefe7e7d6d6",
"[. c #efefe7e7dede",
"{. c #f7f7f7f7d6d6",
"}. c #ffffffffdede",
"|. c #e7e7e7e7e7e7",
" X c #e7e7e7e7efef",
".X c #e7e7efefefef",
"XX c #efefefefefef",
"oX c #e7e7efeff7f7",
"OX c #efefefeff7f7",
"+X c #efeff7f7f7f7",
"@X c #f7f7efefefef",
"#X c Gray97",
"$X c #f7f7f7f7ffff",
"%X c #f7f7ffffffff",
"&X c #fffff7f7f7f7",
"*X c #fffffffff7f7",
"=X c Gray100",
"-X c None",
/* pixels */
"u.c.n.x.B.A.A.S.D.F.G.F.S.M.p.g.Z.V.B.n.Z.N.",
"r.W < 0 Z R.W.=.E.;._ !.W.].[.[.[.'.Y./ D C.",
"t.U @ + 6 Q %.2.0.2.-.J.K.`.=X=X=X=X=XOX~.x.",
"s.P * O k ^.&X#XXX`.^.J.3.2.).=X=X=X=X=X}.n.",
"t.G * & = k W.|.|.XX|.^.J.&.] Q ~ >.^.XX{.l.",
"s.m * O O - 7 e l ..I.=X=X+XJ.j +   X + s V.",
"d.J % Q ! r c z -.*.x [.=XXX^.L.` 5.( : q n.",
"v.J o C *X.X@X=X=X%X` Q.=X=X=X=X=X=X=X=XY.B.",
"a.F @ = k ,.^.U.=X7.7 Q.=X=X=X=X=X=X=X$X9.l.",
"g.n @ & r :._.0.U.u %  ./.6.).=X=X=X=XoX~ k.",
"i.N . a @X%X X6.-.j d i O.|.&X=X=X+X#X{ w b.",
"f.M 8 !.%X] h y ) %.o.#X=X|.U.J.U.(.[ # 2 V.",
"f.q.).#X#XT.! R.=X=X;...^ e f ~ P.|.|.v , Z.",
"m.K : x 4.[ _ @X=X=X=X%X$X`.[ h =.8.c ; 3 N.",
"Y N 4 b S V X.$.#.<.z.y.1.| 9 5 L | B w p h.",
"&.%.%.%.%.%.~ $ Q %.< 1 %.g > ' ..] ] ] ] o.",
"-X-X-X-X-X-X<.H 5.-X6 y -X>.T =.-X-X-X-X-X-X",
"-X-X-X-X-X6.j.} -X-X8 i -X6.e.@.-X-X-X-X-X-X",
"-X-X-X-X-X5.W %.-X-X8 i -X-X@.W 6.-X-X-X-X-X",
"-X-X-X-X-Xy.I 2.-X-X8 i -X-X,.e.=.-X-X-X-X-X",
"-X-X-X-X6.j.A -X-X-X8 i -X-X5.w.+.-X-X-X-X-X",
"-X-X-X-X5.E ..-X-X-Xt g -X-X-X@.R 6.-X-X-X-X"
};
