/* XPM */
static char *magick[] = {
/* columns rows colors chars-per-pixel */
"22 22 39 1",
"  c #020206063535",
". c #020207073b3b",
"X c #050509093b3b",
"o c #131317173e3e",
"O c #202023233a3a",
"+ c #010106064141",
"@ c #07070d0d4242",
"# c #06060c0c4848",
"$ c #0f0f14144747",
"% c #0e0e14144b4b",
"& c #101016164a4a",
"* c #16161b1b4747",
"= c #17171b1b4b4b",
"- c #1d1d22225252",
"; c #2a2a2c2c4646",
": c #222226265353",
"> c #27272b2b5656",
", c #2f2f34345959",
"< c #313134344e4e",
"1 c #3d3d3d3d4545",
"2 c #323235355656",
"3 c #3b3b3f3f6060",
"4 c #464649496363",
"5 c #4c4c4e4e6767",
"6 c #4e4e51516969",
"7 c #5c5c5e5e6e6e",
"8 c #5b5b5e5e7171",
"9 c #646465656e6e",
"0 c #6f6f6f6f6d6d",
"q c #666667677474",
"w c #6f6f6f6f7878",
"e c #6f6f70707878",
"r c #777776767474",
"t c #767677777b7b",
"y c #7e7e7f7f7e7e",
"u c #7e7e7e7e8181",
"i c #878787878585",
"p c #c0c0c0c0c0c0",
"a c None",
/* pixels */
"aaaaaaaaaaaaaaaaaaaaaa",
"aaaaaaaaaaaaaaaaaaaaaa",
"aaaaaaaaaai9aaaaaaaaaa",
"aaaaaaaaaa3*aaaaaaaaaa",
"aaaaaaaaai%.iaaaaaaaaa",
"aaaaaaaaat#+5aaaaaaaaa",
"aaaaaaaaa,&#*iaaaaaaaa",
"aaaaaaaai3u#+uaaaaaaaa",
"aaaaaaaa,ua,+:aaaaaaaa",
"aaaaaaai=aai# 0aaaaaaa",
"aaaaaaa43aaa>+;aaaaaaa",
"aaaaaaa,iaaaw+@iaaaaaa",
"aaaaaae-iiiiw%.7aaaaaa",
"aaaaaa3$O:OO*@+*aaaaaa",
"aaaaai:iiiiiiq+ taaaaa",
"aaaaa6qaaaaaaa-.<aaaaa",
"aaaai=iaaaaaaat+ yaaaa",
"aaaa8>aaaaaaaaa$.;aaaa",
"aai7#Xriaaaaai9$+.1iaa",
"aa7=>>ouaaaaawO>>>*2aa",
"aaaaaaaaaaaaaaaaaaaaaa",
"aaaaaaaaaaaaaaaaaaaaaa"
};
