/* XPM */
static char *magick[] = {
/* columns rows colors chars-per-pixel */
"22 22 93 2",
"   c #212108080000",
".  c #292908080000",
"X  c #313108080000",
"o  c #313108080808",
"O  c #313110100808",
"+  c #313110101010",
"@  c #313118181010",
"#  c #393918181010",
"$  c #393921211818",
"%  c #424229292121",
"&  c #4a4a31312929",
"*  c #4a4a31313131",
"=  c #525239393131",
"-  c #636310100000",
";  c #6b6b10100000",
":  c #6b6b10100808",
">  c #6b6b18180808",
",  c #737318180808",
"<  c #636321211010",
"1  c #6b6b21211010",
"2  c #6b6b29291818",
"3  c #737321211010",
"4  c #737331312929",
"5  c #7b7b31312929",
"6  c #7b7b42423131",
"7  c #636352524a4a",
"8  c #737363636363",
"9  c #b5b539392121",
"0  c #b5b539392929",
"q  c #bdbd39392121",
"w  c #bdbd39392929",
"e  c #848442423939",
"r  c #adad42423131",
"t  c #bdbd42422929",
"y  c #b5b542423131",
"u  c #b5b54a4a3131",
"i  c #b5b54a4a3939",
"p  c #bdbd42423131",
"a  c #bdbd4a4a3131",
"s  c #bdbd4a4a3939",
"d  c #8c8c52524a4a",
"f  c #adad52524242",
"g  c #b5b552524242",
"h  c #b5b552524a4a",
"j  c #bdbd52524242",
"k  c #bdbd52524a4a",
"l  c #adad63635252",
"z  c #adad6b6b5a5a",
"x  c #bdbd63635252",
"c  c #adad73736363",
"v  c #b5b56b6b6363",
"b  c #b5b57b7b7373",
"n  c #c6c642422929",
"m  c #c6c642423131",
"M  c #cece42423131",
"N  c #dede6b6b5a5a",
"B  c #dede7b7b6b6b",
"V  c #f7f75a5a4242",
"C  c #ffff5a5a4242",
"Z  c #efef63634a4a",
"A  c #e7e76b6b5a5a",
"S  c #efef6b6b5a5a",
"D  c #ffff63634242",
"F  c #ffff63634a4a",
"G  c #ffff6b6b4a4a",
"H  c #ffff6b6b5252",
"J  c #f7f773735a5a",
"K  c #ffff73735252",
"L  c #ffff73735a5a",
"P  c #e7e773736363",
"I  c #e7e77b7b6363",
"U  c #efef7b7b6363",
"Y  c #f7f77b7b6363",
"T  c #f7f77b7b6b6b",
"R  c #ffff7b7b6363",
"E  c #b5b584847b7b",
"W  c #dede84847373",
"Q  c #e7e784846b6b",
"!  c #efef8c8c7b7b",
"~  c #f7f784846b6b",
"^  c #ffff84846363",
"/  c #ffff84846b6b",
"(  c #f7f784847373",
")  c #a5a5a5a5a5a5",
"_  c Gray68",
"`  c Gray71",
"'  c #bdbdb5b5b5b5",
"]  c Gray74",
"[  c #dede94948484",
"{  c #c6c6bdbdbdbd",
"}  c #c0c0c0c0c0c0",
"|  c #c6c6c6c6c6c6",
" . c None",
/* pixels */
" .j q w w w w q q p ] ] g q q w q w q q s  .",
" .Y L K L K L K L J ] { P H H H H H H G J  .",
" .T R R R R R R R Y ] ] B R L J L J L J J  .",
" .u 0 0 0 0 0 0 9 r ' ] f 9 0 0 0 9 0 9 y  .",
" .2 : - > : - : : < ] ] 4 - : - > : : : <  .",
" .*       O   O   + ] ] &               %  .",
" .` ) _ _ ) _ ) ) _ ] | _ ) _ _ _ _ _ ) _  .",
" . . . . . . . . . . . . . . . . . . . . . .",
" .b g h h h h h g l ] ] z g g h g h g g c  .",
" .P F Z D G V G V Z ` | N D V V V V V V S  .",
" .! / / / / / ^ / U ` ] Q R ^ R ^ R R R ~  .",
" .x n m m m t m n s ` ] h m m t m t n t j  .",
" .6 > > > > , > > 1 ` | 5 ; > > : > > : 5  .",
" .7 . o X O o O . $ ` ] & o O o O o O . =  .",
" .` _ _ _ _ _ _ _ _ ] | _ _ _ _ _ _ _ _ `  .",
" . . . . . . . . . . . . . . . . . . . . . .",
" .E r i f i i i i f ' ] l i i i i i i r c  .",
" .W F Z F G Z F F Z ` ] A V Z Z D Z D C I  .",
" .[ / / / / / / / T ` | Q / R R R R R R (  .",
" .v M m m m m m m a ` ] k n m n m n m t k  .",
" .d , , , , , , , 3 ` ] 5 , , , > , > , e  .",
" .8 . @ # @ # @ + $ ` ] = O + # # # # O 7  ."
};
