/* XPM */
static char *magick[] = {
/* columns rows colors chars-per-pixel */
"22 22 85 1",
"  c #000000002121",
". c #000000002929",
"X c #080808082929",
"o c #000000003131",
"O c #000000003939",
"+ c #080808083131",
"@ c #181818183939",
"# c #212121213939",
"$ c #000000004242",
"% c #000000004a4a",
"& c #000000005252",
"* c #000000005a5a",
"= c #080808085252",
"- c #080808085a5a",
"; c #101010104242",
": c #101010104a4a",
"> c #181818184242",
", c #181818185a5a",
"< c #000000006b6b",
"1 c #080800006363",
"2 c #080808087373",
"3 c #101010106b6b",
"4 c #181818186363",
"5 c #181818186b6b",
"6 c #101010107b7b",
"7 c #181818187373",
"8 c #292929295a5a",
"9 c #393939394242",
"0 c #212121216363",
"q c #212121216b6b",
"w c #292921216b6b",
"e c #292929296363",
"r c #212121217b7b",
"t c #313131316363",
"y c #313131316b6b",
"u c #393939396363",
"i c #393939396b6b",
"p c #393931317b7b",
"a c #393939397373",
"s c #4a4a4a4a5a5a",
"d c #525252525a5a",
"f c #424242426363",
"g c #424242426b6b",
"h c #4a4a4a4a6363",
"j c #4a4a4a4a6b6b",
"k c #525252527373",
"l c #5a5a5a5a7373",
"z c Gray42",
"x c #6b6b6b6b7373",
"c c #737373737b7b",
"v c #7b7b7b7b7b7b",
"b c #101010108484",
"n c #181818188484",
"m c #212121218484",
"M c #313131318c8c",
"N c #313131319494",
"B c #424242429494",
"V c #424242429c9c",
"C c #4a4a4a4a9c9c",
"Z c #525252529c9c",
"A c #5a5a5a5a9494",
"S c #737373738484",
"D c #7b7b7b7b8484",
"F c #7b7b7b7b8c8c",
"G c #848484848484",
"H c #848484848c8c",
"J c #8c8c8c8c8484",
"K c Gray55",
"L c #848484849494",
"P c #8c8c8c8c9494",
"I c Gray58",
"U c #9c9c9c9c9494",
"Y c Gray61",
"T c #9c9c9c9ca5a5",
"R c #9c9c9c9cadad",
"E c #a5a5a5a5a5a5",
"W c #a5a5a5a5adad",
"Q c Gray68",
"! c #adadadadb5b5",
"~ c Gray71",
"^ c #b5b5b5b5bdbd",
"/ c Gray74",
"( c #c0c0c0c0c0c0",
") c #c6c6c6c6c6c6",
"_ c None",
/* pixels */
"______________________",
"_____________QVnq77iQ_",
"~Q______!Q___P&&=&=.l^",
"Ce~____/Zy~__/KcxzxKMk",
"6&Y____~r&E________Q2:",
"5=K____~0=Y________T-:",
"4&G____~0%I________E-:",
"q%K____~e=Y________T=>",
"0%J____/y$Y________Q=;",
"h.I!WWW!f.Q___^RWWRQ>#",
"QdBm775wdJ/__!N75548dY",
"_Q,%%$=osW__^x:$$$O+K_",
"__EGPKvUA3Q_A4KIKKIY/_",
"________a&I/p%T_______",
"________u%K/a$Y_______",
"________i%H/t%I_______",
"________g%G/t$K_______",
"________j$D)uOY_______",
"________S E_xXLLSLFP/_",
"________~Y/_~Db<1**$v_",
"_____________/s@@@@9E_",
"______________________"
};
