/* XPM */
static char *magick[] = {
/* columns rows colors chars-per-pixel */
"22 22 8 1",
"  c #040404040303",
". c #161615151f1f",
"X c #060606062e2e",
"o c #050504043737",
"O c #161616162121",
"+ c #0b0b0b0b4b4b",
"@ c #c0c0c0c0c0c0",
"# c None",
/* pixels */
"######################",
"######################",
"######################",
"######################",
"######################",
"######################",
"######################",
"######################",
"+OOOO+OO+OOOOOOO+OO+O+",
"######################",
"######################",
"OXoXXXXXXXXoXoXXXXXXoO",
"                      ",
"O....................O",
"######################",
"######################",
"######################",
"######################",
"######################",
"######################",
"######################",
"######################"
};
