/* XPM */
static char *magick[] = {
/* columns rows colors chars-per-pixel */
"22 22 8 1",
"  c Gray100",
". c Gray97",
"X c #4f504f",
"o c #00007f",
"O c Gray0",
"+ c none",
"@ c Gray0",
"# c Gray0",
/* pixels */
"++++++++++++++++++++++",
"++++++++++++++++++++++",
"++++++++++++++++++++++",
"++++++++++++++++++++++",
"+OOOOOOOOOOOOOOOOOOOO+",
"OOXXXXXXXXXXXXXXXXXXOO",
"OXX.          OO OO  O",
"OX.      oo     O    O",
"OX.      oo     O   .O",
"OX  ooo  oooo   O    O",
"OX    oo oo oo  O    O",
"OX  oooo oo oo  O    O",
"OX oo oo oo oo  O    O",
"OX oo oo oo oo  O    O",
"OX  oooo oooo   O    O",
"OX            OO OO  O",
"OO..................OO",
"+OOOOOOOOOOOOOOOOOOOO+",
"++++++++++++++++++++++",
"++++++++++++++++++++++",
"++++++++++++++++++++++",
"++++++++++++++++++++++"
};
