/* XPM */
static char *magick[] = {
/* columns rows colors chars-per-pixel */
"22 22 32 1",
"  c Gray100",
". c #e39700",
"X c #a87000",
"o c #848484",
"O c Gray42",
"+ c #5a5a5a",
"@ c Gray32",
"# c Gray29",
"$ c Gray26",
"% c #393939",
"& c #313131",
"* c Gray16",
"= c Gray13",
"- c #181818",
"; c #101818",
": c #101018",
"> c #101010",
", c Gray3",
"< c #000008",
"1 c Gray0",
"2 c None",
"3 c Gray0",
"4 c Gray0",
"5 c Gray0",
"6 c Gray0",
"7 c Gray0",
"8 c Gray0",
"9 c Gray0",
"0 c Gray0",
"q c Gray0",
"w c Gray0",
"e c Gray0",
/* pixels */
"2o@$&***==------===&+2",
"O,1111111111111111111#",
"&,-2222222222222222=1-",
"*122....X222222222221-",
"=122....X222222222221>",
"-122....X222222222221>",
"-<22....X222222222221,",
"-122XXXXX222222222221>",
"-<222212222....X22221>",
"-,222211111....X22221>",
">1222212222....X22221>",
"-1222212222....X22221>",
"-1222212222XXXXX22221-",
"-12222122222212222221-",
"-122221....X21....X21-",
"=122221....X21....X21=",
"=122222....X22....X21=",
"*122222....X22....X21*",
"&122222XXXXX22XXXXX21*",
"%122222222222222222$1%",
"O111,>-==>-:---;><111O",
"2+*-->>,>,,,,>>>>-=*+2"
};
