/* XPM */
static char *magick[] = {
/* columns rows colors chars-per-pixel */
"22 22 64 1",
"  c Gray100",
". c Gray97",
"X c #e7e7e7",
"o c Gray84",
"O c Gray61",
"+ c Gray55",
"@ c Gray52",
"# c Gray45",
"$ c Gray42",
"% c #6b6b63",
"& c #524a42",
"* c Gray29",
"= c #4a4a42",
"- c #4a4a39",
"; c #4a4239",
": c Gray26",
"> c #424239",
", c #423931",
"< c #395af7",
"1 c #393939",
"2 c #3152ff",
"3 c #313139",
"4 c #313131",
"5 c #293131",
"6 c Gray16",
"7 c Gray13",
"8 c #1842ff",
"9 c #1842f7",
"0 c #181818",
"q c #181810",
"w c #1039ff",
"e c #1031f7",
"r c #101010",
"t c #0831ff",
"y c #0831f7",
"u c Gray3",
"i c #0029f7",
"p c Gray0",
"a c None",
"s c Gray0",
"d c Gray0",
"f c Gray0",
"g c Gray0",
"h c Gray0",
"j c Gray0",
"k c Gray0",
"l c Gray0",
"z c Gray0",
"x c Gray0",
"c c Gray0",
"v c Gray0",
"b c Gray0",
"n c Gray0",
"m c Gray0",
"M c Gray0",
"N c Gray0",
"B c Gray0",
"V c Gray0",
"C c Gray0",
"Z c Gray0",
"A c Gray0",
"S c Gray0",
"D c Gray0",
"F c Gray0",
/* pixels */
"a*::1rrrrrrrrrrrrrrrrr",
"4OXXXXXXXXXXXXXXXr888r",
"6OX1*:::::::::4oorr8rr",
"6OXXXXXXXXXXXXXXXrr8uu",
"4rrrrrrrrrrrrrrrrrrrra",
"76             @p@..@u",
"7@ :6444444447.@u@ .@u",
"0@ +$#$$$$$$#$.@r@::@u",
"0@ ............@0@::@u",
"0@ *6434444447.@0@::@u",
"0@.%-&&&&=&&&>.@0@  @u",
"0@.............@0@  @u",
"7@ 2twweweyeei.@0@  @u",
"7@ <e99999999e.@0@  @u",
"6@ ............@0@  @u",
"6@ %;&=-;---=,.@q@  @u",
"5@ *7666666660.@r@  @u",
"4@ ............@r@  @u",
"1@.%;&=-;---=,.@r@  @u",
":@.*7666666660.@p@  @u",
":r.............@u@@@@u",
"a46770rrrruuuuuuauuuua"
};
