/* XPM */
static char *magick[] = {
/* columns rows colors chars-per-pixel */
"22 22 32 1",
"  c Gray100",
". c #f7faff",
"X c #efeff7",
"o c #dedfef",
"O c #cecfe7",
"+ c #bdbade",
"@ c #adaad6",
"# c #9c9ace",
"$ c #8c8ac6",
"% c #7375bd",
"& c #6365b5",
"* c #5255ad",
"= c #4245a5",
"- c #31309c",
"; c #212094",
": c #10108c",
"> c Gray6",
", c #000084",
"< c Gray0",
"1 c none",
"2 c Gray0",
"3 c Gray0",
"4 c Gray0",
"5 c Gray0",
"6 c Gray0",
"7 c Gray0",
"8 c Gray0",
"9 c Gray0",
"0 c Gray0",
"q c Gray0",
"w c Gray0",
"e c Gray0",
/* pixels */
"1>>>>>>>>>>>>>>>>>>>>1",
">>        X&$       >>",
">          $$        >",
">          $$        >",
"> X$%$  X$$*$  @%&O  >",
"> =o -$ *X =$ +$ O:X >",
">O=  oX#$  $$ *&$$=O >",
">+-   X$$  $$ =@     >",
">X,@  $#;  $$ %-X +o >",
"> #,=*X *=%==XX-:=&  >",
">  o+    Ooo    +O   >",
">       @;           >",
">        ,           >",
">   .    ,      < <  >",
">  +%%$  ,+*&X   <   >",
">  :  -+ ,O &&   <   >",
">  oo$;+ ,  X,   <   >",
">  %$X=+ ,   ,   <   >",
"> O=  =+ ,  O*   <   >",
"> o:%%-&o=$+&X  < <  >",
">> o+ oo  OO        >>",
"1>>>>>>>>>>>>>>>>>>>>1"
};
