/* XPM */
static char *magick[] = {
/* columns rows colors chars-per-pixel */
"22 22 16 1",
"  c Gray100",
". c #7b8cff",
"X c #6b7bff",
"o c #6b73ff",
"O c #5a6bff",
"+ c #5263f7",
"@ c #525af7",
"# c #525ad6",
"$ c #4a4abd",
"% c #0224e4",
"& c Gray0",
"* c None",
"= c Gray0",
"- c Gray0",
"; c Gray0",
": c Gray0",
/* pixels */
"**********************",
"****&*****###########*",
"***&&****#..........X$",
"****&****#..%%%%%%%%%$",
"****&****#.%%%%%%%%%%$",
"****&****#+%%%%%%%%%%$",
"****&*****$$$$$$$$$$$*",
"**********************",
"****&*****###########*",
"***&*&***#..........O$",
"*****&***#..%%%%%%%%%$",
"****&****#.%%%%%%%%%%$",
"***&*****##%%%%%%%%%%$",
"***&&&****$$$$$$$$$$$*",
"**********************",
"***&&*****###########*",
"*****&***#..........o$",
"****&&***#..%%%%%%%%%$",
"*****&***#.%%%%%%%%%%$",
"***&*&***#@%%%%%%%%%%$",
"****&*****$$$$$$$$$$$*",
"**********************"
};
