/* XPM */
static char *magick[] = {
/* columns rows colors chars-per-pixel */
"22 22 90 1",
"  c #0b0b0c0c2e2e",
". c #0d0d0f0f3333",
"X c #0e0e0f0f3e3e",
"o c #0f0f11113232",
"O c #131316163b3b",
"+ c #161619194040",
"@ c #29292e2e5757",
"# c #373737375050",
"$ c #36363c3c5b5b",
"% c #3d3d44446464",
"& c #484850506e6e",
"* c #595963637575",
"= c #585861617878",
"- c #64646e6e7e7e",
"; c #656570707f7f",
": c #00000000efef",
"> c #04040808e1e1",
", c #09090b0be9e9",
"< c #00000101f7f7",
"1 c #00000000fdfd",
"2 c #06060909fafa",
"3 c #0f0f1212e1e1",
"4 c #0d0d1010ffff",
"5 c #11111515fcfc",
"6 c #18181c1cf5f5",
"7 c #26262b2bdada",
"8 c #2e2e3434dada",
"9 c #29292d2de0e0",
"0 c #29292a2aeded",
"q c #22222727f7f7",
"w c #20202323fdfd",
"e c #24242828f9f9",
"r c #2f2f3333fdfd",
"t c #33333737e2e2",
"y c #31313535f3f3",
"u c #39393e3effff",
"i c #3b3b4141ebeb",
"p c #5b5b64648181",
"a c #65656f6f8282",
"s c #63636b6b9292",
"d c #686873738181",
"f c #74747f7f9393",
"g c #77777f7fa3a3",
"h c #45454b4bf2f2",
"j c #55555b5be3e3",
"k c #50505656ffff",
"l c #57575f5ff2f2",
"z c #56565f5ff8f8",
"x c #58585f5ff2f2",
"c c #57576161dfdf",
"v c #57576060e0e0",
"b c #57576060eded",
"n c #57576161f4f4",
"m c #777782829696",
"M c #787883839696",
"N c #797983839898",
"B c #7b7b8080a7a7",
"V c #7d7d8383a9a9",
"C c #77778383d7d7",
"Z c #77778282dada",
"A c #77778282e8e8",
"S c #7a7a8585e7e7",
"D c #7e7e8787eded",
"F c #79798585f0f0",
"G c #87878d8dadad",
"H c #8e8e9595afaf",
"J c #8e8e9595b0b0",
"K c #90909a9aafaf",
"L c #95959c9cb3b3",
"P c #9696a1a1b2b2",
"I c #9c9ca5a5b6b6",
"U c #9e9ea5a5b8b8",
"Y c #8d8d9a9ae7e7",
"T c #8e8e9b9be8e8",
"R c #85859191f9f9",
"E c #9c9ca9a9e4e4",
"W c #a1a1aeaeecec",
"Q c #a1a1adadf8f8",
"! c #a5a5b5b5f4f4",
"~ c #afafbbbbf8f8",
"^ c #c0c0c0c0c0c0",
"/ c #e3e3f7f7f6f6",
"( c #e6e6fcfcf7f7",
") c #e4e4f9f9f9f9",
"_ c #efeffffff5f5",
"` c #eeeefefefafa",
"' c #f0f0fffff7f7",
"] c #f7f7ffffffff",
"[ c Gray100",
"{ c None",
/* pixels */
"{{{{{{{{{{{{{{{{{{{{{{",
"{{{{{{{{{{{{{{{{{{{{{{",
"{{{{{{{{{{{{{{{{{{{{{{",
"{{{{{{{{{{{{{{{{{{{{{{",
"{{{{{{{{{{{{{{{{{{{{{{",
"M$@++OOOOOOOOOOOOOOO@M",
"+ &pappappapaddad;-*oO",
"O#xhEkbWuFRr!'((((`]=O",
"X$w,Z49D1jz<T'///()]fo",
".%q3Z58S<vn<Y_/////]fo",
".%e3C58S<cx:Y_/////]No",
".%e3C58S<cl<Y_/////]Mo",
".%q3C58S<cn:Y_/////]mo",
".%6>C27A<cl:T_/////]No",
".$itWyjQ0FF0~[]]]]][Mo",
"O+sgKVGLBJJBLUIIPPKH@O",
"d@O@O+OO++O+OOOOOO+O@;",
"{{{{{{{{{{{{{{{{{{{{{{",
"{{{{{{{{{{{{{{{{{{{{{{",
"{{{{{{{{{{{{{{{{{{{{{{",
"{{{{{{{{{{{{{{{{{{{{{{",
"{{{{{{{{{{{{{{{{{{{{{{"
};
