/* XPM */
static char *magick[] = {
/* columns rows colors chars-per-pixel */
"22 22 32 1",
"  c Gray100",
". c Gray94",
"X c #e1e1e1",
"o c Gray81",
"O c #bebebe",
"+ c Gray68",
"@ c Gray61",
"# c Gray54",
"$ c #797979",
"% c #686868",
"& c #565656",
"* c Gray27",
"= c #323232",
"- c Gray10",
"; c #111111",
": c Gray0",
"> c None",
", c Gray0",
"< c Gray0",
"1 c Gray0",
"2 c Gray0",
"3 c Gray0",
"4 c Gray0",
"5 c Gray0",
"6 c Gray0",
"7 c Gray0",
"8 c Gray0",
"9 c Gray0",
"0 c Gray0",
"q c Gray0",
"w c Gray0",
"e c Gray0",
/* pixels */
">>>>>>>>>>>>>>>>>>>>>>",
">>>>>>>>>>>>>>>>>>>>>>",
">XXXXX.X...XXXXXoooOX>",
"X                 .o#o",
"O          ...XXoOO+#&",
"O.XoOooOoOO+OO+++O@@$-",
"+ooOo%::;@O+;%+O#:%@#-",
"+oOO*::;::@+:=o@::#@$-",
"+oo@:=oO@:;O:=O::@+#$;",
"+oo=:++@O=:+:*-:#+@#$-",
"+Oo;:++++%:#::::O@@#$-",
"+oo::++@+%:#::::$+##%-",
"@Oo-:+@@O*:@::O::+@#$;",
"@OO#:=oO+::+:=O$:=+#%;",
"+O+O=:;=::#+:;++::%@$;",
"@O+@+=:::$+@:*@@#:-@%;",
"@++@@+@#@@@#@@##@###%;",
"@+@@##@###$#########*=",
"o&%%%&%&&&&&&&&&&&&*:O",
">O*-:::::::::::::;;*@>",
">>>>>>>>>>>>>>>>>>>>>>",
">>>>>>>>>>>>>>>>>>>>>>"
};
