/* XPM */
static char *magick[] = {
/* columns rows colors chars-per-pixel */
"22 22 128 2",
"   c Gray100",
".  c #fdfdfd",
"X  c #ececec",
"o  c #e4e4e4",
"O  c #e2e2e2",
"+  c Gray88",
"@  c #dadada",
"#  c Gray84",
"$  c #d2d2d2",
"%  c Gray81",
"&  c Gray79",
"*  c #bbbbbb",
"=  c Gray71",
"-  c Gray68",
";  c #aaaaaa",
":  c #a4a4a4",
">  c #989898",
",  c Gray58",
"<  c Gray55",
"1  c Gray53",
"2  c Gray52",
"3  c #7b7b7b",
"4  c #797979",
"5  c #777777",
"6  c Gray46",
"7  c Gray45",
"8  c #717171",
"9  c #6d6d6d",
"0  c Gray42",
"q  c #676767",
"w  c #626262",
"e  c Gray37",
"r  c #5a5a5a",
"t  c #585858",
"y  c Gray33",
"u  c Gray32",
"i  c #505050",
"p  c #4e4e4e",
"a  c #4c4c4c",
"s  c Gray29",
"d  c #444444",
"f  c Gray25",
"g  c #3e3e3e",
"h  c Gray24",
"j  c Gray23",
"k  c #393939",
"l  c #373737",
"z  c #313131",
"x  c #2f2f2f",
"c  c #2d2d2d",
"v  c Gray17",
"b  c Gray16",
"n  c #252525",
"m  c #232323",
"M  c Gray13",
"N  c Gray12",
"B  c #1d1d1d",
"V  c #1b1b1b",
"C  c Gray10",
"Z  c #181818",
"A  c #161616",
"S  c Gray8",
"D  c Gray7",
"F  c #101010",
"G  c #0e0e0e",
"H  c #0c0c0c",
"J  c Gray4",
"K  c Gray3",
"L  c #060606",
"P  c #040404",
"I  c #020202",
"U  c Gray0",
"Y  c None",
"T  c Gray0",
"R  c Gray0",
"E  c Gray0",
"W  c Gray0",
"Q  c Gray0",
"!  c Gray0",
"~  c Gray0",
"^  c Gray0",
"/  c Gray0",
"(  c Gray0",
")  c Gray0",
"_  c Gray0",
"`  c Gray0",
"'  c Gray0",
"]  c Gray0",
"[  c Gray0",
"{  c Gray0",
"}  c Gray0",
"|  c Gray0",
" . c Gray0",
".. c Gray0",
"X. c Gray0",
"o. c Gray0",
"O. c Gray0",
"+. c Gray0",
"@. c Gray0",
"#. c Gray0",
"$. c Gray0",
"%. c Gray0",
"&. c Gray0",
"*. c Gray0",
"=. c Gray0",
"-. c Gray0",
";. c Gray0",
":. c Gray0",
">. c Gray0",
",. c Gray0",
"<. c Gray0",
"1. c Gray0",
"2. c Gray0",
"3. c Gray0",
"4. c Gray0",
"5. c Gray0",
"6. c Gray0",
"7. c Gray0",
"8. c Gray0",
"9. c Gray0",
"0. c Gray0",
"q. c Gray0",
"w. c Gray0",
"e. c Gray0",
"r. c Gray0",
"t. c Gray0",
"y. c Gray0",
"u. c Gray0",
/* pixels */
"Y Y Y Y Y Y Y Y Y Y Y Y Y Y Y Y Y Y Y Y Y Y ",
"Y Y Y Y Y Y Y Y Y Y Y Y Y Y Y Y Y Y Y Y Y Y ",
"Y Y Y Y Y Y Y Y Y Y Y Y Y Y Y Y Y Y Y Y Y Y ",
"Y Y Y Y Y Y Y - 3 p l x x q - Y Y Y Y Y Y Y ",
"Y Y Y Y Y * 3 N x 9 : - 1 l G q * Y Y Y Y Y ",
"Y Y Y Y * 5 L 1             @ G p * Y Y Y Y ",
"Y Y Y Y 1 L #   o 5 d g d <     N 9 Y Y Y Y ",
"Y Y Y - L ,   , n N N N N A n     L : Y Y Y ",
"Y Y Y 9 A   - n n n n N N N L g   1 y Y Y Y ",
"Y Y Y n 1   d N N N N N A A A L     n Y Y Y ",
"Y Y Y G %   N N N N N N A A A L =   A Y Y Y ",
"Y Y Y G o X G N N A A A A A G L -   n Y Y Y ",
"Y Y Y n =   G A A A A G G G G L @   n Y Y Y ",
"Y Y Y y p   l L A A G G G G L L   X d Y Y Y ",
"Y Y Y : L     L L G G G L L L #   p , Y Y Y ",
"Y Y Y Y e g     A L L L L L @   * d Y Y Y Y ",
"Y Y Y Y * l e     @ < 1 %     % x = Y Y Y Y ",
"Y Y Y Y Y * p N *         X p d = Y Y Y Y Y ",
"Y Y Y Y Y Y Y , p n n n N p < Y Y Y Y Y Y Y ",
"Y Y Y Y Y Y Y Y Y Y Y Y Y Y Y Y Y Y Y Y Y Y ",
"Y Y Y Y Y Y Y Y Y Y Y Y Y Y Y Y Y Y Y Y Y Y ",
"Y Y Y Y Y Y Y Y Y Y Y Y Y Y Y Y Y Y Y Y Y Y "
};
