/* XPM */
static char *magick[] = {
/* columns rows colors chars-per-pixel */
"22 22 113 2",
"   c #00001818f7f7",
".  c #00001818ffff",
"X  c #00002121f7f7",
"o  c #00002121ffff",
"O  c #00002929ffff",
"+  c #10103131efef",
"@  c #18183131e7e7",
"#  c #18183939e7e7",
"$  c #10103131ffff",
"%  c #10103939ffff",
"&  c #29293939d6d6",
"*  c #31313939cece",
"=  c #10104242ffff",
"-  c #18184242ffff",
";  c #39394a4ac6c6",
":  c #29295252ffff",
">  c #29295a5affff",
",  c #31315252efef",
"<  c #31315a5affff",
"1  c #31316363ffff",
"2  c #39396b6bffff",
"3  c #4a4a5a5abdbd",
"4  c #63636b6bbdbd",
"5  c #6b6b7373b5b5",
"6  c #73737b7bbdbd",
"7  c #42424a4ac6c6",
"8  c #4a4a5252c6c6",
"9  c #4a4a5a5acece",
"0  c #52525a5ac6c6",
"q  c #52526363c6c6",
"w  c #52526b6bcece",
"e  c #5a5a6b6bc6c6",
"r  c #4a4a7373e7e7",
"t  c #4a4a7373efef",
"y  c #42427373ffff",
"u  c #4a4a7b7bffff",
"i  c #52527b7bffff",
"p  c #63637373c6c6",
"a  c #63637373cece",
"s  c #6b6b7b7bc6c6",
"d  c #7b7b8484b5b5",
"f  c #5a5a8484e7e7",
"g  c #5a5a8484efef",
"h  c #52528484f7f7",
"j  c #52528484ffff",
"k  c #5a5a8c8cffff",
"l  c #5a5a9494ffff",
"z  c #6b6b8484d6d6",
"x  c #6b6b8c8cd6d6",
"c  c #73738484c6c6",
"v  c #7b7b8c8ccece",
"b  c #63638484e7e7",
"n  c #63638c8cefef",
"m  c #6b6b8484e7e7",
"M  c #63639494ffff",
"N  c #6b6b9494ffff",
"B  c #6b6b9c9cffff",
"V  c #73739c9ce7e7",
"C  c #73739c9cffff",
"Z  c #7373a5a5ffff",
"A  c #7b7badadffff",
"S  c #84848484b5b5",
"D  c #84848c8cbdbd",
"F  c #8c8c9494b5b5",
"G  c #94949494b5b5",
"H  c #94949c9cb5b5",
"J  c #9c9c9c9cb5b5",
"K  c #9c9c9c9cbdbd",
"L  c #a5a5a5a5b5b5",
"P  c #adadadadb5b5",
"I  c #adadadadbdbd",
"U  c #b5b5b5b5bdbd",
"Y  c #b5b5bdbdbdbd",
"T  c Gray74",
"R  c #84849494c6c6",
"E  c #84849494cece",
"W  c #8c8ca5a5cece",
"Q  c #8c8cadadd6d6",
"!  c #9c9ca5a5c6c6",
"~  c #9494adadd6d6",
"^  c #9c9cadadd6d6",
"/  c #9c9cbdbdd6d6",
"(  c #8c8cadadefef",
")  c #8484adadffff",
"_  c #8484b5b5ffff",
"`  c #8c8cb5b5f7f7",
"'  c #8c8cb5b5ffff",
"]  c #8c8cbdbdffff",
"[  c #9494bdbdffff",
"{  c #a5a5bdbdd6d6",
"}  c #b5b5b5b5c6c6",
"|  c #bdbdbdbdc6c6",
" . c #adadbdbdefef",
".. c #8c8cc6c6ffff",
"X. c #9494c6c6ffff",
"o. c #9494ceceffff",
"O. c #9c9cceceffff",
"+. c #a5a5d6d6ffff",
"@. c #adaddedeffff",
"#. c #b5b5d6d6ffff",
"$. c #adade7e7ffff",
"%. c #b5b5e7e7ffff",
"&. c #bdbde7e7ffff",
"*. c #bdbdefefffff",
"=. c #c0c0c0c0c0c0",
"-. c #c6c6cececece",
";. c #c6c6efefffff",
":. c #ceceefefffff",
">. c #c6c6f7f7ffff",
",. c #cecef7f7ffff",
"<. c #d6d6f7f7ffff",
"1. c #e7e7ffffffff",
"2. c None",
/* pixels */
"2.2.2.2.2.2.2.2.2.2.2.2.2.2.2.2.2.2.2.2.2.2.",
"2.2.2.2.2.2.2.2.2.2.2.2.2.2.2.2.2.2.2.2.2.2.",
"2.2.2.2.2.2.2.2.2.2.2.T ! f G T 2.2.2.2.2.2.",
"2.2.2.2.2.2.2.2.2.2.2.Y -.;.t D 2.2.2.2.2.2.",
"2.2.2.2.2.2.2.2.2.2.2.T { *.o.h p T 2.2.2.2.",
"2.2.2.2.2.2.2.2.2.2.2.Y / O.+.O.u 6 T 2.2.2.",
"2.2.2.2.2.2.2.2.2.2.2.T Q X.X.o.O.k a U 2.2.",
"P E m z c R K } T | T H V ] ] ] X.X.l 9 I 2.",
"x <.1.:.#.O.` ( W ~ ^  .' A _ _ ] ] ] j w P ",
"g >.%.$.@.%.%.&.;.,.<.;.[ A _ _ _ ) _ ] u q ",
"n $.O.[ ] ] ] _ ] ] ] _ A ) A ) A A Z Z M , ",
"g O.X._ _ A A A A A A A _ A A A A Z N j > # ",
"r .._ Z B M k k u 2 2 k A A A A C B i : o 3 ",
"e y 1 : - $ + @ & ; ; + k ) Z Z B u - o 7 U ",
"L 9 & & 3 4 S J U T T F b Z C N j - o * L 2.",
"2.Y P Y 2.2.2.2.2.2.2.T W M M y % o 8 P 2.2.",
"2.2.2.2.2.2.2.2.2.2.2.2.W j y = . 0 Y 2.2.2.",
"2.2.2.2.2.2.2.2.2.2.2.2.v < % X 4 P 2.2.2.2.",
"2.2.2.2.2.2.2.2.2.2.2.2.s O   5 | 2.2.2.2.2.",
"2.2.2.2.2.2.2.2.2.2.2.2.D & d T 2.2.2.2.2.2.",
"2.2.2.2.2.2.2.2.2.2.2.2.2.2.2.2.2.2.2.2.2.2.",
"2.2.2.2.2.2.2.2.2.2.2.2.2.2.2.2.2.2.2.2.2.2."
};
