/* XPM */
static char *magick[] = {
/* columns rows colors chars-per-pixel */
"22 22 32 1",
"  c Gray100",
". c #eaebff",
"X c #e6e6ff",
"o c #afafaf",
"O c #828276",
"+ c #757aff",
"@ c #6369ff",
"# c #42435d",
"$ c #25251f",
"% c Gray2",
"& c #02025c",
"* c #0101f2",
"= c #000084",
"- c #000082",
"; c #00006c",
": c #00004f",
"> c #000047",
", c #00003e",
"< c #000024",
"1 c #00001b",
"2 c Gray0",
"3 c none",
"4 c Gray0",
"5 c Gray0",
"6 c Gray0",
"7 c Gray0",
"8 c Gray0",
"9 c Gray0",
"0 c Gray0",
"q c Gray0",
"w c Gray0",
"e c Gray0",
/* pixels */
"3333333333333333333333",
"3333333333333333333333",
"3333333333333333333333",
"3333333333333333333333",
"3====================3",
"======================",
"=====<1111111111<;====",
"====,%$$$$$$$$$$$#====",
"====,Oooooo      .====",
"==+=>Oooooo%     X=+==",
"=+ =:Oooooo%$    X= +=",
"+  =:Oooooo%$    X=  +",
"=+ =&Oooooo%$    X= +=",
"==+=&Oooooo%$    X=+==",
"====&OO%%%%%$    .====",
"====&OO$$$$$$    .====",
"====*@@@@@@@@@@@@@====",
"3====================3",
"3333333333333333333333",
"3333333333333333333333",
"3333333333333333333333",
"3333333333333333333333"
};
