/* XPM */
static char *magick[] = {
/* columns rows colors chars-per-pixel */
"22 22 129 2",
"   c Gray0",
".  c #080800000000",
"X  c #101000000000",
"o  c #101008080808",
"O  c #181800000000",
"+  c #181808080808",
"@  c #292910100808",
"#  c #292910101010",
"$  c #292918181818",
"%  c #393908080000",
"&  c #313118181010",
"*  c #393921211818",
"=  c #292921212121",
"-  c #313121212121",
";  c #393921212121",
":  c #393929292121",
">  c #393929292929",
",  c #393931313131",
"<  c #4a4a00000000",
"1  c #5a5a08080000",
"2  c #5a5a18181010",
"3  c #424229292121",
"4  c #4a4a31312929",
"5  c #424239393131",
"6  c #424239393939",
"7  c #4a4a39393939",
"8  c #5a5a39393131",
"9  c #5a5a39393939",
"0  c #7b7b10100000",
"q  c #737331312121",
"w  c #737331312929",
"e  c #525242423939",
"r  c Gray26",
"t  c #4a4a42424242",
"y  c Gray29",
"u  c #525242424242",
"i  c #525252524a4a",
"p  c #63634a4a4a4a",
"a  c #636352525252",
"s  c #63635a5a5a5a",
"d  c #6b6b52525252",
"f  c #6b6b5a5a5a5a",
"g  c #73735a5a5252",
"h  c #7b7b63635a5a",
"j  c #6b6b63636363",
"k  c Gray42",
"l  c #737363636363",
"z  c #73736b6b6b6b",
"x  c Gray45",
"c  c #7b7b73737373",
"v  c #7b7b7b7b7b7b",
"b  c #949418180000",
"n  c #8c8c29291818",
"m  c #adad21210808",
"M  c #b5b531311818",
"N  c #9c9c42423939",
"B  c #9c9c4a4a3939",
"V  c #bdbd42421818",
"C  c #adad42422929",
"Z  c #b5b55a5a3939",
"A  c #94944a4a4242",
"S  c #9c9c52524a4a",
"D  c #9c9c5a5a5252",
"F  c #9c9c63635a5a",
"G  c #9c9c73735252",
"H  c #848463636363",
"J  c #84846b6b6363",
"K  c #8c8c6b6b6363",
"L  c #84847b7b7b7b",
"P  c #949473737373",
"I  c #adad5a5a4242",
"U  c #b5b552524242",
"Y  c #adad7b7b5a5a",
"T  c #bdbd63635252",
"R  c #a5a573736363",
"E  c #cece29290808",
"W  c #d6d631311818",
"Q  c #e7e731311010",
"!  c #d6d642422121",
"~  c #d6d652523131",
"^  c #dede5a5a3131",
"/  c #d6d652524242",
"(  c #dede5a5a4a4a",
")  c #cece63634242",
"_  c #d6d673734a4a",
"`  c #d6d67b7b5a5a",
"'  c #dede73736363",
"]  c #efef5a5a4242",
"[  c #e7e77b7b5a5a",
"{  c #f7f76b6b5252",
"}  c #f7f77b7b5a5a",
"|  c #e7e77b7b6363",
" . c #848484847b7b",
".. c #9c9c84846b6b",
"X. c #9c9c94947b7b",
"o. c #a5a58c8c7373",
"O. c #d6d68c8c6363",
"+. c #efef94947373",
"@. c #f7f78c8c6b6b",
"#. c #f7f79c9c7b7b",
"$. c #848484848484",
"%. c Gray55",
"&. c Gray58",
"*. c #9c9c94949494",
"=. c Gray61",
"-. c #a5a58c8c8c8c",
";. c #adad94948c8c",
":. c #bdbd94948c8c",
">. c #bdbd9c9c9494",
",. c #a5a5a5a5a5a5",
"<. c #adada5a5a5a5",
"1. c Gray68",
"2. c #b5b5adadadad",
"3. c Gray71",
"4. c Gray74",
"5. c #c6c68c8c8484",
"6. c #c6c6bdbdbdbd",
"7. c #f7f7adad8c8c",
"8. c #f7f7bdbd9c9c",
"9. c #f7f7c6c6a5a5",
"0. c #f7f7cecea5a5",
"q. c #ffffcecea5a5",
"w. c #f7f7e7e7bdbd",
"e. c #c0c0c0c0c0c0",
"r. c #f7f7e7e7c6c6",
"t. c #ffffefefc6c6",
"y. c #f7f7f7f7dede",
"u. c #ffffffffdede",
"i. c None",
/* pixels */
"i.i.i.i.i.i.i.i.i.i.i.i.i.i.i.i.i.i.i.i.i.i.",
"i.i.i.i.i.i.i.i.i.i.i.i.i.i.i.i.i.i.i.i.i.i.",
":.W *.i.i.i.i.i.i.i.i.i.i.i.i.i.i.i.i.;.Q 5.",
"' E z i.i.i.i.i.i.i.i.i.i.i.i.i.i.i.i.R Q ' ",
"| V s i.i.i.i.i.i.i.i.i.i.i.i.i.i.i.i.D ! [ ",
"+.Z t i.i.i.i.i.i.i.i.i.i.i.i.i.i.i.i.A ^ +.",
"8.Y 6 i.3.<.i.i.i.i.4.3.i.i.i.i.4.4.i.N _ 7.",
"r.o.6 3.d = x 4.i.3.a : $.i.i.4.f , *.A ` 0.",
"y.X., l #     &.i.c @   o 1.i.L @   = n O.w.",
"u.X.+ K * . . r 2.H ;   . k 4.h ;     1 O.w.",
"t...- >.> i 9 e a >.; = 8 u z >.> X 7 2 ` q.",
"9.G 3 9 y 3.g 9 3 p t =.g 4 3 h 7 c J q ) 7.",
"#.I + . &.i.j O & X &.4.u O * + %.4.$ % ~ @.",
"} C   r 4.i.2.$ . t 4.i.=.+ X 6 3.i.v O ! { ",
"{ M = 3.i.i.i.,.x 3.i.i.i.&.j 3.i.i.4.w W ] ",
"( m 5 i.i.i.i.i.i.i.i.i.i.i.i.i.i.i.6.B E / ",
"T b 6 4.i.i.i.i.i.i.i.i.i.i.i.i.i.i.4.B m U ",
"R 0 t i.i.i.i.i.i.i.i.i.i.i.i.i.i.i.i.S b F ",
"P < a i.i.i.i.i.i.i.i.i.i.i.i.i.i.i.i.F 1 J ",
"=.#  .i.i.i.i.i.i.i.i.i.i.i.i.i.i.i.i.-.* =.",
"i.i.i.i.i.i.i.i.i.i.i.i.i.i.i.i.i.i.i.i.i.i.",
"i.i.i.i.i.i.i.i.i.i.i.i.i.i.i.i.i.i.i.i.i.i."
};
