/* XPM */
static char *magick[] = {
/* columns rows colors chars-per-pixel */
"22 22 64 1",
"  c Gray100",
". c #94b6f4",
"X c #88a1cc",
"o c #7196ed",
"O c #6b79b2",
"+ c #6a7ebc",
"@ c #546596",
"# c #4e58a5",
"$ c #475290",
"% c #404c92",
"& c #3c53d5",
"* c #394ccb",
"= c #323a8d",
"- c #2136d8",
"; c #1a21a1",
": c #1a1d6c",
"> c #192391",
", c #1621b6",
"< c #151968",
"1 c #1420c6",
"2 c #121ba7",
"3 c #11188d",
"4 c #0e16ac",
"5 c #090ea2",
"6 c #040799",
"7 c #030493",
"8 c #01028e",
"9 c #010282",
"0 c #010190",
"q c #00018c",
"w c #000097",
"e c #000092",
"r c #000091",
"t c #00008d",
"y c #00008b",
"u c #00008a",
"i c #000089",
"p c #000087",
"a c #000086",
"s c #000085",
"d c #000084",
"f c Gray0",
"g c none",
"h c Gray0",
"j c Gray0",
"k c Gray0",
"l c Gray0",
"z c Gray0",
"x c Gray0",
"c c Gray0",
"v c Gray0",
"b c Gray0",
"n c Gray0",
"m c Gray0",
"M c Gray0",
"N c Gray0",
"B c Gray0",
"V c Gray0",
"C c Gray0",
"Z c Gray0",
"A c Gray0",
"S c Gray0",
"D c Gray0",
"F c Gray0",
/* pixels */
"ggggggggggO-Xggggggggg",
"gggggggggO&9>ggggggggg",
"ggggggggO.799$gggggggg",
"gggggggX.49998@ggggggg",
"gggggggX*999995Xgggggg",
"ggggggOo9999898$gggggg",
"gggggOo698999999@ggggg",
"gggggO4999999999;Xgggg",
"gggg@,99999899999$gggg",
"gggg17777788777768gggg",
"ggggg@@@@@@@@@@@@ggggg",
"gggggggggggggggggggggg",
"ggggg222222222228ggggg",
"gggg=999999999999:gggg",
"gggg+799999999999#gggg",
"ggggg%8999999997%ggggg",
"gggggg=99899898:gggggg",
"gggggg+79999998Ogggggg",
"ggggggg#899997%ggggggg",
"gggggggg%9998:gggggggg",
"ggggggggg:99<Xgggggggg",
"ggggggggg+39#ggggggggg"
};
