/* XPM */
static char *magick[] = {
/* columns rows colors chars-per-pixel */
"22 22 8 1",
"  c Gray100",
". c Gray40",
"X c Gray6",
"o c #0e1212",
"O c Gray0",
"+ c None",
"@ c Gray0",
"# c Gray0",
/* pixels */
"++XXXXXXXXXXXXXXXXXX++",
"+XXXXXXXXXXXXXXXXXXXX+",
"XXX+XX+++++++++.+++XXX",
"XX++XX+++++++++.++++XX",
"XXXXXXXXXXXXXXXXXXXXXX",
"XoXXXXXXXXXXXXXXXXXXXX",
"XX++XX+++++++++.++++XX",
"XX..XX..............XX",
"XX++XX+++++++++.++++XX",
"XX..XX..............XX",
"XX++XX+++++++++.++++XX",
"XX..XX..............XX",
"XX++XX+++++++++.++++XX",
"XX..XX..............XX",
"XX++XX+++++++++.++++XX",
"XX..XX..............XX",
"XX++XX+++++++++.++++XX",
"XX..XX..............XX",
"XX++XX++++++++++++++XX",
"XXX+XX+++++++++++++XXX",
"+XXXXXXXXXXXXXXXXXXXX+",
"++XXXXXXXXXXXXXXXXXX++"
};
