/* XPM */
static char *magick[] = {
/* columns rows colors chars-per-pixel */
"22 22 64 1",
"  c Gray100",
". c #fcfcff",
"X c #f3f3fa",
"o c #ebebf3",
"O c #e7e7e5",
"+ c #dbdbe5",
"@ c #d5d5db",
"# c #cbcbc9",
"$ c #c7c7cf",
"% c #babac5",
"& c Gray72",
"* c #aaaab2",
"= c #a2a2aa",
"- c #9a9aa4",
"; c #94949a",
": c #898994",
"> c #838385",
", c #77777f",
"< c #6d6d75",
"1 c #67676d",
"2 c #616169",
"3 c #585861",
"4 c #505058",
"5 c #46464e",
"6 c #424246",
"7 c #383842",
"8 c #323238",
"9 c #272732",
"0 c #1f1f25",
"q c #171719",
"w c #0f0f17",
"e c #070711",
"r c #010105",
"t c Gray0",
"y c None",
"u c Gray0",
"i c Gray0",
"p c Gray0",
"a c Gray0",
"s c Gray0",
"d c Gray0",
"f c Gray0",
"g c Gray0",
"h c Gray0",
"j c Gray0",
"k c Gray0",
"l c Gray0",
"z c Gray0",
"x c Gray0",
"c c Gray0",
"v c Gray0",
"b c Gray0",
"n c Gray0",
"m c Gray0",
"M c Gray0",
"N c Gray0",
"B c Gray0",
"V c Gray0",
"C c Gray0",
"Z c Gray0",
"A c Gray0",
"S c Gray0",
"D c Gray0",
"F c Gray0",
/* pixels */
"yyyyyyyyyyyyyyyyyyyyyy",
"yyyyyyyyyyyyyyyyyyyyyy",
"yy XOXoO#;XO@;#X+#Xyyy",
"yy    Xo+5+ X;1  *1 yy",
"y   ==-;=50=--r4=-9@yy",
"y  O==--->r,--5q==34 y",
" X =-;-;:-90--,r1->wOy",
"   ;--;::-1r1;;8w;-81 ",
"O @;-;;;;;:77;:3r3>3r ",
"$ =-;;;:;---&o+O#*&*61",
"=o=;-:;;-;--*%@     -w",
":o*:;;;:;;-;-;;;:;;:9w",
">o%;;;:-:;;;;;;;;;-:9w",
",o%-;;;:;:;:;:;:;::10r",
"<+$;:;:;:::;:::::::3qr",
"<$#;;;:;:;:::::::>:4ee",
";*%-::::::::>:>:>:,5r0",
"-:&;::;::::::::::>>7r8",
"#w99988889899999999rr1",
"y3688qewrerrrrrrreq96y",
"yyyyyyyyyyyyyyyyyyyyyy",
"yyyyyyyyyyyyyyyyyyyyyy"
};
