/* XPM */
static char *magick[] = {
/* columns rows colors chars-per-pixel */
"22 22 118 2",
"   c Gray0",
".  c Gray3",
"X  c #101010101010",
"o  c #101010101818",
"O  c #181818181818",
"+  c #101010102121",
"@  c #181818182121",
"#  c #181818182929",
"$  c Gray13",
"%  c #212121212929",
"&  c Gray16",
"*  c #212121213131",
"=  c #292929293131",
"-  c #292929293939",
";  c #313131313131",
":  c #313131313939",
">  c #393939393939",
",  c #313131314242",
"<  c #393939394242",
"1  c Gray26",
"2  c #424242424a4a",
"3  c Gray29",
"4  c #424242425252",
"5  c #4a4a4a4a5252",
"6  c #4a4a4a4a5a5a",
"7  c Gray32",
"8  c #5a5a5a5a5a5a",
"9  c #525252526363",
"0  c #5a5a5a5a6363",
"q  c #5a5a63636b6b",
"w  c Gray39",
"e  c Gray42",
"r  c #6b6b6b6b7373",
"t  c Gray45",
"y  c #7b7b7b7b7b7b",
"u  c Blue",
"i  c #08080808f7f7",
"p  c #08080808ffff",
"a  c #18181818ffff",
"s  c #21212121ffff",
"d  c #29292929f7f7",
"f  c #31313131ffff",
"g  c #31313939f7f7",
"h  c #39394a4aefef",
"j  c #39394a4af7f7",
"k  c #42424242f7f7",
"l  c #4a4a4a4af7f7",
"z  c #4a4a5252e7e7",
"x  c #4a4a5252efef",
"c  c #4a4a5a5aefef",
"v  c #52525a5ae7e7",
"b  c #52525a5af7f7",
"n  c #5a5a6363e7e7",
"m  c #5a5a6b6bf7f7",
"M  c #6b6b6b6be7e7",
"N  c #63636363f7f7",
"B  c #6b6b6b6bf7f7",
"V  c #6b6b7b7bffff",
"C  c #7b7b7b7befef",
"Z  c #7b7b8484e7e7",
"A  c #848484848484",
"S  c Gray55",
"D  c #949494948c8c",
"F  c Gray58",
"G  c Gray61",
"H  c #9c9c9c9ca5a5",
"J  c #a5a5a5a5a5a5",
"K  c Gray68",
"L  c #b5b5b5b5adad",
"P  c Gray71",
"I  c Gray74",
"U  c #94949494d6d6",
"Y  c #84849494f7f7",
"T  c #94949494efef",
"R  c #9c9c9c9cefef",
"E  c #94949c9cf7f7",
"W  c #9c9ca5a5f7f7",
"Q  c #9c9cadadffff",
"!  c #adadadaddede",
"~  c #b5b5b5b5dede",
"^  c #a5a5a5a5efef",
"/  c #adadadade7e7",
"(  c #adadadadefef",
")  c #a5a5b5b5f7f7",
"_  c #a5a5b5b5ffff",
"`  c #bdbdbdbdefef",
"'  c #bdbdc6c6e7e7",
"]  c #bdbdc6c6efef",
"[  c #c6c6c6c6c6c6",
"{  c #cececececece",
"}  c #c6c6c6c6dede",
"|  c #cecececed6d6",
" . c #cecececedede",
".. c #deded6d6cece",
"X. c Gray84",
"o. c #dedededed6d6",
"O. c Gray87",
"+. c #c6c6c6c6efef",
"@. c #c6c6ceceffff",
"#. c #d6d6dedeefef",
"$. c #dedededee7e7",
"%. c #dedededeefef",
"&. c #e7e7e7e7dede",
"*. c #efefefefdede",
"=. c #efeff7f7dede",
"-. c #ffffffffdede",
";. c #e7e7e7e7e7e7",
":. c #e7e7e7e7efef",
">. c #efefefefe7e7",
",. c #efefefefefef",
"<. c #efefefeff7f7",
"1. c #f7f7f7f7e7e7",
"2. c #f7f7f7f7efef",
"3. c #ffffffffe7e7",
"4. c #ffffffffefef",
"5. c Gray97",
"6. c #fffffffff7f7",
"7. c Gray100",
/* pixels */
"P 9 * # % + @ o @ @ @ @ @ + O + + @ # % 4 K ",
"6 ; F G H J J K K K K K K K K K J J J G 2 : ",
"% F F X.2.,.>.:.>.:.>.:.>.,.;.,.,.,.X.D X.& ",
"= A O o.,.$.,.,.,.,.O.;.<.;.O.;.,.5.F & 5.< ",
"* > X 8 X.,.S 3 8 K 5.[ e [ 2.{ e I 1 X A 2 ",
"= 7 X y ;.e & F y O P ,.> > ,.> 3 O.7 O J 2 ",
": F & O.O.. G ;.;.8 1 5.O.; ; > ;.7.F > 7.5 ",
": S $ { [   ; ; ; & 7 O.7.S   G 5.5.A ; 5.2 ",
": F $ O.X.. K O.O.I P ,.X.; > > O.5.y 1 7.3 ",
": G X G ;.1 3 O.{ & t 5.1 1 ,.; 7 7.S O [ 2 ",
": I w O I X.3 & & 8 ;.P > [ 5.I ; [ X.> 3 2 ",
"- I 5.X.O.1.2...o.2.;.O.>.1.*.3.>.&.;.,.;.2 ",
": P >.;.#.] ( ) ( ' ;.;.' / R R (  .>.,.;.2 ",
"> P ,.) n c x x h j b d u u u u u u n ,.;.2 ",
": L @.v U } | |  .U u p C ^ / / R N p C >.5 ",
", L Q ~ -.>.>.>.3.( a m $.-.=.=.-.-.C f &.2 ",
"< J _ W &.;.*.>.=.` j l ' >.>.>.$.^ s N *.2 ",
"< J +.m V Y E E Y B g i i a s a p u d %.O.3 ",
"1 F 1.~ Z n z z v M ! ( M x k x N T $.2.X.2 ",
"5 A 7.2.1.>.;.;.>.1.2.3.4.4.2.3.4.3.2.7.[ 2 ",
"r > | ;.<.5.5.6.5.5.5.<.<.2.,.,.,.,.$.X.q 0 ",
"P 2 % : < < < < < < < < < < < < < : > = 7 P "
};
