/* XPM */
static char *magick[] = {
/* columns rows colors chars-per-pixel */
"22 22 46 1",
"  c #060606060606",
". c Gray5",
"X c #0d0d0e0e1717",
"o c #161616161616",
"O c #161617171e1e",
"+ c Gray12",
"@ c #1e1e1e1e2222",
"# c Gray15",
"$ c #262626262d2d",
"% c #2f2f2f2f2f2f",
"& c #2f2f2f2f3636",
"* c #373737373737",
"= c #373737373838",
"- c #3f3f3f3f3f3f",
"; c #3b3b3c3c4242",
": c #464646464646",
"> c #474747474848",
", c Gray31",
"< c #565656565757",
"1 c #5b5b5b5b5b5b",
"2 c #565656566565",
"3 c #5d5d5d5d6464",
"4 c #676767676767",
"5 c #6d6d6d6d6d6d",
"6 c #767676767676",
"7 c #7e7e7e7e7f7f",
"8 c #808080808080",
"9 c #8f8f8f8f8e8e",
"0 c Gray59",
"q c #9f9f9f9f9f9f",
"w c #a7a7a7a7a7a7",
"e c #afafafafaeae",
"r c #b7b7b7b7b7b7",
"t c Gray75",
"y c #c5c5c5c5c5c5",
"u c Gray81",
"i c #d7d7d7d7d7d7",
"p c #dfdfdfdfdfdf",
"a c #dfdfdfdfe2e2",
"s c #e7e7e7e7e7e7",
"d c #e6e6e6e6e8e8",
"f c #e8e8e8e8e7e7",
"g c #efefefefefef",
"h c #efefefeff0f0",
"j c Gray97",
"k c Gray100",
/* pixels */
"e2@@@OOOO+O+OOOOOO@#>e",
",&90qqqqwwwwwwwqqqq0:*",
"@99issssspsssssssdu9y$",
"&7+uspssssppspppgj9%g;",
"$-.1is8,<esy4tgy5r-.7;",
"$,X6p5#06oes--s-,i<+q>",
"&9#ii.0pp<:gu%%*ij9*k>",
"*8#ut %%*%,pj8 0jg7*g>",
"*9#uu.wiiresu*-*ij7-j>",
"*0o0p-:iy%5g:-s*,j8+t>",
"&r1+ru,%#1pe*tgr*tu=>:",
"&rguissuuspipsispissp:",
"*esppppppppppppppppsa;",
"*espppippppipipppppsp>",
"*wspipppippppppppppsp>",
"=wsppppppppppppppppsi>",
";qsipppppppppppppppsi>",
";0sppppppppppppppppsi>",
";0sppppppppppppppppdu>",
",7jsssssssssssssfsgky;",
"5=usgggggghggggdgspu33",
"r>@&=;;;;;;;;==;=-=&,r"
};
