/* XPM */
static char *magick[] = {
/* columns rows colors chars-per-pixel */
"22 22 32 1",
"  c Gray100",
". c #f1feff",
"X c Gray94",
"o c #f08e3e",
"O c #e6f2fc",
"+ c Gray82",
"@ c Gray78",
"# c #aeaeae",
"$ c Gray67",
"% c #a7a7a7",
"& c #9f9f9f",
"* c #989897",
"= c #979a9d",
"- c #979797",
"; c #969ba0",
": c #914202",
"> c Gray56",
", c #89909a",
"< c #888b91",
"1 c Gray48",
"2 c #6f6f6f",
"3 c Gray33",
"4 c #515151",
"5 c #353535",
"6 c Gray0",
"7 c None",
"8 c Gray0",
"9 c Gray0",
"0 c Gray0",
"q c Gray0",
"w c Gray0",
"e c Gray0",
/* pixels */
"7777777777777777777777",
"7777777777777777777777",
"7772222222222222222@77",
"772          X+++#>%77",
"772   +++++++####13677",
"772+++###33<&%&&&13677",
"772#####3O;3>&&&-13677",
"772#%%&3...,3<*--13677",
"772#%&&&3...,3*--13677",
"772#%&&-o3...35&-13677",
"772%%&&&oo3.35---13677",
"772%%&*oo::35---&23677",
"772#%&*o::------>13677",
"772%&&oo:------>>13677",
"772%&&o::------>>13677",
"772%&==:->---->>>13677",
"772&&->>>>>->>>>>13677",
"772&--1111111111133677",
"77#2333333333333336-77",
"777&66666666666666>777",
"7777777777777777777777",
"7777777777777777777777"
};
