/* XPM */
static const char * matrix_font[] = {
"28 432 64 1",
" 	c None",
".	c None",
"+	c #1D841D",
"@	c #2DC62D",
"#	c #99DC99",
"$	c #26A425",
"%	c #63C862",
"&	c #114410",
"*	c #48AC47",
"=	c #186717",
"-	c #65DE64",
";	c #219420",
">	c #3BD339",
",	c #27B425",
"'	c #D4F6D4",
")	c #1A741A",
"!	c #47C847",
"~	c #9DEB9C",
"{	c #7EDF7E",
"]	c #175417",
"^	c #399438",
"/	c #3FA33F",
"(	c #38B438",
"_	c #31842F",
":	c #81D283",
"<	c #072806",
"[	c #B8F0B8",
"}	c #2B782A",
"|	c #51D44F",
"1	c #81E67E",
"2	c #4EBA4E",
"3	c #246824",
"4	c #56C655",
"5	c #0C380D",
"6	c #F7FDF7",
"7	c #031804",
"8	c #64D363",
"9	c #AFE6AE",
"0	c #6AAA6C",
"a	c #61BB60",
"b	c #9CE49D",
"c	c #C4F2C5",
"d	c #39C939",
"e	c #73DF70",
"f	c #8ED58E",
"g	c #27AC27",
"h	c #229C22",
"i	c #3FDB3F",
"j	c #195C19",
"k	c #3C9C3B",
"l	c #53DC51",
"m	c #73C974",
"n	c #8DDF8E",
"o	c #E2FAE2",
"p	c #AAECA8",
"q	c #71D370",
"r	c #1F8C1E",
"s	c #29BC27",
"t	c #39AD38",
"u	c #3ABC3A",
"v	c #144C13",
"w	c #1B7C1A",
"x	c #338C32",
"y	c #8FE88E",
"............................",
"....777777........77<<77....",
"...755&&5<7......<]==)j57...",
"..7&_x_k}j<.....7=nn#pqh57..",
"..<=*k_^^x&7...7&$6oe[ob)7..",
".7v_2x]j^2j7...7+f6bhhp6;<..",
".73^*}vvx2357..<t'6|++b6(v7.",
".<}//)&&_2}&7..5466dwwb6!=7.",
".<}/k3&&_2}v7..5f66sw)b6nw7.",
".<}//}v&_2}&7..5%66d+)b6%=7.",
".73^2}vv_*3<...<g[6|+rb6t&7.",
".7&}4x]j^2j<...7)86{;gp6h<..",
"..<j2x3}^kv7...7&$6ysd[c)7..",
"..753_^^}v<7....7j!-['|x57..",
"...7&vjj&<7.....7<=r$$w57...",
"....777777........7<<<77....",
"............................",
".....7<77..........7<<7.....",
"....7&]v5<........7=x)]5....",
"....7x4^}j7.......<#oc8$<...",
"...7</-x3v7......75p692+7...",
"...7</8=5<.......7&[6/]<....",
"...7</8j<7.......7&[6h&7....",
"...7</8j<7.......7&[6;57....",
"...7</8j<7.......7&[6;57....",
"...75/8j<7.......<v[6;57....",
"...75/-j<7.......<][6;57....",
"...75/8]<7.......<]'6;57....",
"...<&k4357.......5w[6,j<....",
"...<jx/}v<.......5$96!+5....",
"...75v]&<7.......7]w;357....",
".....777..........7777......",
".....777...........777......",
"...7<<55<7.......75&]v57....",
"..7<jj]]v&7.....7&^$h;r)<...",
"..7]*k__x^5.....<x66l|ccj...",
"..534k33_k&.....]a6cdsbc=...",
".7&}4_]v3}<....7)#6b;w(f]...",
".75}4xv5&&7....7=f6br))=<...",
"..53*^=&5<......v*6~,)&<7...",
".7<vxkx]5<7....75+['{;j<7...",
"..753xkw]<7.....<=,1'>;&7...",
".7<&j+^k}v<....7&wh>p[!w5...",
"..&3)w+/k_57...7),d>>o'{=7..",
"..&3x^^**^&7...7=,p-p66c=7..",
"..<]^///k_5.....&h'6666bj7..",
"..7<&]]]v&7.....7&)rr;+3<...",
"....77777.........7<<<77....",
".....777..........77<7......",
"...7<555<7.......75]=j57....",
"..753333]57.....7]2(,u;j7...",
"..<j2/_kx3<.....<^66-6p(5...",
"..534^3_}3<.....]a6[@88(5...",
".7&}2xjjj]7....7):6pg$t;<...",
".7<32/}v5<.....7&t66>;j5....",
".7532*x]57.....7](66{hv7....",
".7&}2/_j57.....7w%6o{$j7....",
".73x/_jv<77....<tc6-gw&<7...",
".73^k)]v]v7....<(6o@r+r_<...",
".7v_/}j=_^5....7re6>$,1'=...",
"..5]__}__}<.....v;{id|{qv...",
"..7<j3}}3v7.....7vhu8q2+<...",
"...7<55557.......75]==v<7...",
".....7777..........7777.....",
".....77............77.......",
"...7<<<7.........75&57......",
"...<v}}57........5+44j<.....",
"..753*2j57......7juo6$]7....",
"..75}/2^=<7.....<=d66[$57...",
"..7&}/2/}v<.....<)>c668+57..",
"..<v_k**k}57....<w>po6c8=7..",
"..<jx/tk/kj<....5h-'6'oc$&..",
".753/2*k/*}&7..7=,[66~o6!=7.",
".7v_244t*/}&7..7+{666o66!)7.",
"..&}*22^_}j5...7=!o6o1eqhj..",
"..<&}xxj&5<7....5w|yeh)j57..",
"..753}35<77.....7vgduj5<7...",
"...<&]v<7........5);r57.....",
"....777...........7<7.......",
"............................",
"....7<<<7........7<<557.....",
"...<&]]]&7.......5w;h;=<....",
"..7&3}xk}v7.....<)!8~'8w<...",
"..<v}^k4k3<.....<+:p'6o(5...",
"..75]3wkx3<.....<jhs>~y(&...",
"..75=)x/^3<.....<jgdl[~u&...",
"..<v_k*2k3<....75+e'o6'g5...",
".7&}*/xx3&7....7)%6oen2)<...",
".7j^2^=j&<7....<hp6y,$)57...",
".73kk}v&5<.....<(o6d+)]<7...",
".7]_^)]jj]7....7;eo@;hhx<...",
".75=^}j}_}<....7]$c>g|eq&...",
"..753}}_}]7.....<=(d!-!h<...",
"...<5]33]57......<=h((x&7...",
"....7<<<7.........7<55<7....",
"............................",
"...7<55<7........7&==57.....",
"...<3}}v57.......5t>4+v7....",
"...7v3}x=57......<wu|y(v7...",
"...75]}/xj<7.....<vhdob$&7..",
"..7<5]=_kkv7....75jr,>pc+<..",
"..7&3}_^24j<....<=28|p66h5..",
".7<3*/k*483<...7vg6o[o66(57.",
".7]_*x)}/4=<7..7;b6y@!c6$&7.",
".73^/)]jx*j<7..<(66dhh~6h57.",
".73^^)]]x2j<...<uo6@r;~6;5..",
".7v_k}j=^*]<...7+86!h,~6r<..",
"..<jk}=}x^&7...7&ho|,>pc)7..",
"..7533}_3v<.....7]$ud|uw<7..",
"...75vjj&7.......7]+hh=<7...",
"....77777.........7<<<7.....",
"............................",
"...75&&&557......<]=))=]<...",
"..7&3}}}3j57....7=u!ddug=7..",
"..<j2*xx^^j5....<k66~1''$v..",
"..<3%2x_xxj5....<0661-99$]..",
"..7v/^}jvv57....<wocd$rwj<..",
"..753xx]5<7.....7]2~y;j5<7..",
"...7&_/]57.......<)np;v<7...",
"...7<3^=&7.......75u[,=<....",
"....7v}}]<........<+4|;<7...",
"....7<vk}<7.......75rc!57...",
".....7&x_]7........<=p|r<...",
".....7<3}}<........7v2|!5...",
"......753}<.........7vte&...",
"........5v7..........7jw<...",
"............................",
"............................",
"......777..........7777.....",
"...775vv&<7......7<=w+=57...",
"...7&3}}3v<7.....<w,ddsr57..",
"..7&^_})xkv7....7=c{@@1[+<..",
"..7]2^))k2j<....7+6~@@~6h57.",
"..7]4k))/2=<7...<x6~@@[6g57.",
"..7vk//(22=<7...<+ooc'66g&7.",
"..<&x24442=57...<wb66666gv7.",
"..<]/22/(2357...5ro66c66,]7.",
"..<j*t^+^/}&7...<;6o1>16@=7.",
"..7j2^==+k}v7...<k6y,g>cdw7.",
"..7]2x=j_2}&7...<r6ygh{6!)7.",
"..7&^_=j_/j<....7=[8s$-'/&..",
"...<&3}33j57.....<)gd@u$v7..",
"....75&&&57......7<]))=v7...",
"......777...........777.....",
".....7777..........77<77....",
"...77&]]&57......7<=;h)&7...",
"...<&3}}3]57....7<)gdds;v7..",
"..7&^x}=_^]<....7)b1dse';5..",
"..<]*x3j}k357...<r6~,$-o(j7.",
"..<j*_j]}^}v7..75h6eh;dcd+7.",
".7<=2xj]wk}v7..75$6-$hdo>+7.",
".7<=4/w)^/}&7..75$6[!@~6d=7.",
"..<=44*/**3<....5h66o'66g&..",
"..7vk2*x_}&7....<wc66b:m=<..",
"..75)k/)v5<7....7]uco@rj57..",
"...<5}/x=57......<=|6~gv<...",
"...7<]}x3&7......7<rfpu)<...",
"....775333<.......7<j(ut5...",
".....7755<7........7<vjv7...",
"............................",
"............................",
"............................",
".....7<&<..........75)&.....",
".....5j^37.........&hc(7....",
".....<j*}<7........5k6f57...",
"....77v*_57.......7<_6bj<...",
"...77<&^_j<......7<5w[-h57..",
"...<5&]}}}57....7<=w;!|8j7..",
"..7533=]}^v7....<=usg;>[w<..",
".7&3}3]v}^v<7..7),>s;rdcr57.",
".<3^x3jj_/}v57.52c-s$$no4+]7",
"75k2x}}^*42^3<7][61>|p666c(&",
".5_k3==3_xx}j<7vqcu$g4:ff:$5",
".<]j5<<<<55557.<xh]5&5vv]j]7",
"..<<77777777....<5777777777.",
"............................",
"....................7.......",
"....75&7..........7v=<......",
"...7&j3<7........7)gt&7.....",
"...<}x_&<7.......58pbw57....",
"...7&}__j<7......<}!1{h57...",
"....7v}k}v<7......<+!'|w57..",
"....7<&j_^]<......75)$-[r5..",
"....775&_*3<......7<&)b6$5..",
".....75v}kj<.......<v+noh5..",
"....7<]}}j57......7&r8|/]7..",
"....<]}_j<7.......<^%{$&7...",
"...7&_/]57.......7=n';&7....",
"...<3}357........52:a]77....",
"...<}]57.........5%;v7......",
"....<77...........5<7.......",
"............................",
"............................",
"....77777.........77777.....",
"...75&v]v57......<j)+^wv7...",
"..7533}x}j57....<jgu!~|h]<..",
".7v}}=3/^}3&7..7r!|,,6'!()7.",
"7<}x3]j*k}}35775!~s;$6o>>gv7",
"75_xv&]/x=}3]<7jnbr)h'~,>dr5",
"7&_xv5v__}}}}5<)bbw=+eed@d!j",
"7&x^v55j}^)}x&<wb~+j=$l~@8~)",
".5_k]55&}/}}}57&9[h=])!6|d|j",
".73}3]&53xx}j<.<*%,;wjtn1|$5",
"..<&33j5&]x}57.753(($=)h9:]7",
"...7555<<5&&7....<]j]&5&)=7.",
".....777777........77<777...",
"............................",
"............................",
"....777..........7777.......",
".<<<<<<<77....7<5&555<<7....",
"<vjjj3}jv&<...<r$$$u%$+)57..",
"<3}}}k*}3357..&g!|>'6eut]<..",
"<5vjj^*3v&<7..<j+hg~6sr)&7..",
"<]]]=k*3]&5<..v;;;g~6s;)v<..",
"v_}=)/2wj]&<..w{@,@c6>ghw&7.",
"53jj)/2}j]&<..]t$g@'6dg;w&..",
"75&vj^*3]&5<..<])r$[6s;)]<..",
".77<5x*]5<7....7<&=b6rv57...",
"..77<_/v<7......7<&bc+57....",
"...7<_/v<7.......75#[+57....",
"....7}*j<.........<#6$&7....",
"....73_v<.........7*#+5.....",
".....7<7...........<5<......",
"............................",
".....77...........7<5.......",
"....<v]7.........7&x;7......",
"....<3_<..........5(#5......",
"....7}^<..........<mpv......",
"....<}^5..........<fp]7.....",
"...77}k57........7<:[j7.....",
"....<}k&7........75f[=7.....",
"....<}k&7........75fc=<.....",
"....7}k&7.........<:[)<7....",
"....73^]<7........<2[r&7....",
"....7v}}]7........7+88;<....",
".....<vx35.........5r9uv7...",
"......<&]v7........753rr7...",
".......7<57..........7&j7...",
"............................",
"............................",
"......7777..........7777....",
"...7<<<<<<<7.....75&&vvv5<..",
"...<3333)3=&7...7&(usuuugw<.",
"..7&x_}}}_x3<...7=p-ddd>{(57",
"..<]/x)))w/_57..<r6e@@@>cn]7",
".7<=/kxx^^*x57.7&$6[lie16n=<",
".7&}/t//t**x&7.7)4oo'co66y)<",
".73k/k//(2/_]<.<4oo'co66'|;5",
".7j_kkkk*2k3&7.7k{[11166y@)<",
"..<]^^xx*4_]<7.75;~-iio6-;57",
"..7]/^w)x^}]<...<+oe@@l~|;<.",
"..7vkx))3=3v7...<)'l@@s,gw7.",
"..75___)j5<7....7j{-i@hjv<..",
"...<]_^}]<7......5;no>r<7...",
"...7<}k357.......75%'2=7....",
"....7<&<7.........7&=5<.....",
"............................",
".......777...........777....",
"......75&v7........7<v)w<...",
"...77<5=33<......7<<jgut5...",
"..<55&]xx}57...75vj);by!j7..",
".<3xx__^kkv7..7&2bbq|-oc+<..",
"7<}k*/kxk/j<..7&m'66[-o6$&..",
".753x//w__}v7..7jt[o[>l{uw7.",
"..7&3^/3=3}j7...<=t[osggd$<.",
"..7<5_k=&&3j<...7<]:6gw=t^5.",
"...7<j}}]<5<7....7<h8d;&]57.",
"....75]}j57.......7v;dgj<...",
".....7533v<........7&((r<...",
"......75&v<.........7vwx5...",
"........<5<...........5j<...",
"............................",
"............................",
"....<77<<.........<<<]5.....",
"...<]&&}j<.......5;))qh<7...",
"..75_3jk}57.....7j{(h'8v<...",
".7<v/}3*x5<7...7<+6|s6n)57..",
".<<j*_w2^v5<..75&;6ed6-r]<..",
"<jj}2kx4/=]57.5hh%6~16ps;j7.",
"5__^4*/42x}]<.jn{p66c66id;5.",
"7v]}2kr2/)j57.<w;46~l6[@h=7.",
".7<]*_)kx=&<7..75r6|s[-,=57.",
"..7v/}j}_}&<....<w6>$|l|)<7.",
"..7&k3&j}_v<....7=c!wh>bw<..",
"...5^3553_]<7....j[(]]gp;57.",
"...<}v<<5vj&7....&q+<<]+$)<.",
"...7v57777&&7....7+v777<)=7.",
"..........7.............77..",
"............................",
"....7<57..........7&=<7.....",
"...7<3_&77.......<<({j<7....",
".77<5_kv5<7....7<&j#'rv<7...",
".<vjj^*3]v57..75w;hp6,;wv7..",
"7&^*x*4xx^35..<)bo-661b[tj..",
"<&/2_*4xxk}&..<)c6io6{~6!)7.",
"75^*)/2)}^3&..<=pc@[6@>cu)7.",
"75^2_*4x^k}&..<j~oeo61[6!)7.",
"7<_k_*4_x^3&..7&{'8o6nncu=..",
".<v=vx*jj3v<..7<+$rb6g$(+5..",
".7<55_/]55<7...75j]#'r=j57..",
"...7<}^5<7.......7<%[=<7....",
"....7]}<7.........7;:&7.....",
".....5&7...........v)7......",
"............................",
"............................",
"......7<<<77........7&&577..",
"......<j]55<........5h;)]<..",
".....75x_jv5.......7jb-grv..",
".....7&k^}]5.......<)[6>hv7.",
".....<v}kk]<7.....75wlc[;57.",
"....753^/kj<7.....7j,poc$&7.",
"....7&}**^=57.....7)!66ygj7.",
"....753*tx=&7.....<j,o6ls)<.",
"...7<5j/t^}v7....75j$[6~>r<.",
"..7<5&=k*txj7..7<5]wg~66lh<.",
".<v=3w^k/k}&7..5+g,8[[o'uw<.",
"753}}x^___j57.7vt||bbq{qgj7.",
".7v3j]&&&&3v7..<+tt;))=)gw7.",
"..<&5<<7<<5<...75==&<<<<j&..",
"....................7.......",
"............................",
"....7<5<7.........7&=57.....",
"...7<]3v<7.......7<;!w57....",
"..7<5_/]5<7.....<5]f';]57...",
".<j}3/4}=]&<...5km,668gr=5..",
"75k2^28t^}3&..7=[6'66op8(=..",
"75^*}^*kx3]<..7vp6|~'[-urv..",
"7<x/=)x^}]57..75bc,@l1>h]<..",
"7<_k=j)/}&<7..75#[,,@o|)57..",
".73x}=)^}&<7...<2b@s@[|)57..",
".7]}x_}_3]57...7r!~lde@;&7..",
"..<j/^}]3}]5....&h6c@h(|hv..",
"..75_}]5v3]5....7jf:;v+2;]..",
"...7<<777<5<.....755<<<5]5..",
"..........77............77..",
"............................",
"............................",
"...7777777.......77<7777....",
"..<55<<<55<7....5=v&55v]57..",
".73_jv55j}]5...<tq$wj=h!;v..",
".7}^=v&&3x3&...<#c,r)),1()7.",
".<}^=v&&3_3v7..5#p,+))s{@w7.",
".<}k=&&&=x}v7..5#[,w=)s{d+7.",
".<}^=v5&=x}v7.75#~g+=)s1d+7.",
".<}^jv5&)x}v7..5#pg+=)syd+7.",
".<}k})==_k}v7..<#6>s$g-6!+7.",
".7}k_}3}x/}v7..<q6-d@dp6!w7.",
".73_j&&&3_3&7..7ub$w=)(nu)7.",
"..&]5<<<&]v<....)^]555);+&..",
"...777777<77....777777<<<7..",
"............................",
"............................",
"....77777........777777.....",
"..7<<<<<<777....<55&&&5<77..",
"..&==j]j]]&57..7)$$h;h;r)v7.",
".7}**^x^^^x35..7q6opl~[ob(v.",
".7]_kkk*^}3]<..7xf''c6p!2r5.",
"..7&}xk*_v&57...<=dey6-r)v7.",
"..7<&]}*_5<7....75)h@6b)&<..",
"...7<5]/}5<7.....7<jh68]57..",
"....7<&^}5<.......75w9uv<...",
".....75}3&<........7j8u)57..",
"......<]3j57........5;g$v7..",
"......7<]}v<........75;!+5..",
".......75]5<.........7]r=5..",
".........777...........7<7..",
"............................",
"............................",
"....7<<<<<77......75&<5&57..",
"...7<3}&j}j5.....7&t%=$#hv..",
"..7<5_k]3^}&7...75=#c;uou)7.",
"..<&vx*=}^}]7...5=+96,@c|;<.",
"..5]3/2_^*^}57..]hu66-~6puj7",
"..5]}*4xk*k}&7..vh%o61~6o4)7",
"..7<&x*)_k_j<...75)96@>p-$5.",
"...75_*=}^}]7....7&b6,dp>;<.",
"...7<_/=)^}v7....75#6g@~dr<.",
"...7<}*=)x}v7....75#6g@pd+7.",
"....7}*3}^}v7.....<#6s|o>+7.",
"....7}*_x/}&7.....<f6{p6!)7.",
"....7v3]3}]5......7_art!hv..",
".....7<75&<7.......7<<v=&<..",
"........77............777...",
"............................",
".75&5<7<77.....7])j5<<<77...",
".5}_3v5v&5<7..7v%b@+=w)v<77.",
".<3_}})}}_3]57.5(n>@@dqf(rj7",
".7v3}^kx/2k_j<.<+sd16p666{$<",
".75j_^^3_k_3&7.7]$iyys-'{*=7",
".75jx^_]j}}j<7.7jg1e|;g!dh57",
".7v}k^}v&]}3<..7+doy|+);!t57",
".73^}_}v5&_3<..<4[||dw=wb457",
".7}^j3}&5v^}<..<:9$@8wjw[f5.",
"..5v5}^v5v^}<...jw=8p+j+[f5.",
"..7<<3^33}x37...7<52c22%o2<.",
"....7v_^//}v7.....7r{ooo#+7.",
".....<&j33&<.......5)/tt)5..",
"......7<<<7.........75557...",
"......................7.....",
"............................",
"....7<7...........<57...7...",
"...<j]&<7<5<.....<$hw5<5]5..",
"...<3}35&]}j7....5(qu==;%k<.",
"...<j_xv]}^}<....5${br;8c%5.",
"...7&_/j3x}v<....<=b'$@'!r5.",
"...75_*___]57....<v{68lbh]<.",
"...75}/*^3577....<]d66~s=<7.",
"..7<5}/4kj57....75jd66p$]<..",
"..<&j_k2k357....5)/-c6'u=<..",
".7v}*kx}^/]<7..<r:ooy|[o;57.",
".7j_x}jv3}j&<..<${b%$+tmg=5.",
".7]3]5<<<&]v5..7;2;=555=;rv7",
"..<<<77777<<7...5v<77777557.",
"............................",
"............................",
"............................",
"..<<7..........7<57.........",
"75]]&<........7jrh)57.......",
"<3xx}v7.......&uyc|)<.......",
"7&}^xj<777<77.<w8o[h5777<<7.",
".<3_k35<<<&57.75gb6uv5<&w=<.",
".7&_2}5<&j_37..7w#6qj&=${t<.",
".753*_]5]}}v7..7vt6nrj;!4x7.",
"..7&xx)&j}v<....<)9{!)$4+5..",
"..7<j^kv&&<7....7&hp[r)w57..",
"...75}k3&<77.....7]8[,)5<7..",
"....7&3_3577......<=g{gv<7..",
"....7<533357......7<=tut]7..",
"......75j}v<........<]/:+5..",
".......7<&v5.........75=r=..",
".........75<..........77v5..",
"............................"};
