/* XPM */
static char *magick[] = {
/* columns rows colors chars-per-pixel */
"16 16 49 1",
"  c #06062d2dffff",
". c #08082e2effff",
"X c #1b1b3f3ff1f1",
"o c #3d3d4e4ebbbb",
"O c #2f2f5050e1e1",
"+ c #26265151fbfb",
"@ c #2b2b5959fefe",
"# c #31315454e2e2",
"$ c #37375e5ef3f3",
"% c #3c3c6565eeee",
"& c #3a3a6565ffff",
"* c #44445b5bc2c2",
"= c #48486060c5c5",
"- c #50506f6fcccc",
"; c #47477575ffff",
": c #4d4d7d7dffff",
"> c #53537c7cebeb",
", c #6c6c8484baba",
"< c #6e6e8787c7c7",
"1 c #6b6b9292e2e2",
"2 c #65659797ffff",
"3 c #6c6c9d9dffff",
"4 c #6c6ca1a1ffff",
"5 c #7e7ea2a2eaea",
"6 c #7676a6a6fefe",
"7 c #7f7fafafffff",
"8 c #8f8f9999b7b7",
"9 c #9f9fa2a2b3b3",
"0 c #8e8e9e9ec0c0",
"q c #8282a9a9e8e8",
"w c #8787b7b7ffff",
"e c #8787b8b8ffff",
"r c #8e8ebebeffff",
"t c #a4a4b4b4cdcd",
"y c #a6a6babaecec",
"u c #9797c8c8ffff",
"i c #9d9dceceffff",
"p c #9f9fd3d3ffff",
"a c #a2a2cecef6f6",
"s c #a2a2d1d1ffff",
"d c #b2b2c9c9eeee",
"f c #b9b9cacaeeee",
"g c #babad6d6f8f8",
"h c #b5b5ebebffff",
"j c #c0c0c0c0c0c0",
"k c #dadafafaffff",
"l c #e1e1fafaffff",
"z c #f6f6ffffffff",
"x c None",
/* pixels */
"xxxxx9yfdq8xxxxx",
"xxxxx5zlks#9xxxx",
"xxxxt1hpu2Oxxxxx",
"xxxxx<uir:otxxxx",
"xxxxx0wuw;-xxxxx",
"xxxxx8wuw&,xxxxx",
"xxxxxt5u7$9xxxxx",
"xxxxxtqi7$9xxxxx",
"xtxxx8aiw:,txxtx",
"x<agywrwww655>*x",
"x,%4eeww7w76& -x",
"xx,@3www776;.=9x",
"xxx,@37766: otxx",
"xxxx,+262; o9xxx",
"xxxxx,+::.otxxxx",
"xxxxxx<OX-9xxxxx"
};
