/* XPM */
static char * form_xpm[] = {
"20 20 4 2",
"  	c None",
". 	c None",
"+ 	c #000079",
"@ 	c #FFFFFF",
". . . . . . . . . . . . . . . . . . . . ",
". . . . . . . . . . . . . . . . . . . . ",
". . . . . . . . . . . . . . . . . . . . ",
". . + + + + + + + + + + + + + + + + . . ",
". . + . . + @ @ @ @ @ @ @ @ + . . + . . ",
". . + + + + + + + + + + + + + + + + . . ",
". . + @ @ @ @ @ @ @ @ @ @ @ @ @ @ + . . ",
". . + @ @ @ @ @ @ @ @ @ @ @ @ @ @ + . . ",
". . + @ @ @ @ @ @ @ @ @ @ @ @ @ @ + . . ",
". . + @ @ @ @ @ @ @ @ @ @ @ @ @ @ + . . ",
". . + @ @ @ @ @ @ @ @ @ @ @ @ @ @ + . . ",
". . + @ @ @ @ @ @ @ @ @ @ @ @ @ @ + . . ",
". . + @ @ @ @ @ @ @ @ @ @ @ @ @ @ + . . ",
". . + @ @ @ @ @ @ @ @ @ @ @ @ @ @ + . . ",
". . + @ @ @ @ @ @ @ @ @ @ @ @ @ @ + . . ",
". . + @ @ @ @ @ @ @ @ @ @ @ @ @ @ + . . ",
". . + + + + + + + + + + + + + + + + . . ",
". . . . . . . . . . . . . . . . . . . . ",
". . . . . . . . . . . . . . . . . . . . ",
". . . . . . . . . . . . . . . . . . . . "};
