/* XPM */
static char * resetproperty_xpm[] = {
"7 6 4 1",
" 	c None",
".	c #C00000",
"+	c #FF0000",
"@	c None",
".+@@@+.",
"@.+@+.@",
"@@.+.@@",
"@@+.+@@",
"@+.@.+@",
"+.@@@.+"};
