/* XPM */
static char *magick[] = {
/* columns rows colors chars-per-pixel */
"16 16 55 1",
"  c #02022525fefe",
". c #06062a2afbfb",
"X c #1c1c3c3ce5e5",
"o c #22223737d6d6",
"O c #3b3b5353cbcb",
"+ c #26264a4aebeb",
"@ c #2c2c4f4feeee",
"# c #33335b5bf1f1",
"$ c #32325a5afafa",
"% c #35356565ffff",
"& c #39396464ffff",
"* c #3e3e6969fefe",
"= c #49495d5dbcbc",
"- c #62627777bbbb",
"; c #68687d7db8b8",
": c #40405d5dcaca",
"> c #49496363c6c6",
", c #50507171dfdf",
"< c #4c4c7575e9e9",
"1 c #5c5c7a7aeaea",
"2 c #79798989afaf",
"3 c #54548484ffff",
"4 c #5d5d8e8efdfd",
"5 c #6e6e8585c5c5",
"6 c #67679696ffff",
"7 c #6d6d9898f0f0",
"8 c #6d6d9b9bfafa",
"9 c #79799898e8e8",
"0 c #6c6ca0a0ffff",
"q c #7f7fa0a0e3e3",
"w c #7676a6a6ffff",
"e c #7c7ca8a8f2f2",
"r c #7f7fafafffff",
"t c #8888a2a2f0f0",
"y c #8686b6b6ffff",
"u c #8888b7b7ffff",
"i c #8c8cb8b8f0f0",
"p c #8f8fbfbfffff",
"a c #9595c7c7ffff",
"s c #9797c8c8ffff",
"d c #9d9dcfcfffff",
"f c #9f9fd2d2ffff",
"g c #a2a2d0d0f0f0",
"h c #a1a1d0d0ffff",
"j c #a9a9dedeffff",
"k c #b1b1d7d7f2f2",
"l c #bebedbdbf5f5",
"z c #bcbcd9d9fefe",
"x c #adade2e2ffff",
"c c #b9b9e5e5ffff",
"v c #c0c0c0c0c0c0",
"b c #ccccf0f0f2f2",
"n c #cdcdf6f6ffff",
"m c #e2e2ffffffff",
"M c None",
/* pixels */
"MMMMMMMMMMMMMMMM",
"MMMMMMMMMq2MMMMM",
"MMMMMMMMMbr5MMMM",
"MMMMMMMMMdj65MMM",
"MMMMMMMMMqsdw5MM",
"2tqq5qMM2yppa6-M",
"imncllgkzyryyp4;",
"exaasadharrrrr8<",
"7fuyrww0rrrrw6*X",
",03*%$@+&rrw8%.;",
"2XoO>;22-8w8% =M",
"MMMMMMMMM96$ >MM",
"MMMMMMMMM1%.>MMM",
"MMMMMMMMM# >MMMM",
"MMMMMMMMM:-MMMMM",
"MMMMMMMMMMMMMMMM"
};
