/* XPM */
static char *magick[] = {
/* columns rows colors chars-per-pixel */
"32 32 149 2",
"   c #181800000000",
".  c #212108080808",
"X  c #292900000000",
"o  c #292908080808",
"O  c #292918181818",
"+  c #313108080000",
"@  c #4a4a08080000",
"#  c #424218181818",
"$  c #525208080000",
"%  c #525210100000",
"&  c #636310100808",
"*  c #737318180808",
"=  c #7b7b10100000",
"-  c #7b7b21211010",
";  c #7b7b29291818",
":  c #6b6b39393131",
">  c #737329292121",
",  c #737339393131",
"<  c #636342423939",
"1  c #7b7b42423131",
"2  c #5a5a4a4a4242",
"3  c #7b7b5a5a5252",
"4  c #7b7b6b6b6363",
"5  c #7b7b73737373",
"6  c #7b7b7b7b7b7b",
"7  c #848421211010",
"8  c #848429291818",
"9  c #8c8c29291818",
"0  c #949421211010",
"q  c #8c8c39392929",
"w  c #848439393131",
"e  c #949431312121",
"r  c #949439392929",
"t  c #a5a521210808",
"y  c #a5a529291818",
"u  c #adad31311818",
"i  c #bdbd31311818",
"p  c #a5a539392929",
"a  c #b5b539392121",
"s  c #bdbd39392929",
"d  c #949442423131",
"f  c #adad4a4a3939",
"g  c #b5b542422929",
"h  c #bdbd42422929",
"j  c #bdbd42423131",
"k  c #bdbd4a4a3131",
"l  c #8c8c4a4a4242",
"z  c #848452524a4a",
"x  c #84845a5a5252",
"c  c #8c8c5a5a5252",
"v  c #949452524a4a",
"b  c #9c9c52524242",
"n  c #949463635a5a",
"m  c #84846b6b6363",
"M  c #8c8c6b6b6363",
"N  c #8c8c6b6b6b6b",
"B  c #8c8c73736b6b",
"V  c #8c8c7b7b7b7b",
"C  c #9c9c73736b6b",
"Z  c #949473737373",
"A  c #9c9c7b7b7373",
"S  c #a5a552524a4a",
"D  c #a5a55a5a5252",
"F  c #b5b552524242",
"G  c #bdbd52524242",
"H  c #bdbd5a5a4a4a",
"J  c #adad63635a5a",
"K  c #a5a57b7b7373",
"L  c #adad7b7b7b7b",
"P  c #b5b56b6b6363",
"I  c #d6d631311818",
"U  c #c6c639392929",
"Y  c #c6c642422929",
"T  c #c6c642423131",
"R  c #c6c64a4a3131",
"E  c #c6c64a4a3939",
"W  c #cece42423131",
"Q  c #cece4a4a3131",
"!  c #cece4a4a3939",
"~  c #cece52523939",
"^  c #d6d64a4a3131",
"/  c #d6d64a4a3939",
"(  c #d6d652523939",
")  c #dede52523939",
"_  c #e7e742422121",
"`  c #cece52524242",
"'  c #d6d652524242",
"]  c #dede52524242",
"[  c #dede5a5a4242",
"{  c #c6c66b6b5a5a",
"}  c #cece63635252",
"|  c #dede63635252",
" . c #c6c673736363",
".. c #c6c673736b6b",
"X. c #cece7b7b6b6b",
"o. c #d6d673736363",
"O. c #e7e75a5a4242",
"+. c #e7e75a5a4a4a",
"@. c #ffff5a5a4242",
"#. c #e7e763634a4a",
"$. c #efef63634a4a",
"%. c #e7e76b6b5252",
"&. c #efef6b6b5252",
"*. c #ffff6b6b5252",
"=. c #f7f773735a5a",
"-. c #ffff73735a5a",
";. c #ffff7b7b6363",
":. c #949484847b7b",
">. c #adad84847b7b",
",. c #b5b584847b7b",
"<. c #bdbd8c8c7b7b",
"1. c #cece8c8c7b7b",
"2. c #ffff84846b6b",
"3. c #ffff8c8c6b6b",
"4. c #ffff9c9c7b7b",
"5. c #949484848484",
"6. c #94948c8c8c8c",
"7. c #9c9c8c8c8c8c",
"8. c #9c9c94949494",
"9. c Gray61",
"0. c #a5a584848484",
"q. c #adad8c8c8484",
"w. c #adad94948c8c",
"e. c #a5a59c9c9c9c",
"r. c #adad9c9c9494",
"t. c #adad9c9c9c9c",
"y. c #bdbd8c8c8484",
"u. c #b5b594948c8c",
"i. c #bdbd94948c8c",
"p. c #b5b594949494",
"a. c #b5b59c9c9c9c",
"s. c #bdbd9c9c9494",
"d. c #bdbda5a59c9c",
"f. c #a5a5a5a5a5a5",
"g. c #adada5a5a5a5",
"h. c #adadadada5a5",
"j. c Gray68",
"k. c #b5b5a5a5a5a5",
"l. c #b5b5adadadad",
"z. c #bdbda5a5a5a5",
"x. c #bdbdadada5a5",
"c. c Gray71",
"v. c #bdbdb5b5b5b5",
"b. c Gray74",
"n. c #c6c694948484",
"m. c #c6c694948c8c",
"M. c #c0c0c0c0c0c0",
"N. c #c6c6c6c6c6c6",
"B. c None",
/* pixels */
"B.B.B.B.B.B.B.B.B.B.B.B.B.B.y.=.#.w.B.B.B.B.B.B.B.B.B.B.B.B.B.B.",
"B.B.B.B.B.B.B.B.B.B.B.B.B.B. .$.( M B.B.B.B.B.B.B.B.B.B.B.B.B.B.",
"B.B.B.B.B.B.B.B.B.B.B.B.B.B.K ] T N B.B.B.B.B.B.B.B.B.B.B.B.B.B.",
"B.B.B.B.B.B.B.B.B.B.B.B.B.B.>.) h V B.B.B.B.B.B.B.B.B.B.B.B.B.B.",
"B.B.B.B.B.B.B.B.B.B.B.B.B.B.w.( j 8.B.B.B.B.B.B.B.B.B.B.B.B.B.B.",
"B.B.B.B.B.B.B.B.B.B.B.B.B.B.p.] g 8.B.B.B.B.B.B.B.B.B.B.B.B.B.B.",
"B.B.B.B.B.B.B.B.B.B.B.b.<.1.} ' R H ..K b.B.B.B.B.B.B.B.B.B.B.B.",
"B.B.B.B.B.B.B.B.B.B.B.B.C U ( ~ ~ ! y 3 B.B.B.B.B.B.B.B.B.B.B.B.",
"B.B.B.B.B.B.B.B.B.B.B.B.b.b T ~ ! a , c.B.B.B.B.B.B.B.B.B.B.B.B.",
"B.B.B.B.B.B.B.B.B.B.B.B.B.j.p T h ; f.B.B.B.B.B.B.B.B.B.B.B.B.B.",
"B.B.B.B.B.B.B.B.B.B.B.B.B.B.e.e 8 6.B.B.B.B.B.B.B.B.B.B.B.B.B.B.",
"B.B.B.B.B.B.B.B.B.B.B.B.B.B.B.g.g.N.B.B.B.B.B.B.B.B.B.B.B.B.B.B.",
"B.B.B.B.B.b.i.r.N.B.B.B.B.B.v.u.q.t.b.B.B.B.B.B.z.y.b.B.B.B.B.B.",
"B.B.B.B.B.b.X.^ L b.B.B.B.t.Y _ I 0 c b.B.B.b.s.2.o.b.B.B.B.B.B.",
"k.i.a.x.v.v.{ ) ( J c.B.c.h @.3.*.i = 4 B.b.n.;.O.G l.v.x.d.m.k.",
"| &.#.#.+.%.' ! ~ ^ S b.0.I -.4.=.a * # v.<.-.( E R ( #.#.+.) d ",
"` ) Q Y j h Q ~ ! h 9 j.A t ^ [ j 9 & o e.H ^ ! R ! h g s h Y q ",
"C w z m V :.F Q g - 6.B.7.* 0 0 7 & + O b.f.q s Q k 5 5.B x 1 N ",
"b.b.b.B.B.B.P u > 9.B.B.b.< $ % @ X   6 B.B.j.l a F b.B.B.b.b.b.",
"B.B.B.B.B.B.n : j.B.B.B.B.c.2 . . . 5 b.B.B.B.b.M w b.B.B.B.B.B.",
"B.B.B.B.B.B.c.v.B.B.B.B.B.B.b.j.e.c.N.B.B.B.B.B.b.c.b.B.B.B.B.B.",
"B.B.B.B.B.B.B.B.B.B.B.B.B.B.b.1.{ h.B.B.B.B.B.B.B.B.B.B.B.B.B.B.",
"B.B.B.B.B.B.B.B.B.B.B.B.B.b.n.=.) f c.B.B.B.B.B.B.B.B.B.B.B.B.B.",
"B.B.B.B.B.B.B.B.B.B.B.B.B.a.-.( ! T D b.B.B.B.B.B.B.B.B.B.B.B.B.",
"B.B.B.B.B.B.B.B.B.B.B.B.l.=.[ Q R Q U A B.B.B.B.B.B.B.B.B.B.B.B.",
"B.B.B.B.B.B.B.B.B.B.B.B.,.[ E R ! R j r c.B.B.B.B.B.B.B.B.B.B.B.",
"B.B.B.B.B.B.B.B.B.B.B.B.v.c.t.k s M c.c.b.B.B.B.B.B.B.B.B.B.B.B.",
"B.B.B.B.B.B.B.B.B.B.B.B.B.B.b.` h Z B.B.B.B.B.B.B.B.B.B.B.B.B.B.",
"B.B.B.B.B.B.B.B.B.B.B.B.B.B.l.~ Y M B.B.B.B.B.B.B.B.B.B.B.B.B.B.",
"B.B.B.B.B.B.B.B.B.B.B.B.B.B.a./ Y v b.B.B.B.B.B.B.B.B.B.B.B.B.B.",
"B.B.B.B.B.B.B.B.B.B.B.B.B.B.w.W Y d b.B.B.B.B.B.B.B.B.B.B.B.B.B.",
"B.B.B.B.B.B.B.B.B.B.B.B.B.B.g.q 8 x b.B.B.B.B.B.B.B.B.B.B.B.B.B."
};
