/* XPM */
static char *magick[] = {
/* columns rows colors chars-per-pixel */
"32 32 41 1",
"  c #060606060606",
". c #0e0e0e0e0e0e",
"X c #1e1e00000000",
"o c #161616161616",
"O c #1e1e1e1e1e1e",
"+ c #262600000000",
"@ c Gray15",
"# c #282828282626",
"$ c Gray18",
"% c Gray21",
"& c #3e3e3e3e3e3e",
"* c #4e4e00000000",
"= c #5e5e00000000",
"- c #6c6c00000000",
"; c #464646464646",
": c #4e4e4e4e4e4e",
"> c #565656565656",
", c Gray37",
"< c Gray40",
"1 c Gray43",
"2 c #767676767676",
"3 c Gray",
"4 c #000000008686",
"5 c #000000008e8e",
"6 c #000000009696",
"7 c #000000009c9c",
"8 c #00000000a4a4",
"9 c #00000000aeae",
"0 c #00000000b6b6",
"q c #00000000bcbc",
"w c #aaaa00000000",
"e c #bebe00000000",
"r c #c6c600000000",
"t c #cccc00000000",
"y c #d4d400000000",
"u c Red",
"i c #848484848484",
"p c Gray55",
"a c Gray59",
"s c #c0c0c0c0c0c0",
"d c None",
/* pixels */
"ddddddaOo.........$ddddddddddddd",
"ddaaaa%            1iiiapp3ipadd",
"daaaip@            <3221222221id",
"dp311<             $&&&&;:,1<1<d",
"d31<O,<           oaaaaaai1$11,d",
"d32&1ddaaaaaaaaaaaddddddddda:1>d",
"d22Oaddddddddddddddddddddddd:2,d",
"d12.adae:add1:::::::::::>idd>1<d",
"d12.ddruw%daqqqqqqqqqqqqq$dd>2,d",
"d22.dawe*.daqqq0000009989$dd<2,d",
"d12.dd#  $da6554444444446$dd<2,d",
"d12.dda>,addi122222222221add,2,d",
"d12.dddddddddddddddddddddddd>2,d",
"d12.dddddddddddddddddddddddd>2>d",
"d22.ddd:,add1,,<,,pddddddddd,2>d",
"d22.ddeur$daqqqqqq;ddddddddd,2>d",
"d22.dawt=.aaq99998;ddddddddd,2:d",
"d22.dd$X $da865556;ddddddddd,2:d",
"d22 dda:>add1,:::,pddddddddd,2,d",
"d12.dddddddddddddddddddddddd,2,d",
"d12oaddddddddddddddddddddddd,2>d",
"d12oada>>add2,<,<,<,<,<,,add>2:d",
"d32@adtur@ddqqqqqqqqqqqqq;dd,2>d",
"d22@adwy-.aa9998999988876&dd,1,d",
"d22Oad%+ @dd7767666666666;dd>2,d",
"d12@ada,,add<>>>>>>>>>>>:ida<1>d",
"d31%3dddddddddddddddddddddda<1,d",
"d22:>ddddddddddddddddddddddp21,d",
"d211@,paadaadaaddddddddaaaai21>d",
"di1<2112223323211111112333i3<11d",
"da,11111121211221222221111111:pd",
"dda<>>,>:>,<,,>:::::>::>,>:>,3dd"
};
