/* XPM */
static char *magick[] = {
/* columns rows colors chars-per-pixel */
"32 32 29 1",
"  c #272727272727",
". c Gray18",
"X c #373737373737",
"o c #3f3f3f3f3f3f",
"O c Gray28",
"+ c Gray31",
"@ c Gray34",
"# c #5f5f5f5f5f5f",
"$ c #676767676767",
"% c Gray42",
"& c #777777777777",
"* c Gray50",
"= c Gray52",
"- c Gray56",
"; c #929292929292",
": c #9f9f9f9f9f9f",
"> c #a7a7a7a7a7a7",
", c #afafafafafaf",
"< c #b4b4b4b4b4b4",
"1 c Gray75",
"2 c #c0c0c0c0c0c0",
"3 c Gray78",
"4 c #cbcbcbcbcbcb",
"5 c #d5d5d5d5d5d5",
"6 c #dadadadadada",
"7 c Gray89",
"8 c Gray97",
"9 c Gray100",
"0 c None",
/* pixels */
"00000000000000000000000000000000",
"00000000000000000000000000000000",
"00000000000000000000000000000000",
"00000000000000000000000000000000",
"00000000000000000000000000000000",
"00000000000000000000000000000000",
"00000000000000000000000000000000",
"00000000>&$##@@#@@+@@@#:00000000",
"0000000,&$++OoOoOOOOOO@o:0000000",
"0000000&@.+-::>>>>::;#XO@0000000",
"0000000#O@+<999999994#&OO0000000",
"0000000@o,1o,9999993+<8@o0000000",
"0000000@o<9<o,99993O,98$X0000000",
"0000000@o199>X,993O:998$X0000000",
"0000000+o1999,X=>+:9998$X0000000",
"0000000+o19999*Xo$99998$X0000000",
"0000000@o19999;oX$99998$X0000000",
"0000000@o<9996++$X<9999#X0000000",
"0000000@o<995@=88>o<998#X0000000",
"0000000#X,97@=9999:X198$X0000000",
"0000000#o:7@-999999,X19#o0000000",
"0000000#o*$=99999999>X<#o0000000",
"0000000&oO&9999999999:$o+0000000",
"0000000>.o#%====*=*=&%O -0000000",
"00000000;+X..........Xo*10000000",
"00000000000000000000000000000000",
"00000000000000000000000000000000",
"00000000000000000000000000000000",
"00000000000000000000000000000000",
"00000000000000000000000000000000",
"00000000000000000000000000000000",
"00000000000000000000000000000000"
};
