/* XPM */
static char *magick[] = {
/* columns rows colors chars-per-pixel */
"32 32 154 2",
"   c Gray0",
".  c #737300002929",
"X  c #424200006363",
"o  c #424200007b7b",
"O  c Gray39",
"+  c #6b6b6b6b6363",
"@  c Gray42",
"#  c #737373736b6b",
"$  c #73737b7b6b6b",
"%  c #7b7b7b7b6b6b",
"&  c Gray45",
"*  c #7b7b7b7b7373",
"=  c #7b7b7b7b7b7b",
"-  c #181800008c8c",
";  c #08080808b5b5",
":  c #08080808bdbd",
">  c #10100000adad",
",  c #18181818a5a5",
"<  c #18181818adad",
"1  c #10101010b5b5",
"2  c #18181818bdbd",
"3  c #313100009c9c",
"4  c #393900009494",
"5  c #21210000bdbd",
"6  c #292929298c8c",
"7  c #292929299494",
"8  c #313131318c8c",
"9  c #393939399494",
"0  c #29292929adad",
"q  c #21212121bdbd",
"w  c #29292929b5b5",
"e  c #00000000cece",
"r  c #08080808c6c6",
"t  c #08080808cece",
"y  c #00000000d6d6",
"u  c #00000000dede",
"i  c #08080808d6d6",
"p  c #08080808dede",
"a  c #10101010c6c6",
"s  c #10101010cece",
"d  c #18181818cece",
"f  c #10101010d6d6",
"g  c #10101010dede",
"h  c #18181818d6d6",
"j  c #00000000e7e7",
"k  c #00000000efef",
"l  c #08080808e7e7",
"z  c #00000000f7f7",
"x  c Blue",
"c  c #00000808ffff",
"v  c #08080808ffff",
"b  c #10100000f7f7",
"n  c #10101010e7e7",
"m  c #18181818efef",
"M  c #10101010ffff",
"N  c #21210000c6c6",
"B  c #21210000cece",
"V  c #29290000cece",
"C  c #21212121c6c6",
"Z  c #21212121cece",
"A  c #21212929cece",
"S  c #21212121d6d6",
"D  c #21212121dede",
"F  c #29292929dede",
"G  c #29292929e7e7",
"H  c #21212121ffff",
"J  c #21212929ffff",
"K  c #29292929ffff",
"L  c #31313131efef",
"P  c #39393939ffff",
"I  c #39394242ffff",
"U  c #39394a4affff",
"Y  c #4a4a4a4a9494",
"T  c #42424242b5b5",
"R  c #52525252b5b5",
"E  c #5a5a5a5abdbd",
"W  c #6b6b6b6b9494",
"Q  c #7b7b7b7b8484",
"!  c #7b7b7b7b9c9c",
"~  c #63636b6ba5a5",
"^  c #63636b6badad",
"/  c #7b7b7b7bb5b5",
"(  c #4a4a4a4acece",
")  c #4a4a4a4affff",
"_  c #52525a5affff",
"`  c #5a5a5a5affff",
"'  c #6b6b6b6bc6c6",
"]  c #6b6b6b6bcece",
"[  c #6b6b6b6bd6d6",
"{  c #73737373cece",
"}  c #63636363ffff",
"|  c #63636b6bffff",
" . c #6b6b6b6bffff",
".. c #7b7b7b7be7e7",
"X. c #9c9c00001010",
"o. c #bdbd00001818",
"O. c #a5a500003131",
"+. c #bdbd00002121",
"@. c #efef00000000",
"#. c #f7f700000000",
"$. c Red",
"%. c #848484847b7b",
"&. c #8c8c8c8c7b7b",
"*. c #8c8c8c8c8484",
"=. c Gray55",
"-. c #949494948484",
";. c #949494948c8c",
":. c Gray58",
">. c #9c9c9c9c9494",
",. c #84848484bdbd",
"<. c #94949494bdbd",
"1. c #9c9c9c9cb5b5",
"2. c #a5a5a5a59c9c",
"3. c #a5a5a5a5a5a5",
"4. c Gray68",
"5. c #a5a5a5a5b5b5",
"6. c #adadadadb5b5",
"7. c Gray74",
"8. c #84848484c6c6",
"9. c #8c8c8c8ccece",
"0. c #94949494cece",
"q. c #94949494d6d6",
"w. c #9c9c9c9cd6d6",
"e. c #84848484ffff",
"r. c #8c8c8c8cffff",
"t. c #94949494ffff",
"y. c #a5a5a5a5dede",
"u. c #adadadadd6d6",
"i. c #b5b5b5b5c6c6",
"p. c #bdbdbdbdcece",
"a. c #b5b5b5b5d6d6",
"s. c #bdbdbdbdd6d6",
"d. c #adadadade7e7",
"f. c #bdbdbdbde7e7",
"g. c #bdbdbdbdffff",
"h. c #c0c0c0c0c0c0",
"j. c #d6d6d6d6cece",
"k. c #dedededed6d6",
"l. c Gray87",
"z. c #ceced6d6ffff",
"x. c #dedededef7f7",
"c. c #dedededeffff",
"v. c #efefefefdede",
"b. c #e7e7e7e7e7e7",
"n. c #e7e7e7e7efef",
"m. c #efefefeff7f7",
"M. c #efefefefffff",
"N. c #efeff7f7e7e7",
"B. c #f7f7f7f7e7e7",
"V. c #ffffffffefef",
"C. c Gray97",
"Z. c #fffffffff7f7",
"A. c Gray100",
"S. c None",
/* pixels */
"W A m l l l l l v v v v v v v v l l l l l l l p v v v n f Z Y 4.",
"f x k h F F F D A A Z Z Z Z Z Z Z Z S S d d g x B N N N V V b Y ",
"p x w v.V.V.V.Z.Z.Z.Z.V.Z.Z.V.Z.V.Z.V.V.V.Z.m.L o.$.$.$.#.#.4 q ",
"p x R Z.M.r.e.e.e.e.e.e.e.e.e.e.e.e.e.e.e.d.A.U o $.$.$.$.X.k 2 ",
"p x E Z.g.z x x z x z x z z z x z x z x z 6 V.) z +.$.$.@.- x 2 ",
"p x E Z.n.{ [ ] ] ] ] ' ' ' ' ' ] ] ] ] ] 1.A.) x 3 $.$.. z x t ",
"p x ( Z.A.A.A.A.A.A.A.A.A.A.A.A.A.A.A.A.A.A.A.P x x O.@.> x x t ",
"l x M _ } } } } } } } } } } } } | } } } ` _ _ c x x 5 X x x x t ",
"< i i y u x x x k k k k k k k z k k k k k k j k j j j k z x x t ",
"4.3.3.2.Q j z T 9.y.u.u.a.a.f.f.s.s.s.p.p.S.p.i.6.6.5.<...v x t ",
"S.S.S.S.S.g y j.B.2.*.*.*.*.*.*.*.*.*.*.=.=.*.*.=.=.>.N.A.K x t ",
"S.S.S.S.7.S t C.#                                     = A.P x t ",
"S.S.S.S.7.q s Z.@                                     + A.I x t ",
"S.S.S.S.7.C a Z.@                                     + A.P x t ",
"S.S.S.S.7.q h A.@                                     = A.I x t ",
"S.S.S.S.7.q Z Z.k.-.&.% % % % % % % % % % % % % % &.-.k.A.P x t ",
"S.S.S.S.7.q S V.c.t.t.r.r.r.r.r.r.r.r.r.r.r.r.r.r.t.t.x.A.P x t ",
"S.S.S.S.7.q S V. .x x x x x x x x x x x x x x x x x k / A.P x t ",
"S.S.S.S.7.q F Z. .x x x x x x x x x x x x x x x x x j ^ A.I x t ",
"S.S.S.S.7.q G V. .x x x x x x x x x x x x x x x x x k ~ A.P x t ",
"S.S.S.S.7.q D Z.{ k k k k k k k j k j k k j k k k k e ! A.P x t ",
"S.S.S.S.7.q F V.l.w.0.9.8.8.,.,.,.,.,.,.,.,.8.8.9.0.0.b.A.P x t ",
"S.S.S.S.7.q Z C.l.>.*.&.% $ * $ # # # # # * $ % %.-.;.l.A.I x t ",
"S.S.S.S.7.q S A.@                                     * A.I x t ",
"S.S.S.S.7.q h Z.@                                     O A.P x t ",
"S.S.S.S.7.q a Z.@                                     + A.P x t ",
"S.S.S.S.7.q t A.&                                     %.A.P x r ",
"S.S.S.S.7.q p b.b.3.>.>.>.>.>.>.>.>.>.>.>.>.>.>.>.>.2.b.A.K x 1 ",
"S.S.S.S.7.q x q.A.A.A.A.A.A.A.A.A.A.A.A.A.A.A.A.A.A.A.A.z.v x 2 ",
"S.S.S.S.7.0 x x H J P P P I I I P P P P I I I P P P J H M x x , ",
"S.S.S.S.S.9 x x x x x x x x x x x x x x x x x x x x x x x x x 8 ",
"S.S.S.S.S.:.7 < ; r t t t r t t t t t t t t r r t t r : 1 , 8 :."
};
