/* XPM */
static char *magick[] = {
/* columns rows colors chars-per-pixel */
"32 32 149 2",
"   c #101021217b7b",
".  c #181829297b7b",
"X  c #292931317b7b",
"o  c #39394a4a7b7b",
"O  c #7b7b08080808",
"+  c #7b7b18181818",
"@  c #7b7b21212121",
"#  c #000008089494",
"$  c #00001010a5a5",
"%  c #00001818b5b5",
"&  c #00001818bdbd",
"*  c #101021218484",
"=  c #181829299c9c",
"-  c #10102929adad",
";  c #18182929adad",
":  c #21213131adad",
">  c #21213939bdbd",
",  c #00001818efef",
"<  c #00002121d6d6",
"1  c #00002121dede",
"2  c #10102929d6d6",
"3  c #10103131cece",
"4  c #18183939c6c6",
"5  c #00002121e7e7",
"6  c #00002121efef",
"7  c #00002929efef",
"8  c #00002121f7f7",
"9  c #00002929f7f7",
"0  c #00002929ffff",
"q  c #08082929f7f7",
"w  c #08083131f7f7",
"e  c #08083131ffff",
"r  c #10103131efef",
"t  c #10103131f7f7",
"y  c #10103939ffff",
"u  c #18183939ffff",
"i  c #29294242bdbd",
"p  c #31314242b5b5",
"a  c #31314242bdbd",
"s  c #31314a4abdbd",
"d  c #39394a4abdbd",
"f  c #39395252bdbd",
"g  c #18184242ffff",
"h  c #21214242efef",
"j  c #21214a4affff",
"k  c #29295252ffff",
"l  c #31315252ffff",
"z  c #39396363ffff",
"x  c #4a4a52528c8c",
"c  c #52525a5a8484",
"v  c #4a4a5a5abdbd",
"b  c #52526363b5b5",
"n  c #7b7b7b7b9494",
"m  c #6b6b7373b5b5",
"M  c #42425252d6d6",
"N  c #4a4a6363d6d6",
"B  c #52527373ffff",
"V  c #63637b7bffff",
"C  c #7b7b8484b5b5",
"Z  c #73739494ffff",
"A  c #73739c9cffff",
"S  c #7b7ba5a5ffff",
"D  c #848408080808",
"F  c #9c9c08080808",
"G  c #848431312929",
"H  c #848439393939",
"J  c #8c8c39393131",
"K  c #a5a508080808",
"L  c #adad08080808",
"P  c #b5b508080808",
"I  c #bdbd10101010",
"U  c #b5b531313131",
"Y  c #84844a4a4242",
"T  c #949442424242",
"R  c #94944a4a4a4a",
"E  c #9c9c4a4a4a4a",
"W  c #949452525252",
"Q  c #94945a5a5a5a",
"!  c #9c9c5a5a5a5a",
"~  c #9c9c6b6b6b6b",
"^  c #adad73737373",
"/  c #bdbd63636363",
"(  c #bdbd73737373",
")  c #c6c610101010",
"_  c #c6c618181818",
"`  c #cece10101010",
"'  c #cece18181818",
"]  c #d6d610101010",
"[  c #dede10101010",
"{  c #dede18181818",
"}  c #c6c621212121",
"|  c #cece21212121",
" . c #cece31313131",
".. c #dede31313131",
"X. c #e7e710101010",
"o. c #e7e718181818",
"O. c #efef10101010",
"+. c #efef18181818",
"@. c #f7f710101010",
"#. c #f7f718181818",
"$. c #ffff18181818",
"%. c #efef21212121",
"&. c #e7e731313131",
"*. c #f7f721212121",
"=. c #ffff21212121",
"-. c #ffff29292929",
";. c #cece52525252",
":. c #d6d642424242",
">. c #dede42424242",
",. c #d6d65a5a5a5a",
"<. c #cece63636363",
"1. c #ffff4a4a4a4a",
"2. c #ffff5a5a5a5a",
"3. c #ffff63636363",
"4. c #ffff6b6b6b6b",
"5. c #ffff73737373",
"6. c #8c8c84849494",
"7. c #9c9c84848484",
"8. c #94948c8c9c9c",
"9. c #8c8c9494b5b5",
"0. c #94949494adad",
"q. c #9c9c9c9cadad",
"w. c #94949494b5b5",
"e. c #94949c9cb5b5",
"r. c #9c9ca5a5b5b5",
"t. c #9c9ca5a5bdbd",
"y. c #adad8c8c8c8c",
"u. c #adad94949494",
"i. c #adad9c9c9c9c",
"p. c #bdbd8c8c8c8c",
"a. c #a5a5a5a5adad",
"s. c #adada5a5a5a5",
"d. c #adadadada5a5",
"f. c Gray68",
"g. c #a5a5adadb5b5",
"h. c #b5b5adadadad",
"j. c Gray71",
"k. c #b5b5bdbdbdbd",
"l. c #bdbdb5b5b5b5",
"z. c Gray74",
"x. c #8484adadffff",
"c. c #bdbdc6c6c6c6",
"v. c #ffffa5a5a5a5",
"b. c #ffffb5b5b5b5",
"n. c #ffffbdbdbdbd",
"m. c #c0c0c0c0c0c0",
"M. c #c6c6c6c6c6c6",
"N. c #ffffc6c6c6c6",
"B. c None",
/* pixels */
"B.B.B.B.B.B.B.B.B.B.B.B.B.B.B.B.B.B.B.B.B.B.B.B.B.B.B.B.B.B.B.B.",
"B.B.B.B.B.B.B.B.B.B.B.B.B.B.B.B.B.B.B.B.B.B.B.B.B.B.B.B.B.B.B.B.",
"B.B.B.B.B.B.B.B.B.B.B.B.B.B.B.B.B.B.B.B.B.B.B.B.B.B.B.B.B.B.B.B.",
"B.B.B.B.B.B.B.B.B.B.B.B.B.B.B.B.B.B.B.B.B.B.B.B.B.B.B.B.B.B.B.B.",
"B.B.B.B.B.B.B.B.B.B.B.B.B.B.B.B.B.B.B.B.B.B.B.B.B.B.B.B.B.B.B.B.",
"B.B.B.B.B.B.B.B.B.B.B.B.B.B.B.B.B.B.B.B.B.B.B.B.B.B.B.B.B.B.B.B.",
"B.B.B.B.B.B.B.B.B.B.B.B.B.B.B.B.B.B.B.B.B.B.B.B.B.B.B.B.B.B.B.B.",
"B.B.B.B.B.B.B.B.B.B.B.B.B.B.B.B.B.B.B.B.B.B.B.B.B.B.B.B.B.B.B.B.",
"B.l./  .| | ' | ' _ } U ! y.z.B.B.e.v d s a s d i p f b m 0.z.B.",
"z.,.3.5.5.5.4.4.3.2.1.%.[ L R j.k.h l l k j u y w t w 7 5 % x z.",
"( 1.b.n.n.n.N.N.n.b.v.4.-.{ L G i.N V Z Z S x.x.A V B z j 7 # n ",
">.$.#.*.#.*.*.=.*.*.#.*.%.+.{ L @ 6.3 , 8 7 q r t t w q 7 6 % o ",
"&.#.+.+.+.+.+.o.+.X.o.o.o.o.o.' P J 6.4 5 5 5 5 5 5 5 5 5 1 & X ",
"..#.+.o.o.o.o.o.o.o.o.o.o.o.o.o.{ K G 8.i 5 5 5 5 5 5 5 1 1 & . ",
"..#.o.o.o.o.o.{ o.o.o.{ o.o.o.o.o.' K Y a.> 5 1 5 1 5 1 5 < & . ",
">.+.o.o.o.o.{ o.o.o.{ o.o.{ { o.o.o.` O i.q.< 5 1 5 1 5 1 1 &   ",
":.#.+.o.o.o.o.o.{ { o.{ { X.o.{ { { ' D s.z.2 5 5 1 5 1 1 1 & * ",
";.#.o.o.o.{ o.{ o.[ o.{ o.{ { [ { ] I Y B.w.9 6 5 1 5 5 1 < & * ",
"<.@.o.o.{ o.{ X.{ o.{ { [ { { { ' I + h.t.r e 7 5 5 1 5 1 1 &   ",
"( O.o.o.o.[ { o.{ { [ o.{ { [ _ L @ f.9.9 g w 5 5 5 1 5 1 < & . ",
"p.+.o.{ { { { { [ { { { { { ` K + d.r.q g u 5 5 5 1 5 1 1 1 % X ",
"h.{ X.{ [ { ' { { { ' [ ' ` K @ s.g.q y t 5 5 5 1 5 1 5 1 < $ c ",
"c.^ ) ) ) ) ) ) ) ` ` ) ) F H f.B.M 0 q 5 1 5 1 5 1 1 1 < & . f.",
"B.c.u.~ Q W E R T T R W Q 7.z.B.M.C s : ; = - - - - - - = x a.B.",
"B.B.B.B.B.B.B.B.B.B.B.B.B.B.B.B.B.B.B.B.B.B.B.B.B.B.B.B.B.B.B.B.",
"B.B.B.B.B.B.B.B.B.B.B.B.B.B.B.B.B.B.B.B.B.B.B.B.B.B.B.B.B.B.B.B.",
"B.B.B.B.B.B.B.B.B.B.B.B.B.B.B.B.B.B.B.B.B.B.B.B.B.B.B.B.B.B.B.B.",
"B.B.B.B.B.B.B.B.B.B.B.B.B.B.B.B.B.B.B.B.B.B.B.B.B.B.B.B.B.B.B.B.",
"B.B.B.B.B.B.B.B.B.B.B.B.B.B.B.B.B.B.B.B.B.B.B.B.B.B.B.B.B.B.B.B.",
"B.B.B.B.B.B.B.B.B.B.B.B.B.B.B.B.B.B.B.B.B.B.B.B.B.B.B.B.B.B.B.B.",
"B.B.B.B.B.B.B.B.B.B.B.B.B.B.B.B.B.B.B.B.B.B.B.B.B.B.B.B.B.B.B.B.",
"B.B.B.B.B.B.B.B.B.B.B.B.B.B.B.B.B.B.B.B.B.B.B.B.B.B.B.B.B.B.B.B."
};
