/* XPM */
static char *magick[] = {
/* columns rows colors chars-per-pixel */
"32 32 3 1",
"  c #a1a1c4c41010",
". c #c0c0c0c0c0c0",
"X c None",
/* pixels */
"XXXXXXXXXXXX       XXXXXXXXXXXXX",
"XXXXXXXXX             XXXXXXXXXX",
"XXXXXXX                 XXXXXXXX",
"XXXXXX                    XXXXXX",
"XXXXX                      XXXXX",
"XXXX                        XXXX",
"XXX         XXXXXXXX         XXX",
"XX        XXXXXXXXXXXX       XXX",
"XX       XXXXXXXXXXXXXX       XX",
"XX      XXXXXXXXXX  XXXX      XX",
"X      XXXXXXXXXX    XXXX      X",
"X      XXXXXXXXX      XXX      X",
"X     XXXXXXXXX        XXX     X",
"      XXXXXXXX         XXX      ",
"      XXXXXXXX        XXXX      ",
"      XXXXXX         XXXXX      ",
"      XXXXXX         XXXXXX     ",
"      XXXX            XXXX      ",
"X     XXXX             XXX      ",
"X     XXX               XX     X",
"X      XXX                     X",
"X      XXXX    XX              X",
"XX      XXXX  XXXX             X",
"XX        XXXXXXXXXX          XX",
"XXX       XXXXXXXXXX          XX",
"XXX         XXXXXXXX          XX",
"XXXX                           X",
"XXXXX                           ",
"XXXXXX                          ",
"XXXXXXXX                 X     X",
"XXXXXXXXXX             XXXX  XXX",
"XXXXXXXXXXXXX       XXXXXXXX XXX"
};
