/* XPM */
static char *dial[]={
"32 32 16 1",
"h c #764cf3",
"# c None",
"m c #3e05e9",
"n c #6f56bb",
"g c #8b68f2",
"a c None",
"i c #c4b6ec",
"j c #472d93",
"b c #d3d6da",
"c c #a4a4a5",
". c None",
"f c #353535",
"e c #606060",
"l c #b19dee",
"d c #8a7eab",
"k c #4203fe",
"..........#abcdeeedcba#.........",
"........#abdefffffffedca#.......",
"......#aceffffeecdeefffecb#.....",
".....#acfffedbbbbbbbcefffdb#....",
"....#acffecbbbghhhgibbceffdb#...",
"...#bcffdbbigcjkkkkkhlbbcffdb#..",
"..#bcffebihkmcemkkkkkkhibcffdb#.",
"..acffebihkkkccjkkkkkkkkibdffca.",
"..befebihkkkkcbemkkkkkkkkibefeb.",
".#bffcbhkkkkkcbcjkkkkkkkkhbcffc#",
".acffbikkkkkkdbbemkkkkkkkklbefea",
"#befebgkkkkkkdbbcjkkkkkkkkhbcffb",
"acffcbkkkkkkkdbbbemkkkkkkkklbefd",
"adfeblkkkkkkknbbbcjkkkkkkkkgbdfe",
"befebgkkkkkkknbbbbemkkkkkkkhbcfe",
"befcbhkkkkkkknbbbbcjkkkkkkkkbcff",
"befdbhkkkkkkkmccccdjkkkkkkkhbcff",
"befebgkkkkkkkkmmmkkkkkkkkkkhbcfe",
"acfebikkkkkkkkkkkkkkkkkkkkklbefe",
"#bffcbhkkkkkkkkkkkkkkkkkkkkbbffc",
"#befeblkkkkkkkkkkkkkkkkkkkgbcfeb",
".acffbbhkkkkkkkkkkkkkkkkkkibefca",
".#befdbikkkkkkkkkkkkkkkkklbcffb#",
"..acffcblkkkkkkkkkkkkkkkgbbefea.",
"..#befecblkkkkkkkkkkkkkgbbefeb#.",
"...abefecbihkkkkkkkkkhlbbefeca..",
"....abefecbbigkkkkkgibbcefeca...",
".....#beffecbbbiiibbbceffeca....",
"......#beffffdcbbbcdefffeca.....",
".......#acdfffffefffffecb#......",
".........#abcefffffecba#........",
"...........#abbbbbbaa#.........."};
