/* XPM */
static char *magick[] = {
/* columns rows colors chars-per-pixel */
"32 32 106 2",
"   c #b5b552523939",
".  c #84847b7b7b7b",
"X  c #bdbd73736b6b",
"o  c #c6c652523939",
"O  c #cece52523939",
"+  c #d6d65a5a3939",
"@  c #dede5a5a3939",
"#  c #efef5a5a3939",
"$  c #ffff63633939",
"%  c #d6d65a5a4242",
"&  c #cece6b6b5a5a",
"*  c #d6d66b6b5252",
"=  c #d6d66b6b5a5a",
"-  c #dede73735a5a",
";  c #c6c673736363",
":  c #c6c67b7b6b6b",
">  c #cece7b7b7373",
",  c #dede7b7b6363",
"<  c #efef5a5a4242",
"1  c #efef63634242",
"2  c #e7e76b6b5252",
"3  c #e7e773735a5a",
"4  c #efef73735252",
"5  c #efef73735a5a",
"6  c #f7f763634242",
"7  c #f7f76b6b4a4a",
"8  c #ffff63634242",
"9  c #ffff6b6b4242",
"0  c #ffff6b6b4a4a",
"q  c #ffff73734a4a",
"w  c #f7f773735252",
"e  c #f7f773735a5a",
"r  c #ffff73735252",
"t  c #ffff7b7b5a5a",
"y  c #efef7b7b6363",
"u  c #bdbd8c8c7b7b",
"i  c #c6c684847b7b",
"p  c #c6c68c8c7b7b",
"a  c #cece84847373",
"s  c #cece8c8c7b7b",
"d  c #dede84847373",
"f  c #e7e784846b6b",
"g  c #ffff84846363",
"h  c #ffff8c8c6b6b",
"j  c #ffff8c8c7373",
"k  c #8c8c84848484",
"l  c #94948c8c8c8c",
"z  c #949494948c8c",
"x  c Gray58",
"c  c #9c9c94949494",
"v  c Gray61",
"b  c #adad94948c8c",
"n  c #b5b58c8c8484",
"m  c #bdbd94948c8c",
"M  c #b5b59c9c9494",
"N  c #bdbd9c9c9c9c",
"B  c #bdbda5a59c9c",
"V  c #a5a5a5a5a5a5",
"C  c #adada5a5a5a5",
"Z  c Gray68",
"A  c #b5b5a5a5a5a5",
"S  c #b5b5adadadad",
"D  c #b5b5b5b5adad",
"F  c #bdbdb5b5adad",
"G  c Gray71",
"H  c #bdbdb5b5b5b5",
"J  c #bdbdbdbdb5b5",
"K  c Gray74",
"L  c #c6c68c8c8484",
"P  c #cece9c9c8c8c",
"I  c #c6c69c9c9494",
"U  c #d6d694948c8c",
"Y  c #c6c6a5a59c9c",
"T  c #ceceadada5a5",
"R  c #c6c6b5b5adad",
"E  c #c6c6bdbdbdbd",
"W  c #dedeb5b5a5a5",
"Q  c #e7e7bdbdb5b5",
"!  c #e7e7c6c6b5b5",
"~  c #e7e7c6c6bdbd",
"^  c #e7e7cecebdbd",
"/  c #ffffcecebdbd",
"(  c #c0c0c0c0c0c0",
")  c #c6c6c6c6c6c6",
"_  c #cecec6c6c6c6",
"`  c #cecececec6c6",
"'  c #cececececece",
"]  c #d6d6cececece",
"[  c Gray84",
"{  c #deded6d6d6d6",
"}  c #e7e7cecec6c6",
"|  c #e7e7d6d6cece",
" . c #e7e7deded6d6",
".. c #e7e7dededede",
"X. c #ffffd6d6c6c6",
"o. c #ffffdeded6d6",
"O. c #efefe7e7dede",
"+. c #f7f7efefe7e7",
"@. c #f7f7efefefef",
"#. c #ffffefefe7e7",
"$. c #f7f7f7f7efef",
"%. c #fffff7f7efef",
"&. c #fffff7f7f7f7",
"*. c #fffffffff7f7",
"=. c Gray100",
"-. c None",
/* pixels */
": % * = & ; X : > i u n b m I N B A S R K E K -.-.-.-.-.-.-.-.-.",
"3 0 0 0 0 9 8 9 0 9 8 8 8 6 6 6 6 # # < 6   Z -.-.-.-.-.-.-.-.-.",
"f q 0 q 0 q 0 0 0 0 q 0 q 0 0 0 0 q q q q   v -.-.-.-.-.-.-.-.-.",
"d 0 0 0 0 0 0 0 q 0 0 0 0 0 q 0 q 0 0 0 q o v -.-.-.-.-.-.-.-.-.",
"s 9 0 0 0 0 0 0 0 0 q 0 0 0 0 0 0 0 0 0 q o c -.-.-.-.-.-.-.-.-.",
"L 9 0 0 0 0 0 0 0 0 0 0 0 0 0 0 0 0 0 0 0 O x -.-.-.-.-.-.-.-.-.",
"U 0 0 0 0 0 0 0 0 0 0 0 0 0 0 0 0 0 0 0 q + x -.-.-.-.-.-.-.-.-.",
"P 0 0 9 0 0 9 0 0 9 0 0 9 0 0 9 0 0 9 0 0 @ l -.-.-.-.-.-.-.-.-.",
"M 0 9 0 0 9 0 0 9 0 0 9 0 0 9 0 0 9 0 0 0 < k -.-.-.-.-.-.-.-.-.",
"Y 0 0 0 0 0 0 0 0 9 9 9 9 9 0 9 9 0 9 9 9 1 . -.-.-.-.-.-.-.-.-.",
"T 0 0 9 9 0 9 9 0 0 5 e w 7 0 7 9 7 8 6 9 # . -.) -.-.-.-.-.-.-.",
"S 0 9 0 0 9 0 0 8 h O.O. . .| | } ^ ~ ! Q W F J H H G D S Z S Z ",
"F 7 9 9 0 9 0 9 $ j =.*.=.*.=.*.=.=.=.=.=.=.*.*.*.*.%.&.%.%.$.l ",
"E w 8 0 9 0 9 0 8 g %.*.&.&.*.&.%.*.&.%.*.%.&.&.&.&.*.%.*.*.&.l ",
"K 5 9 8 0 9 8 9 8 t %.*.%.%.%.%.*.%.%.&.%.*.%.%.%.%.%.&.%.&.*.z ",
"K - 8 0 9 8 0 9 8 r #.&.%.*.&.*.&.%.&.*.%.&.%.*.&.*.&.*.%.%.*.l ",
"E , 9 8 9 0 9 8 8 r #.*.%.%.%.%.%.*.%.%.%.&.%.&.%.%.%.%.&.*.*.l ",
"-.f 9 0 8 9 0 9 8 0 o.*.&.%.&.%.&.%.%.&.%.%.&.%.%.&.%.&.%.%.=.l ",
"-.a 8 8 9 8 8 8 8 9 o.*.&.%.&.%.%.&.%.%.&.%.%.&.%.%.%.%.%.%.*.v ",
"-.p 8 9 8 8 9 9 9 8 X.*.%.%.%.%.&.%.%.%.%.%.%.%.%.%.&.%.&.%.*.V ",
"-.Y 3 y 5 2 4 w 7 8 / *.%.&.%.%.%.%.&.%.&.%.%.%.&.%.%.%.%.%.=.V ",
"-.E K ) K K K E K F [ *.%.%.%.&.%.%.%.%.%.%.%.%.%.%.%.%.%.%.*.V ",
"-.-.-.-.-.-.-.-.-.-.] &.%.%.%.%.%.%.%.%.%.%.%.%.%.%.%.%.%.%.=.V ",
"-.-.-.-.-.-.-.-.-.-._ *.%.%.%.%.%.%.%.%.%.%.%.%.%.%.%.%.%.%.*.C ",
"-.-.-.-.-.-.-.-.-.-._ *.%.%.%.%.%.%.%.%.%.%.%.%.%.%.%.%.%.%.=.V ",
"-.-.-.-.-.-.-.-.-.-.] %.%.%.%.%.%.%.%.%.%.%.%.%.%.%.%.%.%.%.*.V ",
"-.-.-.-.-.-.-.-.-.-.' %.%.%.%.%.%.%.%.%.%.@.%.%.@.%.%.@.%.%.*.C ",
"-.-.-.-.-.-.-.-.-.-.E %.%.@.%.@.%.@.%.@.%.%.%.%.%.%.%.%.%.%.*.V ",
"-.-.-.-.-.-.-.-.-.-.J &.%.%.%.%.%.%.%.%.%.@.%.@.%.@.%.%.@.%.*.C ",
"-.-.-.-.-.-.-.-.-.-._ %.%.%.%.%.%.@.%.%.%.%.#.%.%.#.@.%.#.$.*.S ",
"-.-.-.-.-.-.-.-.-.-.) O.O.+.+.+.+.@.%.#.$.@.%.%.%.%.%.%.%.%.*.F ",
"-.-.-.-.-.-.-.-.-.-.K K ) K G K ) ` G K _ ] ' E ' { { ' | ..O.H "
};
