/* XPM */
static char *magick[] = {
/* columns rows colors chars-per-pixel */
"32 32 4 1",
"  c Gray0",
". c #000000008080",
"X c #c0c0c0c0c0c0",
"o c None",
/* pixels */
"oooooooooooooooooooooooooooooooo",
"oooooooooooooooooooooooooooooooo",
"oooooooooo  oooooo  oooooooooooo",
"oooooooooo  oooooo  oooooooooooo",
"oooooooooo  oooooo  oooooooooooo",
"oooooooooo  oooooo  oooooooooooo",
"oooooooooo   oooo   oooooooooooo",
"oooooooooo   oooo   oooooooooooo",
"ooooooooooo  oooo  ooooooooooooo",
"ooooooooooo   oo   ooooooooooooo",
"ooooooooooo   oo   ooooooooooooo",
"oooooooooooo  oo  oooooooooooooo",
"oooooooooooo      oooooooooooooo",
"oooooooooooo      oooooooooooooo",
"ooooooooooooo    ooooooooooooooo",
"oooooooooooooo  oooooooooooooooo",
"ooooooooooooo.  .ooooooooooooooo",
"ooooooooooooo.  ..oooooooooooooo",
"oooooooooooo..oo......oooooooooo",
"ooooooooooo...oo.......ooooooooo",
"oooooooo......oo...oo...oooooooo",
"ooooooo.......oo..oooo..oooooooo",
"oooooo...oo...oo..oooo..oooooooo",
"oooooo..oooo..oo..oooo..oooooooo",
"oooooo..oooo..oo..oooo..oooooooo",
"oooooo..oooo..oo...oo...oooooooo",
"oooooo..oooo..ooo......ooooooooo",
"oooooo...oo...oooo....oooooooooo",
"ooooooo......ooooooooooooooooooo",
"oooooooo....oooooooooooooooooooo",
"oooooooooooooooooooooooooooooooo",
"oooooooooooooooooooooooooooooooo"
};
