/* XPM */
static char *magick[] = {
/* columns rows colors chars-per-pixel */
"32 32 212 2",
"   c #101000000000",
".  c #181800000000",
"X  c #181808080000",
"o  c #181808080808",
"O  c #212100000000",
"+  c #292900000000",
"@  c #292918181818",
"#  c #313100000000",
"$  c #313108080000",
"%  c #393908080000",
"&  c #313110100808",
"*  c #393918181010",
"=  c #313129292121",
"-  c #313129292929",
";  c #393931313131",
":  c #4a4a08080000",
">  c #525208080000",
",  c #525210100000",
"<  c #5a5a10100000",
"1  c #5a5a18180808",
"2  c #525221211818",
"3  c #5a5a39393131",
"4  c #636310100000",
"5  c #6b6b10100000",
"6  c #6b6b10100808",
"7  c #737318180808",
"8  c #7b7b10100000",
"9  c #7b7b18180808",
"0  c #636329292121",
"q  c #636342423939",
"w  c #525242424242",
"e  c #5a5a52524a4a",
"r  c #5a5a52525252",
"t  c #63635a5a5a5a",
"y  c #6b6b52525252",
"u  c #7b7b5a5a5252",
"i  c #6b6b63635a5a",
"p  c #6b6b63636363",
"a  c #73736b6b6b6b",
"s  c #7b7b73737373",
"d  c #848418180808",
"f  c #8c8c18180000",
"g  c #8c8c18180808",
"h  c #949418180808",
"j  c #9c9c21210808",
"k  c #9c9c21211010",
"l  c #9c9c29291010",
"z  c #9c9c39392929",
"x  c #a5a521210808",
"c  c #adad21210808",
"v  c #adad21211010",
"b  c #b5b529291010",
"n  c #bdbd29291010",
"m  c #bdbd31312121",
"M  c #b5b54a4a3939",
"N  c #84845a5a5a5a",
"B  c #8c8c6b6b6b6b",
"V  c #a5a55a5a4a4a",
"C  c #adad63635252",
"Z  c #b5b563635252",
"A  c #a5a56b6b6363",
"S  c #c6c629291010",
"D  c #cece29291010",
"F  c #d6d629290808",
"G  c #d6d631311818",
"H  c #dede31311818",
"J  c #dede39391818",
"K  c #c6c639392121",
"L  c #dede39392121",
"P  c #e7e729290808",
"I  c #e7e739391818",
"U  c #efef31311010",
"Y  c #f7f731311010",
"T  c #f7f739391010",
"R  c #f7f739391818",
"E  c #ffff39391010",
"W  c #ffff39391818",
"Q  c #e7e739392121",
"!  c #d6d64a4a3131",
"~  c #d6d652523939",
"^  c #efef42422121",
"/  c #f7f742422929",
"(  c #f7f74a4a2929",
")  c #ffff42422121",
"_  c #ffff4a4a2121",
"`  c #ffff4a4a2929",
"'  c #f7f74a4a3131",
"]  c #ffff4a4a3131",
"[  c #ffff52522929",
"{  c #f7f752523131",
"}  c #f7f75a5a3939",
"|  c #ffff52523131",
" . c #ffff5a5a3131",
".. c #ffff5a5a3939",
"X. c #f7f763633939",
"o. c #ffff63633939",
"O. c #ffff6b6b3939",
"+. c #c6c65a5a4a4a",
"@. c #cece52524242",
"#. c #c6c663635252",
"$. c #dede6b6b5252",
"%. c #dede73735a5a",
"&. c #cece73736363",
"*. c #cece7b7b6b6b",
"=. c #efef6b6b4a4a",
"-. c #e7e76b6b5252",
";. c #efef6b6b5252",
":. c #e7e773735a5a",
">. c #f7f763634242",
",. c #f7f76b6b4a4a",
"<. c #ffff63634242",
"1. c #ffff6b6b4242",
"2. c #ffff6b6b4a4a",
"3. c #ffff73734242",
"4. c #ffff73734a4a",
"5. c #ffff7b7b4242",
"6. c #ffff7b7b4a4a",
"7. c #ffff73735252",
"8. c #ffff7b7b5252",
"9. c #ffff7b7b5a5a",
"0. c #b5b584847b7b",
"q. c #c6c684847373",
"w. c #c6c68c8c7b7b",
"e. c #d6d684846b6b",
"r. c #ffff84845252",
"t. c #ffff84845a5a",
"y. c #ffff8c8c5a5a",
"u. c #f7f78c8c6b6b",
"i. c #ffff84846363",
"p. c #ffff8c8c6363",
"a. c #ffff8c8c6b6b",
"s. c #ffff94946363",
"d. c #ffff94946b6b",
"f. c #ffff9c9c6b6b",
"g. c #ffff94947373",
"h. c #ffff9c9c7373",
"j. c #ffff9c9c7b7b",
"k. c #ffffa5a57373",
"l. c #ffffa5a57b7b",
"z. c #ffffadad7b7b",
"x. c #848484848484",
"c. c #8c8c84848484",
"v. c Gray55",
"b. c Gray58",
"n. c #9c9c94949494",
"m. c Gray61",
"M. c #a5a584848484",
"N. c #a5a59c9c9c9c",
"B. c #adad9c9c9494",
"V. c #adad9c9c9c9c",
"C. c #b5b58c8c8484",
"Z. c #b5b58c8c8c8c",
"A. c #bdbd8c8c8484",
"S. c #b5b594948c8c",
"D. c #b5b594949494",
"F. c #b5b59c9c9494",
"G. c #b5b59c9c9c9c",
"H. c #bdbd9c9c9494",
"J. c #b5b5a5a59c9c",
"K. c #bdbda5a59c9c",
"L. c #a5a5a5a5a5a5",
"P. c Gray68",
"I. c #b5b5a5a5a5a5",
"U. c #b5b5adada5a5",
"Y. c #b5b5adadadad",
"T. c #bdbdadada5a5",
"R. c #bdbdadadadad",
"E. c #bdbdb5b5adad",
"W. c Gray71",
"Q. c #bdbdb5b5b5b5",
"!. c #bdbdbdbdb5b5",
"~. c Gray74",
"^. c #bdbdc6c6c6c6",
"/. c #c6c68c8c8484",
"(. c #cece8c8c8484",
"). c #c6c694948484",
"_. c #c6c694948c8c",
"`. c #c6c69c9c9494",
"'. c #c6c6a5a59c9c",
"]. c #c6c6adad9c9c",
"[. c #c6c6adada5a5",
"{. c #c6c6bdbdadad",
"}. c #c6c6bdbdbdbd",
"|. c #ffffa5a58484",
" X c #ffffadad8484",
".X c #ffffb5b58484",
"XX c #ffffb5b58c8c",
"oX c #ffffb5b59494",
"OX c #ffffbdbd9494",
"+X c #ffffbdbd9c9c",
"@X c #c6c6c6c6bdbd",
"#X c #ffffc6c69494",
"$X c #ffffd6d6a5a5",
"%X c #ffffd6d6adad",
"&X c NavajoWhite",
"*X c #ffffd6d6b5b5",
"=X c #ffffdedeb5b5",
"-X c #ffffe7e7bdbd",
";X c #c0c0c0c0c0c0",
":X c #c6c6c6c6c6c6",
">X c #dedededec6c6",
",X c #dedededecece",
"<X c #e7e7dedec6c6",
"1X c #ffffe7e7c6c6",
"2X c #ffffefefc6c6",
"3X c #fffff7f7cece",
"4X c #ffffffffcece",
"5X c #fffff7f7d6d6",
"6X c #ffffffffd6d6",
"7X c #ffffffffe7e7",
"8X c #ffffffffefef",
"9X c None",
/* pixels */
"9X9X9X9X9X9X9X9X9X9X9XE._.Q.9X9X9X9X9XA.+.I.@X9X9X9X9X9X9X9X9X9X",
"9X9X9X9X9X9X9X9XE.).%.} r.[.9X9X9X9X!.;._ Y #.G.~.9X9X9X9X9X9X9X",
"9X9X9X9X9XE._.$.X.8.l.$X4X,X~.9X9X9X'.h.t.<._ T @.D.~.9X9X9X9X9X",
"9X9XQ.).$.X.6.z.%X3X6X7X5X%XQ.9X9XQ.u.j.|.h.t.1.[ E ~ S.~.9X9X9X",
"9X9X).6.z.%X3X7X6X5X=XXXd.2./.9X9Xq.] 4.p.j.|.j.p.2.[ E ! C.9X9X",
"9X9XQ.3X6X7X3X=XoXa.2.{ L S z ~.Y.l n Q ] 1.i.h.l.l.p.2.[ *.9X9X",
"9X9X~.>X-XXXa.2.{ L S k 9 < # m.c.% 4 h n L ( 2.t.g.|.l.p.Q.9X9X",
"9X9X9XK.2.' L S j 9 1 % O . = n.^.n.w & < h b H / <.9.g.'.9X9X9X",
"9X9X9XQ.m x 9 , % O . - a L.~.9X9X9X:XN.e & < g b G ( =.Q.9X9X9X",
"9X9X9X9Xu # O X ; a L.:X9X9X9X9X9X9X9X9X9XP.t & , d c 0.9X9X9X9X",
"9X9X9X9Xb.= a L.~.9X9XR.(.!.9X9X9X9X9XA.#.Y.9XW.a & 0 Q.9X9X9X9X",
"9X9X9X9X~.~.9X9XE.).-.o.y.T.9X9X9X9X~.;.) Y #.J.9XW.L.9X9X9X9X9X",
"9X9X9X9X9XQ._.-.o.r.z.&X6X,X~.9X9X9X].h.t.1._ R @.F.}.9X9X9X9X9X",
"9X9XQ._.%.X.6.z.%X3X7X7X3X%XQ.9X9XQ.u.j.l.h.i.1._ W ~ Z.~.9X9X9X",
"9X9Xw.6.k.$X3X7X7X3X*XXXp.<./.9X9Xq.] 2.p.j.l.j.p.1.` E ! C.9X9X",
"9X9XQ.2X6X7X5X=XXXa.2.( L n z ~.Y.k n I ] 2.i.h.l.l.a.4.[ &.9X9X",
"9X9X~.>X-XOXg.2.{ L S k 7 > + b.c.% 4 k b J ( 2.t.g.l.l.a.E.9X9X",
"9X9X9XK.7.| Q S k 9 , $ O X ; n.~.m.w % 4 h b H ( <.9.g.'.9X9X9X",
"9X9X9XQ.K k 9 1 % O X ; s L.}.9X9X9X~.L.r * < g v G / ,.Q.9X9X9X",
"9X9X9X9XN % O . - a P.!.~.9X9X9X9X9X9X9X~.B r * < d c 0.9X9X9X9X",
"9X9X9X9Xm.@ p N.^.}.`.>.K.9X9X9X9X9X9X^.w.U C L.a & 0 ~.9X9X9X9X",
"9X9X9X9X~.~.9X^.`.=.5.#X<X~.9X9X9X9X9X`.1.` U M W.W.L.9X9X9X9X9X",
"9X9X9X9X9X9XK.$.3..X2X8X7X{.9X9X9X9XH.p.a.4.| Y m V.9X9X9X9X9X9X",
"9X9X9X9XR.%.O.k.1X7X8X-X X7.Y.9X9XD.( 2.p.a.9. .R F M.9X9X9X9X9X",
"9X9XR.*.o.f.-X7X8X2XXX9.' D V 9Xn.h D ( <.i.d.9.o.) F A ~.9X9X9X",
"9X9Xe.s.&X7X8X3XOXi.| G k 6 % v.L.2 f S ^ <.9.d.i.<._ P V W.9X9X",
"9X9XY.5X8X5X+Xa...J v 7 : . o x.9XW.3 8 n I ..9.a.a.2.` P Z 9X9X",
"9X9X9X@X%Xd.<.Q b 9 : O o i W.9X9X9X~.y 5 v H | 7.p.a.7.} Y.9X9X",
"9X9X9X~.:.^ n d , O o r P.9X9X9X9X9X9X~.s 4 x G ` 2.p.u.Y.9X9X9X",
"9X9X9X9XB.g < +   w N.^.9X9X9X9X9X9X9X9X9Xv.1 h D / ,.U.9X9X9X9X",
"9X9X9X9X^.y   ; n.^.9X9X9X9X9X9X9X9X9X9X9X9Xm.0 f S G.9X9X9X9X9X",
"9X9X9X9X9XP.c.~.9X9X9X9X9X9X9X9X9X9X9X9X9X9X9XP.q n.9X9X9X9X9X9X"
};
