/* XPM */
static char *magick[] = {
/* columns rows colors chars-per-pixel */
"32 32 65 1",
"  c #26260a0a0606",
". c #2f2f08080202",
"X c #252512120f0f",
"o c #2d2d13130f0f",
"O c #272715151212",
"+ c #2c2c1f1f1d1d",
"@ c #303009090303",
"# c #373713130e0e",
"$ c #333327272525",
"% c #41410c0c0202",
"& c #51510f0f0404",
"* c #515110100505",
"= c #545418180e0e",
"- c #404035353333",
"; c #4b4b3a3a3737",
": c #636314140707",
"> c #636315150808",
", c #66661e1e1212",
"< c #707019190a0a",
"1 c #7a7a1f1f0f0f",
"2 c #727222221414",
"3 c #767632322626",
"4 c #707042423939",
"5 c #8e8e21210f0f",
"6 c #818127271818",
"7 c #818128281919",
"8 c #8a8a23231212",
"9 c #8d8d29291919",
"0 c #9c9c23230f0f",
"q c #9c9c25251212",
"w c #9a9a2a2a1717",
"e c #9b9b2d2d1a1a",
"r c #818130302323",
"t c #999934342323",
"y c #adad27271111",
"u c #adad28281212",
"i c #aaaa2e2e1a1a",
"p c #baba30301a1a",
"a c #a7a736362323",
"s c #a5a53a3a2828",
"d c #a8a834342121",
"f c #b4b438382424",
"g c #b7b73e3e2a2a",
"h c #b3b344443232",
"j c #c7c73f3f2929",
"k c #c9c93c3c2626",
"l c #c3c342422d2d",
"z c #c4c44f4f3b3b",
"x c #cece4c4c3737",
"c c #d5d547473030",
"v c #d4d448483131",
"b c #d7d755553f3f",
"n c #dede51513939",
"m c #cfcf57574343",
"M c #d5d555554040",
"N c #dede5c5c4747",
"B c #dede5e5e4848",
"V c #dfdf62624c4c",
"C c #e7e75f5f4747",
"Z c #e6e65f5f4848",
"A c #e7e761614949",
"S c #eaea60604747",
"D c #e9e960604848",
"F c #c0c0c0c0c0c0",
"G c None",
/* pixels */
"GGGGGGGGGGGGGGGGGGGGGGGGGGGGGGGG",
"GGGGGGGGGGGGGGGGGGGGGGGGGGGGGGGG",
"GGGGGGGGGGGGGGGGGGGGGGGGGGGGGGGG",
"GGGGGGGGGGGGGGGGGGGGGGGGGGGGGGGG",
"GGGGGGGGGGGGGGGGGGGGGGGGGGGGGGGG",
"GGGGGGGGGGGGGGGGGGGGGGGGGGGGGGGG",
"GGGGGGGGGGGGGGGGGGGGGGGGGGGGGGGG",
"GGGGGGGGGGGGGGGGGGGGGGGGGGGGGGGG",
"GGGGGGGGGGGGGGGGGGGGGGGGGGGGGGGG",
"sgBVms3=;GGGqlAVzr7+4GGVtbABs7,$",
"9ibAxe<@;GGV0jCNg8*.GGG4yvAMd1%o",
"9pnZxe<%;GGG9kCNg8>#4GGVuvDbd1*#",
"9pnZx9<%;GGV6kCNg8>.4GG4evDba1&O",
"9pnZxe<%;GGG5kCCg8>#GGGVwvDbd1*#",
"9pnZxe<%;GGV0knNg8>X4GG4uvDbi1*O",
"9pnZxe<%;GGG9kCCg8>+4GGVuvDba1*#",
"9pnZxe<%;GGV6kCNg8>@GGG4evDba1&O",
"9pnZxe<%;GGG5kCNg8> 4GGVwvDbi1*#",
"9pnZxe<%;GGV0knCg8:$4GG4uvDbd1*O",
"9pnZxe<%;GGG9kCNg8: GGGVuvDbd1*#",
"9pnZxe<%;GGV6kCNg8>.4GG4evDba1&O",
"8pnCxe<%-GGG5kCCf8:o4GGBwcSbi1&o",
"sgBVms6$4GGVtlVVzr2+GGG4dmVBh7,$",
"GGGGGGGGGGGGGGGGGGGGGGGGGGGGGGGG",
"GGGGGGGGGGGGGGGGGGGGGGGGGGGGGGGG",
"GGGGGGGGGGGGGGGGGGGGGGGGGGGGGGGG",
"GGGGGGGGGGGGGGGGGGGGGGGGGGGGGGGG",
"GGGGGGGGGGGGGGGGGGGGGGGGGGGGGGGG",
"GGGGGGGGGGGGGGGGGGGGGGGGGGGGGGGG",
"GGGGGGGGGGGGGGGGGGGGGGGGGGGGGGGG",
"GGGGGGGGGGGGGGGGGGGGGGGGGGGGGGGG",
"GGGGGGGGGGGGGGGGGGGGGGGGGGGGGGGG"
};
