/* XPM */
static char *magick[] = {
/* columns rows colors chars-per-pixel */
"32 32 168 2",
"   c #292910100808",
".  c #313108080808",
"X  c #393908080000",
"o  c #313110100808",
"O  c #393910100808",
"+  c #313110101010",
"@  c #393918181818",
"#  c #393921211818",
"$  c #313121212121",
"%  c #393929292121",
"&  c #393929292929",
"*  c #424208080000",
"=  c #4a4a08080000",
"-  c #424218181010",
";  c #525208080000",
":  c #5a5a08080000",
">  c #525210100000",
",  c #5a5a10100000",
"<  c #525218181010",
"1  c #5a5a18181010",
"2  c #424221211818",
"3  c #5a5a21211818",
"4  c #424229292121",
"5  c #424229292929",
"6  c #4a4a29292929",
"7  c #424231312929",
"8  c #4a4a31312929",
"9  c #424231313131",
"0  c #4a4a31313131",
"q  c #4a4a39393131",
"w  c #525239393939",
"e  c #636310100000",
"r  c #636310100808",
"t  c #6b6b10100808",
"y  c #6b6b18180808",
"u  c #737318180808",
"i  c #7b7b18180808",
"p  c #636321211010",
"a  c #737321211010",
"s  c #6b6b29292121",
"d  c #636331312929",
"f  c #7b7b31312121",
"g  c #525242424242",
"h  c #52524a4a4242",
"j  c #52524a4a4a4a",
"k  c #5a5a42424242",
"l  c #5a5a4a4a4a4a",
"z  c #5a5a52524a4a",
"x  c #5a5a52525252",
"c  c #63634a4a4242",
"v  c #6b6b5a5a5a5a",
"b  c #6b6b63636363",
"n  c #73736b6b6b6b",
"m  c #848421211010",
"M  c #8c8c21211010",
"N  c #8c8c29291818",
"B  c #9c9c29291818",
"V  c #949431311818",
"C  c #9c9c31311818",
"Z  c #949439392929",
"A  c #9c9c39392121",
"S  c #9c9c39392929",
"D  c #a5a529291010",
"F  c #a5a529291818",
"G  c #adad29291818",
"H  c #a5a531311818",
"J  c #b5b529291010",
"K  c #b5b531311818",
"L  c #bdbd31311818",
"P  c #a5a531312121",
"I  c #a5a539392929",
"U  c #adad39392121",
"Y  c #adad39392929",
"T  c #b5b539392121",
"R  c #b5b539392929",
"E  c #bdbd31312121",
"W  c #bdbd39392121",
"Q  c #a5a542423131",
"!  c #adad4a4a3939",
"~  c #b5b542422929",
"^  c #bdbd42422929",
"/  c #b5b542423131",
"(  c #b5b54a4a3939",
")  c #bdbd42423131",
"_  c #9c9c5a5a5252",
"`  c #9c9c63635252",
"'  c #9c9c63635a5a",
"]  c #9c9c6b6b6363",
"[  c #9c9c73736b6b",
"{  c #9c9c7b7b7373",
"}  c #a5a54a4a4242",
"|  c #adad4a4a4242",
" . c #b5b552524242",
".. c #a5a563635a5a",
"X. c #adad6b6b5a5a",
"o. c #b5b56b6b5a5a",
"O. c #adad6b6b6363",
"+. c #a5a573736b6b",
"@. c #adad73736b6b",
"#. c #a5a573737373",
"$. c #a5a57b7b7373",
"%. c #a5a57b7b7b7b",
"&. c #b5b573736b6b",
"*. c #bdbd73736363",
"=. c #c6c639392121",
"-. c #cece39392121",
";. c #c6c642422929",
":. c #c6c642423131",
">. c #c6c64a4a3131",
",. c #c6c64a4a3939",
"<. c #cece4a4a3131",
"1. c #cece4a4a3939",
"2. c #d6d642422929",
"3. c #d6d64a4a3131",
"4. c #d6d64a4a3939",
"5. c #dede4a4a3131",
"6. c #dede4a4a3939",
"7. c #dede52523939",
"8. c #e7e752523939",
"9. c #efef52523939",
"0. c #efef5a5a3939",
"q. c #cece5a5a4242",
"w. c #d6d65a5a4242",
"e. c #d6d65a5a4a4a",
"r. c #dede52524242",
"t. c #dede5a5a4242",
"y. c #dede63634a4a",
"u. c #dede63635252",
"i. c #e7e75a5a4242",
"p. c #efef5a5a4242",
"a. c #e7e763634a4a",
"s. c #efef63634a4a",
"d. c #efef63635252",
"f. c #f7f763634242",
"g. c #f7f763634a4a",
"h. c #ffff63634a4a",
"j. c #f7f773735a5a",
"k. c #ffff73735a5a",
"l. c #efef7b7b6363",
"z. c #efef7b7b6b6b",
"x. c #ffff7b7b6363",
"c. c #a5a584847b7b",
"v. c #b5b584847b7b",
"b. c #ffff84846b6b",
"n. c #f7f784847373",
"m. c #8c8c84848484",
"M. c Gray55",
"N. c #9c9c8c8c8c8c",
"B. c Gray58",
"V. c #a5a584848484",
"C. c #a5a58c8c8484",
"Z. c #adad94948c8c",
"A. c #a5a59c9c9c9c",
"S. c #adad94949494",
"D. c #b5b58c8c8484",
"F. c #a5a5a5a59c9c",
"G. c #adada5a59c9c",
"H. c #b5b5a5a59c9c",
"J. c #a5a5a5a5a5a5",
"K. c #adada5a5a5a5",
"L. c Gray68",
"P. c #b5b5a5a5a5a5",
"I. c #b5b5adadadad",
"U. c Gray71",
"Y. c Gray74",
"T. c #c6c69c9c9494",
"R. c #c0c0c0c0c0c0",
"E. c None",
/* pixels */
"E.E.E.E.E.{ ;.u./ p k E.E.E.E.E.E.E.E.E.E.[ ,.u.I 3 v E.E.E.E.E.",
"E.E.E.E.E.+.=.i.Y r 9 Y.E.E.E.E.E.E.E.E.E.' -.a.P ; l E.E.E.E.E.",
"E.E.E.E.E.+.E a.~ r 8 Y.E.E.E.E.E.E.E.E.E.' ;.i.P : z Y.E.E.E.E.",
"E.E.E.E.E.#.=.i.~ r 7 Y.E.E.E.E.E.E.E.E.E.] -.a.P > l E.E.E.E.E.",
"E.E.E.E.E.c.L i.~ e & E.E.E.E.E.E.E.E.E.E.[ -.i.P , j E.E.E.E.E.",
"D.*.&.&.&.| K a.~ r < &.*.&.&.&.&.&.&.&.&.Q ;.a.P ; s &.&.&.&.v.",
"y.p.0.p.0.0.7.i.R N 7.9.p.0.0.9.0.0.9.0.0.9.7.t.H f 8.9.0.9.9.t.",
"n.b.b.b.b.b.b.d.,.j.b.b.b.b.x.b.b.x.b.x.b.x.x.a.,.x.x.x.x.x.x.z.",
" .~ ~ ) R ^ R >.,.~ / ^ R R ^ R R ~ R ~ R R R >.:.~ R ~ R ~ R ! ",
"d ; ; > ; = y 1.) y > > r > r > r > r > r = m t.P r > r > r > 3 ",
"n $ % % & # F i.) u   & & & & & & & & & & 2 ^ i.U r   & & & & g ",
"Y.Y.Y.Y.Y.S.J i.) u + U.Y.E.E.E.E.E.E.E.E.[ =.i.U r w Y.Y.E.E.Y.",
"E.E.E.E.E.Z.G 7.>.u - U.E.E.E.E.E.E.E.E.E.$.=.i.I , w Y.E.E.E.E.",
"E.E.E.E.E.S.G i.) u o L.E.E.E.E.E.E.E.E.E.$.W i.U r q E.E.E.E.E.",
"E.E.E.E.E.G.G 7.>.a o L.E.E.E.E.E.E.E.E.E.$.W i.Y r 0 Y.E.E.E.E.",
"E.E.E.E.E.A.G 7.>.i . L.E.E.E.E.E.E.E.E.E.c.E i.Y e q Y.E.E.E.E.",
"E.E.E.E.E.G.G 7.>.a o K.E.E.E.E.E.E.E.E.E.%.L i.U r 8 Y.E.E.E.E.",
"E.E.E.E.E.P.G 7.>.i O J.E.E.E.E.E.E.E.E.E.c.W t.Y y 0 Y.E.E.E.E.",
"E.E.E.E.E.P.F 7.1.a . F.E.E.E.E.E.E.E.E.E.V.L i.Y e 6 Y.E.E.E.E.",
"E.E.E.E.E.P.F 7.>.m O A.E.E.E.E.E.E.E.E.E.C.L t.T r 4 Y.E.E.E.E.",
"E.E.E.E.E.I.D 6.>.i . J.E.E.E.E.E.E.E.E.E.N.K i.Y e 5 Y.E.E.E.E.",
"I.@.@.@.@...D 4.1.a = _ @.O.O.O.O.O.O.O.O.} L r.R , 1 X.o.X.o.@.",
"T.f.f.f.f.g.s.r.>.V w.h.f.g.g.f.g.f.f.g.f.g.p.t.U S s.h.g.g.g.g.",
"H.x.x.b.x.x.x.j.<.u.x.x.x.x.x.x.x.x.x.l.x.x.l.a.>.j.k.j.j.j.j.l.",
"Z.P P P P P P Y >.U P P P P A F A F A F H C B ^ ) C B A B A B S ",
"N.= = = = * = ~ 4.a > * = = = O = O = = = * y r.R r * = * = * = ",
"L.l h h j j a 5.1.M X 9 j j l l l l z x j w H 8.R y o x x x x b ",
"E.Y.E.E.Y.Y.A 3.1.M O M.E.E.E.E.E.E.E.E.E.S.L t.R y 2 Y.E.E.E.E.",
"E.E.E.E.E.Y.S 2.1.M * m.E.E.E.E.E.E.E.E.E.S.G 7.R y 2 Y.E.E.E.E.",
"E.E.E.E.E.Y.Z 2.1.N * m.E.E.E.E.E.E.E.E.E.S.K 7.~ t @ Y.E.E.E.E.",
"E.E.E.E.E.Y.Q ;.4.M X m.E.E.E.E.E.E.E.E.E.S.K 8.R u O U.E.E.E.E.",
"E.E.E.E.E.Y.` 1.q.Z 4 B.E.E.E.E.E.E.E.E.E.K.! e.( d c Y.E.E.E.E."
};
