/* XPM */
static char *magick[] = {
/* columns rows colors chars-per-pixel */
"32 32 51 1",
"  c #1e1e05050202",
". c #262606060000",
"X c #25250e0e0b0b",
"o c #272710100d0d",
"O c #242415151313",
"+ c #2d2d1f1f1d1d",
"@ c #36360b0b0303",
"# c #333327272525",
"$ c #353529292727",
"% c #4a4a0f0f0505",
"& c #4e4e17170e0e",
"* c #4f4f19191010",
"= c #5a5a13130707",
"- c #45453a3a3838",
"; c #666616160909",
": c #68681e1e1212",
"> c #78781c1c0d0d",
", c #696920201414",
"< c #797925251717",
"1 c #4a4a40403e3e",
"2 c #7c7c44443b3b",
"3 c #4c4c42424040",
"4 c #8b8b25251414",
"5 c #8a8a2d2d1e1e",
"6 c #9b9b2d2d1b1b",
"7 c #959535352424",
"8 c #94943b3b2c2c",
"9 c #a2a22f2f1b1b",
"0 c #b7b72a2a1212",
"q c #b2b231311b1b",
"w c #aeae37372424",
"e c #adad38382525",
"r c #aaaa3d3d2c2c",
"t c #c7c749493434",
"y c #c2c24d4d3a3a",
"u c #d7d746462e2e",
"i c #eded52523838",
"p c #d3d35b5b4848",
"a c #dcdc57574141",
"s c #e6e66a6a5555",
"d c #efef68685151",
"f c #fdfd66664b4b",
"g c #f6f676765e5e",
"h c #ffff75755b5b",
"j c #f6f67e7e6767",
"k c #f6f67f7f6868",
"l c #ffff7f7f6666",
"z c #f6f683836c6c",
"x c #ffff83836a6a",
"c c #c0c0c0c0c0c0",
"v c None",
/* pixels */
"vvvvvvvvvtqqqqqqqqqqqqrvvvvvvvvv",
"vvvvvvvvvaiiiiiiiiiiiiivvvvvvvvv",
"vvvvvvvvvzlllllllllllxzvvvvvvvvv",
"vvvvvvvvvklhlhlhlhlhlhkvvvvvvvvv",
"vvvvvvvvvyttttttttttttyvvvvvvvvv",
"vvvvvvvvv8<444444444448vvvvvvvvv",
"vvvvvvvvv,============,vvvvvvvvv",
"vvvvvvvvv+............+vvvvvvvvv",
"vvvvvvvvv311111111111-3vvvvvvvvv",
"vvvvvvvvvvvvvvvvvvvvvvvvvvvvvvvv",
"vvvvvvvvvvvvvvvvvvvvvvvvvvvvvvvv",
"vvvvvvvvvzvzvzvzvzvzvzvvvvvvvvvv",
"vvvvvvvvvr090909090900wvvvvvvvvv",
"vvvvvvvvvgffffffffffffgvvvvvvvvv",
"vvvvvvvvvzxxxxxxxxxxxxzvvvvvvvvv",
"vvvvvvvvvgddddddddddddsvvvvvvvvv",
"vvvvvvvvvreeeeeeeeeeeervvvvvvvvv",
"vvvvvvvvv7:>>>>>>>>>>>5vvvvvvvvv",
"vvvvvvvvv*%%%%%%%%%%%&*vvvvvvvvv",
"vvvvvvvvv+            +vvvvvvvvv",
"vvvvvvvvvz3z3v2z3v2z3z2vvvvvvvvv",
"vvvvvvvvvvvvvvvvvvvvvvvvvvvvvvvv",
"vvvvvvvvvvvvvvvvvvvvvvvvvvvvvvvv",
"vvvvvvvvvsppppppppppppsvvvvvvvvv",
"vvvvvvvvvyuuruuuruuuruyvvvvvvvvv",
"vvvvvvvvvjghhhghhhghhhjvvvvvvvvv",
"vvvvvvvvvzllllllllllllzvvvvvvvvv",
"vvvvvvvvvpaaaaaaaaaaaapvvvvvvvvv",
"vvvvvvvvv86666666666668vvvvvvvvv",
"vvvvvvvvv5;;;;;;;;;;;;5vvvvvvvvv",
"vvvvvvvvv*@@@@@@@@@@@@*vvvvvvvvv",
"vvvvvvvvv$ooOOOOOOOOOX#vvvvvvvvv"
};
