/* XPM */
static char *magick[] = {
/* columns rows colors chars-per-pixel */
"32 32 111 2",
"   c #b5b552523939",
".  c #bdbd52523939",
"X  c #8c8c5a5a4a4a",
"o  c #84845a5a5252",
"O  c #949452524242",
"+  c #9c9c52524242",
"@  c #848463635a5a",
"#  c #848463636363",
"$  c #84846b6b6363",
"%  c #84846b6b6b6b",
"&  c #b5b55a5a4242",
"*  c #b5b55a5a4a4a",
"=  c #adad63635252",
"-  c #bdbd73736b6b",
";  c #c6c652523939",
":  c #d6d64a4a3131",
">  c #d6d652523939",
",  c #dede52523939",
"<  c #efef52523131",
"1  c #efef5a5a3939",
"2  c #f7f75a5a3939",
"3  c #ffff5a5a3939",
"4  c #ffff63633939",
"5  c #d6d65a5a4242",
"6  c #cece6b6b5a5a",
"7  c #d6d663634a4a",
"8  c #dede73735a5a",
"9  c #c6c673736363",
"0  c #cece7b7b7373",
"q  c #dede7b7b6363",
"w  c #efef6b6b5252",
"e  c #e7e773735252",
"r  c #efef73735252",
"t  c #f7f763634242",
"y  c #f7f76b6b4a4a",
"u  c #ffff63634242",
"i  c #ffff6b6b4242",
"p  c #ffff6b6b4a4a",
"a  c #f7f76b6b5252",
"s  c #ffff73734a4a",
"d  c #f7f773735252",
"f  c #e7e77b7b6363",
"g  c #e7e77b7b6b6b",
"h  c #9c9c84847b7b",
"j  c #bdbd84847b7b",
"k  c #c6c684847373",
"l  c #c6c68c8c7b7b",
"z  c #dede84846b6b",
"x  c #d6d684847373",
"c  c #e7e784847373",
"v  c #94948c8c8c8c",
"b  c #949494948c8c",
"n  c Gray58",
"m  c #adad94948c8c",
"M  c #b5b58c8c8484",
"N  c #bdbd94948c8c",
"B  c #bdbd9c9c9494",
"V  c #bdbd9c9c9c9c",
"C  c #a5a5a5a59c9c",
"Z  c #bdbda5a59c9c",
"A  c #a5a5a5a5a5a5",
"S  c #adada5a5a5a5",
"D  c Gray68",
"F  c #b5b5a5a5a5a5",
"G  c #b5b5adadadad",
"H  c #b5b5b5b5adad",
"J  c Gray71",
"K  c #bdbdb5b5b5b5",
"L  c Gray74",
"P  c #cece94948484",
"I  c #c6c69c9c9494",
"U  c #d6d69c9c8c8c",
"Y  c #c6c6adada5a5",
"T  c #c6c6b5b5b5b5",
"R  c #c6c6bdbdbdbd",
"E  c #efef9c9c8c8c",
"W  c #ffffa5a58c8c",
"Q  c #ffffadad9494",
"!  c #ffffadad9c9c",
"~  c #ffffb5b5a5a5",
"^  c #ffffbdbdadad",
"/  c #c6c6c6c6bdbd",
"(  c #ffffc6c6b5b5",
")  c #ffffcecebdbd",
"_  c #c0c0c0c0c0c0",
"`  c #c6c6c6c6c6c6",
"'  c #cecececec6c6",
"]  c #cececececece",
"[  c #d6d6c6c6c6c6",
"{  c #d6d6cececece",
"}  c #d6d6d6d6cece",
"|  c #deded6d6cece",
" . c #deded6d6d6d6",
".. c #efefd6d6cece",
"X. c #e7e7deded6d6",
"o. c #e7e7dededede",
"O. c #ffffd6d6c6c6",
"+. c #ffffdeded6d6",
"@. c #e7e7e7e7dede",
"#. c #efefe7e7dede",
"$. c #e7e7e7e7e7e7",
"%. c #e7e7efefe7e7",
"&. c #efefe7e7e7e7",
"*. c #f7f7efefe7e7",
"=. c #f7f7efefefef",
"-. c #f7f7f7f7efef",
";. c #fffff7f7efef",
":. c #fffff7f7f7f7",
">. c #fffffffff7f7",
",. c Gray100",
"<. c None",
/* pixels */
"6 5 7 6 6 9 - - 0 k j M m N I V Z F G T K R <.<.<.<.<.<.<.<.<.<.",
"d p p p i i i i i p u u 4 2 2 1 1 1 < 1 , h <.<.<.<.<.<.<.<.<.<.",
"8 s p s p p p p p p p p p s s p s p s d t % <.<.<.<.<.<.<.<.<.<.",
"f p p p p p p p p p p s p p p p p p p p t $ <.<.<.<.<.<.<.<.<.<.",
"c i p p p p s p s p p p p p p p p p p p i # <.<.<.<.<.<.<.<.<.<.",
"x p p p p p p p p p p p p p p p p p p p i @ <.<.<.<.<.<.<.<.<.<.",
"l i p p p p p p p p p i p p i p p i p p p o <.<.<.<.<.<.<.<.<.<.",
"P i p i p p i p p i p p p p p p i p p p i o <.<.<.<.<.<.<.<.<.<.",
"U p p p p i p p i p p i p i p i p p i i p X L <.<.<.<.<.<.<.<.<.",
"I i p i p p i p p i p i p i p p i p p p i O <.<.<.<.<.<.<.<.<.<.",
"V p i p i i p i p i p i p p i p i p i i p + D H G J J J H J K L ",
"Y p p i p p p i p p i p p i p i p p i p u = %.:.;.-.*.&.#.@. .b ",
"Y i u p u i u p u i p u i p u p u i u p i * %.>.>.:.>.>.>.>.>.v ",
"G y i p i p i p p u p i p u i p p i p u i & $.>.;.;.;.;.:.:.>.v ",
"K y i u p u p u i p u i u p i u i u i p u   @.>.:.>.:.:.;.;.>.b ",
"R d u p i i i i p u p i p u p i p i p u i   @.>.;.;.;.;.;.:.>.v ",
"L w i i u p u p u i i u i i u u p u i i p   o.>.:.;.:.;.:.;.>.v ",
"L e u i i u i u i u i p u i i u u i u u i . X.>.;.:.;.:.;.>.>.n ",
"L f i u i u i u p i u u u u p i u p i i u ; | >.;.;.;.;.;.:.>.C ",
"` f u p u i u i u u u i p i u u i u u u i ; | >.;.;.:.;.;.;.>.A ",
"L q u u u u u u u i u u u u u i u u i u u > { >.;.:.;.;.;.;.,.C ",
"L B x z g 8 e r a p t p i u u u 4 3 3 3 4 : [ >.;.;.;.;.;.;.,.C ",
"<.<.<.<.<.L L L R H G ..+.O.) ( ^ ~ ! Q W E #.:.;.;.;.;.;.;.,.S ",
"<.<.<.<.<.<.<.<.<.<.R @.>.:.>.>.>.,.>.,.>.>.;.;.;.;.;.;.;.;.,.C ",
"<.<.<.<.<.<.<.<.<.<.` o.;.;.;.;.;.;.;.;.;.;.;.;.;.;.;.;.;.;.>.A ",
"<.<.<.<.<.<.<.<.<.<.L #.;.;.;.;.;.;.;.;.;.;.;.;.;.;.;.;.;.;.,.C ",
"<.<.<.<.<.<.<.<.<.<.L  .;.;.;.=.;.;.=.;.;.=.;.;.=.;.;.=.;.;.>.S ",
"<.<.<.<.<.<.<.<.<.<.L } ;.;.;.;.;.;.;.;.;.;.;.;.;.;.;.;.;.;.,.C ",
"<.<.<.<.<.<.<.<.<.<.` ] :.;.=.;.=.;.;.=.;.;.=.;.;.=.;.;.=.;.>.S ",
"<.<.<.<.<.<.<.<.<.<.<.X.;.;.;.;.;.;.=.;.=.*.;.=.*.;.=.*.;.=.>.G ",
"<.<.<.<.<.<.<.<.<.<.<.' #.&.*.*.*.*.;.*.;.;.;.>.;.;.;.;.;.;.>.H ",
"<.<.<.<.<.<.<.<.<.<.<.L L L L J L ' ` K / ] { R ' |  .{ |  .&.K "
};
