/* XPM */
static char *magick[] = {
/* columns rows colors chars-per-pixel */
"32 32 226 2",
"   c #181808080000",
".  c #080821212929",
"X  c #181829292929",
"o  c #292910100000",
"O  c #313110100000",
"+  c #393918180000",
"@  c #393918180808",
"#  c #313121212121",
"$  c #393931312929",
"%  c #000031314242",
"&  c #080842425252",
"*  c #181842424a4a",
"=  c #000052526b6b",
"-  c #080863637b7b",
";  c #313142424a4a",
":  c #4a4a21210000",
">  c #525229290000",
",  c #636329290000",
"<  c #6b6b29290000",
"1  c #6b6b31310000",
"2  c #7b7b31310000",
"3  c #6b6b4a4a3131",
"4  c #73734a4a3131",
"5  c #42424a4a5252",
"6  c #5a5a52524a4a",
"7  c #42425a5a6363",
"8  c #636363635a5a",
"9  c #73736b6b6363",
"0  c #73737b7b7b7b",
"q  c #7b7b73737373",
"w  c #7b7b7b7b7373",
"e  c #00006b6b8484",
"r  c #08086b6b8484",
"t  c #000073739494",
"y  c #08088c8c9c9c",
"u  c #08088484adad",
"i  c #08088c8cadad",
"p  c #08089494b5b5",
"a  c #18188484a5a5",
"s  c #1818a5a5bdbd",
"d  c #31319c9cadad",
"f  c #31319c9cb5b5",
"g  c #08089c9cc6c6",
"h  c #1010a5a5cece",
"j  c #1010adadd6d6",
"k  c #1010bdbdefef",
"l  c #1818bdbde7e7",
"z  c #2929a5a5c6c6",
"x  c #3131bdbdd6d6",
"c  c #1010c6c6efef",
"v  c #1010ceceffff",
"b  c #1818c6c6f7f7",
"n  c #1818ceceffff",
"m  c #1010d6d6ffff",
"M  c #1818e7e7ffff",
"N  c #1818efefffff",
"B  c #1818ffffffff",
"V  c #3131c6c6c6c6",
"C  c #3939c6c6c6c6",
"Z  c #2121dedeefef",
"A  c #3939dedee7e7",
"S  c #2121e7e7e7e7",
"D  c #2121efefffff",
"F  c #2121ffffffff",
"G  c #2929ffffffff",
"H  c #3939efefefef",
"J  c #3131f7f7ffff",
"K  c #3131ffffffff",
"L  c #3939ffffffff",
"P  c #4242a5a5b5b5",
"I  c #5a5ab5b5b5b5",
"U  c #6b6b84848c8c",
"Y  c #737384848c8c",
"T  c #7b7b84848484",
"R  c #7373a5a5adad",
"E  c #7373adadb5b5",
"W  c #7b7bb5b5bdbd",
"Q  c #7b7bbdbdc6c6",
"!  c #4a4ad6d6d6d6",
"~  c #4a4ad6d6dede",
"^  c #5252d6d6dede",
"/  c #5252dededede",
"(  c #4242e7e7efef",
")  c #4a4affffffff",
"_  c #5252ffffffff",
"`  c #6363dededede",
"'  c #6b6bdededede",
"]  c #7b7bc6c6c6c6",
"[  c #7373c6c6d6d6",
"{  c #6b6befefefef",
"}  c #6363ffffffff",
"|  c #7373f7f7ffff",
" . c #7373ffffffff",
".. c #848439390000",
"X. c #949442420000",
"o. c #9c9c42420000",
"O. c #94945a5a1818",
"+. c #a5a542420000",
"@. c #adad42420000",
"#. c #adad4a4a0000",
"$. c #b5b54a4a0000",
"%. c #b5b552520000",
"&. c #bdbd52520000",
"*. c #adad6b6b3939",
"=. c #8c8c63634a4a",
"-. c #94946b6b4242",
";. c #84847b7b7b7b",
":. c #adad73734a4a",
">. c #c6c65a5a0808",
",. c #d6d65a5a0000",
"<. c #dede63630808",
"1. c #d6d66b6b1818",
"2. c #e7e763630000",
"3. c #efef6b6b0808",
"4. c #e7e773731818",
"5. c #f7f763630000",
"6. c #f7f76b6b1010",
"7. c #ffff73730808",
"8. c #ffff7b7b0000",
"9. c #f7f773731010",
"0. c #ffff7b7b1010",
"q. c #ffff7b7b1818",
"w. c #bdbd9c9c3939",
"e. c #b5b58c8c7373",
"r. c #d6d68c8c2929",
"t. c #d6d68c8c3131",
"y. c #ffff84840808",
"u. c #ffff8c8c0808",
"i. c #ffff84841818",
"p. c #ffff8c8c1010",
"a. c #ffff8c8c1818",
"s. c #ffff94940808",
"d. c #ffff9c9c0808",
"f. c #ffff94941818",
"g. c #ffff9c9c1010",
"h. c #efef84842121",
"j. c #efef94942929",
"k. c #ffff94942121",
"l. c #ffff94942929",
"z. c #ffff9c9c3131",
"x. c #ffffa5a50808",
"c. c #ffffa5a52121",
"v. c #ffffa5a52929",
"b. c #ffffa5a53131",
"n. c #ffffadad3939",
"m. c #ffffb5b52929",
"M. c #ffffbdbd2121",
"N. c #ffffbdbd3131",
"B. c #d6d694945252",
"V. c #d6d694945a5a",
"C. c #cece9c9c6363",
"Z. c #c6c69c9c7b7b",
"A. c #ffffb5b54242",
"S. c #ffffc6c63131",
"D. c #ffffcece3131",
"F. c #ffffc6c64a4a",
"G. c #ffffc6c65252",
"H. c #ffffd6d64242",
"J. c #ffffdede4a4a",
"K. c #ffffd6d65252",
"L. c #ffffd6d65a5a",
"P. c #ffffdede5a5a",
"I. c #f7f7d6d66363",
"U. c #ffffe7e76363",
"Y. c #ffffe7e76b6b",
"T. c #ffffefef6b6b",
"R. c #fffff7f76363",
"E. c #fffff7f77373",
"W. c #ffffffff7373",
"Q. c #84848c8c8c8c",
"!. c #94948c8c8484",
"~. c #94948c8c8c8c",
"^. c #9c9c94948c8c",
"/. c #9c9c9c9c9494",
"(. c Gray61",
"). c #8c8c9c9ca5a5",
"_. c #9494a5a5a5a5",
"`. c #9c9ca5a5a5a5",
"'. c #9494bdbdbdbd",
"]. c #a5a59c9c9494",
"[. c #b5b5a5a59494",
"{. c #bdbda5a59494",
"}. c #a5a5a5a5a5a5",
"|. c Gray68",
" X c #a5a5bdbdbdbd",
".X c #adadb5b5b5b5",
"XX c #adadbdbdbdbd",
"oX c #bdbdadada5a5",
"OX c Gray71",
"+X c #b5b5bdbdbdbd",
"@X c #bdbdb5b5b5b5",
"#X c Gray74",
"$X c #8c8cbdbdc6c6",
"%X c #8484c6c6c6c6",
"&X c #8484ffffffff",
"*X c #8c8cffffffff",
"=X c #9494efefefef",
"-X c #9c9ce7e7e7e7",
";X c #9494ffffffff",
":X c #9c9cffffffff",
">X c #adadffffffff",
",X c #b5b5ffffffff",
"<X c #bdbdffffffff",
"1X c #c6c6a5a58484",
"2X c #c6c6adad9c9c",
"3X c #c6c6b5b5adad",
"4X c #c6c6bdbdbdbd",
"5X c #ffffffff8484",
"6X c #ffffffff8c8c",
"7X c #ffffffff9494",
"8X c #ffffffff9c9c",
"9X c #ffffffffadad",
"0X c #ffffffffbdbd",
"qX c #c0c0c0c0c0c0",
"wX c #c6c6c6c6c6c6",
"eX c #c6c6ffffffff",
"rX c #ceceffffffff",
"tX c #d6d6ffffffff",
"yX c #dedeffffffff",
"uX c #ffffffffc6c6",
"iX c #ffffffffcece",
"pX c #ffffffffd6d6",
"aX c #ffffffffdede",
"sX c #e7e7ffffffff",
"dX c Gray100",
"fX c None",
/* pixels */
"fXfXfXfXfXfXfXfXfXfXfXfXfXfXfXfXfXfXfXfXfXfXfXfXfXfXfXfXfXfXfXfX",
"fXfXfXfXfXfXfXfXfXfXfXfXfXfXfXfXfXfXfXfXfXfXfXfXfXfXfXfXfXfXfXfX",
"fXfXfXfXfXfXfXfXfXfXfXfXfXfXfXfXfXfXfXfXfXfXfXfXfXfXfXfXfXfXfXfX",
"fXfXfXfXfXfXfXfXfXfXfXfXfXfXfXfXfXfXfXfXfXfXfXfXfXfXfXfXfXfXfXfX",
"fXfXfXfXfXfXfXfXfXfXfXfXfXfXfXfXfXfXfXfXfXfXfXfXfXfXfXfXfXfXfXfX",
"fXfXfXfXfXfXfXfXfXfXfXfXfXfXfXfXfXfXfXfXfXfXfXfXfXfXfXfXfXfXfXfX",
"fXfXfXfXfXfXfXfXfXfXfXfXfXfXfXfXfXfXfXfXfXfXfXfXfXfXfXfXfXfXfXfX",
"fXfXfXfXfXfXfXfX#X%X^ Z U fXfXfXfXfXfXfXfXfXfXfXfXfXfXfXfXfXfXfX",
"fXfXfXfXfXfXfX'.H B G S ; #XfXfXfXfX#X2XZ.Z.{.@XfXfXfXfXfXfXfXfX",
"fXfXfXfXfXfX] B K ) _ C X #XfXfX#X1Xj.s.s.u.8.4.e.#XfXfXfXfXfXfX",
"fXfXfXfXfX'.F L } &X;XI . OXfX#XB.d.M.D.S.m.f.y.5.*.OXfXfXfXfXfX",
"fXfXfXfXOXG K } ;X<XrXE & |.fXC.x.H.U.W.W.P.N.f.7.,.-.#XfXfXfXfX",
"fXfXfXfXQ F ) &X<XyXsXW e .XoXs.m.R.8X0X9X5XK.c.0.2.o.^.fXfXfXfX",
"fXfXfXwXA G _ ;XeXsXdXQ p |.V.g.H.6XuXaXiX8XU.b.0.<.@.4 #XfXfXfX",
"XX X.X$XN G _ *X<XtXsX[ l }.h.f.J.6X0XpXuX7XL.b.0.<.+.> [.3X3X@X",
":X;X;X| M G )  .:X>X,X' ( /.9.f.S.T.8X9X8XE.F.k.6.>.X.: w.P.L.I.",
"P f d z m F L _  . .&X` { ].3.p.v.G.T.E.Y.G.z.q.<.#...+ O.t.r.t.",
"|.(.`._.c M G L ) _ _ / =X}.1.7.a.v.n.A.n.l.q.<.&.X., o q !.;.~.",
"fXfXfX4Xz v n D J J J ~ -X.X:.2.7.0.i.i.i.9.<.&.o.2 + # #XfXfXfX",
"fXfXfXfXR j k b n b b x ' OX(.#.,.<.<.6.<.>.%.X.2 :   w fXfXfXfX",
"fXfXfXfXOXa g j j j h s ! @X#X=.X.$.%.#.+.o...1 :   $ #XfXfXfXfX",
"fXfXfXfXfX).t u i u a y V #XfX+X3 < 2 ..2 1 > O   # |.fXfXfXfXfX",
"fXfXfXfXfX4XY = - r - - d #XfXfX#X9 @ O O o     6 OXfXfXfXfXfXfX",
"fXfXfXfXfXfXfXQ.* % % % 7 4XfXfXfXfX|.T 9 8 ;.}.fXfXfXfXfXfXfXfX",
"fXfXfXfXfXfXfXfXOXT 5 X 0 fXfXfXfXfXfXfXfXfXfXfXfXfXfXfXfXfXfXfX",
"fXfXfXfXfXfXfXfXfXfXfXfXfXfXfXfXfXfXfXfXfXfXfXfXfXfXfXfXfXfXfXfX",
"fXfXfXfXfXfXfXfXfXfXfXfXfXfXfXfXfXfXfXfXfXfXfXfXfXfXfXfXfXfXfXfX",
"fXfXfXfXfXfXfXfXfXfXfXfXfXfXfXfXfXfXfXfXfXfXfXfXfXfXfXfXfXfXfXfX",
"fXfXfXfXfXfXfXfXfXfXfXfXfXfXfXfXfXfXfXfXfXfXfXfXfXfXfXfXfXfXfXfX",
"fXfXfXfXfXfXfXfXfXfXfXfXfXfXfXfXfXfXfXfXfXfXfXfXfXfXfXfXfXfXfXfX",
"fXfXfXfXfXfXfXfXfXfXfXfXfXfXfXfXfXfXfXfXfXfXfXfXfXfXfXfXfXfXfXfX",
"fXfXfXfXfXfXfXfXfXfXfXfXfXfXfXfXfXfXfXfXfXfXfXfXfXfXfXfXfXfXfXfX"
};
