/* XPM */
static char *magick[] = {
/* columns rows colors chars-per-pixel */
"32 32 5 1",
"  c Gray0",
". c #000000008080",
"X c #c0c0c0c0c0c0",
"o c Gray100",
"O c None",
/* pixels */
"OOOOOOOOOOOOOOOOOOOOOOOOOOOOOOOO",
"OOOOOOOOOOOOOOOOOOOOOOOOOOOOOOOO",
"            OOOOOOOOOOOOOOOOOOOO",
"             OOOOOOOOOOOOOOOOOOO",
"  oooooooo    OOOOOOOOOOOOOOOOOO",
"  oooooooo     OOOOOOOOOOOOOOOOO",
"  oooooooo  o   OOOOOOOOOOOOOOOO",
"  oooooooo  oo   OOOOOOOOOOOOOOO",
"  oo    oo  ............OOOOOOOO",
"  oo    oo  .............OOOOOOO",
"  oooooooooo..oooooooo....OOOOOO",
"  oooooooooo..oooooooo.....OOOOO",
"  oo        ..oooooooo..o...OOOO",
"  oo        ..oooooooo..oo...OOO",
"  oooooooooo..oo    oo........OO",
"  oooooooooo..oo    oo........OO",
"  oo        ..oooooooooooooo..OO",
"  oo        ..oooooooooooooo..OO",
"  oooooooooo..oo          oo..OO",
"  oooooooooo..oo          oo..OO",
"            ..oooooooooooooo..OO",
"            ..oooooooooooooo..OO",
"OOOOOOOOOOOO..oo          oo..OO",
"OOOOOOOOOOOO..oo          oo..OO",
"OOOOOOOOOOOO..oooooooooooooo..OO",
"OOOOOOOOOOOO..oooooooooooooo..OO",
"OOOOOOOOOOOO..................OO",
"OOOOOOOOOOOO..................OO",
"OOOOOOOOOOOOOOOOOOOOOOOOOOOOOOOO",
"OOOOOOOOOOOOOOOOOOOOOOOOOOOOOOOO",
"OOOOOOOOOOOOOOOOOOOOOOOOOOOOOOOO",
"OOOOOOOOOOOOOOOOOOOOOOOOOOOOOOOO"
};
