/* XPM */
static char *magick[] = {
/* columns rows colors chars-per-pixel */
"32 32 8 1",
"  c Gray0",
". c #000000008080",
"X c #808080800000",
"o c Yellow",
"O c #808080808080",
"+ c #c0c0c0c0c0c0",
"@ c Gray100",
"# c None",
/* pixels */
"################################",
"################################",
"##########        ##############",
"#########          #############",
"##           oo           ######",
"#           oooo           #####",
"   XOXOX   oo  oo   OXOXO   ####",
"  XOXOX   oo    oo   OXOXO  ####",
"  OXOX   ++++++++++   OXOX  ####",
"  XOXO  ++++++++++++  XOXO  ####",
"  OXOX                OXOX  ####",
"  XOXO                XOXO  ####",
"  OXOXOXOXOXOXOXOXOXOXOXOX  ####",
"  XOXOXOXOXOXOXOXOXOXOXOXO  ####",
"  OXOXOXOXOX..............  ####",
"  XOXOXOXOXO............... ####",
"  OXOXOXOXOX..@@@@@@@@@@....####",
"  XOXOXOXOXO..@@@@@@@@@@.....###",
"  OXOXOXOXOX..@@@@@@@@@@..@...##",
"  XOXOXOXOXO..@@@@@@@@@@..@@...#",
"  OXOXOXOXOX..@@......@@........",
"  XOXOXOXOXO..@@......@@........",
"  OXOXOXOXOX..@@@@@@@@@@@@@@@@..",
"  XOXOXOXOXO..@@@@@@@@@@@@@@@@..",
"  OXOXOXOXOX..@@............@@..",
"   OXOXOXOXO..@@............@@..",
"#           ..@@@@@@@@@@@@@@@@..",
"##          ..@@@@@@@@@@@@@@@@..",
"############....................",
"############....................",
"################################",
"################################"
};
