/* XPM */
static char *magick[] = {
/* columns rows colors chars-per-pixel */
"32 32 4 1",
"  c Gray0",
". c #c0c0c0c0c0c0",
"X c Gray100",
"o c None",
/* pixels */
"oooooooooooooooooooooooooooooooo",
"oooooooooooooooooooooooooooooooo",
"oooo                oooooooooooo",
"oooo                 ooooooooooo",
"oooo  XXXXXXXXXXXX    oooooooooo",
"oooo  XXXXXXXXXXXX     ooooooooo",
"oooo  XXXXXXXXXXXX  X   oooooooo",
"oooo  XXXXXXXXXXXX  XX   ooooooo",
"oooo  XXXXXXXXXXXX        oooooo",
"oooo  XXXXXXXXXXXX        oooooo",
"oooo  XXXXXXXXXXXXXXXXXX  oooooo",
"oooo  XXXXXXXXXXXXXXXXXX  oooooo",
"oooo  XXXXXXXXXXXXXXXXXX  oooooo",
"oooo  XXXXXXXXXXXXXXXXXX  oooooo",
"oooo  XXXXXXXXXXXXXXXXXX  oooooo",
"oooo  XXXXXXXXXXXXXXXXXX  oooooo",
"oooo  XXXXXXXXXXXXXXXXXX  oooooo",
"oooo  XXXXXXXXXXXXXXXXXX  oooooo",
"oooo  XXXXXXXXXXXXXXXXXX  oooooo",
"oooo  XXXXXXXXXXXXXXXXXX  oooooo",
"oooo  XXXXXXXXXXXXXXXXXX  oooooo",
"oooo  XXXXXXXXXXXXXXXXXX  oooooo",
"oooo  XXXXXXXXXXXXXXXXXX  oooooo",
"oooo  XXXXXXXXXXXXXXXXXX  oooooo",
"oooo  XXXXXXXXXXXXXXXXXX  oooooo",
"oooo  XXXXXXXXXXXXXXXXXX  oooooo",
"oooo                      oooooo",
"oooo                      oooooo",
"oooooooooooooooooooooooooooooooo",
"oooooooooooooooooooooooooooooooo",
"oooooooooooooooooooooooooooooooo",
"oooooooooooooooooooooooooooooooo"
};
