/* XPM */
static char *magick[] = {
/* columns rows colors chars-per-pixel */
"32 32 4 1",
"  c Gray0",
". c #808080800000",
"X c #c0c0c0c0c0c0",
"o c None",
/* pixels */
"oooooooooooooooooooooooooooooooo",
"oooooooooooooooooooooooooooooooo",
"oo                            oo",
"oo                            oo",
"oo  ..  XXXXXXXXXXXXXXXX  XX  oo",
"oo  ..  XXXXXXXXXXXXXXXX  XX  oo",
"oo  ..  XXXXXXXXXXXXXXXX      oo",
"oo  ..  XXXXXXXXXXXXXXXX      oo",
"oo  ..  XXXXXXXXXXXXXXXX  ..  oo",
"oo  ..  XXXXXXXXXXXXXXXX  ..  oo",
"oo  ..  XXXXXXXXXXXXXXXX  ..  oo",
"oo  ..  XXXXXXXXXXXXXXXX  ..  oo",
"oo  ..  XXXXXXXXXXXXXXXX  ..  oo",
"oo  ..  XXXXXXXXXXXXXXXX  ..  oo",
"oo  ..  XXXXXXXXXXXXXXXX  ..  oo",
"oo  ..  XXXXXXXXXXXXXXXX  ..  oo",
"oo  ...                  ...  oo",
"oo  ....                ....  oo",
"oo  ........................  oo",
"oo  ........................  oo",
"oo  ....                  ..  oo",
"oo  ....                  ..  oo",
"oo  ....            XXXX  ..  oo",
"oo  ....            XXXX  ..  oo",
"oo  ....            XXXX  ..  oo",
"oo  ....            XXXX  ..  oo",
"oo  ....            XXXX  ..  oo",
"oo  ....            XXXX  ..  oo",
"ooo                           oo",
"oooo                          oo",
"oooooooooooooooooooooooooooooooo",
"oooooooooooooooooooooooooooooooo"
};
