/* XPM */
static char *magick[] = {
/* columns rows colors chars-per-pixel */
"32 32 6 1",
"  c Gray0",
". c #808080800000",
"X c Yellow",
"o c #c0c0c0c0c0c0",
"O c Gray100",
"+ c None",
/* pixels */
"++++++++++++++++++++++++++++++++",
"++++++++++++++++++++++++++++++++",
"++++++++++++++++++      ++++++++",
"+++++++++++++++++        +++++++",
"++++++++++++++++   ++++   ++  ++",
"++++++++++++++++  ++++++   +  ++",
"+++++++++++++++++++++++++     ++",
"++++++++++++++++++++++++++    ++",
"++      ++++++++++++++++      ++",
"+        +++++++++++++++      ++",
"   OXOX               ++++++++++",
"  OXOXOX              ++++++++++",
"  XOXOXOXOXOXOXOXOXO  ++++++++++",
"  OXOXOXOXOXOXOXOXOX  ++++++++++",
"  XOXOXOXOXOXOXOXOXO  ++++++++++",
"  OXOXOXOXOXOXOXOXOX  ++++++++++",
"  XOXOXOXO                      ",
"  OXOXOXO                       ",
"  XOXOXO   .................   +",
"  OXOXO   .................   ++",
"  XOXO   .................   +++",
"  OXO   .................   ++++",
"  XO   .................   +++++",
"  O   .................   ++++++",
"     .................   +++++++",
"    .................   ++++++++",
"                       +++++++++",
"                      ++++++++++",
"++++++++++++++++++++++++++++++++",
"++++++++++++++++++++++++++++++++",
"++++++++++++++++++++++++++++++++",
"++++++++++++++++++++++++++++++++"
};
