/* XPM */
static char *magick[] = {
/* columns rows colors chars-per-pixel */
"32 32 53 1",
"  c #42429c9cffff",
". c #4a4a9c9cf7f7",
"X c #52529c9cf7f7",
"o c #4a4aa5a5ffff",
"O c #5252a5a5f7f7",
"+ c #5252a5a5ffff",
"@ c #5252adadffff",
"# c #5a5aa5a5f7f7",
"$ c #5a5aa5a5ffff",
"% c #5a5aadadffff",
"& c #5a5ab5b5ffff",
"* c #6363adadf7f7",
"= c #6363adadffff",
"- c #6b6bb5b5efef",
"; c #6363b5b5ffff",
": c #b5b5bdbdbdbd",
"> c Gray74",
", c #bdbdc6c6bdbd",
"< c #9c9cc6c6e7e7",
"1 c #9c9ccecef7f7",
"2 c #bdbdc6c6c6c6",
"3 c #a5a5ceceefef",
"4 c #a5a5cecef7f7",
"5 c #a5a5ceceffff",
"6 c #a5a5d6d6ffff",
"7 c #adadd6d6ffff",
"8 c #adaddedeffff",
"9 c #c6c6c6c6c6c6",
"0 c #c6c6cecec6c6",
"q c #c6c6cececece",
"w c #cececececece",
"e c #ceced6d6cece",
"r c #ceced6d6d6d6",
"t c #cecededed6d6",
"y c #d6d6deded6d6",
"u c #d6d6dededede",
"i c #d6d6e7e7dede",
"p c #dedee7e7dede",
"a c #dedee7e7e7e7",
"s c #dedeefefe7e7",
"d c #e7e7efefe7e7",
"f c #e7e7efefefef",
"g c #efefefefefef",
"h c #e7e7f7f7efef",
"j c #efeff7f7efef",
"k c #efeff7f7f7f7",
"l c #efeffffff7f7",
"z c #f7f7f7f7efef",
"x c #f7f7ffffefef",
"c c #f7f7fffff7f7",
"v c #f7f7ffffffff",
"b c #fffffffff7f7",
"n c Gray100",
/* pixels */
"-;*;*;*=*=*=*=#=#%#%#%#$#$#$#$O*",
"*&%&%%%%%%%@%@%@%+%+++++++oooooX",
"-&%%%%%%%%%%@$%+@++++++++o++++o#",
"#++@+@o+oooooooooooooo o o     .",
"3876767667647464544144414141111<",
"dnbbbbbbbcbccbxcxccxczxzjzjzjzdp",
"hvlvllllllllljljkjhjhhhhhfhdddja",
"fclclclkljkkjkhkjhkhfhfhfhdfffsp",
"flllklklkkjkjkjkhhhhhfhfdffsdsfu",
"dlcklkljlkhkhhhhjhghfhfdhsdfsdsu",
"alkljljkkjkjhkhjfhhfhdhfdffsfsfy",
"pklkkkkjhkhhhjhhhhfffhdsfssdsdsr",
"ulkjkhjkhhjkhhffffhdddfdsdfssade",
"uljkhkhhjhhhfhhhhdfhfsdfsssdasse",
"ylkhjhkhhjfhhffdfhsdsfssddassaau",
"rkhhkhhhhfhffhdhfdfsfdsdsasaaasy",
"ykhjhhghfhfhdfddsfsdssdassaspspr",
"phjhghhffhdhfdffdsdfsassaasaapsr",
"uhfhhffhfdffsfdssdsadssaaspapaae",
"ujhffhdfdhdsfssfdsassaaaspapaipq",
"yhfhdfhdfsfsdsdssasaaspspapaips0",
"rhdfhsdfsdsdsdsassaspsapaiaiaia2",
"efhdsdfsdsfssadsaaspaapapaipiip9",
"whfsffsdsdsadsaapapappapiiipipir",
"qfsdsssssasaaasasapapaiiapiuiuie",
"0hsdsdadasasspappaiaiiaiuipiuiuq",
",fdsassasaspaspaappiaipipuiuiuiq",
"qdsasaasaspaapiaiiapipiuiuiuiui9",
"ysasaspapapapiaipaiiuiuiuiuiyui,",
"rasapsaspapiapiaiipiiuiuiuyuyui>",
"wsspaappaiapiapipuiuiiuiuuiyuyi>",
"0apiiiiuiiuiuyuyuyuyyyyyyttrttu:"
};
