/* XPM */
static char *magick[] = {
/* columns rows colors chars-per-pixel */
"32 32 20 1",
"  c #0e0e0e0e0e0e",
". c #161616161616",
"X c Gray12",
"o c #272727272727",
"O c #2f2f2f2f2f2f",
"+ c #373737373737",
"@ c #3f3f3f3f3f3f",
"# c Gray28",
"$ c Gray31",
"% c #555555555555",
"& c #5f5f5f5f5f5f",
"* c #676767676767",
"= c #6f6f6f6f6f6f",
"- c #777777777777",
"; c Gray50",
": c Gray53",
"> c #8d8d8d8d8d8d",
", c #939393939393",
"< c #c0c0c0c0c0c0",
"1 c None",
/* pixels */
"1,,,,>,,,,,>>:::;::::::;:::--:>1",
",,>--=====*******************=*;",
":-&*%#@++OO++OOOOOOOO+O++@#%&&*&",
"-**.#;:,,,,,,,,,,,,,,,,,,>:&+&*$",
"=*#$111111111111111111111111-&*#",
"==o;111111111111111111111111,%*$",
"==.>1111111111111111111111111$*%",
"== ,1111111111111111111111111$*&",
"== ,1111111111111111111111111%*$",
"== ,1111111111111111111111111%=%",
"==.,1111111111111111111111111%*%",
"*=.,1111111111111111111111111%=$",
"== ,1111111111111111111111111%*#",
"*=.,1111111111111111111111111%*#",
"**.,1111111111111111111111111**#",
"*= ,1111111111111111111111111&*#",
"*= ,1111111111111111111111111$*@",
"*=.,1111111111111111111111111$*#",
"&=.,111111111111111111111111,%*%",
"=*X,1111111111111111111111111&*$",
"-*X,1111111111111111111111111%*#",
"=*X>1111111111111111111111111%*#",
"==X:111111111111111111111111,&*#",
"**o:111111111111111111111111,&*%",
"==O;111111111111111111111111,**%",
";*+=111111111111111111111111,**$",
"**#&111111111111111111111111:&*%",
"=*%o111111111111111111111111=**%",
";**@O=;:,,,,,,,,,,1,,1,,,,>;:**$",
":*&*=**==-----=---=;---;==-;*&&=",
",$&&*********&*********&**&**&#,",
"1,=%%$$%$#@#$$$$#@@@@@#@@$$@$%>1"
};
