/* XPM */
static char *magick[] = {
/* columns rows colors chars-per-pixel */
"32 32 22 1",
"  c #060606060606",
". c Gray6",
"X c Gray9",
"o c Gray12",
"O c #272727272727",
"+ c #2f2f2f2f2f2f",
"@ c #373737373737",
"# c #3f3f3f3f3f3f",
"$ c Gray28",
"% c Gray31",
"& c Gray34",
"* c #5f5f5f5f5f5f",
"= c #676767676767",
"- c #6f6f6f6f6f6f",
"; c #777777777777",
": c Gray50",
"> c Gray53",
", c #8d8d8d8d8d8d",
"< c #959595959595",
"1 c #9f9f9f9f9f9f",
"2 c #c0c0c0c0c0c0",
"3 c None",
/* pixels */
"333333<o..........+3333333333333",
"331111#            ;,,,1<<>>,133",
"311<,<+            ->::;:::::;>3",
"3,>;;-.            @$$$$%&=;-;-3",
"3>;-O*=           X11111<>-@;;=3",
"3>:$-3311111111111333333333<&;*3",
"3::o133333333333333333333333&:=3",
"3;:X133333333333333333333333&;-3",
"3::X333333333333333333333333*:=3",
"3;:X333333333333333333333333=:=3",
"3;:X333333333333333333333333-:=3",
"3;:o133333333333333333333333=:=3",
"3;:X333333333333333333333333*:*3",
"3;:X333333333333333333333333*:*3",
"3::X333333333333333333333333*:*3",
"3::X333333333333333333333333=:*3",
"3::X333333333333333333333333*:&3",
"3::X333333333333333333333333=:&3",
"3::X333333333333333333333333=:=3",
"3;:o133333333333333333333333=:=3",
"3;:o133333333333333333333333*:*3",
"3;:o133333333333333333333333*:&3",
"3::O133333333333333333333333*:*3",
"3::O133333333333333333333333=:=3",
"3::+133333333333333333333333*;=3",
"3;:+,33333333333333333333331=:*3",
"3::#:33333333333333333333331-;=3",
"3;:&&3333333333333333333333,:;*3",
"3:;;+=<1113113133333333111<,:;*3",
"3>;-;;;;:::>:;;;;;;;;;:::>,>-;-3",
"31=;;;;;;:;:::::;:::::;:;;;;;&,3",
"33<-*&=*&*=-=**&&&&&*&&&=*&**:33"
};
