/* XPM */
static char *magick[] = {
/* columns rows colors chars-per-pixel */
"32 32 144 2",
"   c #212100002121",
".  c #313100003131",
"X  c #393900003131",
"o  c #393900003939",
"O  c #313118182929",
"+  c #393910103939",
"@  c #424218183939",
"#  c #424221213939",
"$  c #424239393939",
"%  c #4a4a08084a4a",
"&  c #4a4a10104242",
"*  c #5a5a00005252",
"=  c #5a5a08085252",
"-  c #525218184a4a",
";  c #424231314242",
":  c #4a4a39394a4a",
">  c #525239394a4a",
",  c #636318185a5a",
"<  c #6b6b00006363",
"1  c #6b6b18186363",
"2  c #737300006b6b",
"3  c #6b6b31316b6b",
"4  c #737339397373",
"5  c #525242425252",
"6  c #5a5a42425a5a",
"7  c #6b6b4a4a6b6b",
"8  c #7b7b7b7b7b7b",
"9  c #848400007373",
"0  c #848400007b7b",
"q  c #84846b6b7b7b",
"w  c #8c8c08088484",
"e  c #8c8c18188484",
"r  c #9c9c00008c8c",
"t  c #949410108c8c",
"y  c #848431318484",
"u  c #9c9c21219494",
"i  c #9c9c39399494",
"p  c #a5a508089c9c",
"a  c #adad0808a5a5",
"s  c #adad1010a5a5",
"d  c #b5b51010adad",
"f  c #b5b51818adad",
"g  c #bdbd1010adad",
"h  c #bdbd1010b5b5",
"j  c #b5b53939adad",
"k  c #848442428484",
"l  c #8c8c73738c8c",
"z  c #8c8c7b7b8c8c",
"x  c #94947b7b9494",
"c  c #bdbd5252b5b5",
"v  c #adad7b7badad",
"b  c #b5b57b7badad",
"n  c #cece1818c6c6",
"m  c #d6d60808c6c6",
"M  c #d6d61818cece",
"N  c #dede1818cece",
"B  c #dede1010d6d6",
"V  c #dede1818d6d6",
"C  c #cece2929cece",
"Z  c #d6d62929cece",
"A  c #dede2929d6d6",
"S  c #dede3131dede",
"D  c #dede3939d6d6",
"F  c #e7e71010d6d6",
"G  c #e7e71010dede",
"H  c #e7e71818dede",
"J  c #efef1818e7e7",
"K  c #f7f71818efef",
"L  c #ffff1818f7f7",
"P  c #e7e72929dede",
"I  c #e7e73131dede",
"U  c #efef2121e7e7",
"Y  c #efef2929e7e7",
"T  c #e7e73131e7e7",
"R  c #e7e73939e7e7",
"E  c #efef3131efef",
"W  c #f7f72121efef",
"Q  c #f7f72929f7f7",
"!  c #ffff2121f7f7",
"~  c #ffff2929f7f7",
"^  c #ffff2929ffff",
"/  c #f7f73131f7f7",
"(  c #f7f73939f7f7",
")  c #ffff3131ffff",
"_  c #ffff3939f7f7",
"`  c #ffff3939ffff",
"'  c #c6c64a4abdbd",
"]  c #d6d64242cece",
"[  c #d6d64a4acece",
"{  c #dede5252dede",
"}  c #cece6363cece",
"|  c #c6c67373c6c6",
" . c #cece7373cece",
".. c #e7e74242e7e7",
"X. c #efef4242efef",
"o. c #e7e75252e7e7",
"O. c #efef5252efef",
"+. c #ffff4242ffff",
"@. c #ffff4a4affff",
"#. c #ffff5252ffff",
"$. c #ffff5a5affff",
"%. c #ffff6363ffff",
"&. c #ffff6b6bffff",
"*. c #ffff7373ffff",
"=. c #ffff7b7bffff",
"-. c #848484848484",
";. c Gray55",
":. c #94948c8c9494",
">. c #9c9c84849c9c",
",. c #9c9c8c8c9494",
"<. c #9c9c8c8c9c9c",
"1. c #9c9c94949c9c",
"2. c Gray61",
"3. c #a5a58484a5a5",
"4. c #a5a59c9ca5a5",
"5. c #bdbd8c8cbdbd",
"6. c #b5b59494b5b5",
"7. c #b5b59c9cb5b5",
"8. c #bdbd9494b5b5",
"9. c #bdbd9494bdbd",
"0. c #bdbd9c9cbdbd",
"q. c #a5a5a5a5a5a5",
"w. c #adada5a5adad",
"e. c Gray68",
"r. c #b5b5a5a5b5b5",
"t. c #b5b5adadb5b5",
"y. c #bdbdadadbdbd",
"u. c Gray71",
"i. c #b5b5bdbdb5b5",
"p. c #bdbdb5b5bdbd",
"a. c Gray74",
"s. c #c6c68484bdbd",
"d. c #ffff8484ffff",
"f. c #ffff8c8cffff",
"g. c #ffff9494ffff",
"h. c #ffff9c9cffff",
"j. c #ffffa5a5ffff",
"k. c #ffffadadffff",
"l. c #ffffb5b5ffff",
"z. c #c0c0c0c0c0c0",
"x. c #c6c6c6c6c6c6",
"c. c #ffffc6c6ffff",
"v. c #ffffceceffff",
"b. c None",
/* pixels */
"b.b.b.b.b.b.b.b.b.b.a.0.| [ D S Z ] ' b 7.a.b.b.b.b.b.b.b.b.b.b.",
"b.b.b.b.b.b.b.b.a.5...` &.f.g.f.=.&.+.! F j 3.a.b.b.b.b.b.b.b.b.",
"b.b.b.b.b.b.b.y.{ #.=.j.l.l.j.h.f.d.*.$.+.L B i w.b.b.b.b.b.b.b.",
"b.b.b.b.b.b.t.O.&.f.f.&.%.%.$.$.$.$.$.@.@.X.W G t 4.b.b.b.b.b.b.",
"b.b.b.b.b.p.o.d.v.v.j.*.#.( T S I E _ $.%.%.#.) F e e.b.b.b.b.b.",
"b.b.b.b.b.| %.l.k.=.#.P w 3 q z z -.k f _ $.&.#.^ m 4 a.b.b.b.b.",
"b.b.b.b.r.` f.h.%.` d X 8 a.b.b.b.b.a.2.y A @.$.+.U r :.b.b.b.b.",
"b.b.b.b.| @.f.&.@.h   ;.b.b.b.b.b.b.b.b.e.u W @.#.~ a 7 b.b.b.b.",
"b.b.b.b.R $.=.#.~ * $ a.b.b.b.b.b.b.b.b.b.v K #.#.` d - b.b.b.b.",
"b.b.b.b.c C X._ Z o ;.b.b.b.b.b.b.b.b.b.b.6.L #.#.` g & b.b.b.b.",
"b.b.b.b.a.q.:.x l 1.x.b.b.b.b.b.b.b.b.b.b.8.^ %.$.` s @ b.b.b.b.",
"b.b.b.b.b.b.b.b.b.b.b.b.b.b.b.b.b.b.b.b.u.R #.=.#.Q 9 5 b.b.b.b.",
"b.b.b.b.b.b.b.b.b.b.b.b.b.b.b.b.b.b.b.y.R %.l.*.+.n X :.b.b.b.b.",
"b.b.b.b.b.b.b.b.b.b.b.b.b.b.b.b.b.b.r.Y *.c.f.+.V * : a.b.b.b.b.",
"b.b.b.b.b.b.b.b.b.b.b.b.b.b.b.b.b.7./ g.v.d.+.U 2 O e.b.b.b.b.b.",
"b.b.b.b.b.b.b.b.b.b.b.b.b.b.b.b.5.^ k.c.*.` ~ p + q.b.b.b.b.b.b.",
"b.b.b.b.b.b.b.b.b.b.b.b.b.b.b.6.) k.l.$.) W p & q.b.b.b.b.b.b.b.",
"b.b.b.b.b.b.b.b.b.b.b.b.b.b.t.E =.=.#.+.H < $ e.b.b.b.b.b.b.b.b.",
"b.b.b.b.b.b.b.b.b.b.b.b.b.b.} ) @.@.#.~ 0 $ u.b.b.b.b.b.b.b.b.b.",
"b.b.b.b.b.b.b.b.b.b.b.b.b.p.Q #.=.%.+.s ; u.b.b.b.b.b.b.b.b.b.b.",
"b.b.b.b.b.b.b.b.b.b.b.b.b.9.` f.=.@.d # u.b.b.b.b.b.b.b.b.b.b.b.",
"b.b.b.b.b.b.b.b.b.b.b.b.b.s.$.g.@.M . 8 b.b.b.b.b.b.b.b.b.b.b.b.",
"b.b.b.b.b.b.b.b.b.b.b.b.b. .%.%.+.N * -.b.b.b.b.b.b.b.b.b.b.b.b.",
"b.b.b.b.b.b.b.b.b.b.b.b.b.b N Q +.Y = q.b.b.b.b.b.b.b.b.b.b.b.b.",
"b.b.b.b.b.b.b.b.b.b.b.b.b.a.1.>.3.<.e.b.b.b.b.b.b.b.b.b.b.b.b.b.",
"b.b.b.b.b.b.b.b.b.b.b.b.b.b.b.p.7.7.u.b.b.b.b.b.b.b.b.b.b.b.b.b.",
"b.b.b.b.b.b.b.b.b.b.b.b.b.b.8.Q L K s ,.b.b.b.b.b.b.b.b.b.b.b.b.",
"b.b.b.b.b.b.b.b.b.b.b.b.b.p.X.h.h.*.U , i.b.b.b.b.b.b.b.b.b.b.b.",
"b.b.b.b.b.b.b.b.b.b.b.b.b.0.` l.c.d.M % e.b.b.b.b.b.b.b.b.b.b.b.",
"b.b.b.b.b.b.b.b.b.b.b.b.b.r.! #.$.) g + e.b.b.b.b.b.b.b.b.b.b.b.",
"b.b.b.b.b.b.b.b.b.b.b.b.b.a.C L J N 0 > a.b.b.b.b.b.b.b.b.b.b.b.",
"b.b.b.b.b.b.b.b.b.b.b.b.b.b.q.k 1 , 6 e.b.b.b.b.b.b.b.b.b.b.b.b."
};
