/* XPM */
static char *magick[] = {
/* columns rows colors chars-per-pixel */
"32 32 212 2",
"   c Gray0",
".  c #080808080000",
"X  c #101008080000",
"o  c #101010100000",
"O  c #101010100808",
"+  c #181810100000",
"@  c #181818180000",
"#  c #181818180808",
"$  c #181818181010",
"%  c #212118180000",
"&  c #212118180808",
"*  c #292921210000",
"=  c #212121211010",
"-  c #212121211818",
";  c #292921211010",
":  c #292929291010",
">  c #292929291818",
",  c #313129290000",
"<  c #313129291818",
"1  c #393931310000",
"2  c #393931310808",
"3  c Gray13",
"4  c #292929292121",
"5  c #313129292929",
"6  c #313131313131",
"7  c #393939393131",
"8  c #393939393939",
"9  c #424239393939",
"0  c #4a4a42420000",
"q  c #4a4a42421010",
"w  c #4a4a52521818",
"e  c #525242420000",
"r  c #52524a4a0000",
"t  c #52524a4a0808",
"y  c #5a5a4a4a0000",
"u  c #5a5a52520808",
"i  c #5a5a52521010",
"p  c #4a4a42423939",
"a  c #4a4a4a4a3939",
"s  c #636352520808",
"d  c #6b6b5a5a0000",
"f  c #63635a5a1010",
"g  c #737363630000",
"h  c #737363630808",
"j  c #73736b6b1010",
"k  c #7b7b73731818",
"l  c #636363632121",
"z  c #636373732929",
"x  c #6b6b73732121",
"c  c #6b6b73732929",
"v  c #6b6b73733131",
"b  c #737373732929",
"n  c #73737b7b2929",
"m  c #7b7b7b7b2121",
"M  c #7b7b7b7b2929",
"N  c #42424a4a4242",
"B  c #4a4a4a4a4242",
"V  c #4a4a52525252",
"C  c #4a4a5a5a5252",
"Z  c #52524a4a4a4a",
"A  c #5a5a52524a4a",
"S  c Gray32",
"D  c #52525a5a5252",
"F  c #5a5a5a5a5252",
"G  c #5a5a5a5a5a5a",
"H  c #525263635a5a",
"J  c #5a5a63635a5a",
"K  c #525263636363",
"L  c #63635a5a5252",
"P  c #63635a5a5a5a",
"I  c #636363635a5a",
"U  c #6b6b63635a5a",
"Y  c #7b7b7b7b5a5a",
"T  c Gray39",
"R  c #63636b6b6b6b",
"E  c #6b6b63636363",
"W  c #6b6b6b6b6363",
"Q  c #73736b6b6363",
"!  c #737373736b6b",
"~  c Gray45",
"^  c #73737b7b7373",
"/  c #7b7b73737373",
"(  c #7b7b7b7b7373",
")  c #7b7b7b7b7b7b",
"_  c #7b7b84843131",
"`  c #7b7b84844a4a",
"'  c #7b7b84847b7b",
"]  c #848473730808",
"[  c #8c8c7b7b0808",
"{  c #848473731010",
"}  c #8c8c7b7b1010",
"|  c #94947b7b0808",
" . c #84847b7b2121",
".. c #84847b7b2929",
"X. c #84847b7b7373",
"o. c #84847b7b7b7b",
"O. c #94947b7b7373",
"+. c #94948c8c1010",
"@. c #94948c8c1818",
"#. c #9c9c8c8c1010",
"$. c #9c9c8c8c1818",
"%. c #9c9c94941818",
"&. c #848484842121",
"*. c #848484842929",
"=. c #848484843131",
"-. c #94948c8c2929",
";. c #9c9c8c8c2929",
":. c #a5a594940000",
">. c #a5a594941818",
",. c #adad9c9c1010",
"<. c #adad9c9c1818",
"1. c #a5a59c9c2929",
"2. c #b5b5a5a51818",
"3. c #b5b5a5a52929",
"4. c #bdbdadad2929",
"5. c #bdbda5a53939",
"6. c #bdbdadad3131",
"7. c #848484844a4a",
"8. c #949494944242",
"9. c #94949c9c4a4a",
"0. c #9c9c9c9c4a4a",
"q. c #94949c9c5a5a",
"w. c #9c9c9c9c5252",
"e. c #9c9c9c9c5a5a",
"r. c #8c8c8c8c6363",
"t. c #8c8c8c8c7b7b",
"y. c #94949c9c6363",
"u. c #9c9c9c9c6b6b",
"i. c #9c9ca5a56b6b",
"p. c #9c9ca5a57373",
"a. c #b5b5a5a54242",
"s. c #b5b5a5a54a4a",
"d. c #bdbdadad4242",
"f. c #b5b5adad5252",
"g. c #a5a5a5a57373",
"h. c #a5a5adad7b7b",
"j. c #adadadad7b7b",
"k. c #c6c6b5b51010",
"l. c #cecebdbd3131",
"z. c #dedec6c60808",
"x. c #d6d6c6c61010",
"c. c #dedecece1010",
"v. c #d6d6c6c63131",
"b. c #dedecece3131",
"n. c #e7e7cece0808",
"m. c #efefdede1010",
"M. c #e7e7d6d62121",
"N. c #efefdede2121",
"B. c #efefdede2929",
"V. c #e7e7d6d63131",
"C. c #e7e7d6d63939",
"Z. c #e7e7dede3939",
"A. c #f7f7e7e72929",
"S. c #f7f7e7e73939",
"D. c #848484848484",
"F. c #8c8c84848484",
"G. c #8c8c8c8c8484",
"H. c #8c8c94948c8c",
"J. c #94948c8c8484",
"K. c #949494948484",
"L. c #949494948c8c",
"P. c #9c9c94948c8c",
"I. c Gray58",
"U. c #94949c9c9494",
"Y. c #9c9c9c9c9494",
"T. c Gray61",
"R. c #9494a5a59c9c",
"E. c #9c9ca5a59c9c",
"W. c #8c8cadada5a5",
"Q. c #9c9ca5a5a5a5",
"!. c #9c9cbdbdb5b5",
"~. c #a5a594948c8c",
"^. c #a5a59c9c8c8c",
"/. c #a5a59c9c9494",
"(. c #a5a59c9c9c9c",
"). c #adad9c9c9494",
"_. c #a5a5a5a58484",
"`. c #adadadad8484",
"'. c #a5a5a5a59c9c",
"]. c #adada5a59c9c",
"[. c #b5b5a5a59494",
"{. c #b5b5a5a59c9c",
"}. c #b5b5adad9c9c",
"|. c #bdbda5a59c9c",
" X c #a5a5a5a5a5a5",
".X c #a5a5adada5a5",
"XX c #a5a5adadadad",
"oX c #adadadada5a5",
"OX c Gray68",
"+X c #a5a5b5b5adad",
"@X c #adadb5b5adad",
"#X c #a5a5bdbdb5b5",
"$X c #b5b5adada5a5",
"%X c #b5b5b5b5adad",
"&X c #bdbdb5b5adad",
"*X c Gray71",
"=X c #b5b5bdbdb5b5",
"-X c #b5b5bdbdbdbd",
";X c Gray74",
":X c #a5a5c6c6bdbd",
">X c #b5b5cecec6c6",
",X c #bdbdcecec6c6",
"<X c #c6c6c6c6bdbd",
"1X c #c0c0c0c0c0c0",
"2X c #c6c6cececece",
"3X c #ceced6d6cece",
"4X c #c6c6deded6d6",
"5X c #ceced6d6d6d6",
"6X c #cecedededede",
"7X c #dedeefefe7e7",
"8X c #dedeefefefef",
"9X c None",
/* pixels */
"9X9X9X9X9X9X9X9X9X9X9X9X9X9X9XoXT.9X9X9X9X9X9X9X9X9X9X9X9X9X9X9X",
"9X9X9X9X9X9X9X9X9X9X9X9X9X9X;X Xo.*X9X9X9X9X9X9X9X9X9X9X9X9X9X9X",
"9X9X9X9X9X9X9X9X9X9X9X9X9X9X].4XE.! ;X9X9X9X9X9X9X9X9X9X9X9X9X9X",
"9X9X9X9X9X9X9X9X9X9X9X9X9X%XY.7X*XB I.9X9X9X9X9X9X9X9X9X9X9X9X9X",
"9X9X9X9X9X9X9X9X9X9X9X9X;XT..X2X'.P S OX9X9X9X9X9X9X9X9X9X9X9X9X",
"9X9X9X9X9X9X9X9X9X9X9X9XU.R.:XY.G.G C T ;X9X9X9X9X9X9X9X9X9X9X9X",
"9X9X9X9X9X9X9X9X9X9X9XOXY.!.XXY.L.W J V D.9X9X9X9X9X9X9X9X9X9X9X",
"9X9X9X9X9X9X9X9X9X9X;XoXoX.X+X;X X( ~ F 8 OX9X9X9X9X9X9X9X9X9X9X",
"9X9X9X9X9X9X9X9X9X9XT.^.[./.-X8X.XX.Q L p S ;X9X9X9X9X9X9X9X9X9X",
"9X9X9X9X9X9X9X9X9XOX^./.(.Y.,X8X/.O.! T A 6 ) 9X9X9X9X9X9X9X9X9X",
"9X9X9X9X9X9X9X9X;XG.H.:X=X@X+X%XoX$XU F J H 6  X9X9X9X9X9X9X9X9X",
"9X9X9X9X9X9X9X9XI.' W.2X<X.X@XG.G.G.I S D K S N ;X9X9X9X9X9X9X9X",
"9X9X9X9X9X9X9XOXL.oX#X>XE.Q..X/.H.H.^ I R T C 5 ~ 9X9X9X9X9X9X9X",
"9X9X9X9X9X9X;XF./.]./.~.'.@X,X3XJ.&XI.E ( U Z 5 3  X9X9X9X9X9X9X",
"9X9X9X9X9X9X(.J.~.[.J.P.$XY.5X6XJ.'.P.L W Q Z 9 5 8 *X9X9X9X9X9X",
"9X9X9X9X9X;XG.P..XOX{.]..X@X7X3X).|.].! E W I D B 4 I.9X9X9X9X9X",
"9X9X9X9X9X;X*X X#X.X}.U.'.Q.+X'.oXoXH./ L B a R E.%X;X9X9X9X9X9X",
"9X9X9X9X9X9X9X9X;X< # O $ - - - > ; = & @ + X ! 9X9X9X9X9X9X9X9X",
"9X9X9X9X9X9X9X9X;X;.:.@.j s t 2 @ + o . X o o ! 9X9X9X9X9X9X9X9X",
"9X9X9X9X9X9X9X9X;X6.m.A.S.S.Z.v.4.$.{ u 1 + o / 9X9X9X9X9X9X9X9X",
"9X9X9X9X9X9X9X9X;X5.x.M.V.C.C.b.l.4.,.[ d 1 + ( 9X9X9X9X9X9X9X9X",
"9X9X9X9X9X9X9X9X;Xd.c.M.V.Z.C.C.v.2.<.} h r * / 9X9X9X9X9X9X9X9X",
"9X9X9X9X9X9X9X9X9Xs.z.M.V.C.3.1.3.4.<.{ d r % ( 9X9X9X9X9X9X9X9X",
"9X9X9X9X9X9X9X9X9Xf.n.N.V.i o . + f $.] d y * ( 9X9X9X9X9X9X9X9X",
"9X9X9X9X9X9X9X9X9Xf.c.B.>.. X + o o j | h y % ( 9X9X9X9X9X9X9X9X",
"9X9X9X9X9X9X9X9X;Xa.z.A.@.X + o + X u } d 0 , 7 W R ( 9X9X9X9X9X",
"9X9X9X9X9X9X9X9XK.#.c.B.>.. . X .   u +.h r , .     4 9X9X9X9X9X",
"9X9X9X9X9X9X9X'.z #.c.N.%..   . # : j [ h e * X : w Y 9X9X9X9X9X",
"9X9X9X9X9X9X%Xv c  .k.N.>.. : w z M &.[ g u q l =.*.t.9X9X9X9X9X",
"9X9X9X9X9X;X` x b b M -.*.l n c c b m k x b .._ b b Y.9X9X9X9X9X",
"9X9X9X9X9Xr.n n M =..._ n _ =.n n n c c n ..M =.M v oX9X9X9X9X9X",
"9X9X9X9X9X`.j._.h.h.p.g.u.u.i.y.y.e.e.q.w.w.9.0.8.7.;X9X9X9X9X9X"
};
