/* XPM */
static char *magick[] = {
/* columns rows colors chars-per-pixel */
"32 32 104 2",
"   c Gray3",
".  c #080810101010",
"X  c #101008081010",
"o  c #101010100808",
"O  c #101010101010",
"+  c #101010101818",
"@  c #101018181818",
"#  c #181818181010",
"$  c #181818181818",
"%  c Gray13",
"&  c Gray16",
"*  c #313131313131",
"=  c #393939393939",
"-  c Gray26",
";  c Gray29",
":  c Gray32",
">  c #5a5a5a5a5a5a",
",  c Gray39",
"<  c #6b6b63636b6b",
"1  c Gray42",
"2  c Gray45",
"3  c #7b7b7b7b7b7b",
"4  c Blue",
"5  c #08080808ffff",
"6  c #10101010f7f7",
"7  c #6b6b6b6bd6d6",
"8  c #73737373cece",
"9  c Green",
"0  c #1010f7f71010",
"q  c #1818f7f71818",
"w  c #2121f7f72121",
"e  c #5a5acece5a5a",
"r  c #5a5ae7e75a5a",
"t  c #6363c6c66b6b",
"y  c #6b6bc6c66b6b",
"u  c #6363dede6363",
"i  c #6363e7e76363",
"p  c Red",
"a  c #f7f718181818",
"s  c #efef21212121",
"d  c #c6c67b7b7b7b",
"f  c #cece7b7b7b7b",
"g  c #dede63636363",
"h  c #e7e75a5a5a5a",
"j  c #dede3939dede",
"k  c Magenta",
"l  c #ffff0808ffff",
"z  c #d6d64242d6d6",
"x  c #d6d64a4ad6d6",
"c  c #dede4242dede",
"v  c #dededede3939",
"b  c Yellow",
"n  c #f7f7f7f71010",
"m  c #f7f7f7f71818",
"M  c #efefefef2929",
"N  c #efefefef3131",
"B  c #dededede4242",
"V  c #dededede4a4a",
"C  c #d6d6d6d65252",
"Z  c #dededede6363",
"A  c #d6d6d6d67b7b",
"S  c #e7e7e7e76363",
"D  c #848484848484",
"F  c Gray55",
"G  c #8c8c94949494",
"H  c Gray58",
"J  c #9c9c94949c9c",
"K  c Gray61",
"L  c #9c9cbdbd9c9c",
"P  c #bdbd9c9c9c9c",
"I  c #bdbd9c9cbdbd",
"U  c #a5a5a5a5a5a5",
"Y  c Gray68",
"T  c #adadadadbdbd",
"R  c #a5a5bdbda5a5",
"E  c #adadb5b5b5b5",
"W  c #bdbda5a5a5a5",
"Q  c #b5b5adadb5b5",
"!  c #b5b5b5b5adad",
"~  c Gray71",
"^  c #b5b5b5b5bdbd",
"/  c #bdbdb5b5b5b5",
"(  c Gray74",
")  c #84848484cece",
"_  c #8c8c8c8cc6c6",
"`  c #adadadadc6c6",
"'  c #bdbdbdbdc6c6",
"]  c #9c9cc6c69c9c",
"[  c #9c9ccece9c9c",
"{  c #adadc6c6adad",
"}  c #bdbdc6c6bdbd",
"|  c #c6c68c8c8c8c",
" . c #c6c6a5a5a5a5",
".. c #c6c6bdbdbdbd",
"X. c #cece8484cece",
"o. c #c6c69c9cc6c6",
"O. c #c6c6adadc6c6",
"+. c #c6c6b5b5c6c6",
"@. c #c6c6bdbdc6c6",
"#. c #cececece8c8c",
"$. c #c6c6c6c6bdbd",
"%. c #c0c0c0c0c0c0",
"&. c #c6c6c6c6c6c6",
"*. c None",
/* pixels */
"*.Y H , : ; = = = * * * & & % % % % & % % & & & & * * = - > K ( ",
"Y & O O O   O O   O O   O   O O O   O O     O   O   O O       H ",
"1 O O O   O . O O + # $ + $ $ $ + $ $ O $ $ O $ O O     O O   ; ",
"- O O O 1 G K U Y ~ Y Y Y Y Y Y ~ Y Y Y Y Y ~ Y U K H < O   O & ",
"* O   3 *.*.*.*.*.*.*.*.*.*.*.*.*.*.*.*.*.*.*.*.*.*.*.*.1   O % ",
"& O . U  .h g g g g / *.&.#.Z Z Z S A $.*.L r u u u i ~ H   X $ ",
"% O   Y f p p p p p P *.( B b b b b M $.*.y 9 9 9 9 9 [ K X O $ ",
"% O @ ~ f p p p p p P *.' B b b b b M $.*.t 9 9 9 9 9 ] U   O $ ",
"%   @ ( f p p p p p P *.$.v b b b b M ( *.t 9 9 9 9 9 R U O O % ",
"% O $ ( d p p p p p P *.' v b b b b N ( *.e 9 9 9 9 9 { U X   % ",
"% o O ^ | a a s a s W *.' C m m M n V $.*.y 0 q w q w R U O   % ",
"% . $ ~ *./ ( ( ( ( ..*.*.$.( ( ( ( ( *.*.( } ( ( ( ( *.J O O % ",
"% o $ E *.*.*.*.*.*.*.*.*.*.*.*.*.*.*.*.*.*.*.*.*.*.*.*.K   O & ",
"% . $ ! *.*.*.*.*.*.*.*.*.*.*.*.*.*.*.*.*.*.*.*.*.*.*.*.K O   * ",
"% X O Q *.*.*.*.*.*.*.*.*.*.*.*.*.*.*.*.*.*.*.*.*.*.*.*.K O   * ",
"& O # E ( ` ` ` ` ` ' *.} +.O.O.O.O.+.*.*.*.*.*.*.*.*.*.H O   * ",
"&   # ^ 7 4 5 5 4 6 T *.@.z k l l k c } *.*.*.*.*.*.*.*.F   O = ",
"& O o / 7 4 4 4 4 5 T *.( j k k k k c } *.*.*.*.*.*.*.*.H O   = ",
"* O O ~ 7 4 4 4 4 5 ` *.( j k k k k z @.*.*.*.*.*.*.*.*.H O   - ",
"*   # ~ 8 4 4 4 4 5 T *.( j k k k k x } *.*.*.*.*.*.*.*.D O   - ",
"=   # ~ 8 4 4 4 4 5 T *.( j k k k k x @.*.*.*.*.*.*.*.*.D     : ",
"= . O Y T ) _ ) _ _ ( *.@.I X.X.X.X.o.*.*.*.*.*.*.*.*.*.F     ; ",
"= o O U *.*.*.*.*.*.*.*.*.*.*.*.*.*.*.*.*.*.*.*.*.*.*.*.3 O   : ",
"-   O U *.*.*.*.*.*.*.*.*.*.*.*.*.*.*.*.*.*.*.*.*.*.*.*.3     > ",
";   O K *.*.*.*.*.*.*.*.*.*.*.*.*.*.*.*.*.*.*.*.*.*.*.*.2     > ",
"; X   H *.*.*.*.*.*.*.*.*.*.*.*.*.*.*.*.*.*.*.*.*.*.*.*.,     1 ",
":     F *.*.*.*.*.*.*.*.*.*.*.*.*.*.*.*.*.*.*.*.*.*.*.*.>     1 ",
">     , *.*.*.*.*.*.*.*.*.*.*.*.*.*.*.*.*.*.*.*.*.*.*.( &     2 ",
"1   O   , F K U U Y Y Y Y Y Y Y Y Y Y Y Y Y ~ Y U K D : %     D ",
"F     O     O O $ $ $ % $ $ $ $ $ $ $ $ $ $ $ O O O O $ O O   K ",
"~ %   O   O     O   O   O O O   O   O   O O   O   O         = ( ",
"*.Y > - * & & & % % $ $ $ $ $ $ $ $ $ $ $ $ $ $ % % & * - , Y *."
};
