/* XPM */
static char *magick[] = {
/* columns rows colors chars-per-pixel */
"32 32 229 2",
"   c #080800000000",
".  c Gray3",
"X  c #101010101010",
"o  c #101010101818",
"O  c #101018181818",
"+  c #181818181818",
"@  c #181818182121",
"#  c #181821212121",
"$  c #212118181818",
"%  c Gray13",
"&  c #292921212121",
"*  c Gray16",
"=  c #292929293131",
"-  c #212131313939",
";  c #313131312929",
":  c #393931312929",
">  c #393931313131",
",  c #393939393131",
"<  c #393942424242",
"1  c #424239393131",
"2  c #424239393939",
"3  c #4a4a39393131",
"4  c #4a4a42423939",
"5  c #4a4a4a4a3939",
"6  c #52524a4a3939",
"7  c #5a5a4a4a3939",
"8  c #73735a5a3939",
"9  c Gray26",
"0  c #424242424a4a",
"q  c Gray29",
"w  c #4a4a52525a5a",
"e  c #52524a4a4242",
"r  c #52524a4a4a4a",
"t  c #5a5a52524242",
"y  c Gray32",
"u  c #5a5a52525252",
"i  c #5a5a5a5a6363",
"p  c #525263637373",
"a  c #5a5a6b6b7b7b",
"s  c #636352524242",
"d  c #63635a5a4a4a",
"f  c #6b6b52524242",
"g  c #63635a5a5a5a",
"h  c #6b6b63634a4a",
"j  c #6b6b6b6b4a4a",
"k  c #737363634a4a",
"l  c #73736b6b4a4a",
"z  c #7b7b63634242",
"x  c #737363635a5a",
"c  c #7b7b6b6b5a5a",
"v  c #7b7b73735252",
"b  c #7b7b7b7b5252",
"n  c Gray39",
"m  c #636363636b6b",
"M  c #6b6b63636363",
"N  c Gray42",
"B  c #6b6b6b6b7373",
"V  c #73736b6b6b6b",
"C  c #7b7b73736b6b",
"Z  c Gray45",
"A  c #737373737b7b",
"S  c #73737b7b7b7b",
"D  c #7b7b7b7b7373",
"F  c #7b7b7b7b7b7b",
"G  c #73737b7b8484",
"H  c #7b7b84848c8c",
"J  c #84846b6b4a4a",
"K  c #84847b7b5a5a",
"L  c #9c9c7b7b5252",
"P  c #8c8c73736363",
"I  c #84847b7b7373",
"U  c #848484845252",
"Y  c #848484845a5a",
"T  c #8c8c84845a5a",
"R  c #9c9c84845a5a",
"E  c #848484846363",
"W  c #8c8c84846363",
"Q  c #8c8c84847373",
"!  c #94948c8c6363",
"~  c #94948c8c6b6b",
"^  c #9c9c8c8c7b7b",
"/  c #9c9c94946363",
"(  c #9c9c9c9c6b6b",
")  c #9c9c9c9c7373",
"_  c #adad8c8c5252",
"`  c #b5b594945a5a",
"'  c #a5a59c9c6363",
"]  c #adad9c9c7373",
"[  c #bdbd9c9c7373",
"{  c #adada5a56b6b",
"}  c #a5a5a5a57373",
"|  c #adadadad7b7b",
" . c #b5b5a5a56b6b",
".. c #bdbdadad7373",
"X. c #bdbdb5b57b7b",
"o. c #ceceadad6b6b",
"O. c #ceceadad7373",
"+. c #cecebdbd7b7b",
"@. c #dedea5a57b7b",
"#. c #efefa5a57b7b",
"$. c #e7e7b5b57b7b",
"%. c #e7e7bdbd7373",
"&. c #f7f7adad6b6b",
"*. c #ffffadad6b6b",
"=. c #f7f7adad7373",
"-. c #ffffb5b57373",
";. c #e7e7c6c67b7b",
":. c #efefcece7b7b",
">. c #ffffc6c67b7b",
",. c #ffffd6d67b7b",
"<. c #848484848484",
"1. c #84848c8c8c8c",
"2. c #8c8c84848484",
"3. c Gray55",
"4. c #84848c8c9c9c",
"5. c #94948c8c8484",
"6. c #94948c8c8c8c",
"7. c #949494948c8c",
"8. c #9c9c94948c8c",
"9. c #949494949c9c",
"0. c #9c9c94949494",
"q. c #9c9c9c9c9494",
"w. c Gray61",
"e. c #94949c9ca5a5",
"r. c #9c9c9c9ca5a5",
"t. c #9c9c9c9cadad",
"y. c #9c9ca5a59c9c",
"u. c #9494a5a5bdbd",
"i. c #a5a59c9c8c8c",
"p. c #a5a59c9c9c9c",
"a. c #adad9c9c9494",
"s. c #adada5a59c9c",
"d. c #b5b5a5a59494",
"f. c #b5b5adad9c9c",
"g. c #a5a5a5a5a5a5",
"h. c #a5a5adadadad",
"j. c #adada5a5a5a5",
"k. c Gray68",
"l. c #a5a5adadb5b5",
"z. c #b5b5adadadad",
"x. c #bdbdb5b5a5a5",
"c. c #bdbdb5b5adad",
"v. c Gray71",
"b. c #bdbdb5b5b5b5",
"n. c Gray74",
"m. c #adadbdbdc6c6",
"M. c #adadbdbdcece",
"N. c #bdbdbdbdc6c6",
"B. c #bdbdc6c69c9c",
"V. c #bdbdc6c6c6c6",
"C. c #bdbdc6c6cece",
"Z. c #b5b5c6c6d6d6",
"A. c #c6c6adad8c8c",
"S. c #ceceadad9494",
"D. c #cecebdbd9c9c",
"F. c #d6d6adad9494",
"G. c #d6d6b5b58484",
"H. c #dedeb5b58c8c",
"J. c #dedeb5b59494",
"K. c #c6c6bdbda5a5",
"L. c #c6c6bdbdadad",
"P. c #c6c6bdbdbdbd",
"I. c #e7e7b5b58c8c",
"U. c #f7f7bdbd8484",
"Y. c #cececece8c8c",
"T. c #c6c6c6c69494",
"R. c #d6d6cece9c9c",
"E. c #dedecece9c9c",
"W. c #cecec6c6a5a5",
"Q. c #d6d6c6c6b5b5",
"!. c #d6d6d6d6a5a5",
"~. c #d6d6dedeadad",
"^. c #dedededea5a5",
"/. c #efefcece8c8c",
"(. c #e7e7d6d69c9c",
"). c #efefdede9c9c",
"_. c #f7f7cece8c8c",
"`. c #ffffc6c68484",
"'. c #ffffcece8484",
"]. c #f7f7d6d68484",
"[. c #f7f7dede8c8c",
"{. c #ffffd6d68c8c",
"}. c #efefc6c6a5a5",
"|. c #e7e7dedea5a5",
" X c #efefe7e79c9c",
".X c #e7e7e7e7a5a5",
"XX c #efefe7e7a5a5",
"oX c #efefe7e7adad",
"OX c #efefefefadad",
"+X c #efefefefbdbd",
"@X c #f7f7e7e7adad",
"#X c #f7f7efefa5a5",
"$X c #f7f7f7f7adad",
"%X c #fffff7f7adad",
"&X c #f7f7f7f7b5b5",
"*X c #c0c0c0c0c0c0",
"=X c #c6c6c6c6c6c6",
"-X c #c6c6cececece",
";X c #cecececec6c6",
":X c #cececececece",
">X c #cecececed6d6",
",X c #d6d6cecec6c6",
"<X c #dedececec6c6",
"1X c #d6d6d6d6cece",
"2X c Gray84",
"3X c #d6d6d6d6dede",
"4X c #dedededed6d6",
"5X c Gray87",
"6X c #dedee7e7e7e7",
"7X c #dedee7e7efef",
"8X c #e7e7dedecece",
"9X c #efefdedec6c6",
"0X c #efefe7e7dede",
"qX c #ffffefefc6c6",
"wX c #f7f7efefdede",
"eX c #ffffffffcece",
"rX c #ffffffffd6d6",
"tX c #e7e7e7e7e7e7",
"yX c #efefefefefef",
"uX c #efefefeff7f7",
"iX c #efeff7f7f7f7",
"pX c #f7f7efefe7e7",
"aX c #f7f7efefefef",
"sX c #f7f7f7f7e7e7",
"dX c Gray97",
"fX c #f7f7ffffffff",
"gX c #fffffffff7f7",
"hX c Gray100",
"jX c None",
/* pixels */
"jXL.$.|.oXOXoXoXoXoX.X XXXOXOX&XXX X X/.U.U./.#X#X#X&X$X&X$X^.jX",
"jXL.>.+.! { } R.+XeXrX+XrXrX+XqXrXrXrXqX}.}.@XoX~.!.B.| }  XoXjX",
"jXd.{.v o 9 q w.=X>Xl.3.b.C.a D ;X-X=X5XfX7XfXuXuXuX>Xt.B Y.OXjX",
"jXS.{.b @ * * q g D p.g.k.k.6.0.v.g.v.,XgXhXhXhXhXhXhXfX6X.X!.jX",
"jXF.'.v @ % & d.5XyXhXhXhXhXhXhXhXhXhXhXhXhXhXhXhXhXhXhXhXOX^.jX",
"jXF.`.l @ % ; 5.z.0XtX2X2X:Xn.h.w.3.A <.c.aXhXhXhXhXhXhXhX@XE.jX",
"jXS.-.k # * % % h P.5XtXtXyXtXtX6X5X=Xr.F m N 0.b.4XdXhXhX%X^.jX",
"jXD.*.f # * % > y 2.w.z.n.pXhXhXhXhXhXhXhX7Xp X + & , g D R.(.jX",
"jXF.-.s % % % % $ % X % % 2 n 5.gXhXhX3X0.S g 0 * * X X .  . XjX",
"jXJ.`.s + x V.w r j.S Q 4X-Xl.u wXhXhXiXtXuXC.1.c.3XG 0 @ { #XjX",
"jXF.'.s O c hXiX>XP.aXhXhXhXhX1.9XhXhXhXhXhXhXhXhXhXhXhXZ.T.OXjX",
"jXF.>.t # : x.5XaXhXhXhXhXhXZ.r <XhXhXhXhXhXhXhXhXhXhXhXiX~.XXjX",
"jXH.>.7 % % 1 V s.-XV.1XhXiXa 4 W.hXhXhXhXhXhXhXhXhXhXhXZ.X.).jX",
"jXI.&.6 % % % r 8.P.n.3.8Xu.= 9 Q.hXfX3X5XhXhXhXhXhXhXhXu.]  XjX",
"jXJ.*.e % & ^ b.0XhXhX3X6Xa > $ 1 F p.9.L.gXhXhXhXhXhXhXa ' #XjX",
"jX@.>.5 O 3 sXhXhXfXV.g.v.w.1.3.B I 0XhXhXhXhXfXyX5XdXM.- / #XjX",
"jX#.>., : a.gX6X1.i y 9 M 1.Z f.hXhXhXhXhXhXdXaXyX6XH * o { #XjX",
"jXU.:.h <XhXhXhXm.3.0.c.tXhX3X3.,XyXm.1.i y M 7.z.n.e.w o ( $XjX",
"jX#.[.D.yX3XtXyXuX4.^ hXhXhXiXt.0.G g > C p.P.gXhXhXhXM.o / $XjX",
"jX=.[.r < g q.n.l.i x.hXhXhXhXhXfXhXhX6X>Xt.q q.N.G i < o ( &XjX",
"jXU._.5 : d 8.y.D L.sXgXyXsXhXhXhXhXhX6Xm 2 j f.v.y.N y * ) &XjX",
"jXR L T T T W T E W Y U Y E W W T T U z 8 z J ~ ~ ~ K j j W } jX",
"jXk.h.k.k.g.k.g.j.k.9   3.k.p.& $ g.k.n   B k.p.g.r.g.g.g.g.j.jX",
"jXjXjXjXjXjXjXjXjXn...8 n.jXV.; : n.jXj.` ^ jXjXjXjXjXjXjXjXjXjX",
"jXjXjXjXjXjXjXjXjXc.].Q jXjXP.; > n.jXn.:.+.n.jXjXjXjXjXjXjXjXjX",
"jXjXjXjXjXjXjXjXjXK.o.0.jXjXN.: : n.jXjXA.:.j.jXjXjXjXjXjXjXjXjX",
"jXjXjXjXjXjXjXjXn.).R v.jXjXP.: > n.jXjXs.,.i.jXjXjXjXjXjXjXjXjX",
"jXjXjXjXjXjXjXjXc.[.Q jXjXjXV.; > n.jXjXv.:.[ n.jXjXjXjXjXjXjXjX",
"jXjXjXjXjXjXjXjXK.;.0.jXjXjXP.: > n.jXjX=XA.%.k.jXjXjXjXjXjXjXjX",
"jXjXjXjXjXjXjXn.E._ k.jXjXjXN.; , n.jXjXjXf.].a.jXjXjXjXjXjXjXjX",
"jXjXjXjXjXjXjXv.[.P n.jXjXjX=X: > n.jXjXjXz.:.] jXjXjXjXjXjXjXjX",
"jXjXjXjXjXjXjXx.%.2.jXjXjXjXn., 2 n.jXjXjXn.G.O.n.jXjXjXjXjXjXjX"
};
