/* XPM */
static char *magick[] = {
/* columns rows colors chars-per-pixel */
"32 32 67 1",
"  c #000008081010",
". c #101010101818",
"X c #000000003131",
"o c #000000003939",
"O c #000008083131",
"+ c #000008083939",
"@ c #080810103131",
"# c #080810103939",
"$ c #181818183939",
"% c #212121213939",
"& c #292929293131",
"* c #393939393939",
"= c #000000004242",
"- c #000008084242",
"; c #000008084a4a",
": c #080808084242",
"> c #080810104a4a",
", c #181818184a4a",
"< c #181818185252",
"1 c #181821214242",
"2 c #181821215252",
"3 c #212121215252",
"4 c #212129295252",
"5 c #292929295252",
"6 c #313131314242",
"7 c #313131314a4a",
"8 c #313131315a5a",
"9 c #313139395a5a",
"0 c #313139396363",
"q c #393942425a5a",
"w c #393942426363",
"e c Gray26",
"r c #424242424a4a",
"t c #4a4a4a4a5252",
"y c #4a4a4a4a5a5a",
"u c #5a5a5a5a5a5a",
"i c #424242426363",
"p c #42424a4a6b6b",
"a c #4a4a4a4a6b6b",
"s c #5a5a5a5a6363",
"d c #5a5a5a5a7373",
"f c #5a5a63637b7b",
"g c Gray39",
"h c Gray42",
"j c #6b6b6b6b7373",
"k c #6b6b6b6b7b7b",
"l c Gray45",
"z c #6b6b6b6b8484",
"x c #7b7b7b7b8484",
"c c #7b7b84848c8c",
"v c #848484848484",
"b c #848484848c8c",
"n c Gray55",
"m c #848484849494",
"M c #8c8c8c8c9494",
"N c Gray58",
"B c #949494949c9c",
"V c #9c9c9c9ca5a5",
"C c #a5a5a5a59c9c",
"Z c #a5a5a5a5a5a5",
"A c #a5a5a5a5adad",
"S c Gray68",
"D c Gray71",
"F c #b5b5b5b5bdbd",
"G c Gray74",
"H c #c0c0c0c0c0c0",
"J c None",
/* pixels */
"JJJJJJJJJJJJJJJJJJJJJJJJJJJJJJJJ",
"JJJJJJJJJJJJJJJJJJJJJJJJJJJJJJJJ",
"JJJJJJJJJJJJJJJJJJJJJJJJJJJJJJJJ",
"JJJJJJJJJJJJJJJJJJJJJJJJJJJJJJJJ",
"JJJJJJJJJJJJJJJxtGJJJJJJJJJJJJJJ",
"JJJJJJJJJJJJJJG8OSJJJJJJJJJJJJJJ",
"JJJJJJJJJJJJJJB;-jJJJJJJJJJJJJJJ",
"JJJJJJJJJJJJJJd-;%GJJJJJJJJJJJJJ",
"JJJJJJJJJJJJJD<;>#NJJJJJJJJJJJJJ",
"JJJJJJJJJJJJJc->>=yJJJJJJJJJJJJJ",
"JJJJJJJJJJJJG08w->#SJJJJJJJJJJJJ",
"JJJJJJJJJJJJA-bm=>+xJJJJJJJJJJJJ",
"JJJJJJJJJJJGa>GD2--6DJJJJJJJJJJJ",
"JJJJJJJJJJJV-dJJb->XlJJJJJJJJJJJ",
"JJJJJJJJJJJf-BJJF,;-%GJJJJJJJJJJ",
"JJJJJJJJJJD<4GJJJf->@NJJJJJJJJJJ",
"JJJJJJJJJJm-mJJJJA::=yJJJJJJJJJJ",
"JJJJJJJJJG8wJJJJJJa-:#DJJJJJJJJJ",
"JJJJJJJJJS>7gggggg7->OxJJJJJJJJJ",
"JJJJJJJJJz=+O++++O+::-6GJJJJJJJJ",
"JJJJJJJJD,iMMMMMMMBp--#NJJJJJJJJ",
"JJJJJJJJB-BJJJJJJJJB-:osJJJJJJJJ",
"JJJJJJJF82GJJJJJJJJGi--$ZJJJJJJJ",
"JJJJJJJMokJJJJJJJJJJV::XrGJJJJJJ",
"JJJJJJG9-VJJJJJJJJJJG4--@CJJJJJJ",
"JJJJJGb-#nGJJJJJJJJJGi-:+rSJJJJJ",
"JJJJn&O-o enJJJJJJGh*@---X.uJJJJ",
"JJJJq,45531vJJJJJJG7,5555547JJJJ",
"JJJJJJJJJJJJJJJJJJJJJJJJJJJJJJJJ",
"JJJJJJJJJJJJJJJJJJJJJJJJJJJJJJJJ",
"JJJJJJJJJJJJJJJJJJJJJJJJJJJJJJJJ",
"JJJJJJJJJJJJJJJJJJJJJJJJJJJJJJJJ"
};
