/* XPM */
static char *magick[] = {
/* columns rows colors chars-per-pixel */
"32 32 129 2",
"   c #212100000000",
".  c #212108080000",
"X  c #292900000000",
"o  c #292910101010",
"O  c #292918181010",
"+  c #292918181818",
"@  c #313108080000",
"#  c #4a4a08080000",
"$  c #4a4a21211818",
"%  c #525239393939",
"&  c #636310100000",
"*  c #636310100808",
"=  c #6b6b10100808",
"-  c #6b6b18180808",
";  c #737321211818",
":  c #737331312121",
">  c #737339393131",
",  c #52524a4a4a4a",
"<  c #737352524a4a",
"1  c #73735a5a5a5a",
"2  c #6b6b63635a5a",
"3  c #6b6b63636363",
"4  c #73736b6b6b6b",
"5  c #7b7b63636363",
"6  c #7b7b6b6b6b6b",
"7  c #737373736b6b",
"8  c #7b7b73737373",
"9  c #848418180808",
"0  c #949421211010",
"q  c #949429291010",
"w  c #9c9c21211010",
"e  c #9c9c29291818",
"r  c #9c9c31312121",
"t  c #adad31311818",
"y  c #b5b529291010",
"u  c #b5b531311818",
"i  c #adad31312121",
"p  c #bdbd39392121",
"a  c #bdbd39392929",
"s  c #9c9c42423131",
"d  c #adad4a4a3939",
"f  c #bdbd42422929",
"g  c #848452524a4a",
"h  c #949452524242",
"j  c #9c9c5a5a5252",
"k  c #84846b6b6b6b",
"l  c #8c8c73736b6b",
"z  c #8c8c73737373",
"x  c #949473736b6b",
"c  c #9c9c73736b6b",
"v  c #9c9c73737373",
"b  c #adad5a5a5252",
"n  c #adad63635252",
"m  c #bdbd63635252",
"M  c #bdbd6b6b5a5a",
"N  c #a5a573736b6b",
"B  c #a5a57b7b7373",
"V  c #b5b573736b6b",
"C  c #cece31311010",
"Z  c #d6d629291010",
"A  c #c6c639392121",
"S  c #cece4a4a3131",
"D  c #d6d64a4a3131",
"F  c #d6d64a4a3939",
"G  c #d6d652523939",
"H  c #dede52523939",
"J  c #e7e74a4a2929",
"K  c #e7e74a4a3131",
"L  c #efef52523939",
"P  c #f7f752523131",
"I  c #f7f752523939",
"U  c #cece5a5a4a4a",
"Y  c #d6d652524242",
"T  c #dede5a5a4a4a",
"R  c #dede6b6b5252",
"E  c #c6c673736363",
"W  c #cece7b7b6b6b",
"Q  c #ffff63634a4a",
"!  c #f7f76b6b5252",
"~  c #f7f76b6b5a5a",
"^  c #ffff6b6b5252",
"/  c #f7f773735a5a",
"(  c #ffff73735252",
")  c #ffff73735a5a",
"_  c #ffff7b7b5a5a",
"`  c #ffff7b7b6363",
"'  c #ffff7b7b6b6b",
"]  c #9c9c84847b7b",
"[  c #adad84847b7b",
"{  c #b5b584847b7b",
"}  c #bdbd84847b7b",
"|  c #c6c684847b7b",
" . c #dede84847373",
".. c #dede8c8c7b7b",
"X. c #e7e784847373",
"o. c #f7f784846b6b",
"O. c #ffff84846363",
"+. c #ffff84846b6b",
"@. c #ffff8c8c6b6b",
"#. c #f7f784847373",
"$. c #ffff8c8c7373",
"%. c #94948c8c8c8c",
"&. c #9c9c8c8c8c8c",
"*. c #949494948c8c",
"=. c Gray58",
"-. c #9c9c94949494",
";. c Gray61",
":. c #a5a58c8c8c8c",
">. c #adad94948c8c",
",. c #adad9c9c9494",
"<. c #adad9c9c9c9c",
"1. c #b5b58c8c8484",
"2. c #b5b594948c8c",
"3. c #b5b594949494",
"4. c #b5b59c9c9494",
"5. c #bdbd9c9c9494",
"6. c #bdbd9c9c9c9c",
"7. c #bdbda5a59c9c",
"8. c #b5b5adada5a5",
"9. c #b5b5adadadad",
"0. c #bdbdb5b5b5b5",
"q. c Gray74",
"w. c #c6c694948c8c",
"e. c #cece94948c8c",
"r. c #c6c69c9c9494",
"t. c #dede94948484",
"y. c #efef94948484",
"u. c #c0c0c0c0c0c0",
"i. c None",
/* pixels */
"i.n t i i i i i i i i i i t { i.i.,.t i i i i i i i i i i t d i.",
"i.T K K K K K K K K K K K J | i.i.4.K K K K K K K J K J J J H i.",
"i.o.O.+.O.O.O.O.` O.` O.` ` e.i.i.6.` _ ` _ _ _ ` _ ) ` ) ) ` i.",
"i.#.+.' +.' +.' +.` +.` ` O.e.i.i.<.` ` ` ` ` ` ` ` ` ` ) ` ` i.",
"i.U H Y G G Y G Y G Y G Y G } i.i.4.G G G F G F F F G F G F Y i.",
"i.s e e e e e e e e e e e w ] i.i.>.e e e e e e e e e e e e r i.",
"i.: - - - - - - - - - - - = x i.i.&.- - - * - * - * - * - * ; i.",
"i.% @ @ @ @ @ @ @ @ @ @ @ @ 5 i.i.&.@ @ @ @ @ @ @ @ @ @ @ @ $ i.",
"i.2 o + + + + + + + + + + O 8 i.i.-.O + + + + + + + + + + O , i.",
"i.q.q.q.q.q.q.q.q.q.q.q.q.q.q.i.i.q.q.q.q.i.q.i.q.i.q.i.q.q.q.i.",
"i.i.i.i.i.i.i.i.i.i.i.i.i.i.i.i.i.i.i.i.i.i.i.i.i.i.i.i.i.i.i.i.",
"i.q.9.9.9.9.9.9.9.9.9.9.9.9.q.i.i.q.9.9.9.9.9.9.9.9.9.9.9.9.0.i.",
"i.V y u u u u u u u u u u y [ i.i.3.y u u u u u u u u u u y b i.",
"i.W I L I L L I L L I L L P 1.i.i.4.I L L L L L L L L L L P R i.",
"i.t.+.@.@.+.@.+.+.+.+.+.+.O.2.i.i.7.` O.` O.` ` ` ` ` ` ` ` #.i.",
"i...` ` ` ` ` ` ` ` ` ` ` ` 1.i.i.6.) ` ` ` ) ` ) ) ) ) ) / o.i.",
"i.E G G G G G G G F G F F D [ i.i.3.F S S S F S F F S F S S m i.",
"i.j 0 e e e e e e q e q e 0 z i.i.:.q e e e q e q e q e e 0 s i.",
"i.g & * * * * * * * * * * & l i.i.&.* * * * * * * * * * * * > i.",
"i.1   X . X .   . X . X X   6 i.i.%.X   .     .   .   .     % i.",
"i.;.3 7 4 4 4 4 4 4 4 4 7 3 ;.i.i.8.4 7 8 7 8 7 8 7 8 7 8 4 =.i.",
"i.i.i.i.i.i.i.i.i.i.i.i.i.i.i.i.i.i.i.i.i.i.i.i.i.i.i.i.i.i.i.i.",
"i.i.i.i.i.i.i.i.i.i.i.i.i.i.i.i.i.i.i.i.i.i.i.i.i.i.i.i.i.i.i.i.",
"i.9.c B B B B B B B B B B N <.i.i.9.N B B N N B N B N B N N ,.i.",
"i.} Z C C C C C C C C C C Z B i.i.2.C C C C C C C C C C C Z M i.",
"i.e.( ) ^ ) ) ^ ) ) ^ ) ^ ^ { i.i.5.^ ^ ^ ^ ^ ^ ^ ^ ^ ^ ^ Q  .i.",
"i.r.$.$.$.$.$.$.$.$.$.$.@.$.1.i.i.7.+.+.+.+.+.+.+.+.' +.` O.y.i.",
"i.w.) / / / ~ ~ ~ ! ~ ! ~ ) { i.i.5.~ ! ! ! ! ! ! ! ! ! ! ! X.i.",
"i.[ A a f a f f f f a f a p v i.i.>.a a a a a a a p a p a p b i.",
"i.c 9 0 9 ; 9 0 9 ; 9 9 0 9 l i.i.:.9 9 ; 9 9 9 ; 9 ; 9 ; 9 h i.",
"i.z # # * # # # # # # # # # k i.i.&.# # # # # # # # # # # # < i.",
"i.%.. O O + O + + + O + + . 8 i.i.*.O O + O + + O + + + + . 4 i."
};
