/* XPM */
static char *magick[] = {
/* columns rows colors chars-per-pixel */
"32 32 116 2",
"   c #000000001818",
".  c #000000002121",
"X  c #000000002929",
"o  c #080808082929",
"O  c #000000003131",
"+  c #000000003939",
"@  c #080808083131",
"#  c #181818182121",
"$  c #101010103131",
"%  c #101010103939",
"&  c #181818183131",
"*  c #212121213131",
"=  c #212121213939",
"-  c #292921213939",
";  c #292929293131",
":  c #292929293939",
">  c #000000004242",
",  c #000000004a4a",
"<  c #080808084a4a",
"1  c #000000005252",
"2  c #000000005a5a",
"3  c #080800005252",
"4  c #080800005a5a",
"5  c #080808085252",
"6  c #080808085a5a",
"7  c #101008084a4a",
"8  c #101010104242",
"9  c #181818184242",
"0  c #101010105252",
"q  c #101010105a5a",
"w  c #181818185a5a",
"e  c #000000006363",
"r  c #000000006b6b",
"t  c #080800006363",
"y  c #080800006b6b",
"u  c #080808086363",
"i  c #080808086b6b",
"p  c #000000007373",
"a  c #000000007b7b",
"s  c #080808087373",
"d  c #080808087b7b",
"f  c #101010106363",
"g  c #101010106b6b",
"h  c #181818186b6b",
"j  c #101010107b7b",
"k  c #181810107373",
"l  c #181818187373",
"z  c #181818187b7b",
"x  c #212121214242",
"c  c #292929294242",
"v  c #212121215252",
"b  c #313131314242",
"n  c #313131314a4a",
"m  c #393939394a4a",
"M  c #212121216b6b",
"N  c #292929296363",
"B  c #424242424a4a",
"V  c #424242425252",
"C  c #4a4a42425a5a",
"Z  c #4a4a4a4a5252",
"A  c #4a4a4a4a5a5a",
"S  c Gray32",
"D  c #5a5a5a5a5a5a",
"F  c #424242426363",
"G  c #525252526363",
"H  c #5a5a5a5a6363",
"J  c Gray39",
"K  c #636363636b6b",
"L  c Gray42",
"P  c #6b6b6b6b7373",
"I  c #6b6b6b6b7b7b",
"U  c Gray45",
"Y  c #7b7b7b7b7373",
"T  c #7b7b7b7b7b7b",
"R  c #000000008c8c",
"E  c #080808088484",
"W  c #080808089494",
"Q  c #080808089c9c",
"!  c #181818188484",
"~  c #10100808a5a5",
"^  c #292929299494",
"/  c #313131319c9c",
"(  c #393931319c9c",
")  c #29292929a5a5",
"_  c #31313131adad",
"`  c #4a4a4a4a9c9c",
"'  c #525252528c8c",
"]  c #5a5a5a5a9c9c",
"[  c #6b6b6b6b8484",
"{  c #6b6b6b6b8c8c",
"}  c #6b6b6b6b9494",
"|  c #737373738c8c",
" . c #7b7b7b7b8484",
".. c #7b7b7b7b8c8c",
"X. c #737373739494",
"o. c #7b7b7b7b9c9c",
"O. c #848484848484",
"+. c #848484848c8c",
"@. c Gray55",
"#. c #848484849494",
"$. c #848484849c9c",
"%. c #8c8c8c8c9494",
"&. c Gray58",
"*. c #949494949c9c",
"=. c #9c9c9c9c9494",
"-. c Gray61",
";. c #9c9c9c9ca5a5",
":. c #a5a59c9cadad",
">. c #a5a5a5a5a5a5",
",. c Gray68",
"<. c Gray71",
"1. c #b5b5bdbdbdbd",
"2. c Gray74",
"3. c #c0c0c0c0c0c0",
"4. c #c6c6c6c6c6c6",
"5. c None",
/* pixels */
"5.5.5.5.5.5.5.5.5.5.5.5.5.5.5.5.5.5.5.5.5.5.5.5.5.5.5.5.5.5.5.5.",
"5.5.5.5.5.5.5.5.5.5.5.5.5.5.5.5.5.5.5.5.5.5.5.5.5.5.5.5.5.5.5.5.",
"5.5.5.5.5.5.5.5.5.5.5.5.5.5.5.5.5.5.5.2.o./ z z l k l h F <.5.5.",
"5.5.5.5.5.5.5.5.5.5.5.5.5.5.5.5.5.5.5.*.W d i u u u u u , m 5.5.",
"<.{ ,.5.5.5.5.5.5.5.5.5.:.| 2.5.5.5.5.,.- O > < > < + O   H X.2.",
"] R n 2.5.5.5.5.5.5.5.1.) e +.5.5.5.5.5.<.O.Y L L L U T -.] a K ",
"! d + >.5.5.5.5.5.5.5.-.E 2 A 2.5.5.5.5.5.5.5.5.5.5.5.5.<.j y 9 ",
"h i > &.5.5.5.5.5.5.5.*.i u n 2.5.5.5.5.5.5.5.5.5.5.5.5.>.q u % ",
"f i < O.5.5.5.5.5.5.5.%.u u c 2.5.5.5.5.5.5.5.5.5.5.5.5.>.6 6 % ",
"w i + O.5.5.5.5.5.5.5.%.u 6 c 2.5.5.5.5.5.5.5.5.5.5.5.5.>.5 6 % ",
"w i + O.5.5.5.5.5.5.5.-.u 6 x 2.5.5.5.5.5.5.5.5.5.5.5.5.>.0 6 % ",
"N u > T 5.5.5.5.5.5.5.-.6 2 = 2.5.5.5.5.5.5.5.5.5.5.5.5.:.0 6 % ",
"N u + T 5.5.5.5.5.5.5.>.6 3 = 2.5.5.5.5.5.5.5.5.5.5.5.5.,.< 5 % ",
"C 1 X @.5.5.5.5.5.5.5.<.7 , : 2.5.5.5.5.5.5.5.5.5.5.5.5.2.8 > & ",
"%.X # *.$.| [ [ { [ | -.V   U 5.5.5.5.5.<.$.[ [ X.X.[ [ *.J   J ",
"4.O.I _ W d s s s s i 5 K T 2.5.5.5.5.1.( Q s r e e e u , G T 2.",
"5.5.%.> 1 5 3 3 5 5 < X S ,.5.5.5.5.2.%.8 > , < , < > > X m 5.5.",
"5.5.2.T n - = = = : b D } j &.5.5.2.` M Y A m b b b m B J <.5.5.",
"5.5.5.5.2.2.2.2.2.2.2.4.^ p c 2.5.;.Q 1 P 5.2.4.2.2.2.2.5.5.5.5.",
"5.5.5.5.5.5.5.5.5.5.5.<.g u % <.5.*.i 1 V 5.5.5.5.5.5.5.5.5.5.5.",
"5.5.5.5.5.5.5.5.5.5.5.<.q 6 @ ,.5.*.6 1 V 2.5.5.5.5.5.5.5.5.5.5.",
"5.5.5.5.5.5.5.5.5.5.5.<.w 6 % ,.5.%.6 , m 2.5.5.5.5.5.5.5.5.5.5.",
"5.5.5.5.5.5.5.5.5.5.5.2.0 4 @ >.5.+.6 1 m 2.5.5.5.5.5.5.5.5.5.5.",
"5.5.5.5.5.5.5.5.5.5.5.2.w 6 @ >.5.%.6 < n 2.5.5.5.5.5.5.5.5.5.5.",
"5.5.5.5.5.5.5.5.5.5.5.2.w 5 @ >.5.&.3 , b 4.5.5.5.5.5.5.5.5.5.5.",
"5.5.5.5.5.5.5.5.5.5.5.2.v < o ,.5.;.< > m 5.5.5.5.5.5.5.5.5.5.5.",
"5.5.5.5.5.5.5.5.5.5.5.2.H X ; 2.5.2.& . L >.#. ...%.#...-.2.5.5.",
"5.5.5.5.5.5.5.5.5.5.5.5.<.Z >.5.5.5.-.D ' ~ d i i t e 6 , P 2.5.",
"5.5.5.5.5.5.5.5.5.5.5.5.5.4.5.5.5.5.5.<.q 1 < < , < > < X & 2.5.",
"5.5.5.5.5.5.5.5.5.5.5.5.5.5.5.5.5.5.5.5.=.b & $ & & & * Z >.5.5.",
"5.5.5.5.5.5.5.5.5.5.5.5.5.5.5.5.5.5.5.5.5.5.5.5.5.5.5.5.5.5.5.5.",
"5.5.5.5.5.5.5.5.5.5.5.5.5.5.5.5.5.5.5.5.5.5.5.5.5.5.5.5.5.5.5.5."
};
