/* XPM */
static char *magick[] = {
/* columns rows colors chars-per-pixel */
"32 32 143 2",
"   c #00001010f7f7",
".  c #18183131dede",
"X  c #00002121efef",
"o  c #00002121f7f7",
"O  c #00002121ffff",
"+  c #00002929ffff",
"@  c #08082929f7f7",
"#  c #00003131ffff",
"$  c #08083131ffff",
"%  c #08083939ffff",
"&  c #10102929e7e7",
"*  c #18183131e7e7",
"=  c #10103939ffff",
"-  c #29293939c6c6",
";  c #29293939d6d6",
":  c #21213939e7e7",
">  c #39394a4abdbd",
",  c #10104242ffff",
"<  c #18184242ffff",
"1  c #18184a4affff",
"2  c #29294242cece",
"3  c #21214242dede",
"4  c #29294242dede",
"5  c #39394a4adede",
"6  c #31315252dede",
"7  c #21214a4affff",
"8  c #21215252ffff",
"9  c #29295252ffff",
"0  c #29295a5affff",
"q  c #31315252e7e7",
"w  c #31315a5affff",
"e  c #31316363ffff",
"r  c #39396363ffff",
"t  c #39396b6bffff",
"y  c #5a5a6363adad",
"u  c #63636b6bbdbd",
"i  c #6b6b7373bdbd",
"p  c #42425252d6d6",
"a  c #42425252dede",
"s  c #4a4a5a5ad6d6",
"d  c #52526363c6c6",
"f  c #52526363cece",
"g  c #52527373d6d6",
"h  c #52527b7bdede",
"j  c #42426363efef",
"k  c #42426b6bffff",
"l  c #42427373ffff",
"z  c #4a4a7373ffff",
"x  c #4a4a7b7bffff",
"c  c #52527373e7e7",
"v  c #52527b7bf7f7",
"b  c #63637b7bc6c6",
"n  c #63637b7bcece",
"m  c #6b6b7373c6c6",
"M  c #63637b7bd6d6",
"N  c #73737b7bcece",
"B  c #73738484b5b5",
"V  c #7b7b8484b5b5",
"C  c #7b7b8c8cbdbd",
"Z  c #7b7b9494bdbd",
"A  c #4a4a8484ffff",
"S  c #5a5a8484efef",
"D  c #52528484ffff",
"F  c #5a5a8484ffff",
"G  c #5a5a8c8cffff",
"H  c #6b6b8484cece",
"J  c #63638484dede",
"K  c #73738484c6c6",
"L  c #73738c8ccece",
"P  c #73738c8cd6d6",
"I  c #63638c8cefef",
"U  c #63638c8cffff",
"Y  c #63639494ffff",
"T  c #6b6b9494ffff",
"R  c #6b6b9c9cffff",
"E  c #73739c9ce7e7",
"W  c #7b7ba5a5e7e7",
"Q  c #7373a5a5ffff",
"!  c #7373adadffff",
"~  c #7b7badadffff",
"^  c #7b7bb5b5ffff",
"/  c #848484849c9c",
"(  c #84848484adad",
")  c #8c8c9494adad",
"_  c #84849494bdbd",
"`  c #8c8c9494b5b5",
"'  c #8c8c9c9cbdbd",
"]  c #94949494a5a5",
"[  c #94949494bdbd",
"{  c #94949c9cbdbd",
"}  c #9c9ca5a5adad",
"|  c #9c9ca5a5b5b5",
" . c #a5a5a5a5b5b5",
".. c #a5a5a5a5bdbd",
"X. c #adadadadb5b5",
"o. c Gray71",
"O. c #b5b5b5b5bdbd",
"+. c Gray74",
"@. c #84848c8cc6c6",
"#. c #84849c9cc6c6",
"$. c #8c8c9c9ccece",
"%. c #94949494c6c6",
"&. c #8c8ca5a5efef",
"*. c #8484adadffff",
"=. c #8c8cadadf7f7",
"-. c #8484b5b5ffff",
";. c #8484bdbdffff",
":. c #8c8cbdbdffff",
">. c #9c9cbdbdf7f7",
",. c #b5b5bdbdc6c6",
"<. c #bdbdbdbdc6c6",
"1. c #9494c6c6ffff",
"2. c #9494ceceffff",
"3. c #9c9cc6c6ffff",
"4. c #9c9cceceffff",
"5. c #9c9cd6d6ffff",
"6. c #a5a5ceceffff",
"7. c #adadc6c6ffff",
"8. c #a5a5d6d6ffff",
"9. c #adadd6d6ffff",
"0. c #b5b5ceceffff",
"q. c #b5b5d6d6ffff",
"w. c #b5b5dedeffff",
"e. c #bdbdd6d6ffff",
"r. c #bdbde7e7ffff",
"t. c #c0c0c0c0c0c0",
"y. c #ceced6d6ffff",
"u. c #c6c6e7e7ffff",
"i. c #c6c6efefffff",
"p. c #cecee7e7ffff",
"a. c #ceceefefffff",
"s. c #c6c6f7f7ffff",
"d. c #cecef7f7ffff",
"f. c #d6d6efefffff",
"g. c #dedeefefffff",
"h. c #d6d6f7f7ffff",
"j. c #dedef7f7ffff",
"k. c #dedeffffffff",
"l. c #e7e7ffffffff",
"z. c #efefffffffff",
"x. c #f7f7ffffffff",
"c. c Gray100",
"v. c None",
/* pixels */
"v.v.v.v.v.v.v.v.v.v.v.v.v.v.v.v.v.v.v.v.v.v.v.v.v.v.v.v.v.v.v.v.",
"v.v.v.v.v.v.v.v.v.v.v.v.v.v.v.v.v.v.v.v.v.v.v.v.v.v.v.v.v.v.v.v.",
"v.v.v.v.v.v.v.v.v.v.v.v.v.v.v.v.v.v.v.v.v.v.v.v.v.v.v.v.v.v.v.v.",
"v.v.v.v.v.v.v.v.v.v.v.v.v.v.v.v.v.v.v.v.v.v.v.v.v.v.v.v.v.v.v.v.",
"v.v.v.v.v.v.v.v.v.v.<.` E c ` v.v.v.v.v.v.v.v.v.v.v.v.v.v.v.v.v.",
"v.v.v.v.v.v.v.v.v.O.b =.c.y.@.v.v.v.v.v.v.v.v.v.v.v.v.v.v.v.v.v.",
"v.v.v.v.v.v.v.v.O.K 7.c.c.f.$.v.v.v.v.v.v.v.v.v.v.v.v.v.v.v.v.v.",
"v.v.v.v.v.v.v.` W g.c.x.a.1.$.v.v.v.v.v.v.v.v.v.v.v.v.v.v.v.v.v.",
"v.v.v.v.v.+.) >.c.c.z.s.5.*.$.v.v.v.v.v.v.v.v.v.v.v.v.v.v.v.v.v.",
"v.v.v.v.v.B &.c.c.z.w.5.1.R ' v.v.v.v.v.v.v.v.v.v.v.v.v.v.v.v.v.",
"v.v.v.o.` 0.c.c.z.r.1.:.:.Q Z v.v.v.v.v.v.v.v.v.v.+.+.,.,.,.v.v.",
"v.v. .g q.c.c.a.5.:.-.*.~ ~ J  .v.v.v.+.+.,.` C H f h S S J n X.",
"v.<.J p.c.c.d.4.-.*.~ ~ ~ ~ l q M P H b c I =.3.q.f.j.h.d.4.8 f ",
"+.n e.c.x.d.8.;.-.~ ~ Q Q ~ U ^ 2.6.w.i.l.j.h.h.a.u.9.1.:.Y < a ",
"b 6.c.k.r.2.-.*.~ Q Q Q Q Q Q :.3.8.8.4.1.:.;.-.^ Q ! Q Y l , 4 ",
"I x.i.5.4.-.*.~ Q Q Q Q Q Q Q Q Q Q Q Q Q Q Q Q Q R R R U k = 3 ",
"v 8.1.:.-.^ ~ Q Q Q Q Q Q R Q R R Q R Q R R R R T R Y Y G t $ 4 ",
"6 e Y Q Q ~ Q Q R R R Q Q R R Y U G G U Y Y Y U Y G U G D r % 4 ",
"] & < k D Y R Q R Q R R R Q F 7 < < 1 7 w r l l z x x l k e $ 5 ",
"+./ @ = e x U T R T R R Q Q r   X . & X o O + $ = = 1 8 9 7 + p ",
"v.v.B @ = w l G Y T Y R T Q j y ] +...] V m > - . X X @ @ + & ( ",
"v.v.+.} s $ 1 r x G Y Y Y Y L v.v.v.v.v.v.v.+.+.O.X.| [ %.{ X.+.",
"v.v.v.v.O.2 O < e z G U Y G #.v.v.v.v.v.v.v.v.v.v.v.v.v.v.v.v.v.",
"v.v.v.v.v.o.d $ , w x G G A @.v.v.v.v.v.v.v.v.v.v.v.v.v.v.v.v.v.",
"v.v.v.v.v.v.+.u & = 0 k x t i v.v.v.v.v.v.v.v.v.v.v.v.v.v.v.v.v.",
"v.v.v.v.v.v.v.<. .; # < 9 < i v.v.v.v.v.v.v.v.v.v.v.v.v.v.v.v.v.",
"v.v.v.v.v.v.v.v.v.} . + $ # N v.v.v.v.v.v.v.v.v.v.v.v.v.v.v.v.v.",
"v.v.v.v.v.v.v.v.v.v.} u : * _ v.v.v.v.v.v.v.v.v.v.v.v.v.v.v.v.v.",
"v.v.v.v.v.v.v.v.v.v.v.v.v.v.v.v.v.v.v.v.v.v.v.v.v.v.v.v.v.v.v.v.",
"v.v.v.v.v.v.v.v.v.v.v.v.v.v.v.v.v.v.v.v.v.v.v.v.v.v.v.v.v.v.v.v.",
"v.v.v.v.v.v.v.v.v.v.v.v.v.v.v.v.v.v.v.v.v.v.v.v.v.v.v.v.v.v.v.v.",
"v.v.v.v.v.v.v.v.v.v.v.v.v.v.v.v.v.v.v.v.v.v.v.v.v.v.v.v.v.v.v.v."
};
