/* XPM */
static char *magick[] = {
/* columns rows colors chars-per-pixel */
"32 32 97 2",
"   c Gray0",
".  c Gray8",
"X  c #191919191919",
"o  c #2f2f2f2f2f2f",
"O  c #373737373737",
"+  c #000000004b4b",
"@  c #000000005757",
"#  c #000000005f5f",
"$  c #000000006464",
"%  c #000000006b6b",
"&  c #000000007373",
"*  c #000000007d7d",
"=  c #41413e3e3c3c",
"-  c #464646464646",
";  c Gray30",
":  c #525252524d4d",
">  c Gray34",
",  c #5f5f5f5f5a5a",
"<  c #646464645c5c",
"1  c #707069695555",
"2  c #666664646464",
"3  c #696966666161",
"4  c Gray43",
"5  c #000005058484",
"6  c #000000008e8e",
"7  c #000000009696",
"8  c #14141e1e8484",
"9  c #00000000a5a5",
"0  c #00000000aaaa",
"q  c #00000000b2b2",
"w  c #00000a0ab2b2",
"e  c #00000202cdcd",
"r  c #00000000d7d7",
"t  c #00000000dfdf",
"y  c #00000000e6e6",
"u  c #00000000eeee",
"i  c #00000000f5f5",
"p  c Blue",
"a  c #00000c0cffff",
"s  c #19193737e9e9",
"d  c #11115555ffff",
"f  c #25254646eeee",
"g  c #32325f5fffff",
"h  c #39396161ffff",
"j  c #5f5f6666b4b4",
"k  c #6e6e6e6e8484",
"l  c #757570708282",
"z  c #46466e6effff",
"x  c #50507a7affff",
"c  c #70707878c3c3",
"v  c #55558282ffff",
"b  c #7d7d8989eeee",
"n  c #73739898ffff",
"m  c #8e8e8e8e8e8e",
"M  c Gray59",
"N  c #9d9d9d9d9d9d",
"B  c #98989696a3a3",
"V  c #a5a5a5a5a5a5",
"C  c #afafafafafaf",
"Z  c #b2b2aaaaafaf",
"A  c #b2b2afafb7b7",
"S  c #b2b2afafb9b9",
"D  c #bebebebebebe",
"F  c #87879191ebeb",
"G  c #8e8e9898fafa",
"H  c #9d9da3a3dada",
"J  c #9d9dafafffff",
"K  c #bebebebec1c1",
"L  c #a5a5bebeffff",
"P  c #b9b9c1c1e4e4",
"I  c #b4b4c6c6ffff",
"U  c #c1c1bebebebe",
"Y  c #c6c6c1c1b9b9",
"T  c #c0c0c0c0c0c0",
"R  c #c3c3c3c3c3c3",
"E  c #cdcdcdcdcdcd",
"W  c #dcdcd5d5c6c6",
"Q  c #dfdfdadacdcd",
"!  c #d7d7d7d7d7d7",
"~  c gainsboro",
"^  c #c3c3cbcbfdfd",
"/  c #c1c1d5d5ffff",
"(  c #cbcbdcdcffff",
")  c #d7d7e1e1ffff",
"_  c #dcdce6e6ffff",
"`  c #dfdfe9e9ffff",
"'  c #f3f3eeeedcdc",
"]  c #fafaf0f0cbcb",
"[  c #ffffffffd7d7",
"{  c #ffffffffdfdf",
"}  c #e4e4eeeeffff",
"|  c #eeeef5f5ffff",
" . c #ffffffffe6e6",
".. c Gray96",
"X. c #fffffffff5f5",
"o. c Gray100",
"O. c None",
/* pixels */
"O.O.O.O.O.O.O.O.O.O.O.O.O.O.O.O.O.O.O.O.O.O.O.O.O.O.O.O.O.O.O.O.",
"O.O.O.O.O.O.O.O.O.O.O.O.O.O.O.O.O.O.O.O.O.O.O.O.O.O.O.O.O.O.O.O.",
"O.O.O.O.O.O.O.O.O.O.O.O.O.O.O.O.O.O.O.O.O.O.O.O.O.O.O.O.O.O.O.O.",
"O.O.O.O.O.O.O.O.O.O.O.O.O.O.O.O.O.O.O.O.O.O.O.O.O.O.O.O.O.O.O.O.",
"O.O.O.O.O.O.O.O.O.O.O.O.O.O.O.O.O.O.O.O.O.O.O.O.O.O.O.O.O.O.O.O.",
"O.O.O.O.O.O.O.O.O.O.O.O.O.O.O.O.O.O.O.O.O.O.O.O.O.O.O.O.O.O.O.O.",
"A 4 = O X o X X .   .   .   .   X X X X X X X X   . X X X O 2 C ",
";                                                             - ",
"X   D o.o.o.o.o.o.o.o.o.o.o.o.o.o.o.o.o.o.o.o.o.o.o.o.o.o.~   X ",
"X   o.o.o.o.o.o.o.o.o.o.| p 7  .o.o.o.o...              o.o.M X ",
". o o.o.o.o.o.o.o.o.o.o.) p # ] o.o.o.o.o.N m o   4 m C o.o.R . ",
". - o.o.o.o.o.o.o.o.o.o.) p # [ o.o.o.o.o.o.o.E   o.o.o.o.o.E   ",
"  > o.o.o./ v g J o.o.o.) p # ] n h ^ o.o.o.o.R   o.o.o.o.o.E   ",
"  , o.( p i i p p t K o.) p 6 y u i i r X.o.o.R   o.o.o.o.o.!   ",
"  2 o.p q & H F i y % X.) p i * j b p r 8 o.o.R   o.o.o.o.o.~   ",
". 3 o.u $ { o.o.o.p # [ _ p 7 l o.o.^ p $ ' o.R   o.o.o.o.o.~   ",
"  2 o.X.X.o.I z a p # ] ` p @ [ o.o.o.p * A o.R   o.o.o.o.o.~ . ",
"  4 o.( a p i y e p $ [ _ p @  .o.o.o.p 9 k o.R   o.o.o.o.o.!   ",
"  < | p e q e c P p # ] ` p # { o.o.o.p 5 B o.R   o.o.o.o.o.!   ",
". 1 n y + { o.o.L p # [ } p $ ] o.o.o.p @ Q o.R   o.o.o.o.o.!   ",
"  1 x y & X.o.| p p # ] ` p t w o.o.d t + o.o.E   o.o.o.o.o.!   ",
"X = } p u p p u 7 y % W } p 9 t p p u $ Y K C =   m V D o.o.E . ",
"X . o.G p u e 9 Z f 0 S o.y 5 s u e 7 U o.              o.o.C . ",
"X   o.o.o.o.o.o.o.o.o.o.o.o.o.o.o.o.o.o.o.o.o.o.o.o.o.o.o.o.= X ",
"-     X = : < 2 , , > > > > , , , , > > > , , 2 4 4 > ; o     = ",
"C > o X X . . .               .             .   . . . . X o ; V ",
"O.O.O.O.O.O.O.O.O.O.O.O.O.O.O.O.O.O.O.O.O.O.O.O.O.O.O.O.O.O.O.O.",
"O.O.O.O.O.O.O.O.O.O.O.O.O.O.O.O.O.O.O.O.O.O.O.O.O.O.O.O.O.O.O.O.",
"O.O.O.O.O.O.O.O.O.O.O.O.O.O.O.O.O.O.O.O.O.O.O.O.O.O.O.O.O.O.O.O.",
"O.O.O.O.O.O.O.O.O.O.O.O.O.O.O.O.O.O.O.O.O.O.O.O.O.O.O.O.O.O.O.O.",
"O.O.O.O.O.O.O.O.O.O.O.O.O.O.O.O.O.O.O.O.O.O.O.O.O.O.O.O.O.O.O.O.",
"O.O.O.O.O.O.O.O.O.O.O.O.O.O.O.O.O.O.O.O.O.O.O.O.O.O.O.O.O.O.O.O."
};
