/* XPM */
static char *magick[] = {
/* columns rows colors chars-per-pixel */
"32 32 110 2",
"   c Gray0",
".  c Gray3",
"X  c #101010100808",
"o  c #101010101010",
"O  c #101010101818",
"+  c #181818181818",
"@  c Gray13",
"#  c Gray16",
"$  c #313131313131",
"%  c #393939393939",
"&  c #424231311010",
"*  c #424242422929",
"=  c #5a5a52523131",
"-  c Gray26",
";  c #424242424a4a",
":  c Gray29",
">  c Gray32",
",  c #5a5a5a5a5a5a",
"<  c #73736b6b5252",
"1  c Gray39",
"2  c Gray42",
"3  c Gray45",
"4  c #737373737b7b",
"5  c #7b7b7b7b7b7b",
"6  c #7b7b84848484",
"7  c #84847b7b5a5a",
"8  c #b5b59c9c3131",
"9  c #bdbd9c9c3131",
"0  c #8c8c84846b6b",
"q  c #9c9c94947b7b",
"w  c #b5b59c9c5a5a",
"e  c #bdbd9c9c5a5a",
"r  c #a5a594946b6b",
"t  c #adad9c9c6363",
"y  c #a5a594947373",
"u  c #adad9c9c7373",
"i  c #adad9c9c7b7b",
"p  c #b5b59c9c6363",
"a  c #bdbda5a54242",
"s  c #b5b5a5a57b7b",
"d  c #f7f7bdbd3131",
"f  c #c6c6a5a54242",
"g  c #c6c6a5a54a4a",
"h  c #cecea5a54242",
"j  c #ceceb5b55a5a",
"k  c #d6d6bdbd5252",
"l  c #f7f7c6c63131",
"z  c #f7f7c6c63939",
"x  c #ffffcece3939",
"c  c #dedecece4a4a",
"v  c #efefd6d64a4a",
"b  c #efefdede5252",
"n  c #f7f7cece4242",
"m  c #ffffcece4242",
"M  c #ffffd6d64242",
"N  c #ffffdede4242",
"B  c #ffffdede4a4a",
"V  c #e7e7d6d66363",
"C  c #ffffe7e74a4a",
"Z  c #ffffe7e75252",
"A  c #ffffefef5252",
"S  c #ffffefef5a5a",
"D  c #fffff7f75a5a",
"F  c #fffff7f76363",
"G  c #ffffffff6363",
"H  c #ffffffff6b6b",
"J  c #fffff7f77373",
"K  c #ffffffff7373",
"L  c #ffffffff7b7b",
"P  c #848484848484",
"I  c Gray55",
"U  c #949494948484",
"Y  c #949494948c8c",
"T  c #9c9c94948c8c",
"R  c Gray58",
"E  c #9c9c94949494",
"W  c Gray61",
"Q  c #9c9ca5a5a5a5",
"!  c #a5a59c9c8484",
"~  c #adad9c9c8484",
"^  c #a5a59c9c9494",
"/  c #a5a59c9c9c9c",
"(  c #a5a5a5a59c9c",
")  c #b5b5adad8c8c",
"_  c #bdbdb5b59494",
"`  c #bdbdb5b59c9c",
"'  c #bdbdbdbd9494",
"]  c #bdbdbdbd9c9c",
"[  c #a5a5a5a5a5a5",
"{  c #adadadada5a5",
"}  c Gray68",
"|  c #b5b5adada5a5",
" . c #b5b5b5b5a5a5",
".. c #b5b5b5b5adad",
"X. c #bdbdb5b5a5a5",
"o. c #bdbdb5b5adad",
"O. c #bdbdbdbda5a5",
"+. c #bdbdbdbdadad",
"@. c Gray71",
"#. c #bdbdbdbdb5b5",
"$. c Gray74",
"%. c #c6c6bdbd8c8c",
"&. c #c6c6bdbd9494",
"*. c #c6c6bdbda5a5",
"=. c #d6d6cece8c8c",
"-. c #d6d6cece9494",
";. c #d6d6d6d69494",
":. c #c0c0c0c0c0c0",
">. c #c6c6c6c6c6c6",
",. c None",
/* pixels */
",.} R 2 > : % $ $ $ # # # @ @ + + + @ @ + @ + @ @ # # $ - , W ,.",
"[ % + . . . . . . . .   .   .   .                             W ",
"2 o . .                       .     .                         : ",
"- . .   ; P Y E [ W ( [ [ W W W W W W W R W [ W I P 5 -       # ",
"$ .   , ,.#.-.-.;.-.-.=...,.,.,.,.,.,.,.,.,.,.,.,.,.,.>.>     + ",
"# .   R ,.' L K K K H F ! ,.,.,.,.,.,.,.,.,.,.,.,.,.,.,.R     o ",
"@ .   W ,.&.K H H H G S q ,.,.,.,.,.,.,.,.,.,.,.,.,.,.,.W     o ",
"@ . . [ ,.&.H H F F F S q ,.,.,.,.,.,.,.,.,.,.,.,.,.,.,.[ .   o ",
"+ . . @.,.' H F F F F S q ,.,.,.,.,.,.,.,.,.,.,.,.,.,.,.} .   . ",
"+ . . @.,.%.H G F F F Z q ,.,.,.,.,.,.,.,.,.,.,.,.,.,.,.} .   o ",
"+   o } ,.| a f 9 9 f 8 ( ,.,.,.,.,.,.,.,.,.,.,.,.,.,.,.} .   o ",
"+ . . @.,.$.$.@.- $ @.@.>.,.,.$.+.O.*.*.O.O.#.,.,.,.,.,.} .   . ",
"+   o @.,.,.,.,.; % ,.,.,.,.,.o.J H H F F D s ,.,.,.,.,.} .   o ",
"+   . @.,.,.,.,.> @ P P P P 6 0 F S S S S A t ,.,.,.,.,.[ .   o ",
"+   . } ,.,.,.,.> . @ + + + O * F S S Z Z Z w ,.,.,.,.,.} .   o ",
"+ . . @.,.,.,.,.: $ $.$.$.$.>.` F S Z Z Z C p ,.,.,.,.,.} .   o ",
"o   o } ,.,.,.,.> $ ,.,.,.,.,._ S A S Z Z C t ,.,.,.,.,.} .   o ",
"+   . @.,.,.,.,.> $ ,.,.,.,.,. .b m n m n x u ,.,.,.,.,.} .   + ",
"+   . } ,.,.,.,.> $ ,.,.,.,.,.$./ E < & U T @.,.,.,.,.,.}     + ",
"+   . } ,.,.,.,.> $ ,.,.,.,.,.,.,.,.6 O $.,.,.,.,.,.,.,.[ .   + ",
"@   . } ,.,.,.,.> $ $.*.X.] ` X.` $.P o X.O.` ] ` ` +.,.Q     @ ",
"@   . } ,.,.,.,.> % | H F F F F A ) P X V D D S S A j ,./     @ ",
"#     } ,.,.,.,.I O 7 D S Z Z Z B i Q o c A Z B B C f ,.[     @ ",
"#   . [ ,.,.,.,.>.4 = S Z Z Z Z N r ,.Y c Z B B B B h ,.[     # ",
"#     W ,.,.,.,.,.,._ D Z Z B B N y ,.$.b C B B B M h ,.R     # ",
"$     R ,.,.,.,.,.,.` A Z B Z B N y ,.#.v Z B M M N g ,.I     $ ",
"%     I ,.,.,.,.,.,.| v z z z z d ~ ,.$.k z d z z l e ,.5     % ",
"-     1 ,.,.,.,.,.,.$.{ / { { / ( $.,.,.@.^ ( { / / @.,.,     - ",
">     . P } @.$.$.$.$.>.,.,.,.,.,.$.$.$.$.,.,.,.$.@.} P $     > ",
"3         . o + # # $ $ $ # # # # # # $ # # # @ + . . . .     3 ",
"} .                                                         . } ",
",.[ , $ @ @ o o o o o . o . o . . . o . o o o o o + @ # % , [ ,."
};
