/* XPM */
static char *magick[] = {
/* columns rows colors chars-per-pixel */
"32 32 83 1",
"  c Gray0",
". c #080808080000",
"X c Gray3",
"o c #080808081010",
"O c #101008080808",
"+ c #101010101010",
"@ c #101010101818",
"# c #181818181818",
"$ c #080810102929",
"% c Gray13",
"& c Gray16",
"* c #313131313131",
"= c #393939393939",
"- c #101018184242",
"; c #101018185252",
": c #101021216b6b",
"> c #181829297b7b",
", c #212131316363",
"< c #212131317373",
"1 c #424239393939",
"2 c #424242423939",
"3 c #4a4a42423939",
"4 c Gray26",
"5 c Gray29",
"6 c #52524a4a4242",
"7 c #525252524a4a",
"8 c Gray32",
"9 c #5a5a5a5a5a5a",
"0 c Gray39",
"q c Gray42",
"w c Gray45",
"e c #7b7b7b7b7b7b",
"r c #101029298484",
"t c #10103131b5b5",
"y c #10103131cece",
"u c #00002121e7e7",
"i c #00002121efef",
"p c #08082929e7e7",
"a c #08083131efef",
"s c #08083131f7f7",
"d c #18183939efef",
"f c #18183939f7f7",
"g c #18183939ffff",
"h c #18184242ffff",
"j c #31315252dede",
"k c #21214242ffff",
"l c #21214a4affff",
"z c #31315a5affff",
"x c #6b6b8484f7f7",
"c c #73738c8cefef",
"v c #73738484f7f7",
"b c #73738c8cf7f7",
"n c #7b7b8c8cf7f7",
"m c #7b7b9494f7f7",
"M c #848484848484",
"N c Gray55",
"B c Gray58",
"V c Gray61",
"C c #a5a59c9c9c9c",
"Z c #a5a5a5a59c9c",
"A c #a5a5a5a5a5a5",
"S c #adadadada5a5",
"D c Gray68",
"F c Gray71",
"G c Gray74",
"H c #94949c9cdede",
"J c #9c9ca5a5dede",
"K c #9494a5a5ffff",
"L c #b5b5bdbde7e7",
"P c #b5b5bdbdf7f7",
"I c #bdbdc6c6f7f7",
"U c #bdbdcecef7f7",
"Y c #c6c6c6c6c6c6",
"T c #cececececece",
"R c Gray84",
"E c Gray87",
"W c #ceced6d6ffff",
"Q c #e7e7e7e7e7e7",
"! c #efefefefefef",
"~ c #efefefefffff",
"^ c Gray97",
"/ c #f7f7f7f7ffff",
"( c Gray100",
/* pixels */
"N0095544==&&&&%%%%%&%&&*=212377e",
"5X+*====44=444444444==**+@,<>:$5",
"5 w!FFFFDFDDDDDDDDDDDD^(0ojzkh;4",
"4 BA=4444=========*==*G(e rkhtO4",
"4 BF*=4==444=4====4===T(e @yd-.4",
"= q^TTTYYGGGGGGGYGYTTR!^0 O;rO+=",
"=++#%%%%#%##############@OXXXXO=",
"*+&8899000qqwwqqq009985#X*qew4o*",
"&X0(((((((((((((((((((!* w(((AX*",
"&X0((((((((((((((((((((= w(^^AX&",
"& q(F0q00000999999900T(4 qYN8BX%",
"&Xq(M*=4============&A(4 qw45M+%",
"&Xw(M*==============&V(5 q8&=MX%",
"&Xw(V*44444=4444=4===G(8 eB8MVX%",
"%Xw(!YGFFFFFDDDFFFGGY^(8 e(((DX%",
"&Xw(F5999888888888885Y(8 e(((A %",
"%Xe(N*===4==========&A(8 e(((AX%",
"& e(N&==============&V(9 e(((A %",
"&Xw(F7777777667677777T(9 e(((AX%",
"*Xw(~UIIPLPPPPPLPPIIU/(9 e(((D &",
"=Xw(KgllkkhkhkhhhkfhdL(8 e(((A *",
"= w(nsffffffddfdddddpH(8 e(((A *",
"= q(miaadadadadaadaauJ(8 e(((AX=",
"4 q(WcnbxvxxxxxvbvbncQ(5 e(((V =",
"4 0(QSSZZZZCVVCZCZZZS!(5 e(((V 4",
"6 9(V&*=************&D(4 e(((V 4",
"5 9(B*1==2==========&V(4 e(((V 4",
"8 8(A%**************&F(= e(((V 5",
"9 8(!FFFFFFFDDFFFFFFG!(* e(((V 9",
"9X*VDYYTTTRRERRTTTYYGDB% 4GTY0 9",
"0XXX XXX++X+++++++XXX  X+X +XXX9",
"N45===**&%%#%######%#%%%&&**===N"
};
