/* XPM */
static char *magick[] = {
/* columns rows colors chars-per-pixel */
"32 32 70 1",
"  c #040404040404",
". c Gray5",
"X c #111111111111",
"o c Gray24",
"O c #000000007d7d",
"+ c #414141414141",
"@ c #4e4e4e4e4e4e",
"# c Gray34",
"$ c #5b5b5b5b5b5b",
"% c Gray39",
"& c #6c6c6c6c6c6c",
"* c Gray44",
"= c Gray49",
"- c #000000008a8a",
"; c #00000000a4a4",
": c #00000000bebe",
"> c #343434348282",
", c #00000000c3c3",
"< c #00000000d4d4",
"1 c #00000000d8d8",
"2 c #00000000e1e1",
"3 c #00000000f6f6",
"4 c #04040404ffff",
"5 c #00000d0dffff",
"6 c #09091a1affff",
"7 c #16161616ffff",
"8 c #11111e1effff",
"9 c #16162323ffff",
"0 c #1e1e2727ffff",
"q c #1a1a3434ffff",
"w c #30303030cbcb",
"e c #27272727ffff",
"r c #34343434ffff",
"t c #38383838ffff",
"y c #6c6c7070baba",
"u c #52525f5fffff",
"i c #4e4e6868ffff",
"p c #57576363ffff",
"a c #5f5f6363ffff",
"s c #5b5b6868ffff",
"d c #63637979ffff",
"f c #75757979ffff",
"g c #79797d7dffff",
"h c #68688686ffff",
"j c #7d7d8f8fffff",
"k c #868686868686",
"l c #939393939393",
"z c Gray61",
"x c #a0a0a0a0a0a0",
"c c #a9a9a9a9a9a9",
"v c #bebebebebebe",
"b c #86868686e5e5",
"n c #82828f8fffff",
"m c #93939393ffff",
"M c #9797adadffff",
"N c #adadadadffff",
"B c #adadb6b6ffff",
"V c #bebec7c7ffff",
"C c #b1b1d0d0ffff",
"Z c #c0c0c0c0c0c0",
"A c Gray83",
"S c #cbcbd0d0ffff",
"D c #d4d4d4d4ffff",
"F c #ddddd8d8f6f6",
"G c #d4d4e5e5ffff",
"H c #e9e9e9e9e9e9",
"J c #e9e9eeeeffff",
"K c #eeeefbfbffff",
"L c Gray100",
"P c None",
/* pixels */
"v*oXXXX................XXXXXoo&v",
"&   .                   . .    $",
"o  &HLLLLLLLLLLLLLLLLLLLLLLHl  X",
"X kLLLLLLLLLLLLLLLLLLLLLLLLLLL X",
". LLLLLLLLLLLLLLL65LLLLLLLLLLL .",
". LLLLLLLLLLLLLLL44LLLLLLLLLLL .",
". LLLLLLLLLLLLLLL44LLLLLLLLLLL .",
". LLLL444fLLLC44a44LLLd444LLLL .",
". LLL444444Lh444444LL444444LLL .",
". LL44DLL44L44LLN44Ln47LLB44LL .",
". LL44LLLLLL44LLL44L44qspi44LL .",
"X LL44LLLLLB4tLLL44L44444444LL .",
"X LL44LLLLpS44LLL44L44LLLLLLLL X",
"X LL44GLL44L44LLK44Lr40LLJ44LL X",
"X LLL444444Ln444444LL444444LLL X",
"X LLLL444aLLLS44er7LLLe444LLLL X",
"X.LLLLLLLLLLLLLLLLLLLLLLLLLLLL X",
"o LLLLLLLLLLL42LLLLL.     vLLL X",
"X LLLLLLLLLLL4,LLLLLLLk LLLLLL o",
"o LLLLLLnLLLL4,LLBLLLLc LLLLLL X",
"o LLLM44444LL444444NLLc LLLLLL o",
"o LLL4;LL44OL444LS41LLx LLLLLL X",
"o LLL4FLLL4OL44bLLr4wLz LLLLLL o",
"o HLLL44444-L4;LLLL4<Lz LLLLLL o",
"o ALL4444V4;L4;LLLL42Lz LLLLLL o",
"@ cL44>LLG4OL44yLL84mLz LLLLLL o",
"@ kL44;Lj44OL443gu44LL@ LLLLLL o",
"# oLL444444:L934444L      LLLL +",
"%  LLLLLLLLLLLLLLLLLLLLLLLLLLL #",
"=  LLLLLLLLLLLLLLLLLLLLLLLLLL  %",
"x.    +&=kk=*&%#$#####@oo.     l",
"PkoXX................ ...XXXXokP"
};
