/* XPM */
static char * newform_xpm[] = {
"34 26 6 1",
" 	c None",
".	c #FFFFFF",
"+	c #000000",
"@	c #0000FF",
"#	c #C0C0C0",
"$	c #808080",
"..................................",
".+++++++++++++++++++++++++++++++..",
".+@@@@@@@@@@@@@@@@@@@@@@@+#+#+#+$.",
".+++++++++++++++++++++++++++++++$.",
".+.............................+$.",
".+.#.#.#.#.#.#.#.#.#.#.#.#.#.#$+$.",
".+..#.#.#.#.#.#.#.#.#.#.#.#.#.$+$.",
".+.#.#.#.#.#.#.#.#.#.#.#.#.#.#$+$.",
".+..#.#.#.#.#.#.#.#.#.#.#.#.#.$+$.",
".+.#.#.#.#.#.#.#.#.#.#.#.#.#.#$+$.",
".+..#.#.#.#.#.#.#.#.#.#.#.#.#.$+$.",
".+.#.#.#.#.#.#.#.#.#.#.#.#.#.#$+$.",
".+..#.#.#.#.#.#.#.#.#.#.#.#.#.$+$.",
".+.#.#.#.#.#.#.#.#.#.#.#.#.#.#$+$.",
".+..#.#.#.#.#.#.#.#.#.#.#.#.#.$+$.",
".+.#.#.#.#.#.#.#.#.#.#.#.#.#.#$+$.",
".+..#.#.#.#.#.#.#.#.#.#.#.#.#.$+$.",
".+.#.#.#.#.#.#.#.#.#.#.#.#.#.#$+$.",
".+..#.#.#.#.#.#.#.#.#.#.#.#.#.$+$.",
".+.#.#.#.#.#.#.#.#.#.#.#.#.#.#$+$.",
".+..#.#.#.#.#.#.#.#.#.#.#.#.#.$+$.",
".+.#.#.#.#.#.#.#.#.#.#.#.#.#.#$+$.",
".+.$$$$$$$$$$$$$$$$$$$$$$$$$$$$+$.",
".+++++++++++++++++++++++++++++++$.",
"..$$$$$$$$$$$$$$$$$$$$$$$$$$$$$$$.",
".................................."};
