/* XPM */
static char *magick[] = {
/* columns rows colors chars-per-pixel */
"32 32 119 2",
"   c Gray0",
".  c Gray3",
"X  c #101010101010",
"o  c #181818181818",
"O  c Gray13",
"+  c Gray16",
"@  c #313131313131",
"#  c #393939393939",
"$  c Gray26",
"%  c Gray29",
"&  c Gray32",
"*  c #5a5a5a5a5a5a",
"=  c Gray39",
"-  c Gray42",
";  c Gray45",
":  c #7b7b7b7b7b7b",
">  c #29293131adad",
",  c #29293131b5b5",
"<  c #31313131adad",
"1  c #31313939a5a5",
"2  c #31313939adad",
"3  c #31313939b5b5",
"4  c #31313939bdbd",
"5  c #393942429c9c",
"6  c #39394242a5a5",
"7  c #39394242ffff",
"8  c #39394a4affff",
"9  c #424242429c9c",
"0  c #525252529c9c",
"q  c #42424242a5a5",
"w  c #42424a4aa5a5",
"e  c #42424a4aadad",
"r  c #4a4a4a4ab5b5",
"t  c #4a4a4a4abdbd",
"y  c #4a4a5252adad",
"u  c #4a4a5252b5b5",
"i  c #52525252a5a5",
"p  c #52525a5aa5a5",
"a  c #52525a5aadad",
"s  c #5a5a5a5aa5a5",
"d  c #52525252b5b5",
"f  c #52525a5ab5b5",
"g  c #52525a5abdbd",
"h  c #5a5a6363adad",
"j  c #5a5a6363b5b5",
"k  c #63636363bdbd",
"l  c #63636b6bbdbd",
"z  c #6b6b6b6bb5b5",
"x  c #7b7b7b7bb5b5",
"c  c #4a4a5252dede",
"v  c #42424a4affff",
"b  c #4a4a5252e7e7",
"n  c #4a4a5a5aefef",
"m  c #42425252ffff",
"M  c #4a4a5252ffff",
"N  c #4a4a5a5affff",
"B  c #52525a5aefef",
"V  c #52525a5af7f7",
"C  c #52525a5affff",
"Z  c #5a5a6363c6c6",
"A  c #52526363efef",
"S  c #5a5a6363efef",
"D  c #52526363f7f7",
"F  c #52526363ffff",
"G  c #5a5a6363f7f7",
"H  c #5a5a6363ffff",
"J  c #5a5a6b6bffff",
"K  c #63636b6bdede",
"L  c #7b7b7b7bcece",
"P  c #7b7b7b7bd6d6",
"I  c #63636b6befef",
"U  c #63636b6bffff",
"Y  c #63637373ffff",
"T  c #6b6b7373ffff",
"R  c #6b6b7b7bffff",
"E  c #73737b7bffff",
"W  c #7b7b8484bdbd",
"Q  c #7b7b8484c6c6",
"!  c #7b7b8484cece",
"~  c #73738484dede",
"^  c #7b7b8484e7e7",
"/  c #73738484ffff",
"(  c #7b7b8484ffff",
")  c #7b7b8c8cffff",
"_  c #848484848484",
"`  c Gray55",
"'  c #84848c8c9c9c",
"]  c Gray58",
"[  c Gray61",
"{  c #84848484adad",
"}  c #84848c8ca5a5",
"|  c #8c8c8c8cadad",
" . c #84848484bdbd",
".. c #84848c8cbdbd",
"X. c #8c8c8c8cb5b5",
"o. c #9c9c9c9cb5b5",
"O. c #a5a5a5a5a5a5",
"+. c #a5a5a5a5adad",
"@. c Gray68",
"#. c #a5a5a5a5b5b5",
"$. c #adadadadb5b5",
"%. c #adadadadbdbd",
"&. c Gray71",
"*. c #b5b5b5b5bdbd",
"=. c Gray74",
"-. c #84848484c6c6",
";. c #84848c8cffff",
":. c #84849494ffff",
">. c #8c8c9494ffff",
",. c #8c8c9c9cffff",
"<. c #94949c9cffff",
"1. c #9494a5a5ffff",
"2. c #9c9ca5a5ffff",
"3. c #bdbdbdbdc6c6",
"4. c #a5a5adadffff",
"5. c #a5a5b5b5ffff",
"6. c #c0c0c0c0c0c0",
"7. c #c6c6c6c6c6c6",
"8. c None",
/* pixels */
"8.8.@.+ X =.8.8.8.8.8.8.8.8.8.8.8.8.8.8.8.8.8.8.8.8.8.8.8.8.8.8.",
"8.O.+   . &.8.8.8.8.8.8.8.8.$.-.! L P P P P P P P P ! L ! W #.8.",
"[ X     . &.8.8.8.8.8.8.8.*.^ 5.1.2.1.2.1.1.2.1.1.<.,.>.;.E t 8.",
"`   .   . &.8.8.8.8.8.8.8.&.S >.) ( ) ( ( / / / E / E R T H 3 8.",
"=.O._   . &.8.8.8.8.8.8.8.$.G ;.E R R T T T T T T Y Y U U C 4 8.",
"8.8.`   . &.8.8.8.8.8.8.8.%.S ) E T T T Y T Y Y Y U U U J N , 8.",
"8.8.`   . &.8.8.8.8.8.8.8.$.S ( R T Y Y Y U U U U U U J H N , 8.",
"8.8.]   . &.8.8.8.8.8.8.8.$.B E Y Y U H U U J U J H H H F M < 8.",
"8.8.&.. . &.8.8.8.8.8.8.8.*.c H C M m m v m v m v v m v m 8 1 8.",
"8.8.=.& % =.8.8.8.8.8.8.8.=.| h h s s 0 0 0 0 0 0 0 p s s s ' 8.",
"8.8.8.8.8.8.8.8.8.8.8.8.8.8.8.8.7.=.=.7.=.7.=.=.7.=.7.3.=.8.8.8.",
"8.] $ @ # ; =.8.8.8.8.8.8.8.8.8.8.8.8.8.8.8.8.8.8.8.8.8.8.8.8.8.",
"[ .         = 8.8.8.8.8.8.8.%.X... . .Q Q  .Q  .Q  . . ...X.#.8.",
"%   O ] #   o =.8.8.8.8.8.=.~ 4.<.1.1.<.1.<.1.<.,.,.>.:.) T u 8.",
"- O ; 8.-   X =.8.8.8.8.8.$.I :.) ( ( ( ( / / E ( / E R T H 3 8.",
"8.=.8._     * 8.8.8.8.8.8.$.G ( R T T Y Y U T Y U U U U H N 2 8.",
"8.8.:     + &.8.8.8.8.8.8.%.A ( T Y Y U U U Y U U U J J H M > 8.",
"8.-     $ =.8.8.8.8.8.8.8.$.D / T U Y U U U J J J U J H F m < 8.",
"`     . & = - =.8.8.8.8.8.$.B R U U J J J J H H H H H H C m 1 8.",
"o           . &.8.8.8.8.8.&.b H C N M v M M m M m v m v m 7 6 8.",
"$ @ # @ # @ % =.8.8.8.8.8.7.{ j a y w q 6 5 5 5 q 6 w w e y } 8.",
"8.8.8.8.8.8.8.8.8.8.8.8.8.8.8.8.8.7.=.=.=.=.=.=.=.=.=.=.=.8.8.8.",
"8.O.& $ * O.8.8.8.8.8.8.8.8.8.8.8.8.8.8.8.8.8.8.8.8.8.8.8.8.8.8.",
"@.o       . [ 8.8.8.8.8.8.8.o.l l k Z Z Z Z Z Z Z Z k k z z +.8.",
"%   O = X   - 8.8.8.8.8.8.=.K ) ( ( ( ( ( ( ( ( / E R R Y V i 8.",
"= o - O.o   - 8.8.8.8.8.8.$.I ,.;.;.;.:.) ) ;.) ) ;.( / R J q 8.",
"8.8.$       _ 8.8.8.8.8.8.$.S / T Y Y U Y U J U U U J H H M 1 8.",
"8.8.= o     # 8.8.8.8.8.8.$.D E Y U U U U J U J J H H H F v 1 8.",
"_ & ] 8.=   . &.8.8.8.8.8.%.B R U U J J J H H H H H H H C 8 6 8.",
"@   @ [ %   o =.8.8.8.8.8.$.n T J J H H H H H F H F F C C v 5 8.",
":           - 8.8.8.8.8.8.&.b F C M M m m M m M m M m m m 7 9 8.",
"8.; O X O = =.8.8.8.8.8.8.=.x g f u y y y e w e e e r u d u } 8."
};
