/* XPM */
static char *magick[] = {
/* columns rows colors chars-per-pixel */
"32 32 166 2",
"   c #000008084a4a",
".  c #b5b5b5b5d6d6",
"X  c #c6c6bdbdd6d6",
"o  c #bdbdb5b5d6d6",
"O  c #c6c6c6c6d6d6",
"+  c #cecec6c6d6d6",
"@  c #d6d6ceced6d6",
"#  c #cecececed6d6",
"$  c #b5b5adadd6d6",
"%  c #d6d6cecedede",
"&  c #bdbdbdbdd6d6",
"*  c #adadadadd6d6",
"=  c #a5a5a5a5d6d6",
"-  c #bdbdbdbdcece",
";  c #c6c6bdbdcece",
":  c #adada5a5d6d6",
">  c #c6c6c6c6cece",
",  c #b5b5a5a5d6d6",
"<  c #deded6d6d6d6",
"1  c #dedececed6d6",
"2  c #d6d6c6c6d6d6",
"3  c #ceceb5b5dede",
"4  c #efefd6d6dede",
"5  c #9c9c9c9cd6d6",
"6  c #f7f7d6d6dede",
"7  c #f7f7cecee7e7",
"8  c #ffffdededede",
"9  c #e7e7cecedede",
"0  c #ffffdedee7e7",
"q  c #ffffefefefef",
"w  c #fffff7f7efef",
"e  c #dedececedede",
"r  c #ffffe7e7efef",
"t  c Gray100",
"y  c #ffffefefffff",
"u  c #cecec6c6c6c6",
"i  c #c6c6c6c6c6c6",
"p  c #cecec6c6dede",
"a  c #adadb5b5b5b5",
"s  c #fffff7f7f7f7",
"d  c #f7f7deded6d6",
"f  c #bdbdadad7373",
"g  c #84848c8c3939",
"h  c #7b7b8c8c4242",
"j  c #9c9ca5a58c8c",
"k  c #adadb5b5adad",
"l  c #8c8c9c9c6b6b",
"z  c #73738c8c4a4a",
"x  c #848494947373",
"c  c #848494946b6b",
"v  c #6b6b84843131",
"b  c #636373733131",
"n  c #fffffffff7f7",
"m  c #ffffefefb5b5",
"M  c #cecea5a54a4a",
"N  c #8c8c84842929",
"B  c #7b7b84843131",
"V  c #6b6b7b7b2929",
"C  c #636373732929",
"Z  c #5a5a6b6b2121",
"A  c #5a5a73732121",
"S  c #5a5a7b7b2121",
"D  c #5a5a7b7b2929",
"F  c #cecebdbddede",
"G  c #fffff7f7bdbd",
"H  c #f7f7bdbd4a4a",
"J  c #b5b58c8c3939",
"K  c #73737b7b3131",
"L  c #6b6b7b7b3131",
"P  c #5a5a73732929",
"I  c #5a5a6b6b2929",
"U  c #bdbdbdbddede",
"Y  c #b5b5b5b5dede",
"T  c #adada5a5dede",
"R  c #bdbdadaddede",
"E  c #d6d6b5b5e7e7",
"W  c #e7e7adad6b6b",
"Q  c #bdbd84843939",
"!  c #8c8c73733131",
"~  c #737373733131",
"^  c #525263632929",
"/  c #52526b6b2929",
"(  c #94949c9c9494",
")  c #8c8c9c9c7373",
"_  c #a5a5adad9c9c",
"`  c #bdbdb5b5bdbd",
"'  c #cecebdbdadad",
"]  c #dedebdbdadad",
"[  c #94947b7b3131",
"{  c #7b7b73733131",
"}  c #6b6b6b6b2929",
"|  c #63636b6b2929",
" . c #63637b7b2929",
".. c #7b7b8c8c6363",
"X. c #63637b7b2121",
"o. c #73738c8c3131",
"O. c #8c8c9c9c5252",
"+. c #848494944242",
"@. c #7b7b8c8c3939",
"#. c #7b7b7b7b3131",
"$. c #73736b6b2929",
"%. c #9c9ca5a59c9c",
"&. c #6b6b7b7b5252",
"*. c #6b6b8c8c3131",
"=. c #7b7b94943131",
"-. c #7b7b94943939",
";. c #7b7b8c8c3131",
":. c #6b6b73732929",
">. c #52526b6b2121",
",. c #4a4a63631818",
"<. c #525263632121",
"1. c #5a5a6b6b3131",
"2. c #4a4a63632121",
"3. c #4a4a5a5a3939",
"4. c #4a4a5a5a2929",
"5. c #737384843131",
"6. c #4a4a5a5a2121",
"7. c #42424a4a3939",
"8. c #42424a4a3131",
"9. c #424252522929",
"0. c #5a5a63633131",
"q. c #52525a5a3939",
"w. c #5a5a63633939",
"e. c #52525a5a3131",
"r. c #4a4a52522929",
"t. c #393942422929",
"y. c #313139392121",
"u. c #292931312121",
"i. c #292929291818",
"p. c #292939391818",
"a. c #313139391818",
"s. c #39394a4a2121",
"d. c #393942423939",
"f. c #424242423939",
"g. c #393942423131",
"h. c #39394a4a3131",
"j. c #39394a4a2929",
"k. c #4a4a52523131",
"l. c #5a5a5a5a3131",
"z. c #42424a4a2929",
"x. c #212129291818",
"c. c #181821211818",
"v. c #181821211010",
"b. c #212121211818",
"n. c #212131311818",
"m. c #4a4a52523939",
"M. c #393942422121",
"N. c #52525a5a4a4a",
"B. c #4a4a52524242",
"V. c #4a4a5a5a4242",
"C. c #525263634a4a",
"Z. c #424252523131",
"A. c #525263633939",
"S. c #292931311818",
"D. c #5a5a63634a4a",
"F. c #424252523939",
"G. c #525252523131",
"H. c #5a5a63635252",
"J. c #52525a5a4242",
"K. c #424242422929",
"L. c #101010101010",
"P. c #5a5a6b6b5252",
"I. c #525263634242",
"U. c #5a5a63634242",
"Y. c #5a5a6b6b4242",
"T. c #63636b6b4242",
/* pixels */
"                                                                ",
"                                                                ",
"    . X o O + o . + @ + # X X + + + + # X $ o o + # O o O %     ",
"    . & . & & * & O O X X . * + + & X + + O O # # O $ = & X     ",
"    # . * - . . ; * : . ; & X + + X + # # + O > @ > = * - -     ",
"    O . > O - . - * . . & + X + @ @ + + # ; X - - O = * - .     ",
"    O > & - O ; & > X > + o , + < 1 + + + & O . = ; * = & O     ",
"    & > . * & > . = $ # 2 o 3 1 4 1 2 2 X $ $ : 5 - > * - #     ",
"    & # > - - X & : . + 2 1 4 6 7 8 9 2 + ; & - X > O - & &     ",
"    X O O O > > & > + X 1 9 0 q w 0 6 4 e 1 # # O # O O # &     ",
"    - * * - & > O + + X 1 6 r t t y r 6 u i p p X ; & & - a     ",
"    * = . - $ & X > + 2 e 8 s t t t d f g h j k l z x c v b     ",
"    X - > O ; - O @ @ 1 < 0 n t t m M N B V V C Z A A S b D     ",
"    . . - & & > X . X 1 F 9 s t G H J g K L C P I I P P b v     ",
"    = 5 5 > X U Y T $ + R E r s W Q ! ~ L C I I ^ / I P P b     ",
"    . . 5 * - ( ) _ ; ; ` ' ' ] [ { { } | I I I I P I P P  .    ",
"    p O . . ..A X.o.O.+.@.K #.{ $.$.} | I I I P C C P P D b     ",
"    %...c &.A  .v *.o.=.-.;.:.| | | :.L C C P P b b b  .D b     ",
"    I >.,.<.P b b v o.-.-.g -.:.C K L L b C I I P P D 1.P b     ",
"    <.2.2./ / P  .b v v o.-.-.@.@.;.v  .P I / / / / I P P P     ",
"    3.4.<.2.<./ P  .b b *.o.o.5.v b 1.^ ^ <.6.<.<.^ / P P P     ",
"    7.8.9.9.6.<./ I P b 1.0.q.w.w.e.r.t.y.u.i.u.p.a.s.4./ I     ",
"    7.d.f.g.h.h.j.8.8.8.8.k.e.e.l.w.k.z.y.u.u.x.x.c.v.b.n.y.    ",
"    f.d.7.7.7.7.7.g.h.8.m.q.w.w.w.w.k.k.t.M.y.u.x.x.x.x.c.b.    ",
"    N.B.B.V.C.B.7.g.g.8.Z.k.q.A.w.A.e.z.j.t.y.u.u.u.u.S.S.n.    ",
"    D.C.C.V.F.g.g.g.g.g.8.8.k.G.k.r.z.M.y.y.u.n.x.x.x.c.c.x.    ",
"    H.C.J.V.m.F.m.F.k.8.8.8.k.k.k.z.t.K.t.y.b.v.x.x.v.L.a.b     ",
"    P.P.H.C.J.N.I.J.A.q.m.k.k.k.z.K.z.z.K.t.y.x.c.v.L.S.D v     ",
"    P.H.D.N.D.D.D.D.U.U.Y.w.e.k.k.k.k.k.z.y.x.u.i.c.x.P b D     ",
"    D.D.C.J.V.J.V.3.A.U.T.T.U.k.r.k.q.k.Z.k.t.y.y.M.P  .D C     ",
"                                                                ",
"                                                                "
};
