/* XPM */
static char *magick[] = {
/* columns rows colors chars-per-pixel */
"32 32 117 2",
"   c Gray0",
".  c #000000000808",
"X  c #080800000808",
"o  c Gray3",
"O  c #080808081010",
"+  c #101008081010",
"@  c #101010101010",
"#  c #101010101818",
"$  c #181818181818",
"%  c #181818182121",
"&  c #212118182121",
"*  c Gray13",
"=  c #212121212929",
"-  c #292921212929",
";  c Gray16",
":  c #292929293131",
">  c #313129293131",
",  c #313131313131",
"<  c #313131313939",
"1  c #393931313939",
"2  c #393939393939",
"3  c #393939394242",
"4  c #424239394242",
"5  c Gray26",
"6  c #424242424a4a",
"7  c #4a4a42424a4a",
"8  c Gray29",
"9  c #4a4a4a4a5252",
"0  c #52524a4a5252",
"q  c Gray32",
"w  c #525252525a5a",
"e  c #5a5a5a5a5a5a",
"r  c #5a5a5a5a6363",
"t  c #63635a5a6363",
"y  c Gray39",
"u  c #636363636b6b",
"i  c #6b6b63636b6b",
"p  c Gray42",
"a  c #6b6b6b6b7373",
"s  c #73736b6b7373",
"d  c Gray45",
"f  c #737373737b7b",
"g  c #7b7b73738484",
"h  c #7b7b7b7b8484",
"j  c Green",
"k  c #1818ffff1010",
"l  c #3131ffff3131",
"z  c #3939ffff4242",
"x  c #4a4affff4a4a",
"c  c #7b7bffff7b7b",
"v  c #7b7befef8484",
"b  c #84847b7b8484",
"n  c #84847b7b8c8c",
"m  c #848484848484",
"M  c #848484848c8c",
"N  c #8c8c84848c8c",
"B  c Gray55",
"V  c #8c8c84849494",
"C  c #8c8c8c8c9494",
"Z  c #94948c8c9494",
"A  c #94948c8c9c9c",
"S  c Gray58",
"D  c #949494949c9c",
"F  c #9c9c94949c9c",
"G  c Gray61",
"H  c #9c9c9494a5a5",
"J  c #9c9c9c9ca5a5",
"K  c #8c8cbdbd9494",
"L  c #9c9cbdbd9c9c",
"P  c #a5a59c9ca5a5",
"I  c #a5a59c9cadad",
"U  c #a5a5a5a5a5a5",
"Y  c #a5a5a5a5adad",
"T  c #adada5a5adad",
"R  c Gray68",
"E  c #adada5a5b5b5",
"W  c #adadadadb5b5",
"Q  c #b5b5adadb5b5",
"!  c #b5b5adadbdbd",
"~  c Gray71",
"^  c #b5b5b5b5bdbd",
"/  c #bdbdb5b5bdbd",
"(  c Gray74",
")  c #bdbdb5b5c6c6",
"_  c #bdbdbdbdc6c6",
"`  c #8c8cffff8c8c",
"'  c #a5a5ffffa5a5",
"]  c #bdbdffffbdbd",
"[  c #c6c6b5b5c6c6",
"{  c #c6c6b5b5cece",
"}  c #c6c6bdbdc6c6",
"|  c #c6c6bdbdcece",
" . c #c0c0c0c0c0c0",
".. c #c6c6c6c6c6c6",
"X. c #c6c6c6c6cece",
"o. c #cecec6c6cece",
"O. c #cececececece",
"+. c #cecec6c6d6d6",
"@. c #cecececed6d6",
"#. c #d6d6ceced6d6",
"$. c #d6d6cecedede",
"%. c Gray84",
"&. c #d6d6d6d6dede",
"*. c #deded6d6dede",
"=. c Gray87",
"-. c #deded6d6e7e7",
";. c #cecef7f7cece",
":. c #d6d6ffffd6d6",
">. c #e7e7e7e7e7e7",
",. c #efefefefefef",
"<. c #e7e7ffffe7e7",
"1. c #f7f7efeff7f7",
"2. c Gray97",
"3. c #f7f7f7f7ffff",
"4. c #fffff7f7ffff",
"5. c Gray100",
"6. c None",
/* pixels */
"6.6.6.6.6.6.6.6.6.( U ( O.O.%.%.%.O.O.....( ( ~ ~ 6.6.6.6.6.6.6.",
"6.6.6.6.6.6.6.6.6...O.%.O.O...............O.O...R 6.6.6.6.6.6.6.",
"6.6.6.6.6.6.6.6.6.~ ,.2.5.2.5.5.5.5.5.5.5.5.5.2...6.6.6.6.6.6.6.",
"6.6.6.6.6.6.6.6.6.( ~ ( ~ ~ ( ~ ( ~ ~ ~ ~ R R R ( 6.6.6.6.6.6.6.",
"6.6.6.6.6.6.6.6.6.........O.O.O.O.%.%.%.%.%.%...( 6.6.6.6.6.6.6.",
"6.6.6.6.6.6.6.6.6.R ~ R R ~ R R R U U U G G G S ( 6.6.6.6.6.6.6.",
"6.6.6.6.6.6.6.6.6.R ( ..( ( ( ( ( ( ( ( ( ....( 6.6.6.6.6.6.6.6.",
"6.6.6.6.6.6.6.6.6...O.O.%.%.%.%.%.%.%.%.%.%.%.( 6.6.6.6.6.6.6.6.",
"6.6.6.6.6.6.6.6.6.U U U U G U U G U U R R R ~ U 6.6.6.6.6.6.6.6.",
"6.6.6.6.6.6.6.6.6.R O...........O.O.O...O.O.O.R 6.6.6.6.6.6.6.6.",
"6.6.6.6.6.6.6.6.6...%.%.%.O.O.O.........( ( ~ ~ 6.6.6.6.6.6.6.6.",
"6.6.6.6.6.6.6.6.6.R U U U U R R R ~ ~ ~ ~ ( ( ~ 6.6.6.6.6.6.6.6.",
"6.6.6.6.6.6.6.6.~ ( 2.,.,.,.>.>.>.>.=.=.=.%.=.G U U ( 6.6.6.6.6.",
"6.6.6.6.6.6.6.U s ( 2.,.,.2.2.2.2.2.2.2.2.2.5.F r r 7 m 6.6.6.6.",
"6.6.6.6.6.( S a u f m m m M m M m m B S G G U f t 6 - & y ~ 6.6.",
"6.6.6.6.( D N M b b b h b h b h b b h b n n b i 5 ; = % $ 4 R 6.",
"6.6.6.( S } -.&.$.#.+.+.@.+.o.o.X._ { _ K L ) D 9 = & * & # q 6.",
"6.6.( S | 3.5.5.5.5.5.5.5.5.5.5.5.5.<.z j j v [ n 2 * & % @ & 6.",
"6.6.G @.4.5.5.5.5.5.5.5.5.5.5.5.5.5.c k x j z $.E a : * $ X % 6.",
"6.G &.5.5.5.5.5.5.5.5.5.5.5.5.5.5.5.] l l j ' 4.>.I w & O X % 6.",
"6.I 1.,.,.,.,.1.3.5.4.5.5.5.5.5.5.5.5.:.` ;.4.2.3.*.h & . X $ 6.",
"6.N / _ ) ! Q ^ ^ / / ) _ X.o.| } } } { { / W E Y F u @ X o $ 6.",
"6.N W ! Q W E T T Y Y I Y P I U I I Y P P P J F Z M t # . X $ 6.",
"6.M W Q W T Y Y Y P I P P I J I J P J P J H H F D n t # X X $ 6.",
"6.M T E T Y P P J I J P J P J J P J J H G F F D V b r @ X . & 6.",
"6.C P Y I J P J P J J J J G H G H F H F H F D Z M g t $ .   y 6.",
"6.C J J P J J H J F H F F H F H F G F F D D Z C N h t $   = R 6.",
"6.B P I J H J F F F F F F F F D F D D D D A Z C N b t # X B 6.6.",
"6.F b C B C Z C V C V V C N V C C Z Z Z Z A Z C N n t O p 6.6.6.",
"6.^ d - - : > , < 1 2 3 3 4 5 6 7 7 9 9 0 q w 0 0 6 > e ( 6.6.6.",
"6.6.6.G 7 O X O O + O X o O + o O O + O O o O .   o d ( 6.6.6.6.",
"6.6.6.6.( B e q q 9 8 7 5 5 3 4 2 , < ; & & % $ , D 6.6.6.6.6.6."
};
