/* XPM */
static char *magick[] = {
/* columns rows colors chars-per-pixel */
"32 32 107 2",
"   c #000000002929",
".  c #000008082929",
"X  c #080808082929",
"o  c #000000003131",
"O  c #000008083131",
"+  c #000008083939",
"@  c #080808083131",
"#  c #080808083939",
"$  c #080810103131",
"%  c #080810103939",
"&  c #101010103131",
"*  c #101010103939",
"=  c #101018183131",
"-  c #101018183939",
";  c #181818183939",
":  c #181821213939",
">  c #101010104242",
",  c #101018184242",
"<  c #181818184242",
"1  c #181818184a4a",
"2  c #181821214242",
"3  c #212121214a4a",
"4  c #212129294a4a",
"5  c #212121215252",
"6  c #212129295252",
"7  c #292929295252",
"8  c #292931314a4a",
"9  c #313131314a4a",
"0  c #313131315252",
"q  c #393939395a5a",
"w  c #313139396363",
"e  c #393939396363",
"r  c #393942426363",
"t  c #393942426b6b",
"y  c #424242425252",
"u  c #424242426363",
"i  c #424242426b6b",
"p  c #42424a4a6363",
"a  c #4a4a52526363",
"s  c #4a4a52526b6b",
"d  c #525252527373",
"f  c #52525a5a7b7b",
"g  c #10101010cece",
"h  c #10101010d6d6",
"j  c #10101818dede",
"k  c #00000000e7e7",
"l  c #08080808f7f7",
"z  c #08081010f7f7",
"x  c #08081010ffff",
"c  c #10101818efef",
"v  c #18181818e7e7",
"b  c #18181818f7f7",
"n  c #18181818ffff",
"m  c #18182121ffff",
"M  c #21212121e7e7",
"N  c #21212121efef",
"B  c #21212929efef",
"V  c #21212929f7f7",
"C  c #21212929ffff",
"Z  c #29292929f7f7",
"A  c #29293131ffff",
"S  c #5a5a63638484",
"D  c #42424242ffff",
"F  c #42424a4affff",
"G  c #4a4a5252ffff",
"H  c #7b7b8c8cb5b5",
"J  c #94949c9c9c9c",
"K  c Gray61",
"L  c #8c8c9494a5a5",
"P  c #9c9ca5a5adad",
"I  c #a5a5a5a5a5a5",
"U  c #a5a5a5a5adad",
"Y  c #84848c8ccece",
"T  c #84848c8cd6d6",
"R  c #84849494c6c6",
"E  c #8c8c9494cece",
"W  c #8c8c9494d6d6",
"Q  c #94949494dede",
"!  c #9494a5a5cece",
"~  c #9c9ca5a5d6d6",
"^  c #9c9cadadd6d6",
"/  c #adadbdbdc6c6",
"(  c #adadb5b5dede",
")  c #adadbdbddede",
"_  c #a5a5adade7e7",
"`  c #adadbdbde7e7",
"'  c #b5b5c6c6c6c6",
"]  c #b5b5c6c6cece",
"[  c #bdbdc6c6cece",
"{  c #bdbdcececece",
"}  c #b5b5c6c6e7e7",
"|  c #bdbdcecee7e7",
" . c #bdbdceceefef",
".. c #bdbdd6d6efef",
"X. c #c0c0c0c0c0c0",
"o. c #cecededeefef",
"O. c #cecee7e7efef",
"+. c #d6d6efeff7f7",
"@. c #e7e7efeff7f7",
"#. c #e7e7f7f7f7f7",
"$. c #e7e7fffff7f7",
"%. c #e7e7ffffffff",
"&. c #efeff7f7f7f7",
"*. c #efeff7f7ffff",
"=. c #efefffffffff",
"-. c #f7f7ffffffff",
";. c None",
/* pixels */
";.;.;.;.;.;.;.;.;.;.;.;.;.;.;.;.;.;.;.;.;.;.;.;.;.;.;.;.;.;.;.;.",
";.;.;.;.;.;.;.;.;.;.;.;.;.;.;.;.;.;.;.;.;.;.;.;.;.;.;.;.;.;.;.;.",
";.;.;.;.;.;.;.;.;.;.;.;.;.;.;.;.;.;.;.;.;.;.;.;.;.;.;.;.;.;.;.;.",
";.;.;.;.;.;.;.;.;.;.;.;.;.;.;.;.;.;.;.;.;.;.;.;.;.;.;.;.;.;.;.;.",
";.;.;.;.;.;.;.;.;.;.;.;.;.;.;.;.;.;.;.;.;.;.;.;.;.;.;.;.;.;.;.;.",
";.;.;.;.;.;.;.;.;.;.;.;.;.;.;.;.;.;.;.;.;.;.;.;.;.;.;.;.;.;.;.;.",
";.;.;.;.;.;.;.;.;.;.;.;.;.;.;.;.;.;.;.;.;.;.;.;.;.;.;.;.;.;.;.;.",
";.;.;.;.;.;.;.;.;.;.;.;.;.;.;.;.;.;.;.;.;.;.;.;.;.;.;.;.;.;.;.;.",
"U s q 7 5 3 1 < % # # % * # > # , > > > , > , > % * > > < 3 u I ",
"q o   $ = : - : : : < : : : ; : : : ; ; ; ; - ; ; * - & O   o q ",
"1   9 H E R ' ~ E E [ ! T E { ! Y E { { { { { { { { { { ' s   4 ",
", . d D A M ( G C M } G C V  .F n V +.$.#.#.$.#.#.$.#.$.-.P o 2 ",
"* . f m x h ^ C l j ) A l v } C l v o.#.#.#.#.#.#.#.#.#.%./ o < ",
"> X f C l h ^ A l j ) Z l v ) C l v O.$.#.+.#.+.#.#.+.#.=./ O < ",
">   S V z h ! A z h ) A z j } Z z j o.#.#.#.#.#.+.#.#.#.=.] @ ; ",
"* X S n z h ! A l h ) Z l v ) Z l v o.$.#.+.#.#.#.#.#.#.=.[ O < ",
"% X S C z g ^ C l h ) Z z j } V l j O.#.#.#.#.+.#.#.+.$.=.] O < ",
"* O S b z h ^ Z z h ) Z z j } V l M o.$.#.+.#.#.#.#.#.#.=.[ O ; ",
"* X f V z g ! A z h ) Z l j } V l j o.$.#.#.#.$.+.#.#.#.=.] # - ",
"> X f b z h ^ V l h ) Z l j } V l v O.$.#.#.#.#.#.$.#.#.=.[ O ; ",
"* . f c k g ) N k g | B k j ..N k j +.&.%.$.$.%.$.#.$.%.-.' o < ",
">   a E W ^ @._ Q ( *.` Q ( *.` Q ( *.=.=.=.=.#.=.%.#.#.&.L o 2 ",
"8 o + 0 p p r s s s i s s s u s s s i r u r r t r e e w 6 + o 9 ",
"J y 8 ; ; * & @ @ @ @ @ @ @ @ @ @ @ @ @ @ @ & @ & & ; ; ; 8 y K ",
";.;.;.;.;.;.;.;.;.;.;.;.;.;.;.;.;.;.;.;.;.;.;.;.;.;.;.;.;.;.;.;.",
";.;.;.;.;.;.;.;.;.;.;.;.;.;.;.;.;.;.;.;.;.;.;.;.;.;.;.;.;.;.;.;.",
";.;.;.;.;.;.;.;.;.;.;.;.;.;.;.;.;.;.;.;.;.;.;.;.;.;.;.;.;.;.;.;.",
";.;.;.;.;.;.;.;.;.;.;.;.;.;.;.;.;.;.;.;.;.;.;.;.;.;.;.;.;.;.;.;.",
";.;.;.;.;.;.;.;.;.;.;.;.;.;.;.;.;.;.;.;.;.;.;.;.;.;.;.;.;.;.;.;.",
";.;.;.;.;.;.;.;.;.;.;.;.;.;.;.;.;.;.;.;.;.;.;.;.;.;.;.;.;.;.;.;.",
";.;.;.;.;.;.;.;.;.;.;.;.;.;.;.;.;.;.;.;.;.;.;.;.;.;.;.;.;.;.;.;.",
";.;.;.;.;.;.;.;.;.;.;.;.;.;.;.;.;.;.;.;.;.;.;.;.;.;.;.;.;.;.;.;."
};
