/* XPM */
static char *magick[] = {
/* columns rows colors chars-per-pixel */
"32 32 34 1",
"  c #070707070707",
". c #0e0e0e0e0e0e",
"X c Gray9",
"o c Gray12",
"O c #272727272727",
"+ c #2f2f2f2f2f2f",
"@ c #373737373737",
"# c #3f3f3f3f3f3f",
"$ c #464646464646",
"% c Gray31",
"& c Gray34",
"* c #5f5f5f5f5f5f",
"= c #676767676767",
"- c #6f6f6f6f6f6f",
"; c #777777777777",
": c Gray50",
"> c Gray53",
", c Gray56",
"< c #979797979797",
"1 c #9f9f9f9f9f9f",
"2 c #a7a7a7a7a7a7",
"3 c #afafafafafaf",
"4 c #b7b7b7b7b7b7",
"5 c Gray75",
"6 c #c0c0c0c0c0c0",
"7 c #c5c5c5c5c5c5",
"8 c Gray81",
"9 c Gray84",
"0 c #dfdfdfdfdfdf",
"q c #e7e7e7e7e7e7",
"w c #efefefefefef",
"e c #f6f6f6f6f6f6",
"r c Gray100",
"t c None",
/* pixels */
"tttttttttttttttttttttttttttttttt",
"tttttttttttttttttttttttttttttttt",
"tttttttttttttttttttttttttttttttt",
"tttttttttttttttttttttttttttttttt",
"tt5332332323333323222223211235tt",
"t48qqwwwwqwqqqq00000999887743<2t",
"47rreewwwweewwqqq0009987554321-3",
"17q97555444444455433332222111<-;",
"145533333333222222221211211<<,-*",
"<34322221:;>12111<,<11111>><<,-*",
",333222:o   o-111- -2111# &1<,;&",
"123222= o*;=O &21- =111# &<<,>;%",
"13222> O<2121@ :2- =21% %1<<,,-$",
"<2323% ;21<11> $3- =2* $1<<<,>;%",
"13222@ <1<1<11Oo1- -; @1<<<<,>;%",
"<2221oX<11<1<1#.1- $. %1<<<,,>;%",
"<2221Xo<1<<<11# <-  +# ;1<<,,>-%",
"<2221O <<1<1<1+X1- o,,XX,<<<,>;%",
",2222$ :2<<<1,.@2- *21= %1<,,>-%",
",2211> O<1111% -2- *1<1+ -1,,>;$",
"122112* +:,:$ @<1- *1<<> X><,>-%",
"<121<<1=     #<<1- &1<<1& +,,>-%",
"<1111<<1>*%&:<<<<>=:<,,<,==,,>=&",
"<12<<<<,<<1<<,<,,<<<,,<,,<<,>>*&",
"1,1<<<,,,,,,,,,>,>,,,,,,,,,,>>&-",
"4:,,,>,>,>>:>:>::>::::>>>:>>>-#1",
"t<====-=========*=====*===*&&$;5",
"tt2:*%$####@@@@@#@@@#@##$$%*;1tt",
"tttttttttttttttttttttttttttttttt",
"tttttttttttttttttttttttttttttttt",
"tttttttttttttttttttttttttttttttt",
"tttttttttttttttttttttttttttttttt"
};
