/* XPM */
static char *magick[] = {
/* columns rows colors chars-per-pixel */
"32 32 29 1",
"  c #2a2a2a2a2a2a",
". c #373737373737",
"X c #3f3f3f3f3f3f",
"o c Gray28",
"O c Gray31",
"+ c Gray34",
"@ c #5f5f5f5f5f5f",
"# c Gray40",
"$ c Gray43",
"% c #777777777777",
"& c Gray50",
"* c Gray53",
"= c #8e8e8e8e8e8e",
"- c #979797979797",
"; c #989898989898",
": c #a4a4a4a4a4a4",
"> c #afafafafafaf",
", c #b4b4b4b4b4b4",
"< c Gray75",
"1 c #c0c0c0c0c0c0",
"2 c #c6c6c6c6c6c6",
"3 c Gray81",
"4 c #d7d7d7d7d7d7",
"5 c #dfdfdfdfdfdf",
"6 c #e2e2e2e2e2e2",
"7 c #efefefefefef",
"8 c Gray96",
"9 c Gray100",
"0 c None",
/* pixels */
"00000000000000000000000000000000",
"00000000000000000000000000000000",
"00000000000000000000000000000000",
"00000000000000000000000000000000",
"00000000000000000000000000000000",
"00000000000000000000000000000000",
"00000000000000000000000000000000",
"000000000000>=%###*>000000000000",
"0000000000,*+O@%%#oo%,0000000000",
"000000000,#.%489996:o+>000000000",
"00000000,#X<94:*%=,96#O,00000000",
"00000000&X<9:#+O++O#58@$00000000",
"0000000>X*9-+++++O+o+73X:0000000",
"0000000&o5<+++++O+O+X*9*%0000000",
"0000000@$9%++++O+OOOoo8<+0000000",
"0000000o=7@+O+OOOOOOOX45o0000000",
"0000000X-6@O+OOOOOOoo.36O0000000",
"0000000O*8+OOOOOOOOOo.75+0000000",
"0000000%@9*oOOOOOooo.@9>#0000000",
"0000000:.25XoOOoooOX 39$-0000000",
"0000000<##9<X.oooo  :9,@<0000000",
"00000000>o=94$X. .@394O:00000000",
"000000000:o*79733799<O;000000000",
"0000000000>@O-3774>$O:0000000000",
"00000000000<;$OOOO@-<00000000000",
"00000000000000000000000000000000",
"00000000000000000000000000000000",
"00000000000000000000000000000000",
"00000000000000000000000000000000",
"00000000000000000000000000000000",
"00000000000000000000000000000000",
"00000000000000000000000000000000"
};
