/* XPM */
static char *magick[] = {
/* columns rows colors chars-per-pixel */
"32 32 143 2",
"   c #00001818e7e7",
".  c #00001818efef",
"X  c #00001818ffff",
"o  c #10102121d6d6",
"O  c #10102121dede",
"+  c #10102929d6d6",
"@  c #18183131cece",
"#  c #00002121efef",
"$  c #00002121ffff",
"%  c #00002929ffff",
"&  c #08082929ffff",
"*  c #08083131ffff",
"=  c #10102929e7e7",
"-  c #10103939f7f7",
";  c #10103939ffff",
":  c #21213131c6c6",
">  c #21213131cece",
",  c #21213939dede",
"<  c #29293939dede",
"1  c #31314242bdbd",
"2  c #10104242ffff",
"3  c #18184242ffff",
"4  c #21214242dede",
"5  c #39394a4ac6c6",
"6  c #39395252d6d6",
"7  c #21214242e7e7",
"8  c #21214a4aefef",
"9  c #29294a4ae7e7",
"0  c #21214a4affff",
"q  c #21215252ffff",
"w  c #29295252ffff",
"e  c #29295a5affff",
"r  c #39395a5ae7e7",
"t  c #31315a5affff",
"y  c #31316363ffff",
"u  c #39396363f7f7",
"i  c #39396363ffff",
"p  c #39396b6bffff",
"a  c #42424a4ab5b5",
"s  c #42425252b5b5",
"d  c #52525a5abdbd",
"f  c #52526b6bbdbd",
"g  c #5a5a6363bdbd",
"h  c #5a5a6b6bbdbd",
"j  c #63636b6bb5b5",
"k  c #63636b6bbdbd",
"l  c #6b6b7373b5b5",
"z  c #6b6b7373bdbd",
"x  c #73737b7bb5b5",
"c  c #42425a5acece",
"v  c #4a4a6363cece",
"b  c #42426363dede",
"n  c #4a4a7373dede",
"m  c #52526b6bc6c6",
"M  c #52526b6bcece",
"N  c #42426b6be7e7",
"B  c #42426b6befef",
"V  c #4a4a6b6be7e7",
"C  c #42426b6bffff",
"Z  c #42427373ffff",
"A  c #4a4a7373ffff",
"S  c #4a4a7b7bffff",
"D  c #52527b7be7e7",
"F  c #5a5a7b7bf7f7",
"G  c #7b7b8484b5b5",
"H  c #7b7b8c8cbdbd",
"J  c #52528484ffff",
"K  c #52528c8cffff",
"L  c #5a5a8484ffff",
"P  c #5a5a8c8cffff",
"I  c #73738484cece",
"U  c #7b7b9494c6c6",
"Y  c #73739494dede",
"T  c #7b7b9494d6d6",
"R  c #63638484efef",
"E  c #63638c8cffff",
"W  c #63639494ffff",
"Q  c #63639c9cffff",
"!  c #6b6b9c9cffff",
"~  c #73738c8ce7e7",
"^  c #73739494efef",
"/  c #73739c9cf7f7",
"(  c #73739c9cffff",
")  c #7373a5a5ffff",
"_  c #7b7ba5a5ffff",
"`  c #7b7badadffff",
"'  c #7b7bb5b5ffff",
"]  c #84848c8ca5a5",
"[  c #84848c8cadad",
"{  c #8c8c8c8cadad",
"}  c #84849494b5b5",
"|  c #94949494a5a5",
" . c #94949494adad",
".. c #94949c9cadad",
"X. c #9c9c9c9cadad",
"o. c #9c9ca5a5adad",
"O. c #a5a5a5a5a5a5",
"+. c #a5a5a5a5adad",
"@. c Gray68",
"#. c #a5a5a5a5b5b5",
"$. c #a5a5adadb5b5",
"%. c #adadadadb5b5",
"&. c #adadadadbdbd",
"*. c Gray71",
"=. c #b5b5b5b5bdbd",
"-. c Gray74",
";. c #84849c9cd6d6",
":. c #8c8ca5a5cece",
">. c #8484adadffff",
",. c #8484b5b5ffff",
"<. c #8484bdbdffff",
"1. c #8c8cb5b5ffff",
"2. c #8c8cbdbdffff",
"3. c #9494adade7e7",
"4. c #b5b5b5b5c6c6",
"5. c #b5b5bdbdc6c6",
"6. c #bdbdbdbdc6c6",
"7. c #9494c6c6ffff",
"8. c #9494ceceffff",
"9. c #9c9cc6c6ffff",
"0. c #9c9cceceffff",
"q. c #a5a5ceceffff",
"w. c #a5a5d6d6ffff",
"e. c #adaddedeffff",
"r. c #b5b5dedeffff",
"t. c #bdbddedeffff",
"y. c #adade7e7ffff",
"u. c #b5b5efefffff",
"i. c #bdbde7e7ffff",
"p. c #bdbdefefffff",
"a. c #c0c0c0c0c0c0",
"s. c #cecee7e7ffff",
"d. c #c6c6f7f7ffff",
"f. c #cecef7f7ffff",
"g. c #ceceffffffff",
"h. c #d6d6efefffff",
"j. c #dedeefefffff",
"k. c #d6d6f7f7ffff",
"l. c #d6d6ffffffff",
"z. c #e7e7ffffffff",
"x. c #efefffffffff",
"c. c #f7f7ffffffff",
"v. c None",
/* pixels */
"v.v.v.v.v.v.v.v.v.v.v.v.v.v.v.v.v.v.v.v.v.v.v.v.v.v.v.v.v.v.v.v.",
"v.v.v.v.v.v.v.v.v.v.v.v.v.v.v.v.v.v.v.v.v.v.v.v.v.v.v.v.v.v.v.v.",
"v.v.v.v.v.v.v.v.v.v.v.v.v.v.v.v.v.v.v.v.v.v.v.v.v.v.v.v.v.v.v.v.",
"v.v.v.v.v.v.v.v.v.v.v.v.v.v.v.v.v.v.v.v.v.v.v.v.v.v.v.v.v.v.v.v.",
"v.v.v.v.v.v.v.v.v.v.v.v.v.v.v.v.v.-.Y N x -.v.v.v.v.v.v.v.v.v.v.",
"v.v.v.v.v.v.v.v.v.v.v.v.v.v.v.v.v.O.j.r.p k %.v.v.v.v.v.v.v.v.v.",
"v.v.v.v.v.v.v.v.v.v.v.v.v.v.v.v.v.X.h.l.0.Z v &.v.v.v.v.v.v.v.v.",
"v.v.v.v.v.v.v.v.v.v.v.v.v.v.v.v.v.O.r.e.w.0.Q 8 x v.v.v.v.v.v.v.",
"v.v.v.v.v.v.v.v.v.v.v.v.v.v.v.v.v.o.e.8.0.w.0.W q [ -.v.v.v.v.v.",
"v.v.v.v.v.v.v.v.v.v.v.v.v.v.v.v.v.o.7.7.7.7.0.0.) u z =.v.v.v.v.",
"v.v.-.4.5.-.-.v.v.v.v.v.v.v.v.v.v.X.,.2.7.2.7.0.0.' Z c $.v.v.v.",
"@.} ~ F D n M I H  .4.-.-.v.v.v.#.m ` 2.1.2.2.7.7.7.<.p 4 #.v.v.",
"f q.c.x.z.h.t.q.1._ ^ Y U T ;.:.3.1.,.,.,.,.1.,.1.2.7.>.Z 9 o.-.",
"N y.g.d.p.i.r.p.d.d.f.k.k.k.j.x.x.s.>.` ,.,.,.,.,.,.,.2.2.K - { ",
"B 0.u.w.0.0.0.7.9.0.7.0.w.e.e.e.0.2.,.,.` >.,.,.,.` ` ` ` _ y c ",
"V 8.e.0.7.2.2.2.2.2.<.1.,.,.,.,.,.,.,.` >.' >.` ` ` ) ) ! ! Z 9 ",
"V 2.w.7.1.,.>.` ` ` _ ` ` ` ` ` ` ` ` ` ` ` ` ` _ ) ! E J C 3 , ",
"b ' 0.2.` ` ` ) ) ( ) ( ! ! ! ! ( ` >.` ` ` ` ) ) ! W S p 0 X 5 ",
"6 Q ,.) W E L J S Z C y w 3 3 3 e L ` _ ` ` _ ) ! W J e 3 $ +  .",
"l q Z t 0 2 * $ $ # # O > 1 a a = ; ) ` ) ) ( ! W Z 0 * X + #.v.",
"*.k = #   O > a d G | &.-.-.-.-.#.s Q _ ) ! ! W A 0 * X o ] v.v.",
"v.v.+.| ..=.-.-.v.v.v.v.v.v.v.v.v.+./ ( ! W P y 3 & X 5 #.-.v.v.",
"v.v.v.v.v.v.v.v.v.v.v.v.v.v.v.v.v.-.^ P L J y ; % . s *.v.v.v.v.",
"v.v.v.v.v.v.v.v.v.v.v.v.v.v.v.v.v.-.R J S t ; $ X g -.v.v.v.v.v.",
"v.v.v.v.v.v.v.v.v.v.v.v.v.v.v.v.v.6.D i e ; % = j *.v.v.v.v.v.v.",
"v.v.v.v.v.v.v.v.v.v.v.v.v.v.v.v.v.-.r ; * X @ +.v.v.v.v.v.v.v.v.",
"v.v.v.v.v.v.v.v.v.v.v.v.v.v.v.v.v.-.7 $ X : X.v.v.v.v.v.v.v.v.v.",
"v.v.v.v.v.v.v.v.v.v.v.v.v.v.v.v.v.-.h < h %.v.v.v.v.v.v.v.v.v.v.",
"v.v.v.v.v.v.v.v.v.v.v.v.v.v.v.v.v.v.v.v.v.v.v.v.v.v.v.v.v.v.v.v.",
"v.v.v.v.v.v.v.v.v.v.v.v.v.v.v.v.v.v.v.v.v.v.v.v.v.v.v.v.v.v.v.v.",
"v.v.v.v.v.v.v.v.v.v.v.v.v.v.v.v.v.v.v.v.v.v.v.v.v.v.v.v.v.v.v.v.",
"v.v.v.v.v.v.v.v.v.v.v.v.v.v.v.v.v.v.v.v.v.v.v.v.v.v.v.v.v.v.v.v."
};
