/* XPM */
static char *magick[] = {
/* columns rows colors chars-per-pixel */
"32 32 95 2",
"   c #060606060202",
".  c #000000000d0d",
"X  c #0f0f0e0e0000",
"o  c Gray6",
"O  c #000000001717",
"+  c #1c1c1c1c0e0e",
"@  c #151515151515",
"#  c #010101012b2b",
"$  c #000000003434",
"%  c #000000003a3a",
"&  c #121214143e3e",
"*  c #212121211414",
"=  c #262626261d1d",
"-  c #2d2d2d2d2222",
";  c #373737372e2e",
":  c #353535353535",
">  c Gray23",
",  c #010101015353",
"<  c #000000006767",
"1  c #020202026e6e",
"2  c #000000007f7f",
"3  c #434343434343",
"4  c #434344444a4a",
"5  c #4c4c4b4b4545",
"6  c Gray33",
"7  c #6e6e6d6d6767",
"8  c #000000008484",
"9  c #000000008e8e",
"0  c #000000009292",
"q  c #000000009f9f",
"w  c #00000000a4a4",
"e  c #00000000acac",
"r  c #03030303b7b7",
"t  c #00000000c6c6",
"y  c #00000000cece",
"u  c #00000000d7d7",
"i  c #00000000dfdf",
"p  c #09090d0ddada",
"a  c #0c0c1111dcdc",
"s  c #1b1b1d1dc1c1",
"d  c #1a1a1b1bd6d6",
"f  c #01010101e1e1",
"g  c #01010101e8e8",
"h  c #06060909e0e0",
"j  c #00000000f2f2",
"k  c #05050606fdfd",
"l  c #07070909ffff",
"z  c #09090c0cffff",
"x  c #0e0e1313ffff",
"c  c #14141d1de0e0",
"v  c #13131515ffff",
"b  c #1b1b1f1fffff",
"n  c #1d1d2b2beaea",
"m  c #15152323ffff",
"M  c #1c1c2323ffff",
"N  c #37373838e6e6",
"B  c #35353636ffff",
"V  c #3d3d4d4dcbcb",
"C  c #39394f4fd6d6",
"Z  c #28284141eded",
"A  c #3a3a5353ffff",
"S  c #45454f4f8d8d",
"D  c #54545c5c8080",
"F  c #5e5e67678080",
"G  c #61616a6a8585",
"H  c #59597373caca",
"J  c #4b4b6b6beded",
"K  c #46466161f1f1",
"L  c #45456767ffff",
"P  c #52526c6cf1f1",
"I  c #50506f6fffff",
"U  c #52527272ffff",
"Y  c Gray52",
"T  c Gray56",
"R  c Gray58",
"E  c #9d9d9d9d9d9d",
"W  c #90909797b8b8",
"Q  c #afafafafafaf",
"!  c #b7b7b7b7b7b7",
"~  c #bebebebebebe",
"^  c #84849a9ad4d4",
"/  c #8d8d9898ffff",
"(  c #bfbfc7c7e4e4",
")  c #c0c0c0c0c0c0",
"_  c #c5c5c5c5c5c5",
"`  c Gray81",
"'  c #d0d0d0d0d0d0",
"]  c #c0c0c4c4ffff",
"[  c #c9c9d0d0ffff",
"{  c #d6d6ddddffff",
"}  c #dadae2e2ffff",
"|  c #e6e6e6e6e6e6",
" . c Gray95",
".. c Gray100",
"X. c None",
/* pixels */
"X.X.X.X.X.X.X.X.X.X.X.X.X.X.X.X.X.X.X.X.X.X.X.X.X.X.X.X.X.X.X.X.",
"X.X.X.X.X.X.X.X.X.X.X.X.X.X.X.X.X.X.X.X.X.X.X.X.X.X.X.X.X.X.X.X.",
"X.X.X.X.X.X.X.X.X.X.X.X.X.X.X.X.X.X.X.X.X.X.X.X.X.X.X.X.X.X.X.X.",
"X.X.X.X.X.X.X.X.X.X.X.X.X.X.X.X.X.X.X.X.X.X.X.X.X.X.X.X.X.X.X.X.",
"X.X.X.X.X.X.X.X.X.X.X.X.X.X.X.X.X.X.X.X.X.X.X.X.X.X.X.X.X.X.X.X.",
"X.X.X.X.X.X.X.X.X.X.X.X.X.X.X.X.X.X.X.X.X.X.X.X.X.X.X.X.X.X.X.X.",
"X.X.X.X.X.X.X.X.X.X.X.X.X.X.X.X.X.X.X.X.X.X.X.X.X.X.X.X.X.X.X.X.",
"E W ^ H P P P P U P L K I J J J C C J P P K P P K A Z A Z C H R ",
"H m k k z z z z z k k k k k k k k k k k k k k k k k k k k k k s ",
"N k k k k k f w 0 8 8 8 8 8 8 8 8 8 8 8 8 8 8 9 w i k k k k k s ",
"c k k k k k ,                                     & k k k k k p ",
"n k k k k k $     o @ @ @ @ @ @ o o o o o o o o o 4 b k k k k p ",
"n k k k k k $   T ~ ` ` ` ` ` ! |  . . .|  . . .|  .B k k k k f ",
"Z k k k e j # = ` ! ! ! Q Q Q R T  .................B r t k k p ",
"d k g , . g $ ; _ Q Q Q Q Q ! T   T ................B 1 . w k h ",
"c t #   O g # ; ` Q Q Q Q Q Q R   6 ................B 2     2 y ",
"d <     O g $ ; _ ! Q Q Q E ! T   5 ................B 2       1 ",
"n k 2     j % - _ Q Q Q Q Q Q R   3 ................B 2     , t ",
"N k k r % g , * ~ Q Q Q Q Q Q R   > ................B 2 O q k h ",
"J k k k j k , + ! E E R R R E Y   : ................B f i k k a ",
"V k k k k k , @ ' 3 @ @ @ @ o .   > ................B k k k k p ",
"s k k k k k 1 X ..7               5 ................M k k k k p ",
"V k k k k k p S [ ( F F F F D D D W } } { { { [ ] / l k k k k s ",
"G k k k k k k x k x M b M M b b b v z z z z l k k k k k k k k s ",
"E s s u p p f p p p p p p p p p p p p p p p p p p y y y s s s G ",
"X.X.X.X.X.X.X.X.X.X.X.X.X.X.X.X.X.X.X.X.X.X.X.X.X.X.X.X.X.X.X.X.",
"X.X.X.X.X.X.X.X.X.X.X.X.X.X.X.X.X.X.X.X.X.X.X.X.X.X.X.X.X.X.X.X.",
"X.X.X.X.X.X.X.X.X.X.X.X.X.X.X.X.X.X.X.X.X.X.X.X.X.X.X.X.X.X.X.X.",
"X.X.X.X.X.X.X.X.X.X.X.X.X.X.X.X.X.X.X.X.X.X.X.X.X.X.X.X.X.X.X.X.",
"X.X.X.X.X.X.X.X.X.X.X.X.X.X.X.X.X.X.X.X.X.X.X.X.X.X.X.X.X.X.X.X.",
"X.X.X.X.X.X.X.X.X.X.X.X.X.X.X.X.X.X.X.X.X.X.X.X.X.X.X.X.X.X.X.X.",
"X.X.X.X.X.X.X.X.X.X.X.X.X.X.X.X.X.X.X.X.X.X.X.X.X.X.X.X.X.X.X.X."
};
