/* XPM */
static char *magick[] = {
/* columns rows colors chars-per-pixel */
"32 32 210 2",
"   c Gray0",
".  c #080800000000",
"X  c #101000000000",
"o  c #101008080808",
"O  c #181800000000",
"+  c #181808080000",
"@  c #181808080808",
"#  c #101010100808",
"$  c #181810101010",
"%  c #212108080000",
"&  c #212108080808",
"*  c #292900000000",
"=  c #292908080808",
"-  c #212110100808",
";  c #292910100808",
":  c #212110101010",
">  c #212118181818",
",  c #292910101010",
"<  c #292918181010",
"1  c #292918181818",
"2  c #313108080000",
"3  c #393908080000",
"4  c #313110101010",
"5  c #313118181010",
"6  c #313118181818",
"7  c #393921211818",
"8  c Gray16",
"9  c #313121212121",
"0  c #313129292929",
"q  c #393921212121",
"w  c #393929292929",
"e  c #424208080000",
"r  c #4a4a08080000",
"t  c #5a5a08080000",
"y  c #5a5a10100000",
"u  c #424221211818",
"i  c #424229292121",
"p  c #424229292929",
"a  c #4a4a29292929",
"s  c #424231313131",
"d  c #424239393939",
"f  c #4a4a39393939",
"g  c #525231313131",
"h  c #525239393131",
"j  c #525239393939",
"k  c #636318180808",
"l  c #6b6b10100000",
"z  c #737310100000",
"x  c #737318180808",
"c  c #7b7b18180808",
"v  c #7b7b31312121",
"b  c #636342423939",
"n  c #6b6b4a4a3131",
"m  c #737342422929",
"M  c Gray26",
"N  c Gray29",
"B  c #525242424242",
"V  c #52524a4a4a4a",
"C  c #5a5a42424242",
"Z  c #5a5a5a5a5a5a",
"A  c #636342424242",
"S  c #63634a4a4242",
"D  c #6b6b4a4a4a4a",
"F  c #636352524a4a",
"G  c #6b6b52524242",
"H  c #6b6b5a5a4a4a",
"J  c #63635a5a5a5a",
"K  c #6b6b52525252",
"L  c #737352524a4a",
"P  c #73735a5a4a4a",
"I  c #7b7b52524242",
"U  c #73735a5a5252",
"Y  c #6b6b63634a4a",
"T  c #7b7b63635a5a",
"R  c Gray39",
"E  c #6b6b63636363",
"W  c Gray42",
"Q  c #7b7b6b6b6b6b",
"!  c Gray45",
"~  c #7b7b73737373",
"^  c #848410100000",
"/  c #848418180808",
"(  c #8c8c18180808",
")  c #949418180808",
"_  c #8c8c21211010",
"`  c #8c8c29291818",
"'  c #949421211010",
"]  c #949429291818",
"[  c #949431311818",
"{  c #8c8c39392929",
"}  c #949439392929",
"|  c #a5a521210808",
" . c #adad21210808",
".. c #a5a529291010",
"X. c #b5b521210808",
"o. c #b5b529291010",
"O. c #b5b531311818",
"+. c #bdbd31311818",
"@. c #b5b539392121",
"#. c #8c8c42422929",
"$. c #84844a4a3131",
"%. c #b5b542422929",
"&. c #b5b54a4a3131",
"*. c #b5b552523939",
"=. c #b5b55a5a3939",
"-. c #bdbd52523131",
";. c #94944a4a4242",
":. c #9c9c52524242",
">. c #9c9c63635a5a",
",. c #84846b6b6363",
"<. c #8c8c6b6b6363",
"1. c #949473736b6b",
"2. c #949473737373",
"3. c #9c9c7b7b7373",
"4. c #9c9c7b7b7b7b",
"5. c #b5b563635a5a",
"6. c #b5b573736363",
"7. c #c6c621210808",
"8. c #cece39391818",
"9. c #d6d629291010",
"0. c #d6d631311010",
"q. c #dede31311010",
"w. c #f7f739391818",
"e. c #ffff39391010",
"r. c #e7e739392121",
"t. c #c6c642422121",
"y. c #dede42422929",
"u. c #ffff42422121",
"i. c #ffff4a4a2121",
"p. c #ffff52522929",
"a. c #ffff5a5a3939",
"s. c #ffff63633131",
"d. c #ffff63633939",
"f. c #c6c663635252",
"g. c #d6d663634a4a",
"h. c #d6d66b6b5252",
"j. c #efef63634a4a",
"k. c #e7e76b6b5252",
"l. c #efef6b6b5252",
"z. c #e7e773735a5a",
"x. c #ffff63634242",
"c. c #ffff73734a4a",
"v. c #ffff7b7b4a4a",
"b. c #efef7b7b6363",
"n. c #9c9c84847b7b",
"m. c #cece84847373",
"M. c #d6d684846b6b",
"N. c #dede84846b6b",
"B. c #d6d684847373",
"V. c #dede94947373",
"C. c #ffff84845a5a",
"Z. c #ffff8c8c5a5a",
"A. c #efef8c8c6b6b",
"S. c #e7e79c9c7b7b",
"D. c #ffff8c8c6b6b",
"F. c #f7f794947373",
"G. c #848484848484",
"H. c #8c8c84848484",
"J. c Gray55",
"K. c Gray58",
"L. c #9c9c94949494",
"P. c Gray61",
"I. c #a5a584848484",
"U. c #a5a58c8c8484",
"Y. c #a5a58c8c8c8c",
"T. c #adad8c8c8c8c",
"R. c #a5a59c9c9c9c",
"E. c #b5b594948c8c",
"W. c #b5b594949494",
"Q. c #bdbd9c9c9494",
"!. c #a5a5a5a5a5a5",
"~. c Gray68",
"^. c #b5b5adada5a5",
"/. c #b5b5adadadad",
"(. c #bdbdadada5a5",
"). c #b5b5b5b5adad",
"_. c #bdbdb5b5adad",
"`. c Gray71",
"'. c #bdbdb5b5b5b5",
"]. c Gray74",
"[. c #c6c68c8c8484",
"{. c #ceceadada5a5",
"}. c #dedebdbdb5b5",
"|. c #e7e7a5a58484",
" X c #e7e7bdbd9c9c",
".X c #efefb5b59494",
"XX c #f7f7a5a58484",
"oX c #f7f7adad8c8c",
"OX c #ffffadad8484",
"+X c #ffffbdbd8c8c",
"@X c #f7f7bdbd9c9c",
"#X c #f7f7c6c69c9c",
"$X c #ffffc6c69c9c",
"%X c #efefc6c6a5a5",
"&X c #f7f7ceceadad",
"*X c #ffffd6d6a5a5",
"=X c #ffffd6d6adad",
"-X c #f7f7d6d6b5b5",
";X c #f7f7dedebdbd",
":X c #ffffdedeb5b5",
">X c #ffffe7e7b5b5",
",X c #ffffe7e7bdbd",
"<X c #c0c0c0c0c0c0",
"1X c #c6c6c6c6c6c6",
"2X c #f7f7efefc6c6",
"3X c #f7f7f7f7cece",
"4X c #fffff7f7c6c6",
"5X c #ffffffffd6d6",
"6X c #ffffffffdede",
"7X c None",
/* pixels */
"7X7X7X7X7X7X7X7X7X7X7X7X7X7X7X7X7X7X7X7X7X7X7X7X7X7X7X7X7X7X7X7X",
"7X7X7X7X7X7X7X7X7X7X7X7X7X7X7X7X7X7X7X7X7X7X7X7X7X7X7X7X7X7X7X7X",
"7X7X7X7X7X7X7X7X7X7X7X7X7X7X7X7X7X7X7X7X7X7X7X7X7X7X7X7X7X7X7X7X",
"7X7X7X7X7X7X7X7X7X7X7X7X7X7X7X7X7X7X7X7X7X7X7X7X7X7X7X7X7X7X7X7X",
"/.y.+.L.7X7X7X7X7X7X7X7X7X7X7X7X7X7X7X7X7X7X7X7X7X7X7X7XT.0.r.(.",
"[.e.X.E 7X7X7X7X7X7X7X7X7X7X7X7X7X7X7X7X7X7X7X7X7X7X7X7X>.q.e.[.",
"m.i...N 1X7X7X7X7X7X7X7X7X7X7X7X7X7X7X7X7X7X7X7X7X7X7X].;.0.i.B.",
"N.d.[ w ].7X7X7X7X7X7X7X7X7X7X7X7X7X7X7X7X7X7X7X7X7X7X].{ 8.s.M.",
"V.Z.#.> ].7X7X7X7X7X7X7X7X7X7X7X7X7X7X7X7X7X7X7X7X7X7X].` t.v.V.",
"|.OX$.$ '.7X7X7X7X7X7X7X7X7X7X7X7X7X7X7X7X7X7X7X7X7X7X_._ -.F.S.",
" X*XI o `.7X^.H.K.].7X7X7X7X7X!.K.).7X7X7X7X7X7X!.!.7X`.( -.+X.X",
";X4XP o `.R.p & X V ].7X7X7XH.q % $ P.7X7X7X].Q 5 + R ^.' *.*X%X",
"3X5XH @ L.j 5   .   R 1X7XR.i - .   > `.7X7XH.u & .   D ' =.:X&X",
"3X6XY o C L : . . . . ~.].K b + . .   ! 7X`.C g . .   O ^ =.>X-X",
"2X5XH . T Q.< X + & X W !.1.4.& . + O > ].H.3.T X X + . t *.=X&X",
"-X,XG X Q.I.X ! B S <.1 B {.,.o M 5 T i W F }.U X @ h C y &.$X@X",
"#X$Xn 4 <.q > ].K.S 3.& a 2.< d `.s E.A X D 4.- Z W T W.k %.OXoX",
"XXOXm , q . W 7X].w = % i q . K.7X~ 4 ; = h 7 X ~.`.6 p e %.D.F.",
"A.C.m X X o ~.7X7XH.O & ; . 0 ].7X`.< O ; , . Z 7X7XJ X 2 @.c.b.",
"z.x.v     G.7X7X7X].M X . # ~.7X7X7XJ.X X . 8 `.7X7X`.8 * O.a.l.",
"k.p.`   H.7X7X7X7X7X'.~ R !.7X7X7X7X1XJ.V R `.7X7X7X7XR.y +.i.j.",
"h.u./ o /.7X7X7X7X7X7X7X7X7X7X7X7X7X7X7X7X7X7X7X7X7X7X^.' o.w.g.",
"6.q./ o ~.7X7X7X7X7X7X7X7X7X7X7X7X7X7X7X7X7X7X7X7X7X7X_._  .9.f.",
"6.7.x @ `.7X7X7X7X7X7X7X7X7X7X7X7X7X7X7X7X7X7X7X7X7X7X`.' ..X.5.",
"4.| l : ].7X7X7X7X7X7X7X7X7X7X7X7X7X7X7X7X7X7X7X7X7X7X].] ) ) 1.",
"Y.z y 9 ].7X7X7X7X7X7X7X7X7X7X7X7X7X7X7X7X7X7X7X7X7X7X].} c z n.",
"!.e 3 f ].7X7X7X7X7X7X7X7X7X7X7X7X7X7X7X7X7X7X7X7X7X7X1X:.r 3 L.",
"].s > ~ 7X7X7X7X7X7X7X7X7X7X7X7X7X7X7X7X7X7X7X7X7X7X7X7XU.p f `.",
"7X7X7X7X7X7X7X7X7X7X7X7X7X7X7X7X7X7X7X7X7X7X7X7X7X7X7X7X7X7X7X7X",
"7X7X7X7X7X7X7X7X7X7X7X7X7X7X7X7X7X7X7X7X7X7X7X7X7X7X7X7X7X7X7X7X",
"7X7X7X7X7X7X7X7X7X7X7X7X7X7X7X7X7X7X7X7X7X7X7X7X7X7X7X7X7X7X7X7X",
"7X7X7X7X7X7X7X7X7X7X7X7X7X7X7X7X7X7X7X7X7X7X7X7X7X7X7X7X7X7X7X7X"
};
