/* XPM */
static char *magick[] = {
/* columns rows colors chars-per-pixel */
"32 32 64 1",
"  c #000000002424",
". c #0b0b0b0b3f3f",
"X c #000000004141",
"o c #000000005656",
"O c #131316164c4c",
"+ c #000000006363",
"@ c #000000006f6f",
"# c #08080c0c7070",
"$ c #000000008787",
"% c #000000008a8a",
"& c #000000009595",
"* c #000000009f9f",
"= c #00000000a6a6",
"- c #00000000aaaa",
"; c #00000000b6b6",
": c #17171f1fb4b4",
"> c #27272e2e8484",
", c #272730308181",
"< c #00000000cece",
"1 c #00000000d7d7",
"2 c #00000000dada",
"3 c #00000000e5e5",
"4 c #00000000efef",
"5 c #00000000f7f7",
"6 c #00000606ffff",
"7 c #00000c0cffff",
"8 c #01011919ffff",
"9 c #0f0f1b1bffff",
"0 c #04042020ffff",
"q c #0f0f2f2fffff",
"w c #12122424ffff",
"e c #16162c2cffff",
"r c #1b1b3535ffff",
"t c #1f1f3b3bffff",
"y c #20203535e6e6",
"u c #29293f3ff8f8",
"i c #3e3e49498d8d",
"p c #24244040ffff",
"a c #2f2f4e4effff",
"s c #2f2f5252ffff",
"d c #30304f4fffff",
"f c #37375151ffff",
"g c #35355c5cffff",
"h c #3e3e5858ffff",
"j c #59596464b8b8",
"k c #46466363ffff",
"l c #4f4f6767ffff",
"z c #57576b6be3e3",
"x c #51516b6bffff",
"c c #57577575ffff",
"v c #59597676ffff",
"b c #69697b7bc7c7",
"n c #64647676e8e8",
"m c #6d6d8686d8d8",
"M c #75758181dada",
"N c #72729090f5f5",
"B c #7b7ba0a0ffff",
"V c #9090bbbbffff",
"C c #9d9dc4c4ffff",
"Z c #aeaececefcfc",
"A c #b4b4d3d3ffff",
"S c #b8b8dbdbffff",
"D c #c0c0c0c0c0c0",
"F c None",
/* pixels */
"FFFFFFFFFFFFFFbMybFFFFFFFFFFFFFF",
"FFFFFFFFFFFFFFbB4-bFFFFFFFFFFFFF",
"FFFFFFFFFFFFFjZe75%FFFFFFFFFFFFF",
"FFFFFFFFFFFFjAk7667,FFFFFFFFFFFF",
"FFFFFFFFFFFbZN066664bFFFFFFFFFFF",
"FFFFFFFFFFFbCt666665=FFFFFFFFFFF",
"FFFFFFFFFFbSg76666665>FFFFFFFFFF",
"FFFFFFFFFbAN8666666663jFFFFFFFFF",
"FFFFFFFFFbVq6666666666;bFFFFFFFF",
"FFFFFFFFjCa666666666665iFFFFFFFF",
"FFFFFFFbNk6666666666666<jFFFFFFF",
"FFFFFFFjm666666666666666$FFFFFFF",
"FFFFFFjc96666666666666665iFFFFFF",
"FFFFFF:966666666666666665#FFFFFF",
"FFFFFFi$&****==--=****&%@,FFFFFF",
"FFFFFFFbbjjjjjjjjjjjjjjbbFFFFFFF",
"FFFFFFFFFFFFFFFFFFFFFFFFFFFFFFFF",
"FFFFFFbbnzvxxvvvvxkhddyy:bFFFFFF",
"FFFFFFilhfdddaasupprrww97#FFFFFF",
"FFFFFFi666666666666666662OFFFFFF",
"FFFFFFF*6666666666666666+bFFFFFF",
"FFFFFFFj<66666666666666=iFFFFFFF",
"FFFFFFFFi66666666666663 FFFFFFFF",
"FFFFFFFFF;666666666666obFFFFFFFF",
"FFFFFFFFFj16666666666-iFFFFFFFFF",
"FFFFFFFFFFi6666666662.FFFFFFFFFF",
"FFFFFFFFFFF:66666666.bFFFFFFFFFF",
"FFFFFFFFFFFb1666666%iFFFFFFFFFFF",
"FFFFFFFFFFFFi36666<.FFFFFFFFFFFF",
"FFFFFFFFFFFFF>6664.bFFFFFFFFFFFF",
"FFFFFFFFFFFFFF$66XbFFFFFFFFFFFFF",
"FFFFFFFFFFFFFFb>OjFFFFFFFFFFFFFF"
};
