/* XPM */
static char * table_xpm[] = {
"32 32 34 1",
" 	c None",
".	c #8C8C8C",
"+	c #636363",
"@	c #5A5A5A",
"#	c #4A4A4A",
"$	c #424242",
"%	c #393939",
"&	c #292929",
"*	c #212121",
"=	c #313131",
"-	c #424239",
";	c #423939",
">	c #4A4239",
",	c #52524A",
"'	c #7B7B7B",
")	c #080808",
"!	c #101010",
"~	c #101018",
"{	c #213163",
"]	c #213173",
"^	c #18297B",
"/	c #10216B",
"(	c #081029",
"_	c #000000",
":	c #BEC9D1",
"<	c #101852",
"[	c #100808",
"}	c #080800",
"|	c #0019FF",
"1	c #080810",
"2	c #0098FF",
"3	c #524A42",
"4	c #525252",
"5	c #181818",
".++@##$$%%&&&&*****&*&&=%-;->,,'",
"#)!=%%%%$$%$$$$$$$$$%%==!~{]^/(#",
"#_:::::__::::::__:::::__::::::<$",
"$_:::::__::::::__:::::__::::::[$",
"$_:::::__::::::__:::::__::::::}$",
"%_____________________________!%",
"%!____________________________[%",
"=)|||||__||||||__|||||__||||||1=",
"&_|||||__||||||__|||||__||||||)=",
"&_|||||__||||||__|||||__||||||)&",
"&_|||||__||||||__|||||__||||||)*",
"&_____________________________!*",
"&!____________________________)*",
"&)22222__222222__22222__222222)*",
"*)22222__222222__22222__222222)*",
"&)22222__222222__22222__222222_*",
"*)22222__222222__22222__222222)*",
"&______________________________*",
"&)____________________________)*",
"=)|||||__||||||__|||||__||||||_&",
"%)|||||__||||||__|||||__||||||_=",
"%_|||||__||||||__|||||__||||||_=",
"%_|||||__||||||__|||||__||||||)%",
"$______________________________%",
"$______________________________$",
"3_22222__222222__22222__222222_$",
"#_22222__222222__22222__222222_$",
"4_22222__222222__22222__222222_#",
"@_22222__222222__22222__222222_@",
"@)22222__222222__22222__222222_@",
"+)))_)))!!)!!!!!!!)))__)!)_!)))@",
".$#%%%==&**5*555555*5***&&==%%%."};
