/* XPM */
static char *magick[] = {
/* columns rows colors chars-per-pixel */
"32 32 56 1",
"  c #101010101818",
". c #181818181818",
"X c #181818182121",
"o c Gray13",
"O c #212121212929",
"+ c Gray16",
"@ c #292929293131",
"# c #313131313131",
"$ c #313131313939",
"% c #393939393939",
"& c #393939394242",
"* c Gray26",
"= c #424242424a4a",
"- c Gray29",
"; c #4a4a4a4a5252",
": c Gray32",
"> c #525252525a5a",
", c #5a5a5a5a5a5a",
"< c #5a5a5a5a6363",
"1 c Gray39",
"2 c #636363636b6b",
"3 c Gray42",
"4 c #6b6b6b6b7373",
"5 c Gray45",
"6 c #737373737b7b",
"7 c #7b7b7b7b7b7b",
"8 c #7b7b7b7b8484",
"9 c #848484848484",
"0 c #848484848c8c",
"q c Gray55",
"w c #8c8c8c8c9494",
"e c Gray58",
"r c #949494949c9c",
"t c Gray61",
"y c #9c9c9c9ca5a5",
"u c #a5a5a5a5a5a5",
"i c #a5a5a5a5adad",
"p c Gray68",
"a c #adadadadb5b5",
"s c Gray71",
"d c Gray74",
"f c #bdbdbdbdc6c6",
"g c #c0c0c0c0c0c0",
"h c #c6c6c6c6c6c6",
"j c #c6c6c6c6cece",
"k c #cececececece",
"l c #cecececed6d6",
"z c Gray84",
"x c #d6d6d6d6dede",
"c c Gray87",
"v c #dedededee7e7",
"b c #e7e7e7e7e7e7",
"n c #efefefefefef",
"m c Gray97",
"M c Gray100",
"N c None",
/* pixels */
"NNNNNNNNNNNNNNNNNNNNNNNNNNNNNNNN",
"NNNNNNNNNNNNNNNNNNNNNNNNNNNNNNNN",
"NNNNNNNNNNNNNNNNNNNNNNNNNNNNNNNN",
"NNNNdewqwe0qq5weq9076qq99wpNNNNN",
"NNNduvcczzkkf:aclkje:zxkzi:sNNNN",
"NNNpdztew00qw,%wq0wq&>wqwq*8NNNN",
"NNftny00099896@,0889<+69891%sNNN",
"NNssb0q0998888=#99896@*0886$9NNN",
"Ndtna9998887781+,8787;+5877:&dNN",
"Nsymw8988778776&#87782+*8872+qNN",
"Ntbl89898877877<+:8776=+4776*&dN",
"dwMp888877767685*$7877<O*876,+eN",
"psme897788787777<#:6674*#5884%:f",
"qzl988887777878885wpw752;:>,>=@e",
"5di978787887888900tpdkvnbczzkt-&",
"4yu9878777787878898880etupadft=*",
"2ui08778787787878888988767766,@&",
"1tiq8877878777878797878888886>#%",
"<rie7878777878777877787777775:$%",
"<tie9787878777778778777878772-$#",
",eur887777676868676767676666<-##",
",wyr077878787776776767676765,=##",
"17ye977776766767676666666665>*#$",
"84rw076767667676666676565654:&+*",
"q1ew867666676666675656655562;&+;",
"e:0q966777667676666665665652-%o1",
"p&12111<<11<1<<1,<,1<<,<<,<:&$.7",
"s$oXoOO+@+++++++@+++++++OO+Oo. w",
"he351,:-=**&&%%%%%%$%$$%%**;,37d",
"NNNNNNNNNNNNNNNNNNNNNNNNNNNNNNNN",
"NNNNNNNNNNNNNNNNNNNNNNNNNNNNNNNN",
"NNNNNNNNNNNNNNNNNNNNNNNNNNNNNNNN"
};
