/* XPM */
static char *magick[] = {
/* columns rows colors chars-per-pixel */
"32 32 158 2",
"   c Gray0",
".  c #000000000808",
"X  c Gray3",
"o  c #080808081010",
"O  c #080808081818",
"+  c #101010101010",
"@  c #101010101818",
"#  c #181818181818",
"$  c #080808082121",
"%  c #101010102121",
"&  c #181818182121",
"*  c #181818182929",
"=  c Gray13",
"-  c #212121212929",
";  c Gray16",
":  c #212121213131",
">  c #292929293131",
",  c #292929293939",
"<  c #313131313131",
"1  c #313131313939",
"2  c #393939393939",
"3  c #313131314242",
"4  c #313131314a4a",
"5  c #393939394242",
"6  c Gray26",
"7  c #424242424a4a",
"8  c Gray29",
"9  c #4a4a4a4a5252",
"0  c #4a4a4a4a5a5a",
"q  c Gray32",
"w  c #525252525a5a",
"e  c #5a5a5a5a5a5a",
"r  c #525252526b6b",
"t  c #5a5a5a5a6363",
"y  c Gray39",
"u  c Gray42",
"i  c #636363637373",
"p  c #6b6b6b6b7373",
"a  c Gray45",
"s  c #7b7b7b7b7b7b",
"d  c #00000000efef",
"f  c Blue",
"g  c #08080808ffff",
"h  c #08081010ffff",
"j  c #10101010ffff",
"k  c #18181818f7f7",
"l  c #18181818ffff",
"z  c #21212121f7f7",
"x  c #21212929f7f7",
"c  c #29293131efef",
"v  c #29293131ffff",
"b  c #31313939e7e7",
"n  c #31313939efef",
"m  c #31313131f7f7",
"M  c #39393939f7f7",
"N  c #39393939ffff",
"B  c #39394242dede",
"V  c #31314242f7f7",
"C  c #39394a4affff",
"Z  c #7b7b7b7b8484",
"A  c #42424a4ad6d6",
"S  c #42424242f7f7",
"D  c #42424a4af7f7",
"F  c #4a4a5252e7e7",
"G  c #4a4a5252efef",
"H  c #42425252ffff",
"J  c #4a4a5a5affff",
"K  c #52525252efef",
"L  c #5a5a5a5aefef",
"P  c #52525a5af7f7",
"I  c #52526363ffff",
"U  c #5a5a6363f7f7",
"Y  c #5a5a6b6bffff",
"T  c #6b6b6b6bd6d6",
"R  c #6b6b6b6bdede",
"E  c #73737373d6d6",
"W  c #6b6b6b6be7e7",
"Q  c #6b6b6b6befef",
"!  c #6b6b6b6bf7f7",
"~  c #6b6b7373efef",
"^  c #6b6b7b7bffff",
"/  c #7b7b7b7befef",
"(  c #73737373f7f7",
")  c #7b7b8484e7e7",
"_  c #73738484ffff",
"`  c #7b7b8484f7f7",
"'  c #7b7b8484ffff",
"]  c #848484848484",
"[  c #848484848c8c",
"{  c Gray55",
"}  c #8c8c8c8c9494",
"|  c Gray58",
" . c #949494949c9c",
".. c Gray61",
"X. c #9c9c9c9ca5a5",
"o. c #a5a5a5a5a5a5",
"O. c #a5a5a5a5adad",
"+. c Gray68",
"@. c #a5a5a5a5b5b5",
"#. c #adadadadb5b5",
"$. c Gray71",
"%. c #b5b5b5b5bdbd",
"&. c Gray74",
"*. c #8c8c8c8ccece",
"=. c #84848484d6d6",
"-. c #8c8c8c8cd6d6",
";. c #8c8c9494cece",
":. c #94949494cece",
">. c #84848484efef",
",. c #8c8c8c8cefef",
"<. c #84848c8cf7f7",
"1. c #8c8c9494efef",
"2. c #8c8c9494f7f7",
"3. c #94949494efef",
"4. c #9c9c9c9cefef",
"5. c #94949c9cf7f7",
"6. c #9c9ca5a5f7f7",
"7. c #9c9ca5a5ffff",
"8. c #a5a5a5a5d6d6",
"9. c #bdbdbdbdc6c6",
"0. c #bdbdbdbddede",
"q. c #a5a5a5a5e7e7",
"w. c #a5a5a5a5efef",
"e. c #a5a5adadf7f7",
"r. c #a5a5adadffff",
"t. c #a5a5b5b5ffff",
"y. c #adadb5b5f7f7",
"u. c #b5b5b5b5e7e7",
"i. c #bdbdbdbde7e7",
"p. c #bdbdbdbdefef",
"a. c #c0c0c0c0c0c0",
"s. c #c6c6c6c6c6c6",
"d. c #cececececece",
"f. c #cecececedede",
"g. c Gray84",
"h. c #dedededed6d6",
"j. c Gray87",
"k. c #c6c6c6c6e7e7",
"l. c #c6c6cecee7e7",
"z. c #c6c6ceceefef",
"x. c #c6c6ceceffff",
"c. c #d6d6d6d6e7e7",
"v. c #dedededee7e7",
"b. c #dedededeefef",
"n. c #e7e7e7e7dede",
"m. c #efefefefdede",
"M. c #f7f7f7f7dede",
"N. c #e7e7e7e7e7e7",
"B. c #e7e7e7e7efef",
"V. c #efefe7e7e7e7",
"C. c #efefefefe7e7",
"Z. c #efefefefefef",
"A. c #f7f7f7f7e7e7",
"S. c #f7f7f7f7efef",
"D. c Gray97",
"F. c #fffffffff7f7",
"G. c Gray100",
"H. c None",
/* pixels */
"H.O.r 4 , - * % O O O O O O o O O O O o O O O O O @ - : 1 0  .&.",
"o.$ . # - < 2 5 5 6 6 6 8 8 8 9 8 8 8 8 7 6 6 6 5 5 1 > - .   { ",
"0   ] d.d.g.g.g.g.j.j.j.j.j.j.j.j.j.j.j.j.j.j.j.h.g.g.h.g.O.& > ",
": 1 g.{ +.N.N.N.N.N.j.j.j.j.N.j.j.j.N.j.j.j.n.j.v.N.C.%.s Z.Z @ ",
"& t {   { Z.j.j.j.j.N.N.N.j.j.N.j.N.j.N.N.n.v.N.n.N.j.< ; Z.+.O ",
"@ u {   | G.N.N.N.Z.Z.N.Z.Z.j.N.j.Z.D.N.j.v.N.Z.Z.N.Z.; < G.9.o ",
"& 5 6   2 s j.N.N.o.e 6 y +.N.N.N.s u d.N.N.j.Z a d.u + + u | & ",
"& ; #   # 6 j.N.e   = 8 #   ] Z.N.a   q Z.S.s   e j.6   X 2 ] * ",
"@ a |   { D.Z.]   u Z.Z.j.q   &.Z.N.q   +.9.  6 N.C.j.= 2 D.d.@ ",
"@ a |   ] D.N.2 X j.Z.N.Z.s.  a Z.Z.g.# = ; # d.Z.N.v.# 2 D.s.% ",
"@ a |   ] Z.j.=   < < < < <   8 N.N.Z.+.    o.Z.N.N.n.# 2 D.d.@ ",
"& a ..  ] D.j.# + q q q q q e { j.N.Z...    { Z.N.N.j.# 2 D.s.@ ",
"- a ..  s D.j.< # Z.D.Z.Z.Z.s.j.N.Z.s.+ 2 8   $.Z.N.j.+ 6 G.s.@ ",
"- a +.  a G.Z.u   ] D.Z.D.{   ] Z.j.< X s.g.+ ; g.Z.j.= 2 G.9.# ",
"- u s.  # e g.j.=   e | y   = g.Z.u   s Z.D.]   q Z.N.2   8 [ - ",
": y N.] ; # $.Z.g.u = X # y d.Z.d.6 e j.N.N.N.y 6 s.Z.+.6 ; p ; ",
": y v.Z.j.j.N.N.N.Z.N.h.j.Z.N.N.j.N.N.N.j.N.N.N.N.j.N.Z.Z.D.$.* ",
"> t j.n.N.N.n.n.m.N.N.N.C.m.N.n.N.n.C.m.M.m.m.A.C.C.N.N.N.D.$.* ",
"1 e j.v.n.v.z.u.e.6.2.2.2.4.i.n.N.i.4.,./ ! ( / 3.i.N.n.N.D.#.- ",
"1 q j.n.b.r.^ J C D D V V C H U M f f f f f f f f f M i.C.D.+.- ",
"1 w j.B.7.b A E *.;.:.-.=.T b f f f z M G K G M z f f k d.F.o.> ",
"5 q n.x.G *.n.m.C.C.C.C.m.M.L f h / n.n.N.m.V.n.v.u.K f W F.X.> ",
"3 8 j.7.) n.N.j.N.j.N.N.N.N.m z I ` A.N.N.N.N.N.n.A.C.l S D.o.> ",
"7 6 h.t.<.n.n.N.n.N.N.N.n.N.N n ! 1.M.n.N.N.n.N.M.C.w.f G F...> ",
"9 5 g.y._ 3.c.v.N.N.n.N.N.C.( J v L p.l.v.c.c.k.4.P f f 4.F.} 1 ",
"9 2 h.k.~ Y ^ 2.2.5.6.2.<.' J x d d f f g j g f f f f Q m.D.{ 5 ",
"0 < d.m.0.R F D D D D V c c B *.>.M j f f f f j z K q.C.N.D.Z 5 ",
"y - d.N.N.n.f.8.;.=.=.;.8.0.n.C.C.N.v.l.i.u.k.v.v.C.C.N.N.G.p 7 ",
"p @ &.Z.N.N.N.C.A.C.A.S.A.C.N.N.C.N.C.C.C.A.C.C.N.C.N.N.Z.G.0 q ",
"[   } G.G.G.G.G.G.G.G.G.G.G.G.G.G.G.G.G.G.G.G.G.G.G.G.G.G.g.@ u ",
"$.@ @ i | O.#.&.&.&.&.&.&.&.&.&.&.%.%.%.#.#.#.@.O.O. .[ p : o +.",
"H.o.2 # O o o O o O o O O o O O O o O o @ O @ @ @ @ & - ; 7 o.H."
};
