/* XPM */
static char *magick[] = {
/* columns rows colors chars-per-pixel */
"32 32 65 1",
"  c Gray0",
". c Gray3",
"X c #080808081010",
"o c #080808081818",
"O c #101010101010",
"+ c #101010101818",
"@ c #181818181818",
"# c #181818182121",
"$ c Gray13",
"% c #212121212929",
"& c Gray16",
"* c #212121213131",
"= c #292929293131",
"- c #313131313131",
"; c #313131313939",
": c #393939393939",
"> c #313131314242",
", c #393939394242",
"< c Gray26",
"1 c #424242424a4a",
"2 c #4a4a4a4a4242",
"3 c Gray29",
"4 c #4a4a4a4a5252",
"5 c #525252524a4a",
"6 c Gray32",
"7 c #525252525a5a",
"8 c #5a5a5a5a5a5a",
"9 c #525252526363",
"0 c #5a5a5a5a6363",
"q c Gray39",
"w c #636363636b6b",
"e c Gray42",
"r c #6b6b6b6b7373",
"t c Gray45",
"y c #7b7b7b7b7373",
"u c #7b7b7b7b7b7b",
"i c #7b7b7b7b8484",
"p c #848484848484",
"a c #848484848c8c",
"s c Gray55",
"d c #8c8c8c8c9494",
"f c #949494948c8c",
"g c Gray58",
"h c #949494949c9c",
"j c Gray61",
"k c #9c9c9c9ca5a5",
"l c #a5a5a5a5a5a5",
"z c #a5a5a5a5adad",
"x c Gray68",
"c c #adadadadb5b5",
"v c Gray71",
"b c #b5b5b5b5bdbd",
"n c Gray74",
"m c #c0c0c0c0c0c0",
"M c #c6c6c6c6c6c6",
"N c #cececececece",
"B c #cecececed6d6",
"V c Gray84",
"C c Gray87",
"Z c #e7e7e7e7e7e7",
"A c #efefefefefef",
"S c #f7f7f7f7efef",
"D c Gray97",
"F c Gray100",
"G c None",
/* pixels */
"Gz9>=%#+oXXXXXXXXXXXXXXXo+$%;4gn",
"lo +$--::,<<<2333321<<<<:;-&#. a",
"4 uNNNBNVVVVVVVVVVVVVVVVVVNVNl@=",
"*-NplZCCCCCCCCCCCCCCVCCCCCZvyZuO",
"#7s sZCCCVCCVCVCVCVCCCCCCCV&&AkX",
"Oes sDCCCZZZZZCCCZACCCCZACA&-FbO",
"+:: :uVCCj8:qlZCCueMCCCutMeOOes@",
"#&@ @<VZ8 $3@ uZZt 6ZAu 8V: .-p#",
"Ors pAZp qZZV3.vZC3 xn :CZC@:DM+",
"+rf pAC:.VZCAM eAZN@$&OMZCC@:AM+",
"+eg uAV$ ----- 3CCAl  jACCC@-AM+",
"#eg uAV@O666668pCCZj  pACCCO<An+",
"$tj uAC&@ZAZZZMVCZM.:< vACVO<Dn+",
"$el tDZe pAAAp uAV-.MNO$VZC@:Dn@",
"%en @8NV$ 8sq $NZe tAAp 6ZC: 3p$",
"%qCp&@vZNe$.@8MAM<6CCCCq:MZx<&r&",
"%8CZVVCCZZCVVAZCVCZCCCCZCCCZZAc#",
"=8CCCCCCCCCCCCCCCCCCCCCCCCCCCSx#",
"-6VCCCCCCCCCCCCCCCCCCCCCCCCCCAx%",
";6VCCCCCCCCCCCCCCCCCCCCCCCCCZAl%",
";5VCCCCCCCCCCCCCCCCCCCCCCCCCCAk&",
";3VCCCCCCCCCCCCCCCCCCCCCCCCCZAj=",
",2VCCCCCCCCCCCCCCCCCCCCCCCCCCAh=",
",<VCCCCCCCCCCCCCCCCCCCCCCCCCCSh&",
"4:BCCCCCCCCCCCCCCCCCCCCCCCCCZAd;",
"3;NCCCCCCCCCCCCCCCCCCCCCCCCCCAa:",
"4&NCCCCCCCCCCCCCCCCCCCCCCCCCZDu,",
"0$MCCCCCCCCCCCZCZCZCCCCZCZCZCSe,",
"rOnZCZCZCZZCZZCZCZCZCZZCCCZCZD46",
"i sFFFFFFDFDDFFFFFFFFFDFFFFFFV+e",
"v+Owskxvbvbnbvvvvcccczxzzkdar%.x",
"Gl;@XXXXXOXXXOXXXXXXXOoOO+@$&<lG"
};
