/* XPM */
static char *magick[] = {
/* columns rows colors chars-per-pixel */
"32 32 85 1",
"  c #181818181818",
". c #313131313131",
"X c #313131313939",
"o c #393939393939",
"O c #5a5a29290000",
"+ c #636331310808",
"@ c #636331311010",
"# c #737331310000",
"$ c #7b7b39390000",
"% c #6b6b42422929",
"& c Gray26",
"* c Gray29",
"= c #4a4a4a4a5252",
"- c Gray32",
"; c #5a5a5a5a5a5a",
": c #737352524242",
"> c #73735a5a4a4a",
", c Gray39",
"< c Gray42",
"1 c #6b6b6b6b7373",
"2 c #7b7b6b6b6363",
"3 c Gray45",
"4 c #7b7b7b7b7b7b",
"5 c #73737b7b8484",
"6 c #7b7b7b7b8484",
"7 c #7b7b7b7b8c8c",
"8 c #7b7b84848c8c",
"9 c #848439390000",
"0 c #8c8c5a5a3939",
"q c #9c9c5a5a2929",
"w c #a5a54a4a0000",
"e c #b5b552520808",
"r c #84847b7b7373",
"t c #c6c65a5a0808",
"y c #cece63631010",
"u c #d6d673732121",
"i c #d6d67b7b3131",
"p c #8c8c84847b7b",
"a c #adad94947b7b",
"s c #b5b594947373",
"d c #b5b594947b7b",
"f c #cece8c8c5a5a",
"g c #c6c694945a5a",
"h c #d6d68c8c4242",
"j c #848484848484",
"k c Gray55",
"l c #8c8c8c8c9494",
"z c #8c8c94949494",
"x c #94948c8c8c8c",
"c c Gray58",
"v c #949494949c9c",
"b c #94949c9c9494",
"n c #94949c9c9c9c",
"m c #9c9c9c9c9494",
"M c Gray61",
"N c #94949c9ca5a5",
"B c #a5a59c9c8c8c",
"V c #adad9c9c8c8c",
"C c #a5a5a5a59c9c",
"Z c #a5a5a5a5a5a5",
"A c #a5a5adadadad",
"S c #adada5a5a5a5",
"D c Gray68",
"F c #a5a5adadb5b5",
"G c #adadb5b5bdbd",
"H c Gray71",
"J c #b5b5b5b5bdbd",
"K c Gray74",
"L c #b5b5c6c6cece",
"P c #c0c0c0c0c0c0",
"I c #c6c6c6c6c6c6",
"U c #cececececece",
"Y c #c6c6ceced6d6",
"T c Gray84",
"R c Gray87",
"E c #ceced6d6e7e7",
"W c #d6d6dedeefef",
"Q c #e7e7deded6d6",
"! c #e7e7e7e7e7e7",
"~ c #efefefefefef",
"^ c #e7e7f7f7ffff",
"/ c #efeff7f7ffff",
"( c Gray97",
") c Gray100",
"_ c None",
/* pixels */
"________________________________",
"________________________________",
"________________________________",
"_____KZMZZZZZDZDZDZZZZZZMMH_____",
"____DIR!R!RRRRTTTTUTUUIIHDcM____",
"___HK))))))))((~~!!RRUIKKDZ<D___",
"___MK~!TUIIIIIIIIKKKHDDZMMc,3___",
"___cDIIHHHDZZZDDADZMZZMZMMc<;___",
"___MDHHDZZZJTEF87lMZMMMMMck<-___",
"___MDHDDZZMG^/E856cMCMMccck<-___",
"___MZDDZZNCMJ^/Y858vMMcMcck<*___",
"___kDDZZZCMMcY^/L568cMccckk<*___",
"___kZDZZMMMMMcE^^G786bmcccj<&___",
"___kDDZZMMMMMbfQ/^5o=Mccckj<*___",
"___kZZZZMMMMnVy0WWX 1MMcckk<&___",
"___kZDZZMMMMNfeOSNo<cMccckj<*___",
"___kDZZZMMMvmi9:nkcMMcccckj<&___",
"___MZZZMMMmndy+rMMMcccMcckj<&___",
"___MZZZMMMMNhw%cncccMcccccj<&___",
"___MZZZMMMvBu#2NcMcMccccckj<&___",
"___cZZZMMMnge@xMcccccccckkj<&___",
"___cZZMMMvMi$>NcmcMcccccckj<*___",
"___kMZMMMvst+pMccccccccckkj,*___",
"___cMZMMcvaq:cccccckcckckkj,*___",
"___ccZcccczlzczkkckckkkkkkj;-___",
"___ZkMccckkkkkkkkjkkkkkkkkj-,___",
"___K4ckkjjjjj444444444j4j43oM___",
"____M;;;;,;;;;;;;;;;;;;--*o<K___",
"_____Z<*&oo.o......o.oo&*;cK____",
"________________________________",
"________________________________",
"________________________________"
};
