/* XPM */
static char *magick[] = {
/* columns rows colors chars-per-pixel */
"32 32 13 1",
"  c #767676767676",
". c Gray49",
"X c Gray53",
"o c Gray56",
"O c #979797979797",
"+ c #9f9f9f9f9f9f",
"@ c #a7a7a7a7a7a7",
"# c #afafafafafaf",
"$ c #b7b7b7b7b7b7",
"% c Gray75",
"& c #c0c0c0c0c0c0",
"* c #c5c5c5c5c5c5",
"= c None",
/* pixels */
"===========%%%%*%$$%%===========",
"===========%%%%%$##%%===========",
"===========%%$$$@@$%%===========",
"==========%*%$#@@+#%*%==========",
"=========*%%%$##+@#%%%*=========",
"=========%%%$$##@@##%%%=========",
"========%*%$$$##@++@$%*%========",
"=========%%$#@@@@Oo+#%%=========",
"=========*%$#+++Ooo@#%%=========",
"====%*%%%%%%$@+OooO#%%%%*%*%====",
"===%%%%%%%%%$#+ooO#$%%*%%%%%%===",
"%%%*%%%%%%*%%$#+O@#%%%%%%%%%%*%%",
"%%%%%%$$$%%%%$#@+@#$%%%%%%%%%%%%",
"%%%%%$$$#$$$$@@#@++@$%%**%$%%%$$",
"$%$%$%$$#@###@#%$Oo+#%**%$$$$##@",
"$$$$$$##@++@+@$*$+Xo@#$$#@@@#@+X",
"@#@@@@@++oO++O@#@o.XO@@@+++++OX.",
"@++++++OooO@+OooX..o+@OOoOO++Ooo",
"##@##@OXoO@#@OX....O@#+OoO+#@#@@",
"%$$%$#+O+#$$$@Oo.XO@$$#@OO#$%$$%",
"%%%%%$#@#$%%%$@+++@$%%%$##$%%%%%",
"%%*%%%$%%%%%%%%$#@$$%%%%%$%%%%%%",
"====%%%%%%%*%%%%#@@$%%%%%%%%%===",
"=====%%%%%*%%**$@++#$%%%%%%%====",
"=========%%%%%%#@OO+#%%%========",
"=========%%%$$#@OOO+#%%*========",
"=========%%%%$@+OO+#$%%%========",
"=========%%%%$#+OO@$%%%%========",
"==========%%%$#+OO#$%%%=========",
"===========%%$@OoO@%%%==========",
"===========%%$@oXo@$%%==========",
"===========%%#+. X@%%%=========="
};
