/* XPM */
static char *magick[] = {
/* columns rows colors chars-per-pixel */
"32 32 19 1",
"  c #373737373737",
". c #3f3f3f3f3f3f",
"X c Gray28",
"o c Gray31",
"O c Gray34",
"+ c #5f5f5f5f5f5f",
"@ c #676767676767",
"# c #6f6f6f6f6f6f",
"$ c #777777777777",
"% c Gray",
"& c Gray53",
"* c #8e8e8e8e8e8e",
"= c #979797979797",
"- c #9f9f9f9f9f9f",
"; c #a4a4a4a4a4a4",
": c Gray68",
"> c #b6b6b6b6b6b6",
", c #c0c0c0c0c0c0",
"< c None",
/* pixels */
"<<<<<<<<<<<<<<<<<<<<<<<<<<<<<<<<",
"<<<<<<<<<<<<<<<<<<<<<<<<<<<<<<<<",
"<<<<<<<<<<<<<<<<<<<<<<<<<<<<<<<<",
"<<<<<<<<<<<<<<<<<<<<<<<<<<<<<<<<",
"<<<<<<<<<<<<<<<<<<<<<<<<<<<<<<<<",
"><<><<><<><<><<<><<><<><<><<><<>",
"<><>>>>>>>>>>>><<>>>>>>>>>>>>><<",
">>>:::::::;::>>>>>:;;;;;-;;;:>>>",
">:;-====***&*=;::-&&%%$%$$$%&*-:",
";-----=-==*%$$&*=&$#####@@@++@$=",
"=*=------=*&$##$$$####$##@+OOoO#",
"%&&&*****&%%##@@@@@++++++OOoXXXo",
"$$$$$$$$$$$###@+++++OooXXXXXX...",
"$$#$##########@@@++@+oXXXXX...  ",
"$##########@###@@@++#+oX..X...  ",
"$$###@##@#@##@##@++#$$OXX....   ",
"$########@#@##@@#@@#&%+X.X....  ",
"%$###@#@#@#@@@#@@+@$&$+oX.X...  ",
"%$##@#@#@#@##@@@+@#%$#OXX..X.   ",
"&$##@#@@#@#@@@@++#$$#OoX.X....  ",
"*%##@@@@@@@@@@++#$$@OoXX...X....",
"-&#@@@@@@@@@@+@$%%#OooXX.X....o+",
":=%$##@#@@#@@#%*=&#OooXXoXXXXO@&",
">:=*&%%%%%%%&*-:;=%#@@@@@@@@#$*;",
">>>;;;;;;;;;;:>>>:--=========-:>",
"<>>>>>>>>>>>>><><>>>>>>>>>>>>>><",
"<<<<<<<<<><<<<<<<<<<><><>>>><<<>",
"<<<<<<<<<<<<<<<<<<<<<<<<<<<<<<<<",
"<<<<<<<<<<<<<<<<<<<<<<<<<<<<<<<<",
"<<<<<<<<<<<<<<<<<<<<<<<<<<<<<<<<",
"<<<<<<<<<<<<<<<<<<<<<<<<<<<<<<<<",
"<<<<<<<<<<<<<<<<<<<<<<<<<<<<<<<<"
};
