/* XPM */
static char *magick[] = {
/* columns rows colors chars-per-pixel */
"32 32 11 1",
"  c Gray53",
". c Gray56",
"X c #979797979797",
"o c #9f9f9f9f9f9f",
"O c #a7a7a7a7a7a7",
"+ c #afafafafafaf",
"@ c #b7b7b7b7b7b7",
"# c Gray75",
"$ c #c0c0c0c0c0c0",
"% c Gray78",
"& c None",
/* pixels */
"&&###@#@OXX+@##&&&###@@@OXX+##&&",
"&&##@@#@O..O###&&&##@@#+O.XO@##&",
"#####@@@OXXO@#%######@@@O..+##%#",
"#%###@#@O..O#####%##@@@@O.XO@###",
"#######@OXXO@########@#@OXX+@###",
"#%#%####+oo+#%#%#%#####@Ooo@##%#",
"#%%%%%%#++@#%%%%%%%%%%##++@#%%#%",
"##%%%%##@@##%#%#%#%%####@@######",
"+O+O+O+@@++O++++++O++++@++O+O+OO",
"X....XO+Oo...........oO+Oo......",
"...  XO+O.   ........XO+O.   ...",
"+OOoOO+@+X .oOOOOOOOOO@@O. XoOOO",
"@@@@@+@@+. o+@@@@@@@@@@@O..O@@@#",
"####@@#@+X.o@#######@@@@OX.O@###",
"#####@@@OX.O@########@@@O.XO###%",
"&&###@#@+X.o@##&&&##@@#@OX.O@##&",
"&&###@#@+X.o@##&&&###@@@O.XO###&",
"&&###@@@+X.o@##&&&##@@@@OX.O@##&",
"#######@+X.o@########@#@O..O####",
"#####@@@+X.o@#######@@@@OX.O@###",
"####@##@+o.o+#######@@@@OXXO@###",
"########+Oo+@##########@+oo+####",
"@##%%#%#@++##%#%%%%%%#%#@++##%#%",
"@@%######@@############@@@@####@",
"+OOOOO++@+OOOOOOOOoOOO+@++oOoOoO",
"OXX...oO+o. .........Xo++X......",
"Oo....o+Oo   ........XO+OX  ...X",
"@+OOOO+@+X .oOO+O+O+OO@@O. XOO++",
"##@#@@@@+o.X+@#@#@@@@@@@+X.o@@@#",
"#####@@@+o.o+########@@@OX.O@###",
"&&###@@@+o.o+##&&&##@@#@OX.O###&",
"&&#%#@@@+oXo+##&&&###@@@OXXO@##&"
};
