/* XPM */
static char *magick[] = {
/* columns rows colors chars-per-pixel */
"32 32 31 1",
"  c #0e0e0e0e0e0e",
". c #151515151515",
"X c Gray12",
"o c #272727272727",
"O c #2f2f2f2f2f2f",
"+ c #373737373737",
"@ c #3f3f3f3f3f3f",
"# c #464646464646",
"$ c Gray31",
"% c #565656565656",
"& c #5d5d5d5d5d5d",
"* c Gray40",
"= c #6f6f6f6f6f6f",
"- c Gray46",
"; c Gray",
": c #818181818181",
"> c Gray56",
", c #959595959595",
"< c #9f9f9f9f9f9f",
"1 c #a7a7a7a7a7a7",
"2 c #afafafafafaf",
"3 c #b7b7b7b7b7b7",
"4 c Gray75",
"5 c #c0c0c0c0c0c0",
"6 c #c6c6c6c6c6c6",
"7 c #cececececece",
"8 c Gray84",
"9 c #dddddddddddd",
"0 c #e6e6e6e6e6e6",
"q c Gray93",
"w c None",
/* pixels */
"33233233233344wwwwwwwwwwwwwwwwww",
"::::::::::>,134wwwwwwwwwwwwwwwww",
"@#$$$%$%$$#%;134wwwwwwwwwwwwwwww",
".o#%&&&&%#Oo$-134wwwwwwwwwwwwwww",
" @;123321;@Xo$;<34wwwwwwwwwwwwww",
".#<8000q81$oO+$;134444444wwwwwww",
".$20qqqq02%@$#@$;<23333344wwwwww",
".$18643682&#&%+O$->>>>><244wwwww",
".$14>==,41*@##++@%&*&&&*:134wwww",
".$13,==>44;%@@%&*=-==&##&:144www",
".$173113762;%&>234342>%+#*:144ww",
".$1741<121<;%*29qqq092*@#$*:144w",
".$13>=&*&*&$#=30qqqq03=%*%$*:134",
".$14>=*&*&&$#*38633683=&=*##&:24",
".$1731<<<<,-&=24>-=,43-%%%#+#=<3",
".$1741<<<<,-&=24>==>64,-==*%#&>3",
".$13>=&*&&&%#=3741137742121:&&,3",
".$<4>=*&*&&$#*3741<1221<1362=*>3",
".#<431<<<<,;%=24>=&*&&&*=>42=*>3",
" +-<<<<<<<,-%=24>=**&***=>42=*>3",
".o#%&&&&&%%$#=3731<<<<<<1473=*>3",
"@#$$$$$$$$$#@*3741<<<<<<1373=*,3",
"::::::::::;*$=24>=&*&&*&=>42=*>3",
"33333333332:&=24>=**&*&*=>42=*>3",
"44444444442,*=1631<<1<1<1361=*>3",
"wwwwwwwww43>&&>121111111121>&&>3",
"wwwwwwwww43,&$&====-===-===&$*,3",
"wwwwwwwww43<-&&&**********&&&-<3",
"wwwwwwwww442<,,,>,>>>,>>>,,>,<24",
"wwwwwwwwww4433333333333333333344",
"wwwwwwwwwww44444444444444444444w",
"wwwwwwwwwwwwwwwwwwwwwwwwwwwwwwww"
};
