/* XPM */
static char *magick[] = {
/* columns rows colors chars-per-pixel */
"32 32 17 1",
"  c #5b5b5b5b5b5b",
". c #676767676767",
"X c #6f6f6f6f6f6f",
"o c #777777777777",
"O c Gray50",
"+ c Gray53",
"@ c #8e8e8e8e8e8e",
"# c Gray59",
"$ c #9f9f9f9f9f9f",
"% c #a7a7a7a7a7a7",
"& c #acacacacacac",
"* c Gray71",
"= c Gray75",
"- c #c0c0c0c0c0c0",
"; c Gray78",
": c #cdcdcdcdcdcd",
"> c None",
/* pixels */
">>>>>>;=;;;;;;;;;;;;;;;;;=>>>>>>",
">>>>>>===;;;;;:;;;;;:;;==;>>>>>>",
">>>>>>;=;;::::::::::::;;;=>>>>>>",
">>>>>>=;==;;;;;;;;;;;;;===>>>>>>",
">>>>>>===**************===>>>>>>",
">>>>>>==*%$$$$$$$$$$$$%*==>>>>>>",
">>>>>>==&#+OOOOOOOOOO+#&==>>>>>>",
">>>>>>=*%+oooXoXoXoXoo+%==>>>>>>",
">>>>>>;=&#+OOOOOOOOOO+#&*;>>>>>>",
">>>>>>==*&%%%%%%%%%%%%&*==>>>>>>",
">>>>>>>==*=****=**=***===>>>>>>>",
">>>>>>=;==;=;;;;=;==;;==;=>>>>>>",
">>>>>>;==;;;;;;;;;;;;;;===>>>>>>",
">>>>>>==;;;;:::;;;;:;;;=;=>>>>>>",
">>>>>>=;=;:::;:;:::;;;;==;>>>>>>",
">>>>>>==;====;=;====;=====>>>>>>",
">>>>>>==**&&&&&&&&&&&&**==>>>>>>",
">>>>>>==*$##@#@#@#@#@#$*==>>>>>>",
">>>>>>=*&#OOoOoOoOOoOO#&==>>>>>>",
">>>>>>==&@OoOoooooooOO#&==>>>>>>",
">>>>>>;=&%#@#@#@###@##%*==>>>>>>",
">>>>>>===*&&*&*&&&*&&**==>>>>>>>",
">>>>>>===================;>>>>>>",
">>>>>>;==;;;;;;;;;;;;;;;==>>>>>>",
">>>>>>==;;;;=;;=;;=;;=;===>>>>>>",
">>>>>>==;;;;;;;:;;:;;;;;=;>>>>>>",
">>>>>>;===;:;:;;;;;;:;;===>>>>>>",
">>>>>>====*=*=*=====*=*===>>>>>>",
">>>>>>==*%%$%$%$$$$$%%&*==>>>>>>",
">>>>>>==&#@+++++++++++$&==>>>>>>",
">>>>>>==%+XXXX.XXXXXXX+%==>>>>>>",
">>>>>>=*$O.          .o%*=>>>>>>"
};
