/* XPM */
static char *magick[] = {
/* columns rows colors chars-per-pixel */
"32 32 16 1",
"  c #565656565656",
". c #5f5f5f5f5f5f",
"X c #676767676767",
"o c #6f6f6f6f6f6f",
"O c #777777777777",
"+ c Gray50",
"@ c Gray53",
"# c Gray56",
"$ c #979797979797",
"% c #9f9f9f9f9f9f",
"& c #a7a7a7a7a7a7",
"* c #afafafafafaf",
"= c #b7b7b7b7b7b7",
"- c Gray75",
"; c Gray78",
": c #cdcdcdcdcdcd",
/* pixels */
";;;;;:;:;:;:;;----;;:;:;:;:;;;;;",
"-;;::;:::::::;----;;:::::;:::;;-",
";;;:;;;;;::::;----;::::::;;;::;;",
"--;-=**--;;;;------;;;;;-==-;;;-",
"-=*&%##$**==*=======*==*&&&&***-",
"=%$@OOO+#$$$%%&==*%%$%%%$##@@#&*",
"*$OoXXXoOO+++#%*=%#@++@##@OXXO#*",
"*@oX.XXXXXoXO+%**%@OoO+@@oX .o#&",
"*$@+OooXXX.Xo@%==&@+O+@@oXXoO@$*",
"=*&%$#OoXXXo+$&==*%#@@+OXo@$%&*=",
"--===&$+XXXoO#&==*&$#@OXO#%*==--",
"-----=&$OoXoo+#&&&$$@oXo#&=-----",
";-;;;;-*$+oXXo+#$%$@ooO#*=;;;;-;",
"-;;;;;;-*%@oooo+##+ooO$*-;;;;;;-",
"-;;;:;;;-=%@oXoO@+oXO$*-;;;;;;;;",
";--;---;--*#+OOOOoXX@&=-;-;-;---",
"-********&&$@@+OoX.o@%*********-",
"=%$#$$#$#$###@OXXXXoO@##$#$#$$%*",
"*$+++O+O++@#@OoXXXXXooOOOOO+++#*",
"*#+OOOOoO+@@OooO+OoXXXXXXOOOO+#*",
"=%$###@++@@Ooo+$%@OoXXXXo+@##$%=",
"-=**&%$$#@OXo@%*=&#OoXXXO#%&**=-",
"--==*&%#@OXo@%*-==&#OXXoo+#&*=--",
"--=*&%$@OXo@&=---==&#OoXoO+$&=--",
"--=&%#@OXO#&--------*$OoXoo@$=--",
";--&%@oXO#*-;;----;;-*$+oXoO$*-;",
"-;-*$+XO#*-;;;----;;;;*$+oo+%=-;",
"-==*$OO@%*=--===-===-==&#OO#%=--",
"=*&$#++#$&&&%&*==*&&&%%%#@@#%%*=",
"*$@@@++@@@@@##%=*&#@@@@@+++@@@$*",
"&@OooooXooooo+$**$+ooooooooooO@&",
"%+.. . ...  .o#**$O.  .   . ..+&"
};
