/* XPM */
static char *magick[] = {
/* columns rows colors chars-per-pixel */
"32 32 27 1",
"  c #373737373737",
". c #3f3f3f3f3f3f",
"X c #464646464646",
"o c #4e4e4e4e4e4e",
"O c Gray34",
"+ c #5f5f5f5f5f5f",
"@ c #676767676767",
"# c #6f6f6f6f6f6f",
"$ c #777777777777",
"% c Gray50",
"& c Gray53",
"* c Gray56",
"= c #979797979797",
"- c #9f9f9f9f9f9f",
"; c #a7a7a7a7a7a7",
": c #afafafafafaf",
"> c #b7b7b7b7b7b7",
", c Gray75",
"< c #c0c0c0c0c0c0",
"1 c Gray78",
"2 c Gray81",
"3 c #d7d7d7d7d7d7",
"4 c #dfdfdfdfdfdf",
"5 c #e7e7e7e7e7e7",
"6 c #efefefefefef",
"7 c Gray97",
"8 c None",
/* pixels */
"88888888888888888888888888888888",
"88888888888888888888888888888888",
"88888888888888888888888888888888",
"88888888888888888888888888888888",
"8888888,1,,,1,888888888888888888",
"8888881,,,,,,,,88,1,,,,1,8888888",
"88888,,,,1,,>,,,1,,,,,,,1,188888",
"8888,1,,11,>;:,,,,,,>,>>,,,,8888",
"8881,,11221;=;>,,,>>>::>>>,,1888",
"88,,,112331;&->>>,>,>>:;;:>,,,88",
"8,1,,123442-&=:,>,122,>;--;>,1,8",
"1,,,1235552;*=:>,245431:-**;>,,1",
",,,,1245663:=-:>2466652>-&&*:>,,",
"1,1,1345664,-;;,2577763>-&$%->,,",
"11,123456641:;;>2577752>-%@#=>,,",
",,,113455542,;;>1456641:*$++&;>,",
">::>,2344542,:-;>23431>-%@OO$=;:",
"::::>,233332,:--;>,,,:-&#OXo$=-;",
">>>:::,1121,,:=*=--;-=%#+XX+&;:>",
",,>>:;;:>::>>:-*%%&&%$#OX.X$->>,",
",,,>:==*===-;:;*$##@@Oo...@*:,,,",
"8,,,:-&%%$$&-::-%@OooX. .+&;>,,8",
"88,,>;*%@@+#*;>:-%@OoXoo#&;>,,88",
"881,,>;&$+O+%;>>:-*%$#$&=:>,1888",
"888,,,>;=%$$*:,,,>:;-;;:>,,,8888",
"8888,,,>>;--;>,,,,,,>>>,,,,88888",
"888888,,,>>>>,,88,,,,,,,,8888888",
"8888888,,,,,,,888888888888888888",
"88888888888888888888888888888888",
"88888888888888888888888888888888",
"88888888888888888888888888888888",
"88888888888888888888888888888888"
};
