/* XPM */
static char *magick[] = {
/* columns rows colors chars-per-pixel */
"32 32 31 1",
"  c #070707070707",
". c Gray6",
"X c Gray9",
"o c Gray12",
"O c #272727272727",
"+ c #2f2f2f2f2f2f",
"@ c #373737373737",
"# c #3e3e3e3e3e3e",
"$ c Gray28",
"% c Gray31",
"& c Gray34",
"* c #5f5f5f5f5f5f",
"= c #676767676767",
"- c #6f6f6f6f6f6f",
"; c #777777777777",
": c Gray50",
"> c #818181818181",
", c Gray56",
"< c #939393939393",
"1 c #9f9f9f9f9f9f",
"2 c #afafafafafaf",
"3 c #b6b6b6b6b6b6",
"4 c #bebebebebebe",
"5 c #c0c0c0c0c0c0",
"6 c Gray78",
"7 c Gray81",
"8 c #d3d3d3d3d3d3",
"9 c #dddddddddddd",
"0 c #e7e7e7e7e7e7",
"q c #efefefefefef",
"w c None",
/* pixels */
"wwwwwwww443333333344wwwwwwwwwwww",
"w444444431<>>>>>><144444444wwwww",
"443333321:&$$%$$$&:123333344wwww",
"41<>>>>:-$Oo+##+oO$-:>>>><134www",
"1:*%$$$#+oXO%;;%OXX+#$$$%*:144ww",
"-%++@@+OX.O%:,,:%OXXO+@@+@%:144w",
"+O@$&%$+o+%:>;;>:%Oo+$%&$@@*<34w",
"Xo$=-=$++%:1>==>1>%++%*-=$+$,34w",
".O%-;*@O#-<1<>><1<-#+@*;-&@$>24w",
" O&-;&@O$=>>::::>:=$O+&;-&@$>34w",
".O&;-*+O+#$$$$$$$$#+O@*-;&@$>24w",
" O&-;=$++@@@@@@@@@@++#*;-&@$>34w",
".O&;;-**&&&&%%%%%%%%&*---&@$>34w",
".O&;::;;;;--**&&*&*&&****$+$>34w",
" O&;;:::;:;=%$$%%%%%%%%$#+O$>24w",
".O&-::::::;=$#*==--=--=&#OO$>34w",
".O&;::;:::;*%&,24434432,%++$;144",
".O&-:::::;;=%=290qqqq092=#$$=>14",
" O&;::::::;*%-30qqq0qq03-&=&%=>1",
".O&;;:::::;=%-3974444793;&==$#*:",
".O&;:::;:;;*%-261>;;>163;&*&$@#$",
".O&-::::::;*%-261:;;:166,;--=%#+",
" O&;::::::;=%-376222248842122>%+",
".O%-;:;::;;*%=3842212233223462*+",
"Xo$=-;;-;--*$-261:;;;;;;;;:142=+",
"+O@$&&&&&*&$$=241:;;;;;;;;:162=+",
"-$@+@@@@@@@+@=1742221212122461*@",
"1:&$$$$$$$##@&<12221222122122,%+",
"31<,>>>>>>:-%$*----;---;--;--*$+",
"44333333322<-**=============**&&",
"w444444444421<,,,,,,,,,,,,,,,,,,",
"wwwwwwwwww4433333333333333333333"
};
