/* XPM */
static char *magick[] = {
/* columns rows colors chars-per-pixel */
"32 32 14 1",
"  c #676767676767",
". c #6d6d6d6d6d6d",
"X c #777777777777",
"o c Gray50",
"O c Gray53",
"+ c Gray56",
"@ c #979797979797",
"# c #9f9f9f9f9f9f",
"$ c #a7a7a7a7a7a7",
"% c #afafafafafaf",
"& c #b7b7b7b7b7b7",
"* c Gray75",
"= c Gray78",
"- c Gray81",
/* pixels */
"***=*==*==*==*******==*==*==*=**",
"====-==-==-===**&**=============",
"*=-----------=****=-----------==",
"===------=-===**&*==============",
"*******&**&**&&*&&&&******&*&*&*",
"&%$$$#$$$$$#$$%&&%$$$$#$$$$$#$%&",
"%#+OO+OOOOO+O+#%&$@+OO+OOOOOO+#%",
"%+ooXXXXXoXXXO@%%#OXXXXXXXXXXo+%",
"&@OooooooooooO#%&$+ooooooooooO@%",
"&%$#########$$%&&%$$###$####$#%&",
"*&&&&&&&&&&&&&&***&&&&&&&&&&&&&*",
"********************************",
"****=*=*=*=****&****=*=**=******",
"**=---=-=-=-==&***===-=-==-=-=*=",
"*=-----------=*&**=----------===",
"**==---=--=-=*&*&*=============*",
"**&**&&**&*&&&&&&&&&&*&&&&&&&&&*",
"&$$##$######$$$&&%$$##$$#$###$%&",
"%#++OOOOOOOOO+#%%$++OOOOOOOOO+#&",
"&@OooooooooooO#%&#+ooooooooooO@%",
"&$@++++++++++@$&&$#++++++++++@$%",
"*&%$$$$$$$$$$%&&*&%$$$$$$$$$%$&*",
"*&&&&&&&&&&&&&&**&*&&&&&&&&&&&&*",
"*&*&*&*&*&*&*&&****&********&***",
"***=========***&***===*==*===***",
"**=----------=&***==-------====*",
"*==----------=*&**=----------===",
"**==-==-=====*&&***===========**",
"*%&&&&&%&&&&%%%&&&%&%&%&%&&%&%&*",
"&$#@@@#@@@@#@#$&&$#@#@@@#@@#@#$&",
"%#OooooooooooO@%%#+oXoooXooXoO#%",
"&@X          X+$%@X          .+%"
};
