/* XPM */
static char *magick[] = {
/* columns rows colors chars-per-pixel */
"32 32 21 1",
"  c Gray34",
". c #5f5f5f5f5f5f",
"X c #676767676767",
"o c #6f6f6f6f6f6f",
"O c #777777777777",
"+ c Gray50",
"@ c Gray53",
"# c Gray56",
"$ c #979797979797",
"% c #9f9f9f9f9f9f",
"& c #a7a7a7a7a7a7",
"* c #afafafafafaf",
"= c #b7b7b7b7b7b7",
"- c Gray75",
"; c #c0c0c0c0c0c0",
": c Gray78",
"> c Gray81",
", c Gray84",
"< c #dfdfdfdfdfdf",
"1 c #e7e7e7e7e7e7",
"2 c None",
/* pixels */
"22222222222222222222222222222222",
"222222222-:---:-2222222222222222",
"22222222---------222222222222222",
"2222222:---====---22222222222222",
"222222:--====**=--22222222222222",
"2222:---===:::==--22222222222222",
"222----=-->,,>==--22222222222222",
"22:---=-:,<1<:=---222222-:---:-2",
"2---==-:<11<>=*=---:---:-------:",
":---==:<11<>-**=---------=------",
"--==-><11<:-=&%*=----====*=*=**=",
"-=*-><1<,--**%%%***=*==****=*%%$",
"==-><1<>-=**&%$$&***===--:--=%@+",
"*=><1<,-=*&&&%%%*=---::::::-&#oX",
"&-,<,>-=*&&&%&&**=------==*&$@X.",
"%->>:-*&&&%&%&%&&*****&&&&%$#O. ",
"$&===*&&&%&%&%%%$%$$%$%%$$$#@o. ",
"+@#$%%&%%%%%%%##@+@@@@#@#@@@+o. ",
"@+O+@#$%%%%%%$@OooooOoOOOOOOoX..",
"%@OoO+##$%$%%#+oooooooXXXXXXXX.X",
"=&@OooO@##$$$#@@##$#@+OOooooooO+",
"-=&#+oXo+@#$$$$%&=**&&%%$$$###$&",
"--=*$+oXo+@###%*=----=====***==-",
"---=*$+oXoO+@#$*----------------",
"2---=*%@OXooO+#*=-222-:---------",
"222:--*%#OXXXo#&--22222222222222",
"2222---=&#OXXo@*--22222222222222",
"22222---=&$@O@%*--22222222222222",
"222222----*&&&*=--22222222222222",
"22222222---===---222222222222222",
"222222222-------2222222222222222",
"22222222222222222222222222222222"
};
