/* XPM */
static char *magick[] = {
/* columns rows colors chars-per-pixel */
"32 32 19 1",
"  c #5f5f5f5f5f5f",
". c Gray40",
"X c #6f6f6f6f6f6f",
"o c #777777777777",
"O c Gray50",
"+ c Gray53",
"@ c Gray56",
"# c #979797979797",
"$ c #9f9f9f9f9f9f",
"% c #a7a7a7a7a7a7",
"& c #afafafafafaf",
"* c #b7b7b7b7b7b7",
"= c Gray75",
"- c #c0c0c0c0c0c0",
"; c Gray78",
": c Gray81",
"> c #d5d5d5d5d5d5",
", c gainsboro",
"< c None",
/* pixels */
"<<<<<<<<<<<<<<<<<<<<<<<<<<<<<<<<",
"<<<<<<<<<<<<<<<<=;===;=<<<<<<<<<",
"<<<<<<<<<<<<<<<=======;=<<<<<<<<",
"<<<<<<<<<<<<<<=;==**&**=;<<<<<<<",
"<<<<<<<<<<<<<<;==**&%%*===<<<<<<",
"<<<<<<<<<<<<<<=====*%$%&*=;=<<<<",
"<<<<<<<<<<<<<<====:;*$$$&*=;=<<<",
"<=;===;=<<<<<<==*=;:=*$#$%&==;<<",
";=======;===;====*;;;=&$##&&===<",
"======*=========***====&$$#%&*==",
"*****&*&***====*&&**====&%##$&==",
"%&***&&&&&****=**%&******&$@@$%*",
"$*:::;==*=*======*&&&*****&$@@#%",
"@*>,>:::;;;;;:::;=*&&&&**&&%$@++",
"@*:>::;;;;;;:;::;=*&&&&&&&&%$@oo",
"@&;;;==*=*****=***&&&&&&%%$$#+o.",
"@%==*&&&%%&%%%%%%%&&%&%%%$$@+X. ",
"O$&&%$$###@#@@@@#$%%%%%%$#@OX. .",
"O@##@++OOOOoooooO+$%%%%$#@OX. X+",
"+OOoXX.XXXoooooooO#$%$$#@o.  X+$",
"$@OoXXooO+@##$$$@@#$$$@+o.  X+%*",
"&%##@#$$%%&&****%$###@+X.  o@%*=",
"=**&*&****======*&$@+OX  .o#%*==",
"=================&#+oX  .O#&*===",
"<========<<<<<==*%+o.  XO#&====<",
"<<<<<<<<<<<<<<===%O.  X+%**==<<<",
"<<<<<<<<<<<<<<==*%O. o@%*=;=<<<<",
"<<<<<<<<<<<<<<;=*&@O+#%*===<<<<<",
"<<<<<<<<<<<<<<===*&%%&*==<<<<<<<",
"<<<<<<<<<<<<<<<===**====<<<<<<<<",
"<<<<<<<<<<<<<<<<=======<<<<<<<<<",
"<<<<<<<<<<<<<<<<<<<<<<<<<<<<<<<<"
};
