/* XPM */
static char *magick[] = {
/* columns rows colors chars-per-pixel */
"32 32 14 1",
"  c Gray12",
". c #272727272727",
"X c #2f2f2f2f2f2f",
"o c Gray21",
"O c #3e3e3e3e3e3e",
"+ c Gray28",
"@ c #4e4e4e4e4e4e",
"# c Gray34",
"$ c #5d5d5d5d5d5d",
"% c Gray40",
"& c #6d6d6d6d6d6d",
"* c #808080808080",
"= c #c0c0c0c0c0c0",
"- c None",
/* pixels */
"--------------------------------",
"--------------------------------",
"--------------------------------",
"--------------------------------",
"--------------------------------",
"--------------------------------",
"--------------------------------",
"--------------------------------",
"--------------***********-------",
"----*---------**%%%%%%%&**------",
"----***-----**%##$$$$$##$**-----",
"---*&***---**%#$*******$@#**----",
"---*%+%****&$#%**-----**%@#**---",
"---*#oO%**%@#%*---------*$@&*---",
"---*@X.o+++$***---------**#&*---",
"---*#X..XX+**------------*$%*---",
"---*$X   X+&-------------*%$*---",
"---*#X . .o#**-----------*$%*---",
"---*@X.  ..o&**---------**$&*---",
"---*$oXXXXXo@&*---------*&%*----",
"---**$@#@@###&*--------*&%&*----",
"----**********--------**%&*-----",
"----------------------****------",
"------------------------*-------",
"--------------------------------",
"--------------------------------",
"--------------------------------",
"--------------------------------",
"--------------------------------",
"--------------------------------",
"--------------------------------",
"--------------------------------"
};
