#define arrow_width 25
#define arrow_height 25
static unsigned char arrow_bits[] = {
 0x00,0x00,0x00,0x00,0x00,0x00,0x00,0x00,0x80,0x00,0x00,0x00,0x80,0x01,0x00,
 0x00,0x80,0x02,0x00,0x00,0x80,0x04,0x00,0x00,0x80,0x08,0x00,0x00,0x80,0x10,
 0x00,0x00,0x80,0x20,0x00,0x00,0x80,0x40,0x00,0x00,0x80,0x80,0x00,0x00,0x80,
 0x00,0x01,0x00,0x80,0x00,0x02,0x00,0x80,0xc0,0x07,0x00,0x80,0x48,0x00,0x00,
 0x80,0x4c,0x00,0x00,0x80,0x92,0x00,0x00,0x80,0x91,0x00,0x00,0x80,0x20,0x01,
 0x00,0x00,0x20,0x01,0x00,0x00,0x40,0x02,0x00,0x00,0x40,0x02,0x00,0x00,0x80,
 0x01,0x00,0x00,0x00,0x00,0x00,0x00,0x00,0x00,0x00 };
