#define hand_width 25
#define hand_height 25
static unsigned char hand_bits[] = {
 0x00,0x00,0x00,0x00,0x00,0x03,0x00,0x00,0x80,0x04,0x00,0x00,0x80,0x04,0x00,
 0x00,0x80,0x04,0x00,0x00,0x80,0x04,0x00,0x00,0x80,0x1c,0x00,0x00,0x80,0xe4,
 0x00,0x00,0x80,0x24,0x03,0x00,0x80,0x24,0x05,0x00,0xb8,0x24,0x09,0x00,0xc8,
 0x00,0x09,0x00,0x88,0x00,0x08,0x00,0x90,0x00,0x08,0x00,0xa0,0x00,0x08,0x00,
 0x20,0x00,0x08,0x00,0x40,0x00,0x08,0x00,0x40,0x00,0x04,0x00,0x80,0x00,0x04,
 0x00,0x80,0x00,0x04,0x00,0x00,0x01,0x02,0x00,0x00,0x01,0x02,0x00,0x00,0xff,
 0x03,0x00,0x00,0x00,0x00,0x00,0x00,0x00,0x00,0x00 };
