#define hsplit_width 25
#define hsplit_height 25
static unsigned char hsplit_bits[] = {
 0x00,0x00,0x00,0x00,0x00,0x00,0x00,0x00,0x00,0x00,0x00,0x00,0x00,0x08,0x00,
 0x00,0x00,0x1c,0x00,0x00,0x00,0x3e,0x00,0x00,0x00,0x08,0x00,0x00,0x00,0x08,
 0x00,0x00,0x00,0x08,0x00,0x00,0x00,0x08,0x00,0x00,0x00,0x08,0x00,0x00,0xf0,
 0xff,0x07,0x00,0x00,0x00,0x00,0x00,0x00,0x00,0x00,0x00,0xf0,0xff,0x07,0x00,
 0x00,0x08,0x00,0x00,0x00,0x08,0x00,0x00,0x00,0x08,0x00,0x00,0x00,0x08,0x00,
 0x00,0x00,0x08,0x00,0x00,0x00,0x3e,0x00,0x00,0x00,0x1c,0x00,0x00,0x00,0x08,
 0x00,0x00,0x00,0x00,0x00,0x00,0x00,0x00,0x00,0x00 };
