#define sizeall_width 25
#define sizeall_height 25
static unsigned char sizeall_bits[] = {
 0x00,0x00,0x00,0x00,0x00,0x00,0x00,0x00,0x00,0x00,0x00,0x00,0x00,0x10,0x00,
 0x00,0x00,0x38,0x00,0x00,0x00,0x7c,0x00,0x00,0x00,0xfe,0x00,0x00,0x00,0x10,
 0x00,0x00,0x00,0x10,0x00,0x00,0x40,0x10,0x04,0x00,0x60,0x10,0x0c,0x00,0x70,
 0x10,0x1c,0x00,0xf8,0xff,0x3f,0x00,0x70,0x10,0x1c,0x00,0x60,0x10,0x0c,0x00,
 0x40,0x10,0x04,0x00,0x00,0x10,0x00,0x00,0x00,0x10,0x00,0x00,0x00,0xfe,0x00,
 0x00,0x00,0x7c,0x00,0x00,0x00,0x38,0x00,0x00,0x00,0x10,0x00,0x00,0x00,0x00,
 0x00,0x00,0x00,0x00,0x00,0x00,0x00,0x00,0x00,0x00 };
