#define vsplit_width 25
#define vsplit_height 25
static unsigned char vsplit_bits[] = {
 0x00,0x00,0x00,0x00,0x00,0x00,0x00,0x00,0x00,0x00,0x00,0x00,0x00,0x00,0x00,
 0x00,0x00,0x00,0x00,0x00,0x00,0x24,0x00,0x00,0x00,0x24,0x00,0x00,0x00,0x24,
 0x00,0x00,0x00,0x24,0x00,0x00,0x00,0x24,0x00,0x00,0x10,0x24,0x08,0x00,0x18,
 0x24,0x18,0x00,0xfc,0xe7,0x3f,0x00,0x18,0x24,0x18,0x00,0x10,0x24,0x08,0x00,
 0x00,0x24,0x00,0x00,0x00,0x24,0x00,0x00,0x00,0x24,0x00,0x00,0x00,0x24,0x00,
 0x00,0x00,0x24,0x00,0x00,0x00,0x24,0x00,0x00,0x00,0x00,0x00,0x00,0x00,0x00,
 0x00,0x00,0x00,0x00,0x00,0x00,0x00,0x00,0x00,0x00 };
